<svg width="34" height="33" viewBox="0 0 34 33" fill="none" xmlns="http://www.w3.org/2000/svg">
<path d="M9.42986 5.1964L3.78467 9.56987C16.3731 5.15334 23.0574 13.669 23.1896 17.3054C25.0764 12.7917 23.8436 8.77516 21.704 5.69613C18.9165 1.68463 13.2915 2.2047 9.42986 5.1964Z" fill="#F8C5FF"/>
<path d="M26.9283 7.37673L21.1136 3.23124C28.9703 14.013 22.742 22.8677 19.298 24.0422C24.1639 24.5482 27.6548 22.2103 29.9867 19.2742C33.0248 15.449 30.9059 10.2125 26.9283 7.37673Z" fill="#DAF34F"/>
<path d="M29.9681 24.6452L32.353 17.9141C24.1501 28.4349 13.9232 24.8843 11.8461 21.8966C12.6989 26.7138 15.9074 29.4264 19.3719 30.8601C23.8856 32.728 28.3366 29.2497 29.9681 24.6452Z" fill="#D34757"/>
<path d="M14.5829 32.6156L21.7239 32.6592C9.09367 28.3637 9.09101 17.538 11.2315 14.5954C6.961 16.982 5.45173 20.9031 5.23453 24.6462C4.95154 29.5229 9.69813 32.5858 14.5829 32.6156Z" fill="#02B388"/>
<path d="M1.92473 20.9192L4.19909 27.6885C4.16683 14.3478 14.4068 10.8348 17.8844 11.9055C14.242 8.63965 10.0434 8.4834 6.4321 9.49171C1.72715 10.8054 0.368949 16.2887 1.92473 20.9192Z" fill="#3655E8"/>
<path d="M14.251 17.1482C14.251 16.7583 14.5304 16.4422 14.8751 16.4422H16.0332C16.2127 16.4422 16.4667 16.3013 16.4667 16.0982V15.3481C16.4667 14.9581 16.7462 14.6421 17.0908 14.6421L18.2489 14.6421C18.5936 14.6421 18.8729 14.9582 18.8729 15.3481V16.6582C18.8729 17.0482 18.5936 17.3643 18.2489 17.3644H17.0908C16.9113 17.3644 16.6572 17.5052 16.6572 17.7084V17.7383C16.6572 17.9415 16.9113 18.0824 17.0908 18.0824H18.2489C18.5936 18.0825 18.8729 18.3985 18.8729 18.7884V20.0986C18.8729 20.4885 18.5936 20.8047 18.2489 20.8047H17.0908C16.7462 20.8047 16.4667 20.4885 16.4667 20.0986L16.4667 19.5084C16.4667 19.3053 16.2127 19.1645 16.0332 19.1645H14.8751C14.5304 19.1645 14.251 18.8483 14.251 18.4584L14.251 17.1482Z" fill="black"/>
</svg>
