<svg width="16" height="24" viewBox="0 0 16 24" fill="none" xmlns="http://www.w3.org/2000/svg">
<path fill-rule="evenodd" clip-rule="evenodd" d="M15.6121 9.2758C15.2668 9.61386 14.7128 9.60796 14.3747 9.26264L8.875 3.64463L8.875 22.5C8.875 22.9832 8.48325 23.375 8 23.375C7.51675 23.375 7.125 22.9832 7.125 22.5L7.125 3.64463L1.62526 9.26264C1.28721 9.60796 0.733223 9.61386 0.387899 9.2758C0.0425736 8.93775 0.0366808 8.38376 0.374736 8.03843L7.37473 0.887898C7.53933 0.719761 7.76471 0.625 8 0.625C8.23529 0.625 8.46067 0.719761 8.62527 0.887898L15.6253 8.03844C15.9633 8.38376 15.9574 8.93775 15.6121 9.2758Z" fill="#34C759"/>
</svg>
