<svg width="64" height="15" viewBox="0 0 64 15" fill="none" xmlns="http://www.w3.org/2000/svg">
<path d="M54.756 7.03813L52.2405 7.19293C52.1975 6.97792 52.1051 6.78442 51.9632 6.61242C51.8212 6.43612 51.6342 6.29637 51.402 6.19316C51.1741 6.08566 50.901 6.03191 50.5828 6.03191C50.1571 6.03191 49.7981 6.12221 49.5057 6.30282C49.2133 6.47912 49.0671 6.71562 49.0671 7.01233C49.0671 7.24883 49.1617 7.44878 49.3509 7.61218C49.5401 7.77559 49.8647 7.90674 50.3248 8.00564L52.118 8.36684C53.0812 8.56465 53.7993 8.88285 54.2723 9.32146C54.7453 9.76006 54.9818 10.3363 54.9818 11.0501C54.9818 11.6994 54.7904 12.2691 54.4077 12.7594C54.0293 13.2496 53.509 13.6323 52.8468 13.9075C52.1889 14.1784 51.4299 14.3138 50.5699 14.3138C49.2584 14.3138 48.2135 14.0408 47.4352 13.4947C46.6612 12.9443 46.2075 12.196 46.0742 11.25L48.7768 11.1081C48.8585 11.508 49.0563 11.8133 49.3702 12.024C49.6841 12.2304 50.0862 12.3336 50.5764 12.3336C51.058 12.3336 51.445 12.2412 51.7374 12.0563C52.0341 11.8671 52.1846 11.6241 52.1889 11.3274C52.1846 11.078 52.0793 10.8738 51.8728 10.7147C51.6664 10.5513 51.3482 10.4266 50.9182 10.3406L49.2025 9.99872C48.235 9.80521 47.5147 9.46981 47.0417 8.9925C46.573 8.5152 46.3387 7.90674 46.3387 7.16713C46.3387 6.53072 46.5107 5.98246 46.8547 5.52235C47.203 5.06225 47.691 4.70749 48.3189 4.45809C48.951 4.20869 49.6906 4.08398 50.5377 4.08398C51.789 4.08398 52.7737 4.34844 53.4918 4.87734C54.2142 5.40625 54.6356 6.12651 54.756 7.03813Z" fill="#3655E8"/>
<path d="M39.625 14.1196V4.21221H42.2889V5.94084H42.3921C42.5727 5.32593 42.8758 4.86152 43.3016 4.54762C43.7273 4.22941 44.2175 4.07031 44.7722 4.07031C44.9098 4.07031 45.0581 4.07891 45.2172 4.09611C45.3763 4.11331 45.5161 4.13696 45.6365 4.16706V6.6052C45.5075 6.5665 45.329 6.5321 45.1011 6.502C44.8732 6.4719 44.6647 6.45685 44.4755 6.45685C44.0713 6.45685 43.7101 6.545 43.3919 6.7213C43.0779 6.8933 42.8285 7.13411 42.6436 7.44371C42.463 7.75331 42.3727 8.11022 42.3727 8.51442V14.1196H39.625Z" fill="#3655E8"/>
<path d="M33.829 14.3138C32.8099 14.3138 31.9327 14.1074 31.1974 13.6946C30.4664 13.2775 29.9031 12.6884 29.5075 11.9273C29.1119 11.1619 28.9141 10.2567 28.9141 9.21181C28.9141 8.19269 29.1119 7.29828 29.5075 6.52857C29.9031 5.75886 30.4599 5.159 31.178 4.72899C31.9005 4.29899 32.7476 4.08398 33.7194 4.08398C34.373 4.08398 34.9814 4.18934 35.5448 4.40004C36.1124 4.60644 36.6069 4.9182 37.0283 5.3353C37.454 5.75241 37.7851 6.27702 38.0216 6.90912C38.2581 7.53693 38.3763 8.27224 38.3763 9.11505V9.86972H30.0106V8.16689H35.7899C35.7899 7.77129 35.7039 7.42083 35.5319 7.11553C35.3599 6.81022 35.1212 6.57157 34.8159 6.39957C34.5149 6.22326 34.1644 6.13511 33.7645 6.13511C33.3474 6.13511 32.9776 6.23186 32.6551 6.42537C32.3369 6.61457 32.0875 6.87042 31.9069 7.19293C31.7263 7.51113 31.6339 7.86589 31.6296 8.25719V9.87617C31.6296 10.3664 31.7199 10.7899 31.9005 11.1468C32.0854 11.5037 32.3455 11.7789 32.6809 11.9724C33.0163 12.1659 33.4141 12.2627 33.8742 12.2627C34.1795 12.2627 34.459 12.2197 34.7127 12.1337C34.9664 12.0477 35.1836 11.9187 35.3642 11.7467C35.5448 11.5747 35.6824 11.364 35.777 11.1146L38.3183 11.2823C38.1893 11.8929 37.9248 12.4261 37.5249 12.8819C37.1293 13.3334 36.6176 13.686 35.9898 13.9397C35.3663 14.1891 34.646 14.3138 33.829 14.3138Z" fill="#3655E8"/>
<path d="M27.6579 0.910156V14.1199H24.9102V0.910156H27.6579Z" fill="#3655E8"/>
<path d="M23.2556 0.910156V14.1199H20.5078V0.910156H23.2556Z" fill="#3655E8"/>
<path d="M13.3403 14.3074C12.7082 14.3074 12.1449 14.1977 11.6504 13.9784C11.1559 13.7548 10.7646 13.4259 10.4765 12.9916C10.1927 12.553 10.0508 12.0068 10.0508 11.3532C10.0508 10.8028 10.1518 10.3406 10.3539 9.96647C10.556 9.59236 10.8312 9.29136 11.1795 9.06345C11.5279 8.83555 11.9235 8.66355 12.3664 8.54745C12.8136 8.43134 13.2823 8.34964 13.7725 8.30234C14.3487 8.24214 14.8131 8.18624 15.1657 8.13464C15.5183 8.07874 15.7742 7.99704 15.9333 7.88954C16.0924 7.78204 16.1719 7.62293 16.1719 7.41223V7.37353C16.1719 6.96502 16.0429 6.64897 15.7849 6.42537C15.5312 6.20176 15.17 6.08996 14.7013 6.08996C14.2068 6.08996 13.8133 6.19961 13.5209 6.41892C13.1322 6.75862 12.9258 7.37783 12.9258 7.79064H10.3539C10.3583 7.77048 10.3113 7.44663 10.4125 6.96502C10.5452 6.38846 10.7945 5.88822 11.1602 5.4643C11.5386 5.0214 12.0267 4.68169 12.6244 4.44519C13.2264 4.20439 13.923 4.08398 14.7142 4.08398C15.2646 4.08398 15.7914 4.14849 16.2945 4.27749C16.8019 4.40649 17.2512 4.60644 17.6425 4.87734C18.0381 5.14825 18.3499 5.49655 18.5778 5.92226C18.8057 6.34367 18.9197 6.84892 18.9197 7.43803V14.1203H16.3138V12.7465H16.2364C16.0773 13.0561 15.8645 13.3291 15.5979 13.5656C15.3313 13.7978 15.0109 13.9806 14.6368 14.1139C14.2627 14.2429 13.8305 14.3074 13.3403 14.3074ZM14.1272 12.411C14.5314 12.411 14.8883 12.3315 15.198 12.1724C15.5076 12.009 15.7505 11.7897 15.9268 11.5145C16.1031 11.2393 16.1913 10.9275 16.1913 10.5792V9.52786C16.1053 9.58376 15.987 9.63536 15.8365 9.68266C15.6903 9.72566 15.5248 9.76651 15.3399 9.80521C15.155 9.83961 14.97 9.87186 14.7851 9.90197C14.6002 9.92777 14.4325 9.95142 14.282 9.97292C13.9595 10.0202 13.6779 10.0955 13.4371 10.1987C13.1963 10.3019 13.0092 10.4416 12.8759 10.6179C12.7426 10.7899 12.676 11.0049 12.676 11.2629C12.676 11.637 12.8114 11.923 13.0823 12.1208C13.3575 12.3143 13.7058 12.411 14.1272 12.411Z" fill="#3655E8"/>
<path d="M4.87627 14.3138C3.86145 14.3138 2.98854 14.0988 2.25753 13.6688C1.53082 13.2345 0.971814 12.6325 0.580508 11.8628C0.193503 11.0931 0 10.2073 0 9.20536C0 8.19054 0.195653 7.30043 0.586958 6.53502C0.982564 5.76531 1.54372 5.16545 2.27043 4.73544C2.99714 4.30114 3.86145 4.08398 4.86337 4.08398C5.72768 4.08398 6.48449 4.24094 7.1338 4.55484C7.78311 4.86875 8.29697 5.3095 8.67537 5.87711C9.05378 6.44472 9.26233 7.11123 9.30103 7.87664H6.70809C6.63499 7.38213 6.44149 6.98437 6.12759 6.68337C5.81798 6.37807 5.41163 6.22541 4.90852 6.22541C4.48281 6.22541 4.11086 6.34152 3.79265 6.57372C3.47875 6.80162 3.23365 7.13488 3.05734 7.57348C2.88104 8.01209 2.79289 8.54315 2.79289 9.16666C2.79289 9.79876 2.87889 10.3363 3.05089 10.7792C3.2272 11.2221 3.47445 11.5596 3.79265 11.7918C4.11086 12.024 4.48281 12.1401 4.90852 12.1401C5.22242 12.1401 5.50408 12.0756 5.75348 11.9466C6.00718 11.8176 6.21574 11.6306 6.37914 11.3855C6.54684 11.1361 6.65649 10.8372 6.70809 10.4889H9.30103C9.25803 11.2457 9.05163 11.9122 8.68182 12.4885C8.31632 13.0604 7.81106 13.5076 7.16605 13.8301C6.52104 14.1526 5.75778 14.3138 4.87627 14.3138Z" fill="#3655E8"/>
<path d="M57.3569 9.42383H55.8766L57.5444 4.37109H59.4195L61.0873 9.42383H59.607L58.5017 5.76256H58.4622L57.3569 9.42383ZM57.0806 7.43036H59.8636V8.4567H57.0806V7.43036ZM62.7373 4.37109V9.42383H61.3655V4.37109H62.7373Z" fill="#3655E8"/>
</svg>
