<svg width="100" height="48" viewBox="0 0 100 48" fill="none" xmlns="http://www.w3.org/2000/svg">
<path d="M9.41073 12.3815C9.30156 12.9153 8.62985 13.3679 7.39559 13.7395C6.38602 14.0494 5.44857 14.2065 4.58325 14.2108C4.32897 14.2114 4.07148 14.1665 3.81076 14.0759C2.98325 13.7885 2.37864 13.2799 1.99691 12.5503C1.61518 11.8206 1.56607 11.0477 1.84956 10.2316C2.15667 9.34739 2.81387 8.38791 3.82117 7.35313C4.87082 6.26954 5.98168 5.44858 7.15377 4.89025C8.50126 4.26581 9.6681 4.12487 10.6543 4.46742C10.9264 4.56191 11.1689 4.74143 11.3819 5.00596C11.5988 5.25916 11.6829 5.51068 11.6343 5.76054C11.5738 6.04441 11.3671 6.18223 11.0143 6.17401C10.6654 6.15445 9.96598 6.39424 8.91608 6.89339C7.70211 7.46258 6.654 8.12114 5.77175 8.86907C4.65552 9.8152 3.99092 10.7594 3.77795 11.7017C3.76566 11.7736 3.77777 11.8668 3.81429 11.9811C3.86608 12.088 3.92598 12.1533 3.99399 12.1769C4.42475 12.3265 5.12719 12.2974 6.10133 12.0895C7.07547 11.8816 7.76747 11.6266 8.17734 11.3243C8.36503 11.1862 8.57789 11.1586 8.81594 11.2412C9.04266 11.32 9.21347 11.4682 9.32838 11.686C9.44723 11.8924 9.47468 12.1243 9.41073 12.3815ZM22.1747 10.6222C22.1137 10.944 21.722 12.0719 20.9994 14.0059C20.8463 14.41 20.4415 15.5207 19.7849 17.3378C19.5649 17.9347 19.4079 18.3502 19.3138 18.5843C19.1534 18.9731 19.0194 19.2124 18.912 19.3022C18.7396 19.4328 18.5457 19.4608 18.3303 19.386C18.1036 19.3072 17.8483 19.0915 17.5643 18.7388C17.2842 18.3747 17.1666 18.0734 17.2113 17.8349C17.2236 17.763 17.3594 17.3719 17.6188 16.6617C17.7207 16.4049 17.846 16.0991 17.9947 15.7442L13.0751 14.931C13.0436 15.0217 12.9228 15.4243 12.7127 16.139C12.5936 16.5549 12.3414 16.696 11.956 16.5621C11.4346 16.381 11.1166 16.0165 11.002 15.4685C10.9334 15.1906 10.9898 14.6259 11.1713 13.7743C11.425 12.6048 11.7567 11.4306 12.1662 10.2517C12.5638 9.10681 12.8834 8.44289 13.1247 8.25997C13.2932 8.14064 13.4908 8.12035 13.7175 8.1991C13.9896 8.2936 14.2486 8.51696 14.4947 8.86919C14.7447 9.21009 14.8394 9.52247 14.7789 9.80634C14.7352 9.96898 14.3939 11.0064 13.755 12.9187C14.5431 13.0273 16.211 13.3271 18.7589 13.8183L18.8659 13.4553C19.3364 11.9546 19.5932 11.1419 19.6366 11.0172C20.0849 9.76291 20.437 9.07853 20.6927 8.96409C20.8149 8.90491 20.9553 8.90288 21.114 8.958C21.4087 9.06037 21.6715 9.29137 21.9023 9.651C22.1483 10.0032 22.2391 10.327 22.1747 10.6222ZM31.7286 12.1495C31.6572 12.3915 31.0341 12.4481 29.8593 12.3195C29.8593 12.3195 29.1149 12.2134 27.6261 12.0012C27.3723 11.9638 27.0786 11.9317 26.745 11.9047C26.2216 13.0822 25.5132 14.6464 24.6197 16.5972C24.9878 16.598 25.3596 16.6065 25.7351 16.6226C26.1106 16.6387 26.476 16.7021 26.8313 16.8128C27.3341 16.9747 27.7895 17.2726 28.1977 17.7066C28.5724 18.0908 28.7356 18.3889 28.6874 18.6008C28.6013 18.8122 28.385 18.9594 28.0386 19.0424C27.6922 19.1253 27.3887 19.1215 27.128 19.0309L26.9749 18.9778C26.6915 18.8793 26.201 18.8106 25.5032 18.7714C24.9798 18.7421 24.4602 18.7204 23.9442 18.7063C23.8995 18.9448 23.8013 19.3554 23.6498 19.9379C23.6297 20.0325 23.6053 20.1575 23.5768 20.3127C23.6488 20.325 23.9521 20.3478 24.4868 20.381C25.1579 20.4236 25.6409 20.4961 25.9356 20.5985C26.2417 20.7048 26.6143 20.9485 27.0536 21.3298C27.5081 21.7036 27.7191 21.9738 27.6866 22.1404C27.6257 22.4622 27.0866 22.6243 26.0695 22.6267C25.7734 22.6382 25.1249 22.6035 24.124 22.5226C23.271 22.4549 22.8048 22.4073 22.7254 22.3798C22.2607 22.2183 21.9513 21.9204 21.7974 21.4858C21.5482 20.7768 21.5606 19.7902 21.8345 18.5261C22.137 17.1068 22.7219 15.4045 23.5894 13.4192C23.933 12.6493 24.3483 11.7646 24.8352 10.765C24.8297 10.598 24.8348 10.3457 24.8504 10.0081C24.935 9.61827 25.1609 9.46171 25.528 9.53843C25.7439 9.57529 26.5035 9.67401 27.807 9.83459C28.7808 9.95688 29.5227 10.1066 30.0328 10.2838C30.3276 10.3862 30.6832 10.624 31.0998 10.9974C31.6026 11.4515 31.8122 11.8355 31.7286 12.1495ZM37.4114 22.1074C37.3022 22.6411 36.6305 23.0937 35.3962 23.4653C34.3866 23.7752 33.4492 23.9324 32.5839 23.9367C32.3296 23.9373 32.0721 23.8923 31.8114 23.8017C30.9839 23.5143 30.3793 23.0058 29.9975 22.2761C29.6158 21.5465 29.5667 20.7736 29.8502 19.9574C30.1573 19.0732 30.8145 18.1137 31.8218 17.079C32.8714 15.9954 33.9823 15.1744 35.1544 14.6161C36.5019 13.9916 37.6687 13.8507 38.6549 14.1933C38.927 14.2877 39.1695 14.4673 39.3825 14.7318C39.5994 14.985 39.6836 15.2365 39.6349 15.4864C39.5744 15.7702 39.3677 15.9081 39.0149 15.8998C38.666 15.8803 37.9666 16.1201 36.9167 16.6192C35.7027 17.1884 34.6546 17.847 33.7724 18.5949C32.6561 19.541 31.9915 20.4852 31.7786 21.4275C31.7663 21.4995 31.7784 21.5926 31.8149 21.7069C31.8667 21.8138 31.9266 21.8791 31.9946 21.9027C32.4254 22.0523 33.1278 22.0232 34.102 21.8153C35.0761 21.6074 35.7681 21.3524 36.178 21.0501C36.3657 20.9121 36.5785 20.8844 36.8166 20.9671C37.0433 21.0458 37.2141 21.1941 37.329 21.4118C37.4479 21.6183 37.4753 21.8501 37.4114 22.1074ZM49.6198 21.0697C49.5834 21.2476 49.4814 21.3582 49.3139 21.4017C47.2198 21.9446 45.2083 22.5607 43.2794 23.25C43.8428 23.7125 44.667 24.4116 45.7521 25.3474C46.2514 25.775 46.4588 26.1836 46.3742 26.5735C46.2695 27.0579 45.9677 27.2135 45.4689 27.0403C45.0155 26.8828 44.5914 26.6592 44.1965 26.3696C43.8056 26.0687 43.0331 25.3304 41.879 24.1546C41.7993 24.4572 41.6003 25.1947 41.282 26.3672C41.1905 26.7038 40.9407 26.8012 40.5326 26.6595C40.2945 26.5768 40.0461 26.4143 39.7873 26.172C39.4984 25.9065 39.3253 25.6368 39.2681 25.3628C39.27 25.211 39.2871 25.0518 39.3196 24.8853C39.6378 23.4206 40.293 21.2599 41.2852 18.4034C41.7144 17.1678 42.0279 16.3748 42.2259 16.0243C42.4081 15.7192 42.7089 15.6395 43.1283 15.7852C43.3664 15.8678 43.6222 16.0456 43.8958 16.3185C44.2029 16.6412 44.3322 16.9274 44.2835 17.1773C43.9651 18.0575 43.4967 19.3875 42.8786 21.1672C44.2172 20.6413 45.1837 20.291 45.7779 20.1163C47.1072 19.7269 48.1066 19.6294 48.7758 19.8238C48.9725 19.8794 49.1734 20.0508 49.3785 20.338C49.5876 20.6139 49.668 20.8577 49.6198 21.0697ZM57.1402 26.7306C56.8173 27.6601 56.4766 28.4945 56.1182 29.2339C55.713 30.0713 55.4037 30.5228 55.1904 30.5884C55.0342 30.6358 54.8881 30.6359 54.7521 30.5886C54.5594 30.5217 54.3912 30.3109 54.2477 29.9561C54.1259 29.6851 54.0496 29.4109 54.0189 29.1335C53.962 28.5294 54.2918 27.1958 55.0084 25.1327C55.3589 24.1238 55.6109 23.5444 55.7646 23.3946C55.9336 23.2373 56.2107 23.2256 56.5962 23.3595C57.265 23.5918 57.6229 23.9511 57.6699 24.4375C57.7065 24.844 57.53 25.6084 57.1402 26.7306ZM68.6803 23.5744C68.6238 23.8469 68.4492 24.0022 68.1565 24.0403C68.0387 24.0502 67.815 24.036 67.4853 23.9977C67.0836 23.9471 66.2882 23.8233 65.0991 23.6262C64.9438 23.5977 64.777 23.5842 64.5986 23.5857C64.4681 23.7055 63.19 26.9646 60.7643 33.3629C60.2972 34.598 60.0326 35.2683 59.9706 35.3738C59.8312 35.5922 59.5688 35.6344 59.1834 35.5005C58.8434 35.3824 58.5634 35.1645 58.3434 34.8467C58.1235 34.529 58.05 34.1922 58.1227 33.8364C58.4286 32.4437 59.0374 30.6544 59.9491 28.4685C60.6999 26.7094 61.4582 24.9467 62.2242 23.1802C61.216 23.0841 60.5418 22.9769 60.2017 22.8588C59.8843 22.7486 59.5799 22.5094 59.2885 22.1415C58.9858 21.7695 58.8627 21.4473 58.9193 21.1748C58.9876 20.8682 59.232 20.7499 59.6524 20.8197C59.9703 20.892 60.2862 20.9699 60.6001 21.0536C61.7671 21.2048 62.934 21.3561 64.101 21.5074C65.2719 21.6473 66.5375 21.9535 67.8978 22.426C68.1358 22.5087 68.337 22.6611 68.5012 22.8833C68.6654 23.1055 68.7251 23.3358 68.6803 23.5744ZM76.7818 33.4006C76.4821 34.3 75.8201 35.0355 74.7959 35.6071C73.7829 36.1826 72.8344 36.3168 71.9502 36.0097C71.1114 35.7183 70.4979 35.1622 70.1097 34.3414C69.7329 33.5246 69.6901 32.6967 69.9815 31.8579C70.3201 30.883 70.9146 30.0859 71.7648 29.4666C72.7644 28.7467 73.7742 28.564 74.7945 28.9183C75.2705 29.0837 75.6033 29.3327 75.7927 29.6652C76.2382 29.8454 76.5702 30.1512 76.7887 30.5828C77.0891 31.1445 77.1485 31.8511 76.967 32.7027C76.9144 32.9639 76.8527 33.1965 76.7818 33.4006ZM75.191 31.3426L75.1969 31.3256C75.0993 31.2409 74.9824 31.1749 74.8464 31.1277C74.2796 30.9308 73.6194 31.0762 72.8656 31.5639C72.1119 32.0516 71.6765 32.5737 71.5594 33.1301C71.495 33.4253 71.5818 33.6142 71.8199 33.6969C72.0919 33.7914 72.4411 33.792 72.8673 33.6987C73.3048 33.6093 73.6367 33.4768 73.8628 33.3013C74.1312 33.077 74.4066 32.7597 74.6887 32.3496C74.9749 31.9282 75.1423 31.5925 75.191 31.3426ZM88.2725 33.4284C88.244 33.5836 88.1983 33.7519 88.1353 33.9333C87.6273 35.3956 86.5769 36.8473 84.9838 38.2884C83.2873 39.8078 81.8445 40.469 80.6554 40.2719C80.4508 40.239 80.2069 40.1733 79.9235 40.0749C78.8013 39.6851 78.1439 39.1455 77.9514 38.4562C77.679 37.4851 77.8046 36.2457 78.3283 34.738C78.8323 33.2871 79.5276 32.163 80.4142 31.3658C80.564 31.2272 80.7579 31.1993 80.9959 31.282C81.234 31.3647 81.4896 31.5614 81.7627 31.8723C82.0733 32.2215 82.2082 32.5097 82.1674 32.7369C82.1398 32.8163 82.1125 32.8766 82.0854 32.918C81.2959 33.8379 80.6826 34.927 80.2456 36.1852C79.9739 36.9674 79.8177 37.6182 79.777 38.1376C79.7633 38.3234 79.7678 38.4202 79.7905 38.4281C80.5652 38.6845 81.6767 38.1178 83.1249 36.728C84.5731 35.3383 85.574 33.9011 86.1278 32.4166C86.1986 32.2126 86.405 32.0937 86.747 32.0601C87.0929 32.0151 87.4076 32.0418 87.691 32.1402C88.0424 32.2623 88.2507 32.449 88.3158 32.7003C88.3593 32.8678 88.3448 33.1105 88.2725 33.4284ZM98.7194 34.0082C98.6628 34.2808 98.4882 34.4361 98.1955 34.4741C98.0777 34.484 97.854 34.4698 97.5243 34.4315C97.1227 34.381 96.3273 34.2571 95.1381 34.06C94.9829 34.0315 94.8161 34.018 94.6377 34.0196C94.5072 34.1394 93.229 37.3985 90.8034 43.7968C90.3363 45.0319 90.0717 45.7022 90.0096 45.8077C89.8703 46.026 89.6079 46.0683 89.2225 45.9344C88.8824 45.8163 88.6024 45.5984 88.3825 45.2806C88.1626 44.9629 88.089 44.6261 88.1618 44.2703C88.4677 42.8775 89.0765 41.0882 89.9882 38.9023C90.7389 37.1433 91.4973 35.3805 92.2633 33.6141C91.255 33.5179 90.5809 33.4108 90.2408 33.2927C89.9234 33.1824 89.619 32.9433 89.3276 32.5753C89.0249 32.2034 88.9018 31.8812 88.9583 31.6086C89.0267 31.3021 89.2711 31.1837 89.6914 31.2535C90.0093 31.3258 90.3252 31.4038 90.6392 31.4874C91.8061 31.6387 92.9731 31.79 94.1401 31.9413C95.311 32.0812 96.5766 32.3874 97.9368 32.8599C98.1749 32.9426 98.376 33.095 98.5402 33.3172C98.7044 33.5394 98.7641 33.7697 98.7194 34.0082Z" fill="black"/>
</svg>
