<svg width="20" height="20" viewBox="0 0 20 20" fill="none" xmlns="http://www.w3.org/2000/svg">
<g clip-path="url(#clip0_1313_12741)">
<path fill-rule="evenodd" clip-rule="evenodd" d="M17.9163 3.74967C17.9163 4.67015 17.1701 5.41634 16.2497 5.41634C15.3292 5.41634 14.583 4.67015 14.583 3.74967C14.583 2.8292 15.3292 2.08301 16.2497 2.08301C17.1701 2.08301 17.9163 2.8292 17.9163 3.74967ZM19.1663 3.74967C19.1663 5.3605 17.8605 6.66634 16.2497 6.66634C15.7857 6.66634 15.347 6.55801 14.9576 6.36526L12.0356 10.0177L14.7488 13.7483C15.1873 13.4846 15.7008 13.333 16.2497 13.333C17.8605 13.333 19.1663 14.6388 19.1663 16.2497C19.1663 17.8605 17.8605 19.1663 16.2497 19.1663C14.6388 19.1663 13.333 17.8605 13.333 16.2497C13.333 15.644 13.5176 15.0815 13.8336 14.6152L10.9314 10.6247H6.59922C6.31311 11.9352 5.14597 12.9163 3.74967 12.9163C2.13884 12.9163 0.833008 11.6105 0.833008 9.99967C0.833008 8.38884 2.13884 7.08301 3.74967 7.08301C5.14597 7.08301 6.31311 8.06418 6.59922 9.37467H10.9493L13.9819 5.58395C13.5761 5.08288 13.333 4.44467 13.333 3.74967C13.333 2.13884 14.6388 0.833008 16.2497 0.833008C17.8605 0.833008 19.1663 2.13884 19.1663 3.74967ZM5.41634 9.99967C5.41634 10.9201 4.67015 11.6663 3.74967 11.6663C2.8292 11.6663 2.08301 10.9201 2.08301 9.99967C2.08301 9.0792 2.8292 8.33301 3.74967 8.33301C4.67015 8.33301 5.41634 9.0792 5.41634 9.99967ZM16.2497 17.9163C17.1701 17.9163 17.9163 17.1701 17.9163 16.2497C17.9163 15.3292 17.1701 14.583 16.2497 14.583C15.3292 14.583 14.583 15.3292 14.583 16.2497C14.583 17.1701 15.3292 17.9163 16.2497 17.9163Z" fill="#2A9F47"/>
</g>
<defs>
<clipPath id="clip0_1313_12741">
<rect width="20" height="20" fill="white"/>
</clipPath>
</defs>
</svg>
