<svg width="19" height="19" viewBox="0 0 19 19" fill="none" xmlns="http://www.w3.org/2000/svg">
<path fill-rule="evenodd" clip-rule="evenodd" d="M17.4168 3.52653C17.4168 4.447 16.6706 5.1932 15.7502 5.1932C14.8297 5.1932 14.0835 4.447 14.0835 3.52653C14.0835 2.60606 14.8297 1.85986 15.7502 1.85986C16.6706 1.85986 17.4168 2.60606 17.4168 3.52653ZM18.6668 3.52653C18.6668 5.13736 17.361 6.4432 15.7502 6.4432C15.2862 6.4432 14.8475 6.33486 14.4581 6.14211L11.5361 9.79459L14.2493 13.5252C14.6877 13.2615 15.2012 13.1099 15.7502 13.1099C17.361 13.1099 18.6668 14.4157 18.6668 16.0265C18.6668 17.6374 17.361 18.9432 15.7502 18.9432C14.1393 18.9432 12.8335 17.6374 12.8335 16.0265C12.8335 15.4209 13.0181 14.8583 13.3341 14.3921L10.4319 10.4015H6.09971C5.8136 11.712 4.64646 12.6932 3.25016 12.6932C1.63933 12.6932 0.333496 11.3874 0.333496 9.77653C0.333496 8.1657 1.63933 6.85986 3.25016 6.85986C4.64646 6.85986 5.8136 7.84104 6.09971 9.15153H10.4498L13.4824 5.3608C13.0766 4.85974 12.8335 4.22152 12.8335 3.52653C12.8335 1.9157 14.1393 0.609863 15.7502 0.609863C17.361 0.609863 18.6668 1.9157 18.6668 3.52653ZM4.91683 9.77653C4.91683 10.697 4.17064 11.4432 3.25016 11.4432C2.32969 11.4432 1.5835 10.697 1.5835 9.77653C1.5835 8.85605 2.32969 8.10986 3.25016 8.10986C4.17064 8.10986 4.91683 8.85605 4.91683 9.77653ZM15.7502 17.6932C16.6706 17.6932 17.4168 16.947 17.4168 16.0265C17.4168 15.1061 16.6706 14.3599 15.7502 14.3599C14.8297 14.3599 14.0835 15.1061 14.0835 16.0265C14.0835 16.947 14.8297 17.6932 15.7502 17.6932Z" fill="#8C42B2"/>
</svg>
