<svg xmlns="http://www.w3.org/2000/svg" width="125" height="60" fill="none">
  <path fill="#000" d="M32.56 48.831c.272.473.067 1.257-.614 2.351-.553.9-1.153 1.637-1.8 2.212-.19.169-.413.305-.669.41-.81.33-1.6.348-2.37.053-.768-.296-1.316-.843-1.642-1.643-.354-.867-.494-2.021-.422-3.464.072-1.507.363-2.857.874-4.05.599-1.36 1.381-2.236 2.348-2.63a1.62 1.62 0 0 1 .902-.077c.33.046.56.18.688.4.142.252.078.492-.192.72-.275.215-.642.857-1.1 1.926-.535 1.23-.886 2.416-1.054 3.56-.213 1.448-.088 2.596.375 3.444a.614.614 0 0 0 .212.186c.11.046.197.055.264.028.422-.172.93-.658 1.524-1.458.594-.8.945-1.449 1.053-1.946.05-.228.19-.39.424-.485a.894.894 0 0 1 .678-.004c.226.076.4.232.522.467Zm8.419-9.754c.167.282.618 1.387 1.354 3.316.152.405.582 1.506 1.29 3.303.229.594.386 1.01.47 1.247.136.398.194.666.172.805a.589.589 0 0 1-.38.447c-.223.09-.557.097-1.003.02-.451-.088-.739-.236-.863-.445-.038-.062-.194-.445-.469-1.15a53.43 53.43 0 0 1-.324-.937l-4.23 2.64c.036.09.212.471.526 1.147.186.39.09.663-.288.817-.511.209-.99.145-1.439-.19-.235-.163-.566-.625-.992-1.384a30.343 30.343 0 0 1-1.581-3.301c-.458-1.122-.657-1.832-.597-2.128.048-.201.183-.347.405-.438.267-.109.609-.112 1.026-.01.413.09.69.262.833.515.074.151.504 1.156 1.288 3.013.663-.44 2.113-1.316 4.35-2.631l-.16-.343a239.466 239.466 0 0 1-1.032-2.34c-.492-1.237-.68-1.984-.564-2.238a.535.535 0 0 1 .312-.283c.289-.118.639-.119 1.05-.001.417.102.7.285.846.549Zm8.18-5.167c.107.229-.324.683-1.29 1.363l-1.887 1.237c-.215.14-.457.31-.725.51.385 1.23.887 2.871 1.505 4.926.277-.243.562-.482.854-.718a4.29 4.29 0 0 1 .949-.582c.484-.21 1.023-.288 1.616-.232.535.041.855.157.958.348.075.216.01.469-.195.76-.205.291-.435.489-.691.593l-.15.061c-.278.114-.691.386-1.241.818-.412.324-.817.651-1.213.981.124.209.322.582.593 1.12.047.084.111.194.193.329.062-.038.304-.222.728-.55.532-.412.942-.676 1.23-.794.3-.123.742-.186 1.323-.19.588-.02.925.044 1.011.19.167.282-.13.76-.892 1.434-.215.204-.725.606-1.53 1.207-.684.513-1.066.785-1.144.817-.455.186-.884.167-1.287-.058-.656-.367-1.298-1.116-1.928-2.246-.71-1.265-1.396-2.93-2.057-4.993a89.033 89.033 0 0 1-.819-2.815 10.543 10.543 0 0 1-.489-.578c-.194-.349-.128-.615.199-.8.186-.115.822-.543 1.906-1.284.812-.552 1.468-.93 1.968-1.134.288-.118.713-.174 1.272-.169.677.009 1.088.158 1.233.45Zm10.846 3.72c.27.472.065 1.256-.616 2.35-.553.9-1.153 1.637-1.8 2.213-.19.168-.413.304-.668.409-.811.33-1.601.349-2.37.053-.768-.295-1.316-.843-1.643-1.643-.353-.867-.494-2.021-.422-3.463.072-1.507.364-2.858.874-4.051.6-1.36 1.382-2.236 2.349-2.63.266-.11.567-.135.901-.077.33.047.56.18.688.4.143.253.079.493-.192.72-.274.215-.641.858-1.1 1.926-.534 1.23-.886 2.416-1.054 3.56-.212 1.448-.087 2.596.375 3.444a.614.614 0 0 0 .212.186c.11.046.198.055.264.028.423-.172.93-.658 1.525-1.458.593-.8.944-1.448 1.052-1.946.05-.228.191-.39.425-.484a.894.894 0 0 1 .678-.005c.226.076.4.232.522.468Zm8.477-8.846a.397.397 0 0 1-.01.451 70.557 70.557 0 0 0-3.308 5.375c.728-.025 1.81-.045 3.242-.06.657-.009 1.083.16 1.277.51.241.432.118.748-.371.948-.444.181-.91.294-1.398.337-.493.033-1.56-.011-3.203-.13.14.279.478.964 1.014 2.054.153.314.03.552-.37.715-.233.095-.527.137-.881.127-.393-.009-.7-.097-.925-.265a2.671 2.671 0 0 1-.277-.392c-.729-1.31-1.664-3.365-2.807-6.164-.495-1.211-.783-2.014-.866-2.408-.065-.349.108-.608.52-.775.232-.096.542-.131.928-.107.443.039.73.169.858.388.343.871.87 2.179 1.582 3.923.657-1.279 1.151-2.18 1.482-2.704.74-1.17 1.426-1.904 2.057-2.2.184-.089.448-.093.792-.013.339.069.56.199.664.39Zm9.386-.72c.372.91.667 1.762.887 2.554.249.896.315 1.44.198 1.63a.694.694 0 0 1-.329.29c-.188.077-.454.03-.796-.142a2.73 2.73 0 0 1-.715-.466c-.442-.416-1.076-1.635-1.901-3.657-.404-.989-.597-1.59-.581-1.805.023-.23.223-.421.6-.575.656-.268 1.162-.235 1.519.1.296.28.669.97 1.118 2.07Zm6.576-9.995c.138.242.11.474-.085.696-.082.085-.26.223-.532.412a77.55 77.55 0 0 1-2.037 1.297c-.135.082-.27.182-.402.3-.019.177 1.175 3.468 3.582 9.873.466 1.236.71 1.914.733 2.034.04.256-.13.46-.507.615a1.675 1.675 0 0 1-1.062.064 1.267 1.267 0 0 1-.834-.612c-.69-1.248-1.416-2.993-2.176-5.236a993.878 993.878 0 0 1-1.786-5.473c-.82.594-1.397.96-1.73 1.095-.312.127-.698.15-1.16.065-.473-.079-.778-.24-.916-.481-.151-.275-.046-.526.316-.751.286-.156.575-.306.865-.45l2.928-1.973c.971-.67 2.124-1.276 3.457-1.82.233-.095.485-.113.755-.055s.467.192.591.4Zm12.574 2.023c.37.873.358 1.862-.033 2.968-.38 1.101-1.003 1.829-1.87 2.182-.822.336-1.65.324-2.484-.036-.822-.364-1.401-.957-1.737-1.779a4.88 4.88 0 0 1-.241-2.973c.274-1.201.911-2.006 1.911-2.414.467-.19.881-.223 1.243-.099.454-.159.905-.149 1.354.031.597.223 1.108.714 1.535 1.473.133.231.24.447.322.646Zm-2.554-.494-.007-.017a1.06 1.06 0 0 0-.394.083c-.555.227-.955.772-1.198 1.637-.244.864-.226 1.543.054 2.038.147.264.337.349.57.254.267-.11.53-.34.787-.691.27-.356.431-.675.485-.956.053-.346.05-.766-.009-1.26-.063-.506-.16-.868-.288-1.088Zm11.197-7.078c.081.135.158.292.231.47.585 1.433.755 3.216.512 5.35-.27 2.262-.916 3.712-1.938 4.35-.176.11-.402.222-.68.335-1.1.45-1.95.479-2.55.088-.846-.549-1.57-1.562-2.174-3.04-.58-1.422-.801-2.725-.662-3.909.02-.203.148-.352.381-.447.233-.096.555-.117.965-.064.464.057.756.184.876.382a.894.894 0 0 1 .058.19c.015 1.212.274 2.435.778 3.668.313.767.625 1.358.938 1.775.113.148.18.218.202.21.751-.32 1.211-1.48 1.38-3.48.168-2-.03-3.74-.595-5.22-.082-.2-.006-.426.229-.677.23-.263.484-.45.761-.564.345-.14.624-.138.839.008.144.097.293.288.449.575Zm8.224-6.468c.138.242.11.474-.085.696-.082.085-.259.222-.532.411-.335.228-1.014.66-2.036 1.298-.136.081-.27.182-.403.3-.019.177 1.176 3.468 3.583 9.873.465 1.236.71 1.914.733 2.034.039.256-.13.46-.507.615a1.677 1.677 0 0 1-1.063.064 1.266 1.266 0 0 1-.833-.612c-.691-1.248-1.416-2.993-2.176-5.236a958.357 958.357 0 0 1-1.787-5.473c-.82.594-1.397.96-1.73 1.095-.311.127-.698.149-1.16.065-.473-.079-.778-.24-.916-.481-.151-.276-.046-.526.316-.751a26.1 26.1 0 0 1 .866-.451l2.927-1.973c.972-.668 2.124-1.275 3.457-1.819.234-.095.485-.114.755-.055.27.058.467.191.591.4Z"/>
  <path stroke="#000" stroke-linecap="round" stroke-width="2" d="M39 23.5c-6.167 1.5-22.3.936-37.5-14.264m0 0V16.5m0-7.264L10 9"/>
</svg>
