<svg width="24" height="24" viewBox="0 0 24 24" fill="none" xmlns="http://www.w3.org/2000/svg">
<path d="M6.49903 5.29102C7.03136 5.09687 7.6247 5.12871 8.13673 5.3877L8.25294 5.45312C8.52103 5.61903 8.77053 5.87696 9.09181 6.19824L9.23829 6.34473C9.48015 6.58658 9.66508 6.76723 9.79102 6.96094L9.86915 7.09082C10.2097 7.70939 10.2096 8.46051 9.86915 9.0791L9.79102 9.20898C9.66509 9.40267 9.4801 9.58339 9.23829 9.8252C9.19296 9.87052 9.1685 9.89569 9.1504 9.91504C9.1426 9.92337 9.13801 9.92798 9.13575 9.93066L9.1338 9.93359C9.10682 9.97127 9.09253 10.0512 9.10548 10.0957L9.11329 10.1152C9.12153 10.1342 9.13325 10.159 9.15724 10.209L9.35157 10.5928C9.82397 11.4799 10.434 12.3138 11.1826 13.0625C12.0383 13.9182 13.0054 14.593 14.0361 15.0879L14.1299 15.1318C14.1435 15.1378 14.1473 15.139 14.1494 15.1396L14.1885 15.1445C14.2313 15.1449 14.2833 15.1315 14.3115 15.1113L14.3145 15.1094C14.3171 15.1071 14.3218 15.1025 14.3301 15.0947C14.3494 15.0766 14.3746 15.0522 14.4199 15.0068C14.6617 14.765 14.8425 14.58 15.0361 14.4541L15.166 14.376C15.8287 14.0113 16.6432 14.0374 17.2842 14.4541L17.4287 14.5596C17.5725 14.676 17.7191 14.8256 17.9004 15.0068L18.0469 15.1533L18.3057 15.4131C18.548 15.6598 18.7381 15.8725 18.8574 16.1084L18.9541 16.333C19.1205 16.7892 19.1205 17.2899 18.9541 17.7461L18.8574 17.9707C18.6983 18.2852 18.4142 18.5594 18.0469 18.9268L17.9287 19.0449C17.5963 19.3774 17.3582 19.6198 17.0684 19.8076L16.9404 19.8848C16.6041 20.0737 16.1325 20.2093 15.7246 20.2393L15.5547 20.2451C15.2553 20.2442 15.0203 20.1973 14.7471 20.124L14.458 20.043C12.0931 19.3717 9.86153 18.1047 8.00099 16.2441C6.25659 14.4997 5.034 12.4293 4.33497 10.2285L4.20216 9.78711C4.0995 9.42542 4.02236 9.16243 4.00391 8.83496L4.00001 8.69043C3.99872 8.24972 4.14453 7.68891 4.36036 7.30469L4.43751 7.17676C4.6253 6.88693 4.86775 6.64886 5.2002 6.31641L5.31837 6.19824L5.57911 5.93945C5.82587 5.69717 6.03851 5.50702 6.27442 5.3877L6.49903 5.29102ZM7.62891 6.3916C7.39603 6.27381 7.12588 6.25922 6.8838 6.34766L6.78223 6.3916C6.72547 6.42031 6.66647 6.46414 6.56739 6.55371L6.11427 6.99414L5.9961 7.1123C5.68505 7.42336 5.53161 7.58017 5.4297 7.71875L5.34083 7.85547C5.22005 8.07048 5.12427 8.4409 5.12501 8.6875L5.13282 8.84277C5.149 8.99528 5.19285 9.15521 5.28516 9.48047L5.40724 9.88867C6.05314 11.9219 7.18313 13.8345 8.79688 15.4482C10.5182 17.1695 12.5797 18.3397 14.7647 18.96L15.041 19.0371C15.273 19.0991 15.3925 19.1196 15.5576 19.1201L15.6553 19.1162C15.8943 19.0967 16.2014 19.01 16.3897 18.9043L16.5264 18.8154C16.665 18.7135 16.8218 18.5601 17.1328 18.249L17.251 18.1309C17.6808 17.701 17.7961 17.5764 17.8535 17.4629L17.8975 17.3613C17.9732 17.154 17.973 16.9262 17.8975 16.7188L17.8535 16.6162C17.8248 16.5595 17.781 16.5004 17.6914 16.4014L17.251 15.9482L17.1055 15.8027C16.8933 15.5905 16.7942 15.4935 16.7285 15.4395L16.6709 15.3975C16.399 15.2207 16.0586 15.1985 15.7695 15.3311L15.6494 15.3975C15.5795 15.4429 15.4974 15.5202 15.2149 15.8027C15.178 15.8396 15.1396 15.8779 15.0986 15.916L14.9658 16.0264C14.6873 16.2257 14.3183 16.3079 13.9785 16.252L13.835 16.2197C13.7788 16.2034 13.7277 16.1834 13.6807 16.1631L13.5488 16.1016C12.4053 15.5525 11.3343 14.804 10.3877 13.8574C9.55927 13.029 8.88246 12.1054 8.35841 11.1211L8.14356 10.6963C8.1237 10.6549 8.10233 10.6113 8.08204 10.5645L8.0254 10.4102C7.91598 10.0343 7.99091 9.59761 8.21876 9.2793L8.32911 9.14648C8.36721 9.10557 8.40557 9.06709 8.44239 9.03027C8.7249 8.74776 8.8022 8.66564 8.84766 8.5957L8.91407 8.47559C9.02774 8.22775 9.02778 7.94216 8.91407 7.69434L8.84766 7.57422C8.80219 7.50429 8.72487 7.42213 8.44239 7.13965L8.29688 6.99414C7.97487 6.67213 7.82381 6.52689 7.72071 6.4502L7.62891 6.3916ZM16.0527 10.5625C16.0527 9.99544 15.7638 9.38102 15.2803 8.89746C14.7967 8.41391 14.1823 8.125 13.6152 8.125C13.3046 8.125 13.0527 7.87316 13.0527 7.5625C13.0527 7.25184 13.3046 7 13.6152 7C14.1743 7 14.7886 6.7005 15.2774 6.2041C15.7672 5.70654 16.0527 5.09061 16.0527 4.5625C16.0527 4.25184 16.3046 4 16.6152 4C16.9259 4 17.1777 4.25184 17.1777 4.5625C17.1777 5.09061 17.4633 5.70654 17.9531 6.2041C18.4419 6.7005 19.0561 7 19.6152 7C19.9259 7 20.1777 7.25184 20.1777 7.5625C20.1777 7.87316 19.9259 8.125 19.6152 8.125C19.0482 8.125 18.4338 8.41391 17.9502 8.89746C17.4666 9.38102 17.1777 9.99544 17.1777 10.5625C17.1777 10.8732 16.9259 11.125 16.6152 11.125C16.3046 11.125 16.0527 10.8732 16.0527 10.5625ZM16.6152 6.31738C16.4583 6.56109 16.2782 6.79001 16.0781 6.99316C15.874 7.20044 15.6437 7.39022 15.3945 7.55371C15.642 7.71229 15.8709 7.89827 16.0752 8.10254C16.2757 8.30304 16.4586 8.5273 16.6152 8.76953C16.7719 8.5273 16.9548 8.30304 17.1553 8.10254C17.3594 7.89846 17.5878 7.7122 17.835 7.55371C17.5861 7.39032 17.3563 7.20025 17.1524 6.99316C16.9523 6.79001 16.7722 6.56109 16.6152 6.31738Z" fill="white"/>
</svg>
