<svg width="23" height="22" viewBox="0 0 23 22" fill="none" xmlns="http://www.w3.org/2000/svg">
<path fill-rule="evenodd" clip-rule="evenodd" d="M0.581925 4.28488C0.944546 2.04864 2.30423 0.538868 4.34767 0.103389C5.54334 -0.151409 6.56943 0.0662728 7.34599 0.739549C7.67418 1.02414 8.99554 2.59604 9.28811 3.04996C9.76957 3.79707 9.96301 4.8577 9.78158 5.7558C9.62653 6.52308 9.39925 6.9309 8.32271 8.37329C7.77998 9.1004 7.33633 9.73581 7.33679 9.78531C7.338 9.91217 7.849 10.9603 8.11128 11.3738C8.50793 11.9991 9.03973 12.6395 9.62906 13.2015C10.1821 13.7288 11.078 14.4003 11.2279 14.3998C11.2665 14.3997 11.9777 14.0527 12.8082 13.6288C14.47 12.7806 14.7937 12.6706 15.6278 12.6706C16.5952 12.6706 17.5033 13.035 18.2011 13.7034C18.7832 14.2608 19.956 15.7007 20.1551 16.1024C20.6591 17.1187 20.612 18.152 20.0055 19.3877C19.406 20.6094 18.34 21.4833 17.0193 21.8359C16.4325 21.9925 15.2626 22.0483 14.5482 21.9537C12.3499 21.6626 9.92732 20.4854 7.56586 18.5608C6.67436 17.8342 4.98119 16.1029 4.36566 15.2885C2.24659 12.4847 0.883286 9.44355 0.557386 6.79344C0.47176 6.09728 0.483598 4.8913 0.581925 4.28488ZM6.32255 1.77165C6.20721 1.67973 5.98257 1.56573 5.82327 1.51829C5.47645 1.41501 5.12917 1.41461 4.66374 1.51708C3.05999 1.87015 2.09051 3.1008 1.94063 4.97366C1.74053 7.47473 2.88741 10.7231 5.05211 13.7863C6.76447 16.2095 9.3265 18.409 11.8472 19.6199C15.3049 21.2809 18.1064 20.7326 18.916 18.2365C19.1016 17.6641 19.095 17.2468 18.8933 16.8194C18.7196 16.4517 17.3374 14.8159 16.9818 14.5573C16.4575 14.1762 15.7383 14.0291 15.0941 14.1713C14.9519 14.2027 14.1317 14.5846 13.2714 15.02L11.7073 15.8116H11.2601C10.7071 15.8116 10.3987 15.6739 9.587 15.0644C8.14168 13.9792 7.10462 12.7081 6.28686 11.0196C5.9324 10.2878 5.92803 10.2728 5.92872 9.78889C5.92958 9.15884 5.94786 9.12489 7.15278 7.51778C7.73338 6.74341 8.15709 6.12022 8.23409 5.92744C8.48873 5.29036 8.46322 4.62019 8.16059 3.99671C8.00342 3.67287 6.64557 2.0291 6.32255 1.77165ZM14.7977 0.736617C14.9432 0.348776 15.3755 0.152272 15.7633 0.297712C17.905 1.10084 20.5983 2.72633 22.1963 6.72142C22.3502 7.106 22.1631 7.54248 21.7785 7.69632C21.3939 7.85015 20.9574 7.66309 20.8036 7.2785C19.4016 3.77359 17.0949 2.39908 15.2366 1.70221C14.8488 1.55677 14.6523 1.12446 14.7977 0.736617ZM13.2977 4.23662C13.4432 3.84878 13.8755 3.65227 14.2633 3.79771C15.7383 4.35084 17.5983 5.47633 18.6963 8.22142C18.8502 8.606 18.6631 9.04248 18.2785 9.19632C17.8939 9.35015 17.4574 9.16309 17.3036 8.7785C16.4016 6.52359 14.9283 5.64908 13.7366 5.20221C13.3488 5.05677 13.1523 4.62446 13.2977 4.23662Z" fill="white"/>
</svg>
