<svg width="16" height="20" viewBox="0 0 16 20" fill="none" xmlns="http://www.w3.org/2000/svg">
<path fill-rule="evenodd" clip-rule="evenodd" d="M8.80259 1.04698C9.42279 1.28761 9.81041 1.90799 9.75475 2.57091L9.37123 7.13896H14.5C15.0668 7.13896 15.5853 7.45849 15.84 7.96486C16.0947 8.47122 16.0423 9.07794 15.7044 9.53307L8.42441 19.3395C8.01508 19.8909 7.2836 20.0939 6.64866 19.8323C6.01371 19.5708 5.63748 18.9114 5.73531 18.2317L6.52866 12.7196H1.50001C0.928351 12.7196 0.40639 12.3947 0.154053 11.8817C-0.0982838 11.3688 -0.0371212 10.757 0.31177 10.3041L7.07177 1.52994C7.47778 1.00296 8.18238 0.80635 8.80259 1.04698ZM8.26001 11.2196L7.22001 18.4454L14.5 8.63896H7.74001L8.26001 2.44541L1.50001 11.2196H8.26001Z" fill="#CC7700"/>
</svg>
