<svg width="39" height="46" viewBox="0 0 39 46" fill="none" xmlns="http://www.w3.org/2000/svg">
<path fill-rule="evenodd" clip-rule="evenodd" d="M5.24389 33.6172C2.34777 33.6172 -6.35101e-07 31.2694 -7.61694e-07 28.3733L-1.18702e-06 18.643C-1.31361e-06 15.7469 2.34777 13.3991 5.24389 13.3991L14.9742 13.3991C16.4828 13.3991 18.6172 12.3519 18.6172 10.8432L18.6172 5.27384C18.6172 2.37773 20.965 0.0299521 23.8611 0.029952L33.5914 0.0299515C36.4875 0.0299514 38.8353 2.37772 38.8353 5.27384L38.8353 15.0042C38.8353 17.9003 36.4875 20.248 33.5914 20.248L23.8611 20.248C22.3524 20.248 20.2181 21.2953 20.2181 22.8039L20.2181 23.0249C20.2181 24.5335 22.3524 25.5807 23.8611 25.5807L33.5914 25.5807C36.4875 25.5807 38.8353 27.9285 38.8353 30.8246L38.8353 40.5549C38.8353 43.4511 36.4875 45.7988 33.5914 45.7988L23.8611 45.7988C20.965 45.7988 18.6172 43.4511 18.6172 40.5549L18.6172 36.1731C18.6172 34.6644 16.4828 33.6172 14.9742 33.6172L5.24389 33.6172Z" fill="#3655E8"/>
</svg>
