<svg xmlns="http://www.w3.org/2000/svg" width="12" height="14" viewBox="0 0 12 14" fill="none">
    <path d="M0 5.69326C6.71043e-05 4.80743 0.718271 4.08944 1.60411 4.08944H4.58054C5.04194 4.08948 5.69475 3.76945 5.69475 3.30804V1.60382C5.69482 0.717988 6.41302 1.68824e-07 7.29887 1.30103e-07L10.2753 0C11.1611 6.67899e-05 11.879 0.718028 11.8791 1.60381V4.58024C11.8791 5.46608 11.1611 6.18429 10.2753 6.18435H7.29887C6.83736 6.18435 6.18435 6.50436 6.18435 6.96587V7.03395C6.18435 7.49545 6.83737 7.81565 7.29887 7.81565H10.2753C11.1611 7.81572 11.879 8.53368 11.8791 9.41946V12.3959C11.8791 13.2817 11.1611 13.9999 10.2753 14H7.29887C6.41298 14 5.69475 13.2818 5.69475 12.3959L5.69475 11.0552C5.69475 10.5938 5.04196 10.2738 4.58054 10.2738H1.60411C0.718229 10.2738 1.68826e-07 9.55557 1.30103e-07 8.66968L0 5.69326Z" fill="white"/>
</svg>
