<svg width="16" height="20" viewBox="0 0 16 20" fill="none" xmlns="http://www.w3.org/2000/svg">
<path fill-rule="evenodd" clip-rule="evenodd" d="M11.5 5.5C11.5 7.433 9.933 9 8 9C6.067 9 4.5 7.433 4.5 5.5C4.5 3.567 6.067 2 8 2C9.933 2 11.5 3.567 11.5 5.5ZM13 5.5C13 8.26142 10.7614 10.5 8 10.5C5.23858 10.5 3 8.26142 3 5.5C3 2.73858 5.23858 0.5 8 0.5C10.7614 0.5 13 2.73858 13 5.5ZM1.5 16C1.5 14.8954 2.39543 14 3.5 14H12.5C13.6046 14 14.5 14.8954 14.5 16C14.5 17.1046 13.6046 18 12.5 18H3.5C2.39543 18 1.5 17.1046 1.5 16ZM0 16C0 14.067 1.567 12.5 3.5 12.5H12.5C14.433 12.5 16 14.067 16 16C16 17.933 14.433 19.5 12.5 19.5H3.5C1.567 19.5 0 17.933 0 16Z" fill="black"/>
</svg>
