<svg width="52" height="52" viewBox="0 0 52 52" fill="none" xmlns="http://www.w3.org/2000/svg">
<rect width="52" height="52" rx="26" fill="white"/>
<path fill-rule="evenodd" clip-rule="evenodd" d="M17.25 18.469C17.25 16.3505 19.5445 15.0276 21.3778 16.089L34.3861 23.6201C36.2157 24.6793 36.2157 27.3208 34.3861 28.38L21.3778 35.9111C19.5445 36.9725 17.25 35.6496 17.25 33.5312V18.469ZM20.6263 17.3872C19.793 16.9047 18.75 17.506 18.75 18.469V33.5312C18.75 34.4941 19.793 35.0954 20.6263 34.613L33.6346 27.0818C34.4662 26.6004 34.4662 25.3997 33.6346 24.9183L20.6263 17.3872Z" fill="white"/>
<path d="M41.67 19.179C41.67 19.179 41.358 16.826 40.399 15.79C39.182 14.432 37.819 14.424 37.194 14.347C32.717 14 26.002 14 26.002 14H25.987C25.987 14 19.272 14 14.796 14.347C14.171 14.424 12.809 14.432 11.591 15.79C10.633 16.826 10.32 19.179 10.32 19.179C10.32 19.179 10 21.94 10 24.701V27.289C10 30.052 10.32 32.812 10.32 32.812C10.32 32.812 10.632 35.164 11.591 36.198C12.809 37.556 14.406 37.515 15.118 37.657C17.677 37.919 25.995 38 25.995 38C25.995 38 32.717 37.988 37.194 37.645C37.819 37.565 39.182 37.557 40.399 36.199C41.357 35.165 41.67 32.813 41.67 32.813C41.67 32.813 41.99 30.052 41.99 27.29V24.702C41.99 21.94 41.67 19.179 41.67 19.179Z" fill="#E02F2F"/>
<path d="M22 20V32L32 26L22 20Z" fill="white"/>
</svg>
