<svg xmlns="http://www.w3.org/2000/svg" width="94" height="51" viewBox="0 0 94 51" fill="none">
    <path d="M61.189 24.0508H59.4781C59.4469 23.8294 59.3831 23.6328 59.2867 23.4609C59.1903 23.2865 59.0666 23.138 58.9156 23.0156C58.7646 22.8932 58.5901 22.7995 58.3922 22.7344C58.1969 22.6693 57.9846 22.6367 57.7554 22.6367C57.3414 22.6367 56.9807 22.7396 56.6734 22.9453C56.3661 23.1484 56.1278 23.4453 55.9586 23.8359C55.7893 24.224 55.7047 24.6953 55.7047 25.25C55.7047 25.8203 55.7893 26.2995 55.9586 26.6875C56.1304 27.0755 56.37 27.3685 56.6773 27.5664C56.9846 27.7643 57.3401 27.8633 57.7437 27.8633C57.9703 27.8633 58.1799 27.8333 58.3726 27.7734C58.5679 27.7135 58.7411 27.6263 58.8922 27.5117C59.0432 27.3945 59.1682 27.2526 59.2672 27.0859C59.3687 26.9193 59.439 26.7292 59.4781 26.5156L61.189 26.5234C61.1448 26.8906 61.0341 27.2448 60.857 27.5859C60.6825 27.9245 60.4469 28.2279 60.15 28.4961C59.8557 28.7617 59.5041 28.9727 59.0953 29.1289C58.689 29.2826 58.2294 29.3594 57.7164 29.3594C57.0028 29.3594 56.3648 29.1979 55.8023 28.875C55.2424 28.5521 54.7997 28.0846 54.4742 27.4727C54.1513 26.8607 53.9898 26.1198 53.9898 25.25C53.9898 24.3776 54.1539 23.6354 54.482 23.0234C54.8101 22.4115 55.2554 21.9453 55.8179 21.625C56.3804 21.3021 57.0133 21.1406 57.7164 21.1406C58.1799 21.1406 58.6096 21.2057 59.0054 21.3359C59.4039 21.4661 59.7568 21.6562 60.064 21.9062C60.3713 22.1536 60.6213 22.457 60.814 22.8164C61.0094 23.1758 61.1344 23.5872 61.189 24.0508ZM69.6805 24.0508H67.9696C67.9383 23.8294 67.8745 23.6328 67.7782 23.4609C67.6818 23.2865 67.5581 23.138 67.4071 23.0156C67.256 22.8932 67.0816 22.7995 66.8837 22.7344C66.6883 22.6693 66.4761 22.6367 66.2469 22.6367C65.8329 22.6367 65.4722 22.7396 65.1649 22.9453C64.8576 23.1484 64.6193 23.4453 64.4501 23.8359C64.2808 24.224 64.1962 24.6953 64.1962 25.25C64.1962 25.8203 64.2808 26.2995 64.4501 26.6875C64.6219 27.0755 64.8615 27.3685 65.1688 27.5664C65.4761 27.7643 65.8316 27.8633 66.2352 27.8633C66.4618 27.8633 66.6714 27.8333 66.8641 27.7734C67.0594 27.7135 67.2326 27.6263 67.3837 27.5117C67.5347 27.3945 67.6597 27.2526 67.7587 27.0859C67.8602 26.9193 67.9305 26.7292 67.9696 26.5156L69.6805 26.5234C69.6363 26.8906 69.5256 27.2448 69.3485 27.5859C69.174 27.9245 68.9383 28.2279 68.6415 28.4961C68.3472 28.7617 67.9956 28.9727 67.5868 29.1289C67.1805 29.2826 66.7209 29.3594 66.2079 29.3594C65.4943 29.3594 64.8563 29.1979 64.2938 28.875C63.7339 28.5521 63.2912 28.0846 62.9657 27.4727C62.6428 26.8607 62.4813 26.1198 62.4813 25.25C62.4813 24.3776 62.6454 23.6354 62.9735 23.0234C63.3016 22.4115 63.7469 21.9453 64.3094 21.625C64.8719 21.3021 65.5047 21.1406 66.2079 21.1406C66.6714 21.1406 67.1011 21.2057 67.4969 21.3359C67.8954 21.4661 68.2482 21.6562 68.5555 21.9062C68.8628 22.1536 69.1128 22.457 69.3055 22.8164C69.5008 23.1758 69.6258 23.5872 69.6805 24.0508ZM71.1134 29.25V21.25H74.2697C74.8764 21.25 75.3934 21.3659 75.8205 21.5977C76.2475 21.8268 76.5731 22.1458 76.797 22.5547C77.0236 22.9609 77.1369 23.4297 77.1369 23.9609C77.1369 24.4922 77.0223 24.9609 76.7931 25.3672C76.5639 25.7734 76.2319 26.0898 75.797 26.3164C75.3647 26.543 74.8413 26.6562 74.2267 26.6562H72.215V25.3008H73.9533C74.2788 25.3008 74.547 25.2448 74.7579 25.1328C74.9715 25.0182 75.1303 24.8607 75.2345 24.6602C75.3413 24.457 75.3947 24.224 75.3947 23.9609C75.3947 23.6953 75.3413 23.4635 75.2345 23.2656C75.1303 23.0651 74.9715 22.9102 74.7579 22.8008C74.5444 22.6888 74.2736 22.6328 73.9454 22.6328H72.8048V29.25H71.1134ZM78.9106 29.25H77.0981L79.8598 21.25H82.0395L84.7973 29.25H82.9848L80.9809 23.0781H80.9184L78.9106 29.25ZM78.7973 26.1055H83.0785V27.4258H78.7973V26.1055Z" fill="#172242"/>
    <path d="M58.1817 33.65H57.5476C57.5101 33.4676 57.4444 33.3074 57.3507 33.1693C57.2586 33.0313 57.1461 32.9153 57.0132 32.8216C56.8819 32.7261 56.7362 32.6545 56.576 32.6068C56.4157 32.5591 56.2487 32.5352 56.0748 32.5352C55.7578 32.5352 55.4706 32.6153 55.2132 32.7756C54.9575 32.9358 54.7538 33.1719 54.6021 33.4838C54.4521 33.7957 54.3771 34.1784 54.3771 34.6318C54.3771 35.0852 54.4521 35.4679 54.6021 35.7798C54.7538 36.0918 54.9575 36.3278 55.2132 36.4881C55.4706 36.6483 55.7578 36.7284 56.0748 36.7284C56.2487 36.7284 56.4157 36.7045 56.576 36.6568C56.7362 36.6091 56.8819 36.5384 57.0132 36.4446C57.1461 36.3491 57.2586 36.2324 57.3507 36.0943C57.4444 35.9545 57.5101 35.7943 57.5476 35.6136H58.1817C58.1339 35.8813 58.047 36.1207 57.9209 36.3321C57.7947 36.5435 57.6379 36.7233 57.4504 36.8716C57.2629 37.0182 57.0524 37.1298 56.8189 37.2065C56.587 37.2832 56.339 37.3216 56.0748 37.3216C55.6282 37.3216 55.2311 37.2125 54.8834 36.9943C54.5356 36.7761 54.262 36.4659 54.0626 36.0636C53.8632 35.6614 53.7635 35.1841 53.7635 34.6318C53.7635 34.0795 53.8632 33.6023 54.0626 33.2C54.262 32.7977 54.5356 32.4875 54.8834 32.2693C55.2311 32.0511 55.6282 31.942 56.0748 31.942C56.339 31.942 56.587 31.9804 56.8189 32.0571C57.0524 32.1338 57.2629 32.2463 57.4504 32.3946C57.6379 32.5412 57.7947 32.7202 57.9209 32.9315C58.047 33.1412 58.1339 33.3807 58.1817 33.65ZM63.4085 34.6318C63.4085 35.1841 63.3088 35.6614 63.1093 36.0636C62.9099 36.4659 62.6363 36.7761 62.2886 36.9943C61.9409 37.2125 61.5437 37.3216 61.0971 37.3216C60.6505 37.3216 60.2534 37.2125 59.9056 36.9943C59.5579 36.7761 59.2843 36.4659 59.0849 36.0636C58.8855 35.6614 58.7857 35.1841 58.7857 34.6318C58.7857 34.0795 58.8855 33.6023 59.0849 33.2C59.2843 32.7977 59.5579 32.4875 59.9056 32.2693C60.2534 32.0511 60.6505 31.942 61.0971 31.942C61.5437 31.942 61.9409 32.0511 62.2886 32.2693C62.6363 32.4875 62.9099 32.7977 63.1093 33.2C63.3088 33.6023 63.4085 34.0795 63.4085 34.6318ZM62.7948 34.6318C62.7948 34.1784 62.719 33.7957 62.5673 33.4838C62.4173 33.1719 62.2136 32.9358 61.9562 32.7756C61.7005 32.6153 61.4142 32.5352 61.0971 32.5352C60.7801 32.5352 60.4929 32.6153 60.2355 32.7756C59.9798 32.9358 59.7761 33.1719 59.6244 33.4838C59.4744 33.7957 59.3994 34.1784 59.3994 34.6318C59.3994 35.0852 59.4744 35.4679 59.6244 35.7798C59.7761 36.0918 59.9798 36.3278 60.2355 36.4881C60.4929 36.6483 60.7801 36.7284 61.0971 36.7284C61.4142 36.7284 61.7005 36.6483 61.9562 36.4881C62.2136 36.3278 62.4173 36.0918 62.5673 35.7798C62.719 35.4679 62.7948 35.0852 62.7948 34.6318ZM64.2587 32.0136H65.0155L66.795 36.3602H66.8564L68.6359 32.0136H69.3928V37.25H68.7996V33.2716H68.7484L67.1121 37.25H66.5394L64.903 33.2716H64.8519V37.25H64.2587V32.0136ZM70.4481 37.25V32.0136H72.2175C72.6283 32.0136 72.964 32.0878 73.2248 32.2361C73.4873 32.3827 73.6817 32.5813 73.8078 32.8318C73.9339 33.0824 73.997 33.3619 73.997 33.6705C73.997 33.979 73.9339 34.2594 73.8078 34.5116C73.6834 34.7639 73.4908 34.9651 73.23 35.1151C72.9692 35.2634 72.6351 35.3375 72.2277 35.3375H70.9595V34.775H72.2072C72.4885 34.775 72.7143 34.7264 72.8848 34.6293C73.0552 34.5321 73.1788 34.4009 73.2555 34.2355C73.3339 34.0685 73.3731 33.8801 73.3731 33.6705C73.3731 33.4608 73.3339 33.2733 73.2555 33.108C73.1788 32.9426 73.0544 32.8131 72.8822 32.7193C72.7101 32.6239 72.4817 32.5761 72.197 32.5761H71.0822V37.25H70.4481ZM74.8025 37.25V32.0136H75.4365V36.6875H77.8706V37.25H74.8025ZM79.2705 32.0136V37.25H78.6365V32.0136H79.2705ZM80.5407 37.25H79.8759L81.7986 32.0136H82.4532L84.3759 37.25H83.7111L82.1464 32.842H82.1055L80.5407 37.25ZM80.7861 35.2045H83.4657V35.767H80.7861V35.2045ZM89.1278 32.0136V37.25H88.5142L85.6608 33.1386H85.6096V37.25H84.9755V32.0136H85.5892L88.4528 36.1352H88.504V32.0136H89.1278ZM89.8943 32.5761V32.0136H93.8215V32.5761H92.175V37.25H91.5409V32.5761H89.8943Z" fill="#172242"/>
    <rect x="18.1367" y="15.25" width="7.70094" height="11.5514" rx="3.85047" stroke="#4975FF" stroke-width="2"/>
    <rect x="15.7313" y="21.5047" width="12.514" height="7.70094" rx="0.481308" fill="#4975FF" stroke="#4975FF" stroke-width="0.962617"/>
    <path d="M21.9863 22.9531C22.5178 22.9533 22.9482 23.3844 22.9482 23.916C22.9482 24.2012 22.8239 24.4565 22.627 24.6328V26.1641C22.6269 26.5185 22.3398 26.8057 21.9854 26.8057C21.631 26.8056 21.3438 26.5184 21.3438 26.1641V24.6309C21.1478 24.4546 21.0235 24.2003 21.0234 23.916C21.0234 23.3843 21.4547 22.9531 21.9863 22.9531Z" fill="white"/>
    <path d="M1.25 10.5407V15.829C1.25 32.471 9.22164 40.6877 22.2501 49.25C35.2784 40.6877 43.25 32.471 43.25 15.829V10.5407C38.5656 10.5407 34.7681 6.38115 34.7681 1.25H9.73205C9.73205 6.38115 5.93443 10.5407 1.25 10.5407Z" stroke="#4975FF" stroke-width="2.5" stroke-miterlimit="10" stroke-linecap="round"/>
</svg>
