<svg xmlns="http://www.w3.org/2000/svg" width="52" height="52" viewBox="0 0 52 52" fill="none">
    <g clip-path="url(#clip0_4643_39066)">
        <path d="M22.5791 49.4114L23.3975 49.6786C23.343 49.9309 23.2611 50.1386 23.1384 50.3019C23.0156 50.4652 22.8792 50.5987 22.7019 50.6729C22.5245 50.762 22.3063 50.8065 22.0335 50.8065C21.7061 50.8065 21.447 50.762 21.2287 50.6581C21.0241 50.5542 20.8468 50.3761 20.6967 50.109C20.5467 49.8567 20.4648 49.5153 20.4648 49.1146C20.4648 48.5803 20.6012 48.1647 20.8604 47.8679C21.1196 47.5711 21.5015 47.4375 21.9789 47.4375C22.3609 47.4375 22.6473 47.5266 22.8656 47.6898C23.0838 47.8531 23.2475 48.1054 23.343 48.4616L22.5245 48.6545C22.4973 48.5506 22.47 48.4764 22.4291 48.4319C22.3745 48.3577 22.3199 48.2983 22.2381 48.2538C22.1563 48.2093 22.0744 48.1944 21.9926 48.1944C21.788 48.1944 21.6243 48.2835 21.5152 48.4764C21.4333 48.61 21.3924 48.8326 21.3924 49.1146C21.3924 49.4708 21.447 49.7231 21.5424 49.8567C21.6379 49.9902 21.788 50.0644 21.9653 50.0644C22.1426 50.0644 22.279 50.0051 22.3609 49.9012C22.47 49.7676 22.5382 49.6192 22.5791 49.4114Z" fill="#4975FF"/>
        <path d="M23.7266 49.1138C23.7266 48.5795 23.863 48.1639 24.1358 47.8671C24.4086 47.5703 24.7905 47.4219 25.2816 47.4219C25.7863 47.4219 26.1682 47.5703 26.441 47.8523C26.7138 48.1491 26.8502 48.5498 26.8502 49.0841C26.8502 49.47 26.7957 49.7817 26.6729 50.0191C26.5501 50.2566 26.3864 50.4495 26.1546 50.5831C25.9363 50.7167 25.6499 50.7909 25.3225 50.7909C24.9815 50.7909 24.7087 50.7315 24.4768 50.6128C24.2585 50.494 24.0812 50.316 23.9312 50.0488C23.7811 49.7817 23.7266 49.4997 23.7266 49.1138ZM24.6541 49.1138C24.6541 49.4403 24.7087 49.6778 24.8178 49.8262C24.9269 49.9746 25.077 50.0488 25.2816 50.0488C25.4862 50.0488 25.6362 49.9746 25.7453 49.841C25.8545 49.6926 25.909 49.4403 25.909 49.0841C25.909 48.7724 25.8545 48.5498 25.7317 48.4163C25.6226 48.2678 25.4589 48.2085 25.2679 48.2085C25.077 48.2085 24.9269 48.2827 24.8178 48.4311C24.7087 48.5498 24.6541 48.7873 24.6541 49.1138Z" fill="#4975FF"/>
        <path d="M27.3281 47.4844H28.5421L29.0058 49.4731L29.4696 47.4844H30.6836V50.7495H29.9197V48.2561L29.3332 50.7495H28.6512L28.0646 48.2561V50.7495H27.3008V47.4844H27.3281Z" fill="#4975FF"/>
        <path d="M31.2812 47.4844H32.8226C33.1636 47.4844 33.4092 47.5734 33.5728 47.7515C33.7365 47.9296 33.8184 48.1671 33.8184 48.4936C33.8184 48.8201 33.7229 49.0872 33.5456 49.2653C33.3682 49.4583 33.0818 49.5473 32.7135 49.5473H32.2088V50.7643H31.2812V47.4844ZM32.2088 48.8795H32.4407C32.618 48.8795 32.7408 48.8498 32.8226 48.7756C32.8908 48.7014 32.9317 48.6272 32.9317 48.5233C32.9317 48.4194 32.9045 48.3303 32.8363 48.2561C32.7681 48.1819 32.6589 48.1522 32.4816 48.1522H32.2224V48.8795H32.2088Z" fill="#4975FF"/>
        <path d="M34.3086 47.4844H35.2361V49.948H36.682V50.7495H34.3086V47.4844Z" fill="#4975FF"/>
        <path d="M37.1445 47.4844H38.0721V50.7495H37.1445V47.4844Z" fill="#4975FF"/>
        <path d="M40.583 50.1996H39.5326L39.3826 50.7339H38.4414L39.5736 47.4688H40.583L41.7151 50.7339H40.7466L40.583 50.1996ZM40.392 49.502L40.0646 48.3296L39.7372 49.502H40.392Z" fill="#4975FF"/>
        <path d="M42.0039 47.4844H42.8633L43.9954 49.295V47.4844H44.8684V50.7495H43.9954L42.8769 48.9537V50.7495H42.0039V47.4844Z" fill="#4975FF"/>
        <path d="M45.2773 47.4844H48.1009V48.2858H47.1597V50.7495H46.2322V48.2858H45.291V47.4844H45.2773Z" fill="#4975FF"/>
        <path d="M20.3633 35.0625H24.8237C25.7103 35.0625 26.4196 35.1961 26.9516 35.4484C27.4972 35.7155 27.9474 36.0866 28.2884 36.5615C28.643 37.0513 28.9022 37.6152 29.0522 38.2534C29.2159 38.8916 29.2978 39.5743 29.2978 40.3015C29.2978 41.4295 29.175 42.3051 28.9431 42.9285C28.7112 43.5518 28.3839 44.0712 27.961 44.5016C27.5381 44.9172 27.088 45.1992 26.6106 45.3476C25.9559 45.5405 25.3557 45.6296 24.8237 45.6296H20.3633V35.0625ZM23.3642 37.452V43.2253H24.1008C24.7282 43.2253 25.1784 43.1511 25.4375 43.0027C25.6967 42.8542 25.9149 42.5871 26.065 42.2161C26.215 41.845 26.2969 41.2217 26.2969 40.3757C26.2969 39.2478 26.1332 38.4909 25.7922 38.0753C25.4512 37.6597 24.9055 37.452 24.1144 37.452H23.3642Z" fill="#4975FF"/>
        <path d="M30.1289 42.1473L32.9934 41.9544C33.0616 42.459 33.1844 42.8448 33.3753 43.112C33.6891 43.5424 34.1256 43.7502 34.6985 43.7502C35.1213 43.7502 35.4623 43.6463 35.6942 43.4237C35.9261 43.201 36.0488 42.9487 36.0488 42.6667C36.0488 42.3996 35.9397 42.1473 35.7215 41.9247C35.5032 41.7021 34.9849 41.5091 34.1801 41.3162C32.857 40.9897 31.9294 40.5593 31.3565 40.025C30.7836 39.4907 30.5108 38.808 30.5108 37.9769C30.5108 37.4277 30.6609 36.9231 30.9473 36.4334C31.2338 35.9436 31.6703 35.5725 32.2568 35.2906C32.8434 35.0086 33.6345 34.875 34.6439 34.875C35.8852 34.875 36.84 35.1273 37.4811 35.6319C38.1358 36.1365 38.5178 36.938 38.6405 38.0362L35.8033 38.2143C35.7215 37.7394 35.5714 37.398 35.3259 37.1754C35.0804 36.9528 34.753 36.8489 34.3302 36.8489C33.9755 36.8489 33.7163 36.9231 33.539 37.0864C33.3617 37.2496 33.2798 37.4426 33.2798 37.68C33.2798 37.8433 33.348 38.0065 33.4981 38.1401C33.6345 38.2737 33.9755 38.4073 34.5075 38.526C35.817 38.8377 36.7582 39.1493 37.3311 39.461C37.904 39.7727 38.3132 40.1734 38.5723 40.6335C38.8315 41.0936 38.9543 41.6278 38.9543 42.2067C38.9543 42.8894 38.7769 43.5127 38.4359 44.0767C38.0949 44.6555 37.6039 45.0859 36.99 45.3827C36.3762 45.6796 35.5851 45.828 34.6439 45.828C32.9934 45.828 31.8476 45.4866 31.2065 44.7891C30.579 44.0915 30.2244 43.2159 30.1289 42.1473Z" fill="#4975FF"/>
        <path d="M39.7227 42.1473L42.5871 41.9544C42.6553 42.459 42.7781 42.8448 42.9691 43.112C43.2828 43.5424 43.7193 43.7502 44.2922 43.7502C44.7151 43.7502 45.0561 43.6463 45.2879 43.4237C45.5198 43.201 45.6426 42.9487 45.6426 42.6667C45.6426 42.3996 45.5335 42.1473 45.3152 41.9247C45.097 41.7021 44.5786 41.5091 43.7739 41.3162C42.4507 40.9897 41.5232 40.5593 40.9503 40.025C40.391 39.4907 40.1046 38.808 40.1046 37.9769C40.1046 37.4277 40.2546 36.9231 40.5411 36.4334C40.8275 35.9436 41.264 35.5725 41.8506 35.2906C42.4371 35.0086 43.2282 34.875 44.2376 34.875C45.4789 34.875 46.4337 35.1273 47.0748 35.6319C47.7296 36.1365 48.1115 36.938 48.2343 38.0362L45.3971 38.2143C45.3152 37.7394 45.1652 37.398 44.9197 37.1754C44.6741 36.9528 44.3468 36.8489 43.9239 36.8489C43.5693 36.8489 43.3101 36.9231 43.1328 37.0864C42.9554 37.2496 42.8736 37.4426 42.8736 37.68C42.8736 37.8433 42.9418 38.0065 43.0918 38.1401C43.2282 38.2737 43.5693 38.4073 44.1012 38.526C45.4107 38.8377 46.3519 39.1493 46.9248 39.461C47.4977 39.7727 47.9069 40.1734 48.1661 40.6335C48.4252 41.0936 48.548 41.6278 48.548 42.2067C48.548 42.8894 48.3707 43.5127 48.0297 44.0767C47.6887 44.6555 47.1976 45.0859 46.5838 45.3827C45.97 45.6796 45.1788 45.828 44.2376 45.828C42.5871 45.828 41.4413 45.4866 40.8002 44.7891C40.1591 44.0915 39.8045 43.2159 39.7227 42.1473Z" fill="#4975FF"/>
    </g>
    <g clip-path="url(#clip1_4643_39066)">
        <path d="M44.2841 22.174L46.9447 21.2629L46.0803 19.1763C45.4456 20.0433 44.8108 21.16 44.2841 22.174ZM43.3793 12.6372L38.1662 0L0 2.35112L10.5747 33.7385L30.9273 26.7586C29.6308 24.7308 29.1581 22.3209 30.6572 21.1454C32.3319 19.8229 34.8574 21.3511 36.4645 23.5112C38.0176 20.6898 42.3799 14.1214 43.3793 12.6372Z" fill="#4975FF"/>
        <path d="M36.98 9.13188C38.5736 9.13188 39.8701 7.80938 39.8701 6.1636C39.8701 4.51781 38.5736 3.19531 36.98 3.19531C35.3864 3.19531 34.0898 4.51781 34.0898 6.1636C34.0898 7.79468 35.3864 9.13188 36.98 9.13188ZM34.6166 10.4103H39.3434V23.8557H34.6166V10.4103Z" fill="#FEFEFE"/>
        <path d="M32.2757 14.3351C32.3162 14.3498 32.3432 14.3351 32.3432 14.2911V10.8819C32.3432 10.8379 32.3162 10.7938 32.2757 10.7644C32.2757 10.7644 31.6544 10.3236 29.7637 10.206C29.6691 10.1472 28.008 10.1325 27.5623 10.206C20.6746 10.8085 20.418 16.2307 20.418 16.4658V17.7883C20.418 17.95 20.418 23.4898 27.5623 23.9747C28.2646 24.0335 29.6286 23.9747 29.7637 23.9747C31.4113 23.9747 32.5458 23.431 32.5458 23.431C32.5863 23.4163 32.6133 23.3722 32.6133 23.3282V20.1395C32.6133 20.0954 32.5863 20.0807 32.5593 20.1101C32.5593 20.1101 32.0461 20.5509 29.8042 20.8007C29.1695 20.8742 28.8588 20.8448 28.6292 20.8007C25.442 20.2129 25.2934 17.6855 25.2934 17.6855C25.2934 17.6414 25.2799 17.5679 25.2799 17.5385V16.5687C25.2799 16.5246 25.2799 16.4512 25.2934 16.4218C25.2934 16.4218 25.5095 13.7033 28.6292 13.4094H29.8042C31.1682 13.6004 32.2757 14.3351 32.2757 14.3351Z" fill="#FEFEFE"/>
        <path d="M7.29297 23.8144C7.29297 23.8585 7.31998 23.8879 7.3605 23.8879H11.9658C12.0063 23.8879 12.0334 23.8585 12.0334 23.8144V19.9057C12.0334 19.8616 12.0604 19.8322 12.1009 19.8322C12.1009 19.8322 19.4613 20.4053 19.4613 15.0418C19.4613 10.7951 14.8425 10.3396 13.3299 10.4131C13.3029 10.4131 7.3605 10.4131 7.3605 10.4131C7.31998 10.4131 7.29297 10.4424 7.29297 10.4865V23.8144ZM11.9523 16.8492V13.3373H13.0868C13.0868 13.3373 14.7209 13.4107 14.856 14.6304C14.883 14.7185 14.883 15.321 14.856 15.3504C14.6399 16.7758 13.2218 16.8492 13.2218 16.8492H11.9523Z" fill="#FEFEFE"/>
        <path d="M37.1136 30.3499C37.4918 30.3499 37.7889 30.3499 38.2751 30.1148C39.9497 29.1596 45.6085 14.1272 51.5779 9.49842C51.6184 9.46903 51.6589 9.42495 51.6859 9.38086C51.7264 9.32209 51.7264 9.26331 51.7264 9.26331C51.7264 9.26331 51.7264 8.95473 50.8486 8.95473C45.541 8.79309 40.0173 20.916 37.1136 25.7064C37.0731 25.7652 36.884 25.7064 36.884 25.7064C36.884 25.7064 34.9393 23.2084 33.2511 22.2532C33.2106 22.2385 33.0215 22.1651 32.8189 22.1798C32.6839 22.1798 31.9005 22.3561 31.5359 22.7675C31.1037 23.2671 31.1172 23.5463 31.1172 24.1488C31.1172 24.1929 31.1442 24.3986 31.1983 24.5015C31.6169 25.295 33.4942 28.1163 35.0473 29.6739C35.2769 29.865 35.6415 30.3499 37.1136 30.3499Z" fill="#172242"/>
    </g>
    <defs>
        <clipPath id="clip0_4643_39066">
            <rect width="29.2648" height="17.3173" fill="white" transform="translate(19.5508 34.5312)"/>
        </clipPath>
        <clipPath id="clip1_4643_39066">
            <rect width="51.85" height="33.7385" fill="white"/>
        </clipPath>
    </defs>
</svg>
