<svg xmlns="http://www.w3.org/2000/svg" width="61" height="61" viewBox="0 0 61 61" fill="none">
    <g clip-path="url(#clip0_4643_39063)">
        <path fill-rule="evenodd" clip-rule="evenodd" d="M125.944 0.275816C124.836 0.760836 124.12 1.80676 124.12 2.9431C124.12 4.25419 124.748 5.24938 125.855 5.69451C126.948 6.134 127.428 6.13096 128.375 5.67955C129.361 5.20927 129.945 4.22883 129.946 3.03959C129.947 1.80525 129.407 0.929087 128.319 0.399837C127.295 -0.0979755 126.851 -0.121176 125.944 0.275816ZM30.4366 0.512797C30.3671 0.632047 30.1455 1.23762 29.9437 1.8588L29.5769 2.98776L28.0526 3.05129L26.528 3.1146L27.741 3.9526C29.0648 4.86714 29.057 4.83375 28.3954 6.74629C28.2407 7.19358 28.1643 7.55935 28.2254 7.55935C28.2867 7.55935 28.7819 7.21787 29.3259 6.80049C29.8699 6.38312 30.3742 6.04163 30.4465 6.04163C30.5188 6.04163 31.0555 6.38269 31.6392 6.79963C32.2226 7.21657 32.7326 7.52531 32.7718 7.48564C32.8113 7.44618 32.6482 6.84299 32.4093 6.14549C32.1704 5.44799 32.055 4.82226 32.1525 4.75483C32.2503 4.6874 32.7969 4.29084 33.3676 3.87346L34.4051 3.1146L32.8845 3.05129L31.3638 2.98776L30.9633 1.64198C30.7428 0.901549 30.5058 0.393548 30.4366 0.512797ZM117.215 2.16148C115.493 2.42686 109.768 4.87993 108.951 5.70253C108.586 6.07047 108.585 6.11687 108.929 6.49977C109.471 7.101 110.602 7.33994 112.913 7.34124C115.209 7.34275 114.57 7.09298 121.315 10.6258C122.561 11.2784 124.018 11.995 124.552 12.2181C125.086 12.441 125.59 12.6611 125.671 12.7068C125.885 12.8265 126.71 11.9501 126.71 11.6041C126.71 11.4436 125.903 10.8168 124.916 10.211C122.428 8.68312 121.553 7.24887 121.536 4.67222C121.533 4.21734 121.438 3.67009 121.324 3.45631C120.802 2.47738 118.951 1.89392 117.215 2.16148ZM135.126 2.14586C133.345 2.45136 132.816 3.10463 132.571 5.30142C132.465 6.25455 132.226 7.33061 132.04 7.6927C131.584 8.57688 130.322 9.67397 128.699 10.5948C127.964 11.0122 127.361 11.4213 127.36 11.5041C127.358 11.5869 127.582 11.9176 127.857 12.2389L128.357 12.823L129.853 12.139C131.632 11.3257 132.854 10.703 136.312 8.8466L138.902 7.4568L141.491 7.33842C145.872 7.13851 146.553 6.33889 143.649 4.80361C139.801 2.769 136.853 1.84947 135.126 2.14586ZM16.7423 5.22857L16.3118 6.58368L14.8459 6.64829L13.3801 6.7129L14.5751 7.57258L15.7699 8.43226L15.3505 9.65749C15.1198 10.3314 14.9752 10.9272 15.0291 10.9816C15.0833 11.0358 15.5999 10.7318 16.1774 10.306L17.2272 9.53174L18.4457 10.4001L19.664 11.2687L19.2402 10.0306C19.007 9.34961 18.8164 8.68572 18.8166 8.55519C18.8169 8.42489 19.3166 7.97673 19.9273 7.55935L21.0377 6.80049L19.6177 6.73675L18.1978 6.67301L17.734 5.27323C17.4792 4.50332 17.2485 3.87346 17.2218 3.87346C17.195 3.87346 16.9792 4.48337 16.7423 5.22857ZM43.2904 5.21014L42.854 6.58368L41.4247 6.69209L39.9951 6.80049L41.0533 7.55935C41.6353 7.97673 42.1137 8.42489 42.1165 8.55519C42.1191 8.68572 41.9322 9.34419 41.7013 10.0187C41.4702 10.6934 41.3017 11.2452 41.3265 11.2452C41.3513 11.2452 41.9042 10.8632 42.555 10.396L43.7381 9.54692L44.71 10.2446C46.2544 11.3537 46.2363 11.3573 45.7803 10.0259C45.5482 9.34745 45.3602 8.68572 45.3628 8.55519C45.3656 8.42489 45.844 7.97673 46.426 7.55935L47.4842 6.80049L46.0609 6.69209L44.6373 6.58368L44.182 5.21014L43.7267 3.83639L43.2904 5.21014ZM105.886 6.71854C104.022 7.32411 97.6036 8.61135 94.2785 9.0465L91.4286 9.41943L92.0242 10.0191C92.9784 10.9801 94.0168 11.3027 96.4996 11.4105C99.9218 11.5588 102.946 11.0302 107.721 9.44957L111.713 8.12807L110.44 7.95591C109.072 7.77097 108.305 7.38351 107.936 6.69209C107.661 6.17498 107.555 6.17649 105.886 6.71854ZM146.137 6.78922C145.803 7.41495 144.508 7.9867 143.375 8.00838L142.57 8.02356L143.541 8.45632C145.461 9.3121 150.618 10.7871 152.857 11.1212C157.496 11.8133 160.693 11.4579 162.045 10.1L162.77 9.37151L160.331 9.09832C157.294 8.75814 149.908 7.30004 148.201 6.70379C146.589 6.14072 146.48 6.14527 146.137 6.78922ZM125.631 6.99194C125.631 7.15694 125.834 7.34536 126.081 7.4104C126.491 7.51794 126.526 7.65952 126.459 8.95392L126.386 10.3788L127.041 10.3784L127.695 10.378L127.61 8.86026C127.529 7.43295 127.551 7.34254 127.98 7.34254C128.242 7.34254 128.436 7.20377 128.436 7.01731C128.436 6.76168 128.136 6.69209 127.034 6.69209C125.983 6.69209 125.631 6.76732 125.631 6.99194ZM111.605 8.76724C107.585 10.5941 102.441 11.972 98.118 12.3796C97.5108 12.4369 97.5376 12.4657 98.5496 12.8434C99.9609 13.3703 103.938 13.5613 106.122 13.2072C108.203 12.8701 111.672 11.6928 113.869 10.5792C116.664 9.1612 116.828 8.91164 115.362 8.2961C114.281 7.8423 113.395 7.95353 111.605 8.76724ZM138.487 8.50988L137.641 9.0246L138.595 9.63104C140.971 11.1407 145.209 12.7294 148.117 13.2005C150.306 13.555 154.063 13.3761 155.625 12.8428L156.812 12.4377L155.086 12.2823C151.49 11.9586 146.437 10.5224 142.379 8.67097C140.598 7.85878 139.624 7.81845 138.487 8.50988ZM116.876 9.75333C116.794 9.88667 115.453 10.6156 113.896 11.3732C111.321 12.6262 108.713 13.4932 106.102 13.965L105.239 14.1211L105.994 14.4656C106.548 14.7184 107.441 14.8117 109.339 14.8149C111.854 14.8193 111.987 14.7954 113.978 13.9791C115.855 13.2096 119.27 11.5536 119.998 11.0601C120.227 10.9044 120.022 10.6967 119.134 10.1854C117.925 9.48881 117.132 9.33704 116.876 9.75333ZM135.446 9.96537C133.759 10.8569 133.768 10.8842 136.165 12.0923C137.362 12.696 139.196 13.5548 140.24 14.0008C142.075 14.7843 142.225 14.8115 144.728 14.8167C146.653 14.8208 147.512 14.733 148.073 14.4752L148.828 14.1283L147.533 13.8622C144.328 13.2038 140.114 11.5585 137.974 10.1302C136.865 9.39016 136.57 9.37086 135.446 9.96537ZM120.616 12.8839C118.364 13.4323 116.626 14.6534 116.019 16.1132C115.846 16.5286 115.705 17.503 115.705 18.2786C115.705 21.1254 117.123 22.9685 120.109 24.0034C121.817 24.5955 123.516 24.8507 127.388 25.0968C130.933 25.3219 132.046 25.6655 133.029 26.8398C133.715 27.6594 133.81 28.7799 133.237 29.3011C133.029 29.4902 132.353 29.8802 131.736 30.1675L130.613 30.6901L132.147 31.4949L133.68 32.2995L134.457 31.6716C135.76 30.6185 136.204 29.777 136.204 28.3664C136.204 27.4259 136.058 26.8396 135.602 25.9632C134.356 23.5665 132.356 22.7186 126.71 22.1921C122.691 21.8175 121.432 21.5178 119.979 20.5896C119.169 20.0727 118.936 19.7857 118.819 19.1595C118.612 18.0479 118.837 16.9536 119.473 15.9888C120.166 14.937 120.806 14.7733 122.368 15.2486C123.749 15.6683 124.944 15.4927 125.878 14.7321L126.382 14.3221L125.953 13.8371C124.886 12.6335 123.016 12.2994 120.616 12.8839ZM129.592 12.8924C128.672 13.3479 127.922 14.1857 128.075 14.5857C128.144 14.7657 128.751 15.0742 129.426 15.2711C130.556 15.6013 130.734 15.602 131.726 15.28C133.352 14.7525 133.703 14.8203 134.56 15.8268C135.447 16.8684 135.738 18.1691 135.348 19.3568C135.05 20.2618 133.92 21.0369 132.105 21.5809C130.919 21.9361 130.919 21.9367 131.565 22.1425C131.921 22.2557 132.863 22.6429 133.658 23.003L135.104 23.6578L136.049 23.1015C137.607 22.1837 138.578 20.3457 138.578 18.3122C138.578 16.7101 138.26 15.8264 137.34 14.8709C136.291 13.7809 135.281 13.269 133.39 12.8694C131.457 12.4609 130.45 12.467 129.592 12.8924ZM124.552 13.4134C124.552 13.5327 124.358 13.6302 124.12 13.6302C123.883 13.6302 123.689 13.5327 123.689 13.4134C123.689 13.2942 123.883 13.1966 124.12 13.1966C124.358 13.1966 124.552 13.2942 124.552 13.4134ZM130.378 13.4134C130.378 13.5327 130.184 13.6302 129.947 13.6302C129.709 13.6302 129.515 13.5327 129.515 13.4134C129.515 13.2942 129.709 13.1966 129.947 13.1966C130.184 13.1966 130.378 13.2942 130.378 13.4134ZM7.03186 14.9853L6.60136 16.3404L5.13552 16.4051L3.66968 16.4697L4.86471 17.3293L6.05952 18.189L5.64003 19.4143C5.40935 20.0881 5.26478 20.6839 5.31872 20.7384C5.37289 20.7926 5.8938 20.4856 6.47621 20.056L7.53529 19.2748L8.7314 20.1354L9.92751 20.9962L9.51838 19.6439C9.29331 18.9002 9.10859 18.243 9.10795 18.1834C9.10708 18.1238 9.6062 17.7335 10.2169 17.3161L11.3273 16.5573L9.90722 16.4935L8.48734 16.4298L8.02362 15.03C7.76877 14.2601 7.5381 13.6302 7.51134 13.6302C7.48458 13.6302 7.26879 14.2401 7.03186 14.9853ZM52.9833 14.9311L52.5653 16.3404L51.1353 16.4489L49.7055 16.5573L50.7637 17.3161C51.3457 17.7335 51.8241 18.1817 51.8269 18.312C51.8295 18.4425 51.6426 19.101 51.4117 19.7755C51.1806 20.4502 51.0175 21.002 51.049 21.002C51.0805 21.002 51.6245 20.6135 52.2578 20.1386L53.4095 19.2755L54.4008 19.9873C55.9677 21.1126 55.9476 21.1165 55.4908 19.7826C55.2586 19.1042 55.0685 18.4334 55.0685 18.2918C55.0685 18.1502 55.5546 17.7021 56.1489 17.296L57.2294 16.5573L55.7886 16.4489L54.3477 16.3404L53.8745 14.9311L53.4013 13.5218L52.9833 14.9311ZM126.197 15.8255C126.123 16.1982 126.062 17.6129 126.062 18.9694V21.4356H127.034H128.005V18.9694C128.005 17.6129 127.944 16.1982 127.87 15.8255C127.752 15.2334 127.646 15.148 127.034 15.148C126.421 15.148 126.315 15.2334 126.197 15.8255ZM118.84 25.506C118.23 26.4326 117.797 28.3504 118.004 29.209C118.215 30.0832 119.169 31.3162 120.11 31.9313C121.606 32.909 124.643 33.5603 127.789 33.5778C130.416 33.5926 132.102 34.7187 132.104 36.4606C132.105 37.0933 131.214 38.1306 130.67 38.1306C130.219 38.1306 130.325 38.4673 130.864 38.7429C131.131 38.8795 131.549 39.1388 131.794 39.3189C132.201 39.619 132.301 39.6006 132.981 39.1008C133.858 38.4556 134.239 37.6848 134.253 36.5296C134.276 34.4679 133.112 32.672 131.221 31.8546C130.378 31.4905 129.387 31.3206 127.209 31.1664C122.909 30.862 120.668 29.839 120.668 28.1813C120.668 27.4361 121.695 26.105 122.461 25.8563C122.838 25.7343 122.606 25.6014 121.315 25.1996C120.425 24.9227 119.625 24.6942 119.538 24.692C119.451 24.6899 119.137 25.0561 118.84 25.506ZM126.278 27.9402V30.3251H127.034H127.789V27.9402V25.5552H127.034H126.278V27.9402ZM17.4136 26.7635C16.3215 27.3342 15.7961 27.979 15.4508 29.1721C14.5406 32.3179 16.5043 35.0791 19.4508 34.7968C21.3705 34.6129 22.4311 33.534 22.6339 31.5591L22.7608 30.3251H21.0043H19.2478V30.9756C19.2478 31.5898 19.2957 31.6261 20.1109 31.6261C21.1402 31.6261 21.2494 32.0196 20.4443 32.8283C19.7788 33.4972 18.6637 33.5351 17.8795 32.9152C16.7352 32.0109 16.6219 29.5537 17.6756 28.4948C18.4338 27.7331 19.7029 27.7272 20.4543 28.4822C21.0673 29.0982 22.4846 29.2612 22.4846 28.7157C22.4846 28.2201 21.3787 27.0395 20.6135 26.7182C19.6766 26.3249 18.2131 26.3455 17.4136 26.7635ZM23.9951 30.561V34.6999L26.3537 34.6264C29.0804 34.5416 29.6082 34.292 30.4148 32.7058C31.3254 30.9151 30.9778 28.5915 29.6282 27.4506C28.7299 26.6911 27.7041 26.425 25.6675 26.4237L23.9951 26.4224V30.561ZM32.339 26.5671C32.2598 26.6464 32.195 28.5002 32.195 30.6866V34.6615H33.0582H33.9213V33.3606V32.0597H35.0072C37.0921 32.0597 38.2397 31.1976 38.3957 29.5143C38.5154 28.2218 37.8426 27.0946 36.719 26.7056C35.923 26.4302 32.5804 26.3244 32.339 26.5671ZM39.7476 30.542V34.6615H40.6107H41.4739V33.2522V31.8429H42.1232C42.7077 31.8429 42.8418 31.9838 43.4643 33.2522L44.1559 34.6615H45.0924H46.0289L45.2227 33.1201C44.4172 31.5797 44.417 31.5786 44.8622 31.223C45.9521 30.3523 46.1299 28.5967 45.2363 27.5295C44.5491 26.7089 43.5703 26.4253 41.4199 26.4237L39.7476 26.4224V30.542ZM145.915 30.542V34.6615H146.778H147.641V33.0354V31.4092H149.475H151.31V33.0354V34.6615H152.177H153.045L152.987 30.5962L152.928 26.5308L152.119 26.4636L151.31 26.3962V28.144V29.8915H149.475H147.641V28.157V26.4224H146.778H145.915V30.542ZM154.546 30.542V34.6615H155.302H156.057V30.542V26.4224H155.302H154.546V30.542ZM157.711 26.5671C157.632 26.6464 157.567 28.5002 157.567 30.6866V34.6615H158.431H159.294V33.3606V32.0597H160.38C161.817 32.0597 162.855 31.5966 163.388 30.7176C164.28 29.248 163.63 27.2383 162.091 26.7056C161.295 26.4302 157.953 26.3244 157.711 26.5671ZM165.65 28.851C165.206 30.1985 164.568 32.0571 164.232 32.9812L163.62 34.6615H164.552C165.451 34.6615 165.492 34.632 165.742 33.7942L166 32.927H167.576H169.152L169.41 33.7942C169.655 34.6162 169.713 34.6615 170.523 34.6615C171.072 34.6615 171.372 34.5644 171.361 34.3905C171.352 34.2415 170.745 32.412 170.013 30.3251L168.68 26.5308L167.569 26.466L166.457 26.4012L165.65 28.851ZM174.84 26.9402C174.492 27.858 172.241 34.482 172.241 34.5858C172.241 34.6411 172.651 34.6565 173.151 34.6196C174.007 34.557 174.073 34.5047 174.251 33.74L174.442 32.927H176.03H177.618L177.877 33.7942C178.127 34.632 178.167 34.6615 179.068 34.6615H180L178.602 30.612C177.833 28.3849 177.204 26.5311 177.204 26.4925C177.204 26.4539 176.716 26.4224 176.12 26.4224C175.175 26.4224 175.01 26.4892 174.84 26.9402ZM3.82548 27.3402C3.73873 27.5469 3.5456 28.1323 3.39649 28.6411L3.12546 29.5663L1.56273 29.6305L0 29.6946L1.20819 30.5639C1.87282 31.042 2.41639 31.5101 2.41639 31.6039C2.41639 31.698 2.22736 32.3268 1.99646 33.0013C1.76536 33.6761 1.62552 34.2279 1.68573 34.2279C1.74572 34.2279 2.24009 33.8864 2.78409 33.469C3.32809 33.0516 3.85612 32.7101 3.95732 32.7101C4.05874 32.7101 4.62734 33.0607 5.22119 33.4894C5.81482 33.9178 6.30056 34.1771 6.30056 34.0652C6.30056 33.9536 6.11498 33.3205 5.8884 32.6583L5.47625 31.4546L6.68574 30.6187L7.89544 29.7831L6.38148 29.7202L4.86751 29.6574L4.42536 28.3109C4.10017 27.3209 3.94135 27.064 3.82548 27.3402ZM56.4758 28.358L56.0844 29.6569L54.5771 29.72L53.0699 29.7831L54.2849 30.6226C54.9532 31.0842 55.5 31.4836 55.5 31.5101C55.5 31.5365 55.3056 32.126 55.0678 32.8203C54.8302 33.5143 54.6693 34.116 54.7105 34.1572C54.7515 34.1984 55.2314 33.8896 55.7769 33.4712C56.3224 33.0525 56.8548 32.7101 56.9596 32.7101C57.0645 32.7101 57.6238 33.0484 58.2026 33.4618C58.7813 33.8751 59.2841 34.1838 59.3201 34.1479C59.3559 34.1116 59.1909 33.5143 58.9533 32.8203C58.7155 32.126 58.5211 31.5324 58.5211 31.5009C58.5211 31.4693 59.0793 31.0456 59.7618 30.5591L61.0026 29.6747H59.4554H57.9085L57.5407 28.5364C57.3388 27.9105 57.1044 27.3218 57.0203 27.2286C56.9361 27.1353 56.6912 27.6436 56.4758 28.358ZM28.671 28.6778C29.0659 29.1389 29.174 29.5214 29.174 30.4563C29.174 32.4888 28.3547 33.3606 26.4445 33.3606H25.7214V30.6235V27.8864L26.9447 27.9883C27.9369 28.0711 28.2634 28.2014 28.671 28.6778ZM36.3319 28.299C36.8159 28.7391 36.8455 29.7413 36.3878 30.2009C35.9812 30.6094 35.2301 30.8212 34.5368 30.7226C34.0741 30.6567 34.0236 30.5307 33.9649 29.2953L33.9008 27.9402H34.9191C35.5637 27.9402 36.082 28.0718 36.3319 28.299ZM43.7243 28.2808C44.1401 28.6988 44.168 29.7512 43.7718 30.0814C43.6115 30.2152 43.0288 30.3867 42.4771 30.4628L41.4739 30.6009V29.2705V27.9402H42.4296C43.0105 27.9402 43.518 28.0737 43.7243 28.2808ZM161.763 28.4221C162.259 29.1342 162.173 29.8015 161.517 30.3199C161.116 30.6365 160.696 30.7597 160.168 30.7152L159.402 30.6504L159.337 29.2953L159.273 27.9402H160.35C161.219 27.9402 161.492 28.0336 161.763 28.4221ZM168.132 29.8607C168.374 30.6786 168.573 31.4103 168.573 31.4869C168.573 31.5634 168.136 31.6261 167.602 31.6261C166.946 31.6261 166.63 31.5339 166.63 31.3429C166.63 31.0027 167.5 28.3738 167.612 28.3738C167.656 28.3738 167.889 29.0429 168.132 29.8607ZM176.725 30.0377C176.967 30.774 177.109 31.4327 177.04 31.5012C176.865 31.6777 175.046 31.6573 175.046 31.4788C175.046 31.0174 176.019 28.3998 176.14 28.536C176.219 28.6255 176.482 29.3013 176.725 30.0377ZM120.479 34.2138C119.425 36.6742 120.079 38.6813 122.288 39.7671C123.306 40.2673 123.884 40.3796 126.123 40.5119C127.573 40.5975 129.014 40.7723 129.325 40.9006C130.175 41.2512 130.81 42.1905 130.81 43.0983C130.81 44.0638 130.391 44.704 129.524 45.0652C129.163 45.2153 128.871 45.3996 128.875 45.4744C128.878 45.5494 129.243 45.7816 129.684 45.9906C130.452 46.354 130.509 46.3536 131.012 45.9772C133.455 44.1516 133.022 40.7994 130.162 39.3877C129.207 38.9161 128.488 38.7624 126.476 38.5989C123.764 38.3788 122.747 38.0204 122.35 37.1451C122.026 36.4303 122.443 35.0416 123.149 34.4835L123.678 34.0652L122.421 33.6045C121.729 33.351 121.112 33.1438 121.05 33.1438C120.988 33.1438 120.731 33.6253 120.479 34.2138ZM126.28 34.4989C126.281 34.7673 126.343 35.6454 126.419 36.4502C126.543 37.7741 126.602 37.9137 127.034 37.9137C127.465 37.9137 127.524 37.7741 127.648 36.4502C127.881 33.9748 127.89 34.011 127.034 34.011C126.394 34.011 126.278 34.0856 126.28 34.4989ZM52.9393 41.6042L52.4542 43.1174H51.0203H49.5866L50.7091 43.907C51.3265 44.3413 51.8317 44.8137 51.8317 44.9571C51.8317 45.1004 51.642 45.7716 51.41 46.4488L50.9886 47.6801L52.1938 46.8128C52.8567 46.3358 53.5077 46.0117 53.6404 46.0921C53.7731 46.1727 54.3402 46.568 54.9004 46.9704L55.9193 47.7022L55.4938 46.46C55.2599 45.7766 55.0685 45.1032 55.0685 44.9631C55.0685 44.8231 55.5296 44.3749 56.0935 43.9673L57.1185 43.2258L55.7236 43.1174L54.3285 43.0089L53.8765 41.55L53.4242 40.0908L52.9393 41.6042ZM7.03229 41.6538L6.60201 43.0089L5.25097 43.1174L3.89971 43.2258L4.98188 44.0351L6.06405 44.8447L5.64219 46.0765C5.41022 46.7538 5.26478 47.3527 5.31894 47.4071C5.3731 47.4615 5.78612 47.2178 6.23668 46.8657C7.52752 45.8568 7.50745 45.8571 8.81361 46.8267C9.4886 47.3275 9.99009 47.6005 9.92837 47.4329C9.4722 46.1962 9.07838 44.8072 9.1606 44.7244C9.21498 44.6698 9.73438 44.2858 10.3148 43.8712L11.3703 43.1174H9.93182H8.4936L8.02685 41.708C7.77007 40.9329 7.5381 40.2987 7.51134 40.2987C7.48458 40.2987 7.26901 40.9086 7.03229 41.6538ZM122.1 41.1083C121.551 42.1753 121.465 43.1906 121.848 44.1093C122.566 45.8367 123.833 46.6634 126.314 47.0233C128.616 47.357 128.835 47.4207 129.305 47.8928C129.83 48.4205 129.859 49.786 129.415 53.1317C129.112 55.4191 128.706 56.6322 128.171 56.8486C127.995 56.9195 128.027 56.9657 128.259 56.9765C128.768 57.0006 129.461 56.0364 129.829 54.7901C130.453 52.6807 131.08 49.0046 130.942 48.2668C130.73 47.1315 129.836 46.4277 128.103 46.0309C125.114 45.3465 124.737 45.2138 124.11 44.6253C123.323 43.8871 123.232 42.6159 123.905 41.7573C124.457 41.0522 124.452 41.0238 123.743 40.854C123.416 40.7757 122.984 40.6626 122.783 40.6027C122.536 40.5292 122.313 40.6942 122.1 41.1083ZM126.494 43.1174C126.494 45.0542 126.498 45.0687 127.034 45.0687C127.569 45.0687 127.573 45.0542 127.573 43.1174C127.573 41.1805 127.569 41.166 127.034 41.166C126.498 41.166 126.494 41.1805 126.494 43.1174ZM123.318 47.7863C122.973 48.5146 122.978 48.6778 123.423 51.0928C124.2 55.3086 124.894 57.0199 125.808 56.9765C126.04 56.9657 126.072 56.9195 125.896 56.8486C125.375 56.6376 124.972 55.4683 124.659 53.2542C124.257 50.415 124.249 48.5243 124.635 47.9931C124.902 47.6261 124.877 47.5526 124.395 47.3013C123.685 46.9312 123.735 46.9086 123.318 47.7863ZM126.667 53.7956C126.618 57.7026 126.672 59.9233 126.828 60.3519L127.063 61L127.265 60.3519C127.378 59.9909 127.436 57.086 127.396 53.7956C127.339 49.0046 127.271 47.8873 127.034 47.8873C126.797 47.8873 126.727 49.0063 126.667 53.7956ZM43.3027 51.1938L42.8819 52.6573H41.2693H39.6567L40.8889 53.5662C41.5667 54.0662 42.1212 54.5874 42.1212 54.7249C42.1212 54.8621 41.9316 55.5284 41.6996 56.2055L41.2782 57.4368L42.4833 56.5696C43.1462 56.0926 43.7973 55.7645 43.93 55.8404C44.0627 55.9165 44.6293 56.3105 45.1891 56.7161L46.207 57.4537L45.7825 56.214C45.549 55.5323 45.358 54.8621 45.358 54.7249C45.358 54.5874 45.9126 54.0662 46.5904 53.5662L47.8226 52.6573L46.2128 52.656L44.6028 52.6547L44.163 51.1925L43.7235 49.7303L43.3027 51.1938ZM16.7667 51.3551L16.3742 52.6573H14.7549H13.1354L14.3574 53.5365C15.0296 54.02 15.5794 54.5412 15.5794 54.6945C15.5794 54.8478 15.4374 55.4478 15.2637 56.0275C15.09 56.6075 14.9752 57.1094 15.0086 57.143C15.0421 57.1766 15.5652 56.8555 16.1711 56.4293L17.2727 55.6546L18.4653 56.5399L19.658 57.4251L19.3427 56.3963C18.7223 54.3726 18.6824 54.5371 20.0179 53.615L21.2481 52.7657L19.6742 52.6573L18.1 52.5489L17.7043 51.3759C17.4865 50.7307 17.2749 50.1691 17.2339 50.1277C17.1926 50.0865 16.9825 50.6387 16.7667 51.3551ZM30.4327 53.8546C30.3654 53.9712 30.144 54.579 29.9407 55.2049L29.5708 56.3432L28.1318 56.3534L26.6924 56.3636L27.4324 56.9496C29.1542 58.3136 29.029 58.0277 28.5348 59.4669C28.2929 60.1711 28.0951 60.7901 28.0951 60.8422C28.0951 60.8944 28.5808 60.5863 29.1744 60.1579C29.7683 59.7292 30.3621 59.3786 30.4942 59.3786C30.6265 59.3786 31.2207 59.7373 31.815 60.1757C32.8301 60.9243 32.8853 60.9406 32.7265 60.4467C32.6335 60.1572 32.4333 59.5096 32.2811 59.0072L32.0047 58.0938L33.2327 57.2185L34.4608 56.3432H32.938H31.415L30.9851 54.9929C30.7486 54.25 30.5 53.7377 30.4327 53.8546Z" fill="#4975FF"/>
        <path fill-rule="evenodd" clip-rule="evenodd" d="M17.4137 26.7657C16.3216 27.3364 15.7962 27.9812 15.4509 29.1743C14.5407 32.3201 16.5044 35.0813 19.451 34.799C21.3706 34.6152 22.4312 33.5363 22.6341 31.5613L22.7609 30.3274H21.0044H19.2479V30.9778C19.2479 31.5921 19.2958 31.6283 20.1111 31.6283C21.1404 31.6283 21.2496 32.0218 20.4445 32.8305C19.779 33.4994 18.6638 33.5374 17.8796 32.9175C16.7353 32.0131 16.622 29.5559 17.6757 28.497C18.434 27.7353 19.703 27.7295 20.4544 28.4844C21.0674 29.1004 22.4847 29.2635 22.4847 28.7179C22.4847 28.2223 21.3788 27.0417 20.6136 26.7204C19.6767 26.3271 18.2132 26.3477 17.4137 26.7657ZM23.9952 30.5633V34.7021L26.3538 34.6286C29.0805 34.5438 29.6083 34.2943 30.4149 32.708C31.3255 30.9173 30.9779 28.5937 29.6284 27.4528C28.73 26.6933 27.7042 26.4273 25.6676 26.426L23.9952 26.4247V30.5633ZM32.3391 26.5693C32.2599 26.6486 32.1952 28.5024 32.1952 30.6888V34.6637H33.0583H33.9215V33.3628V32.0619H35.0073C37.0922 32.0619 38.2398 31.1999 38.3958 29.5165C38.5156 28.224 37.8427 27.0968 36.7191 26.7078C35.9231 26.4325 32.5806 26.3267 32.3391 26.5693ZM39.7477 30.5442V34.6637H40.6109H41.474V33.2544V31.8451H42.1233C42.7079 31.8451 42.8419 31.986 43.4644 33.2544L44.156 34.6637H45.0925H46.0291L45.2229 33.1224C44.4173 31.5819 44.4171 31.5808 44.8623 31.2252C45.9522 30.3545 46.13 28.5989 45.2365 27.5317C44.5492 26.7111 43.5704 26.4275 41.4201 26.426L39.7477 26.4247V30.5442ZM145.915 30.5442V34.6637H146.778H147.641V33.0376V31.4115H149.476H151.31V33.0376V34.6637H152.178H153.046L152.987 30.5984L152.928 26.5331L152.119 26.4659L151.31 26.3984V28.1462V29.8937H149.476H147.641V28.1592V26.4247H146.778H145.915V30.5442ZM154.547 30.5442V34.6637H155.302H156.057V30.5442V26.4247H155.302H154.547V30.5442ZM157.711 26.5693C157.632 26.6486 157.568 28.5024 157.568 30.6888V34.6637H158.431H159.294V33.3628V32.0619H160.38C161.817 32.0619 162.855 31.5988 163.388 30.7198C164.28 29.2502 163.631 27.2406 162.092 26.7078C161.296 26.4325 157.953 26.3267 157.711 26.5693ZM165.65 28.8532C165.206 30.2008 164.568 32.0593 164.232 32.9834L163.62 34.6637H164.552C165.452 34.6637 165.492 34.6342 165.742 33.7965L166.001 32.9292H167.576H169.152L169.41 33.7965C169.656 34.6184 169.714 34.6637 170.523 34.6637C171.072 34.6637 171.372 34.5666 171.361 34.3927C171.352 34.2437 170.745 32.4142 170.013 30.3274L168.681 26.5331L167.569 26.4683L166.458 26.4034L165.65 28.8532ZM174.84 26.9424C174.492 27.8602 172.241 34.4842 172.241 34.5881C172.241 34.6433 172.651 34.6587 173.151 34.6219C174.007 34.5592 174.073 34.507 174.252 33.7423L174.442 32.9292H176.03H177.618L177.877 33.7965C178.127 34.6342 178.167 34.6637 179.068 34.6637H180L178.602 30.6142C177.833 28.3871 177.204 26.5333 177.204 26.4947C177.204 26.4561 176.716 26.4247 176.12 26.4247C175.175 26.4247 175.01 26.4915 174.84 26.9424ZM28.6711 28.68C29.066 29.1412 29.1741 29.5236 29.1741 30.4586C29.1741 32.491 28.3548 33.3628 26.4446 33.3628H25.7215V30.6257V27.8886L26.9448 27.9905C27.937 28.0733 28.2635 28.2037 28.6711 28.68ZM36.332 28.3012C36.816 28.7414 36.8456 29.7435 36.3879 30.2031C35.9814 30.6116 35.2302 30.8235 34.5369 30.7248C34.0742 30.6589 34.0237 30.5329 33.965 29.2975L33.901 27.9424H34.9193C35.5638 27.9424 36.0821 28.074 36.332 28.3012ZM43.7244 28.283C44.1403 28.701 44.1681 29.7535 43.7719 30.0837C43.6116 30.2175 43.029 30.389 42.4772 30.4651L41.474 30.6032V29.2728V27.9424H42.4297C43.0106 27.9424 43.5182 28.076 43.7244 28.283ZM161.763 28.4244C162.26 29.1364 162.173 29.8038 161.517 30.3222C161.117 30.6387 160.696 30.7619 160.168 30.7174L159.402 30.6526L159.337 29.2975L159.273 27.9424H160.35C161.219 27.9424 161.492 28.0358 161.763 28.4244ZM168.132 29.863C168.374 30.6808 168.573 31.4126 168.573 31.4891C168.573 31.5656 168.136 31.6283 167.602 31.6283C166.947 31.6283 166.631 31.5361 166.631 31.3451C166.631 31.0049 167.5 28.376 167.612 28.376C167.656 28.376 167.89 29.0451 168.132 29.863ZM176.725 30.0399C176.967 30.7762 177.109 31.4349 177.041 31.5034C176.865 31.6799 175.046 31.6595 175.046 31.4811C175.046 31.0197 176.019 28.402 176.14 28.5382C176.219 28.6277 176.483 29.3036 176.725 30.0399Z" fill="#172242"/>
    </g>
    <defs>
        <clipPath id="clip0_4643_39063">
            <rect width="61" height="61" fill="white"/>
        </clipPath>
    </defs>
</svg>
