<svg xmlns="http://www.w3.org/2000/svg" viewBox="0 0 89 62" fill="none">
    <path fill-rule="evenodd" clip-rule="evenodd" d="M34.5152 0.275816C33.4069 0.760836 32.6918 1.80676 32.6918 2.9431C32.6918 4.25419 33.3193 5.24938 34.4265 5.69451C35.5194 6.134 35.9996 6.13096 36.9464 5.67955C37.9328 5.20927 38.5163 4.22883 38.5172 3.03959C38.5182 1.80525 37.9783 0.929087 36.8901 0.399837C35.8666 -0.0979755 35.4223 -0.121176 34.5152 0.275816ZM25.7866 2.16148C24.0642 2.42686 18.3395 4.87993 17.5226 5.70253C17.1572 6.07047 17.1559 6.11687 17.5008 6.49977C18.0424 7.101 19.1736 7.33994 21.4849 7.34124C23.7802 7.34275 23.1417 7.09298 29.8865 10.6258C31.1327 11.2784 32.5893 11.995 33.1233 12.2181C33.6574 12.441 34.1611 12.6611 34.2428 12.7068C34.456 12.8265 35.2812 11.9501 35.2812 11.6041C35.2812 11.4436 34.4742 10.8168 33.4876 10.211C30.9993 8.68312 30.1241 7.24887 30.1075 4.67222C30.1047 4.21734 30.0091 3.67009 29.8954 3.45631C29.3738 2.47738 27.5226 1.89392 25.7866 2.16148ZM43.6969 2.14586C41.916 2.45136 41.3873 3.10463 41.1426 5.30142C41.0367 6.25455 40.7974 7.33061 40.6109 7.6927C40.1558 8.57688 38.8933 9.67397 37.2706 10.5948C36.5349 11.0122 35.9322 11.4213 35.9309 11.5041C35.9297 11.5869 36.1536 11.9176 36.4286 12.2389L36.9287 12.823L38.4246 12.139C40.2031 11.3257 41.4249 10.703 44.8838 8.8466L47.4732 7.4568L50.0626 7.33842C54.4431 7.13851 55.1239 6.33889 52.2205 4.80361C48.3728 2.769 45.4241 1.84947 43.6969 2.14586ZM14.4577 6.71854C12.5931 7.32411 6.17496 8.61135 2.8499 9.0465L0 9.41943L0.595573 10.0191C1.54978 10.9801 2.58815 11.3027 5.071 11.4105C8.49317 11.5588 11.5174 11.0302 16.2919 9.44957L20.284 8.12807L19.0111 7.95591C17.6434 7.77097 16.8761 7.38351 16.5077 6.69209C16.2324 6.17498 16.1269 6.17649 14.4577 6.71854ZM54.7081 6.78922C54.3747 7.41495 53.0796 7.9867 51.9465 8.00838L51.1416 8.02356L52.1126 8.45632C54.0323 9.3121 59.1891 10.7871 61.4284 11.1212C66.0669 11.8133 69.2647 11.4579 70.6162 10.1L71.3412 9.37151L68.9019 9.09832C65.8652 8.75814 58.479 7.30004 56.7721 6.70379C55.1608 6.14072 55.051 6.14527 54.7081 6.78922ZM34.2023 6.99194C34.2023 7.15694 34.4051 7.34536 34.6528 7.4104C35.0622 7.51794 35.0969 7.65952 35.0305 8.95392L34.9575 10.3788L35.612 10.3784L36.2663 10.378L36.181 8.86026C36.1008 7.43295 36.1228 7.34254 36.5516 7.34254C36.8131 7.34254 37.0075 7.20377 37.0075 7.01731C37.0075 6.76168 36.7078 6.69209 35.6049 6.69209C34.5544 6.69209 34.2023 6.76732 34.2023 6.99194ZM20.1761 8.76724C16.1564 10.5941 11.012 11.972 6.6894 12.3796C6.08217 12.4369 6.10894 12.4657 7.12098 12.8434C8.53223 13.3703 12.5094 13.5613 14.6938 13.2072C16.774 12.8701 20.2439 11.6928 22.4399 10.5792C25.2357 9.1612 25.399 8.91164 23.933 8.2961C22.8523 7.8423 21.9665 7.95353 20.1761 8.76724ZM47.0584 8.50988L46.2121 9.0246L47.1663 9.63104C49.5419 11.1407 53.78 12.7294 56.6888 13.2005C58.8775 13.555 62.634 13.3761 64.1967 12.8428L65.3835 12.4377L63.6572 12.2823C60.0618 11.9586 55.0083 10.5224 50.95 8.67097C49.1691 7.85878 48.1954 7.81845 47.0584 8.50988ZM25.4471 9.75333C25.3649 9.88667 24.024 10.6156 22.4673 11.3732C19.8923 12.6262 17.2848 13.4932 14.6735 13.965L13.8104 14.1211L14.5656 14.4656C15.1193 14.7184 16.0123 14.8117 17.9103 14.8149C20.4258 14.8193 20.5583 14.7954 22.5498 13.9791C24.4265 13.2096 27.8413 11.5536 28.5689 11.0601C28.7981 10.9044 28.5933 10.6967 27.7058 10.1854C26.4967 9.48881 25.7031 9.33704 25.4471 9.75333ZM44.0174 9.96537C42.3308 10.8569 42.3398 10.8842 44.7359 12.0923C45.9331 12.696 47.7671 13.5548 48.8113 14.0008C50.6466 14.7843 50.7965 14.8115 53.2994 14.8167C55.2241 14.8208 56.0829 14.733 56.6441 14.4752L57.3994 14.1283L56.1047 13.8622C52.8992 13.2038 48.6851 11.5585 46.5453 10.1302C45.4368 9.39016 45.1418 9.37086 44.0174 9.96537ZM29.1874 12.8839C26.9354 13.4323 25.1973 14.6534 24.5902 16.1132C24.4174 16.5286 24.2761 17.503 24.2761 18.2786C24.2761 21.1254 25.694 22.9685 28.6801 24.0034C30.3884 24.5955 32.0878 24.8507 35.9594 25.0968C39.5046 25.3219 40.617 25.6655 41.6001 26.8398C42.2865 27.6594 42.3813 28.7799 41.8081 29.3011C41.5999 29.4902 40.9247 29.8802 40.3073 30.1675L39.1848 30.6901L40.7182 31.4949L42.2514 32.2995L43.0282 31.6716C44.3309 30.6185 44.7759 29.777 44.7759 28.3664C44.7759 27.4259 44.6289 26.8396 44.1731 25.9632C42.927 23.5665 40.9277 22.7186 35.2812 22.1921C31.2622 21.8175 30.0037 21.5178 28.5499 20.5896C27.7403 20.0727 27.5077 19.7857 27.3907 19.1595C27.1832 18.0479 27.4086 16.9536 28.0441 15.9888C28.737 14.937 29.3773 14.7733 30.9398 15.2486C32.32 15.6683 33.515 15.4927 34.4498 14.7321L34.9539 14.3221L34.524 13.8371C33.4576 12.6335 31.5872 12.2994 29.1874 12.8839ZM38.163 12.8924C37.2438 13.3479 36.4935 14.1857 36.6463 14.5857C36.7151 14.7657 37.3228 15.0742 37.9969 15.2711C39.1272 15.6013 39.3056 15.602 40.2976 15.28C41.9231 14.7525 42.274 14.8203 43.1318 15.8268C44.0189 16.8684 44.3091 18.1691 43.919 19.3568C43.6218 20.2618 42.4913 21.0369 40.6759 21.5809C39.4906 21.9361 39.4899 21.9367 40.1364 22.1425C40.4925 22.2557 41.4344 22.6429 42.2293 23.003L43.6751 23.6578L44.62 23.1015C46.1787 22.1837 47.1495 20.3457 47.1495 18.3122C47.1495 16.7101 46.8317 15.8264 45.9118 14.8709C44.8626 13.7809 43.8523 13.269 41.9613 12.8694C40.0285 12.4609 39.0215 12.467 38.163 12.8924ZM33.1233 13.4134C33.1233 13.5327 32.9291 13.6302 32.6918 13.6302C32.4544 13.6302 32.2602 13.5327 32.2602 13.4134C32.2602 13.2942 32.4544 13.1966 32.6918 13.1966C32.9291 13.1966 33.1233 13.2942 33.1233 13.4134ZM38.9496 13.4134C38.9496 13.5327 38.7554 13.6302 38.518 13.6302C38.2807 13.6302 38.0864 13.5327 38.0864 13.4134C38.0864 13.2942 38.2807 13.1966 38.518 13.1966C38.7554 13.1966 38.9496 13.2942 38.9496 13.4134ZM34.7687 15.8255C34.6945 16.1982 34.6339 17.6129 34.6339 18.9694V21.4356H35.6049H36.5759V18.9694C36.5759 17.6129 36.5153 16.1982 36.4411 15.8255C36.3232 15.2334 36.2177 15.148 35.6049 15.148C34.9921 15.148 34.8865 15.2334 34.7687 15.8255ZM27.4117 25.506C26.8014 26.4326 26.3681 28.3504 26.5751 29.209C26.7859 30.0832 27.7399 31.3162 28.6811 31.9313C30.1776 32.909 33.2146 33.5603 36.3601 33.5778C38.9871 33.5926 40.6729 34.7187 40.675 36.4606C40.6759 37.0933 39.7858 38.1306 39.2418 38.1306C38.7899 38.1306 38.8963 38.4673 39.4351 38.7429C39.702 38.8795 40.1207 39.1388 40.3654 39.3189C40.7726 39.619 40.8725 39.6006 41.5522 39.1008C42.4294 38.4556 42.8107 37.6848 42.8241 36.5296C42.8478 34.4679 41.683 32.672 39.792 31.8546C38.9498 31.4905 37.9587 31.3206 35.7799 31.1664C31.4805 30.862 29.2392 29.839 29.2392 28.1813C29.2392 27.4361 30.2661 26.105 31.0328 25.8563C31.4093 25.7343 31.1776 25.6014 29.8865 25.1996C28.9964 24.9227 28.1967 24.6942 28.1093 24.692C28.0219 24.6899 27.7082 25.0561 27.4117 25.506ZM34.8496 27.9402V30.3251H35.6049H36.3601V27.9402V25.5552H35.6049H34.8496V27.9402ZM54.4863 30.542V34.6615H55.3494H56.2126V33.0354V31.4092H58.0468H59.881V33.0354V34.6615H60.7488H61.6168L61.5581 30.5962L61.4994 26.5308L60.6902 26.4636L59.881 26.3962V28.144V29.8915H58.0468H56.2126V28.157V26.4224H55.3494H54.4863V30.542ZM63.1178 30.542V34.6615H63.873H64.6283V30.542V26.4224H63.873H63.1178V30.542ZM66.2827 26.5671C66.2035 26.6464 66.1388 28.5002 66.1388 30.6866V34.6615H67.0019H67.8651V33.3606V32.0597H68.9509C70.3881 32.0597 71.4262 31.5966 71.9594 30.7176C72.8513 29.248 72.2018 27.2383 70.6628 26.7056C69.8667 26.4302 66.5242 26.3244 66.2827 26.5671ZM74.2215 28.851C73.7776 30.1985 73.1391 32.0571 72.8029 32.9812L72.1916 34.6615H73.1232C74.0228 34.6615 74.0634 34.632 74.3132 33.7942L74.5718 32.927H76.1474H77.7229L77.9816 33.7942C78.2268 34.6162 78.2848 34.6615 79.0946 34.6615C79.6432 34.6615 79.9433 34.5644 79.9325 34.3905C79.9235 34.2415 79.3167 32.412 78.5839 30.3251L77.2518 26.5308L76.1403 26.466L75.0288 26.4012L74.2215 28.851ZM83.411 26.9402C83.0636 27.858 80.8123 34.482 80.8123 34.5858C80.8123 34.6411 81.2219 34.6565 81.7225 34.6196C82.5785 34.557 82.6439 34.5047 82.8228 33.74L83.0131 32.927H84.6013H86.1897L86.4482 33.7942C86.6981 34.632 86.7385 34.6615 87.6392 34.6615H88.5714L87.1733 30.612C86.4044 28.3849 85.7754 26.5311 85.7754 26.4925C85.7754 26.4539 85.2875 26.4224 84.6911 26.4224C83.7466 26.4224 83.5815 26.4892 83.411 26.9402ZM70.3343 28.4221C70.8309 29.1342 70.7443 29.8015 70.0883 30.3199C69.6878 30.6365 69.2675 30.7597 68.7397 30.7152L67.973 30.6504L67.9087 29.2953L67.8446 27.9402H68.9216C69.7899 27.9402 70.0635 28.0336 70.3343 28.4221ZM76.7033 29.8607C76.9456 30.6786 77.1439 31.4103 77.1439 31.4869C77.1439 31.5634 76.707 31.6261 76.1729 31.6261C75.5178 31.6261 75.2019 31.5339 75.2019 31.3429C75.2019 31.0027 76.071 28.3738 76.1835 28.3738C76.2271 28.3738 76.4608 29.0429 76.7033 29.8607ZM85.296 30.0377C85.5381 30.774 85.6803 31.4327 85.6119 31.5012C85.4364 31.6777 83.6176 31.6573 83.6176 31.4788C83.6176 31.0174 84.5899 28.3998 84.711 28.536C84.7906 28.6255 85.0538 29.3013 85.296 30.0377ZM29.0499 34.2138C27.9964 36.6742 28.6505 38.6813 30.8597 39.7671C31.877 40.2673 32.4551 40.3796 34.6943 40.5119C36.1446 40.5975 37.5854 40.7723 37.8963 40.9006C38.7465 41.2512 39.3812 42.1905 39.3812 43.0983C39.3812 44.0638 38.9625 44.704 38.0951 45.0652C37.7343 45.2153 37.4423 45.3996 37.4462 45.4744C37.4499 45.5494 37.8141 45.7816 38.2554 45.9906C39.023 46.354 39.0801 46.3536 39.5836 45.9772C42.0263 44.1516 41.5938 40.7994 38.7338 39.3877C37.7783 38.9161 37.0597 38.7624 35.0475 38.5989C32.3357 38.3788 31.3187 38.0204 30.9217 37.1451C30.5975 36.4303 31.0145 35.0416 31.7207 34.4835L32.2498 34.0652L30.992 33.6045C30.3002 33.351 29.6835 33.1438 29.6211 33.1438C29.559 33.1438 29.302 33.6253 29.0499 34.2138ZM34.8512 34.4989C34.852 34.7673 34.9146 35.6454 34.9903 36.4502C35.1146 37.7741 35.1733 37.9137 35.6049 37.9137C36.0365 37.9137 36.0952 37.7741 36.2195 36.4502C36.4523 33.9748 36.4614 34.011 35.6049 34.011C34.9651 34.011 34.8499 34.0856 34.8512 34.4989ZM30.6716 41.1083C30.1224 42.1753 30.0367 43.1906 30.4189 44.1093C31.1372 45.8367 32.4046 46.6634 34.8857 47.0233C37.1875 47.357 37.4063 47.4207 37.8761 47.8928C38.4013 48.4205 38.43 49.786 37.9868 53.1317C37.6838 55.4191 37.2777 56.6322 36.7423 56.8486C36.5669 56.9195 36.5984 56.9657 36.8299 56.9765C37.3396 57.0006 38.0323 56.0364 38.4006 54.7901C39.024 52.6807 39.6511 49.0046 39.5134 48.2668C39.3015 47.1315 38.4077 46.4277 36.6745 46.0309C33.6852 45.3465 33.3083 45.2138 32.6814 44.6253C31.8949 43.8871 31.8038 42.6159 32.476 41.7573C33.028 41.0522 33.023 41.0238 32.3141 40.854C31.9877 40.7757 31.5559 40.6626 31.3543 40.6027C31.1075 40.5292 30.8845 40.6942 30.6716 41.1083ZM35.0654 43.1174C35.0654 45.0542 35.0695 45.0687 35.6049 45.0687C36.1403 45.0687 36.1444 45.0542 36.1444 43.1174C36.1444 41.1805 36.1403 41.166 35.6049 41.166C35.0695 41.166 35.0654 41.1805 35.0654 43.1174ZM31.8895 47.7863C31.544 48.5146 31.549 48.6778 31.9941 51.0928C32.771 55.3086 33.4649 57.0199 34.3799 56.9765C34.6114 56.9657 34.6429 56.9195 34.4675 56.8486C33.9459 56.6376 33.5433 55.4683 33.2299 53.2542C32.8284 50.415 32.8199 48.5243 33.2064 47.9931C33.4736 47.6261 33.4481 47.5526 32.966 47.3013C32.2561 46.9312 32.3062 46.9086 31.8895 47.7863ZM35.2383 53.7956C35.1893 57.7026 35.2437 59.9233 35.3992 60.3519L35.6347 61L35.8366 60.3519C35.9491 59.9909 36.0073 57.086 35.9678 53.7956C35.9107 49.0046 35.842 47.8873 35.6049 47.8873C35.368 47.8873 35.2985 49.0063 35.2383 53.7956Z" fill="#4975FF"/>
    <path fill-rule="evenodd" clip-rule="evenodd" d="M54.4844 30.5364V34.6559H55.3475H56.2107V33.0298V31.4037H58.0449H59.8791V33.0298V34.6559H60.7469H61.6149L61.5562 30.5906L61.4975 26.5253L60.6883 26.4581L59.8791 26.3906V28.1384V29.8859H58.0449H56.2107V28.1514V26.4169H55.3475H54.4844V30.5364ZM63.1159 30.5364V34.6559H63.8711H64.6264V30.5364V26.4169H63.8711H63.1159V30.5364ZM66.2808 26.5615C66.2016 26.6408 66.1369 28.4946 66.1369 30.681V34.6559H67H67.8632V33.355V32.0541H68.949C70.3862 32.0541 71.4243 31.591 71.9575 30.712C72.8494 29.2424 72.1999 27.2327 70.6609 26.7C69.8648 26.4247 66.5223 26.3189 66.2808 26.5615ZM74.2196 28.8454C73.7757 30.1929 73.1372 32.0515 72.801 32.9756L72.1897 34.6559H73.1213C74.0209 34.6559 74.0615 34.6264 74.3113 33.7886L74.5699 32.9214H76.1455H77.721L77.9797 33.7886C78.2249 34.6106 78.2829 34.6559 79.0927 34.6559C79.6413 34.6559 79.9414 34.5588 79.9306 34.3849C79.9216 34.2359 79.3148 32.4064 78.582 30.3196L77.2499 26.5253L76.1384 26.4604L75.0269 26.3956L74.2196 28.8454ZM83.4091 26.9346C83.0617 27.8524 80.8104 34.4764 80.8104 34.5802C80.8104 34.6355 81.22 34.6509 81.7206 34.6141C82.5766 34.5514 82.642 34.4992 82.8209 33.7344L83.0112 32.9214H84.5994H86.1878L86.4464 33.7886C86.6962 34.6264 86.7366 34.6559 87.6373 34.6559H88.5695L87.1714 30.6064C86.4026 28.3793 85.7735 26.5255 85.7735 26.4869C85.7735 26.4483 85.2856 26.4169 84.6892 26.4169C83.7447 26.4169 83.5796 26.4836 83.4091 26.9346ZM70.3324 28.4166C70.829 29.1286 70.7424 29.796 70.0864 30.3144C69.6859 30.6309 69.2656 30.7541 68.7378 30.7096L67.9711 30.6448L67.9068 29.2897L67.8427 27.9346H68.9197C69.788 27.9346 70.0616 28.028 70.3324 28.4166ZM76.7014 29.8551C76.9437 30.673 77.142 31.4047 77.142 31.4813C77.142 31.5578 76.7051 31.6205 76.171 31.6205C75.5159 31.6205 75.2 31.5283 75.2 31.3373C75.2 30.9971 76.0691 28.3682 76.1816 28.3682C76.2252 28.3682 76.4589 29.0373 76.7014 29.8551ZM85.2941 30.0321C85.5362 30.7684 85.6784 31.4271 85.61 31.4956C85.4345 31.6721 83.6157 31.6517 83.6157 31.4733C83.6157 31.0119 84.588 28.3942 84.7091 28.5304C84.7887 28.6199 85.0519 29.2958 85.2941 30.0321Z" fill="#172242"/>
</svg>
