<svg viewBox="0 0 61 61" fill="none" xmlns="http://www.w3.org/2000/svg">
<path d="M57.7137 44.272C55.2055 49.228 51.3916 53.4051 46.6834 56.3524C41.9753 59.2997 36.5516 60.9053 30.9978 60.9959C25.4439 61.0866 19.9708 59.6589 15.1689 56.8668C10.3671 54.0747 6.41885 50.0244 3.75032 45.1528L9.10026 42.2222C11.2351 46.1195 14.3937 49.3598 18.2351 51.5934C22.0766 53.8271 26.4552 54.9693 30.8982 54.8968C35.3413 54.8242 39.6802 53.5397 43.4468 51.1819C47.2133 48.8241 50.2644 45.4824 52.2709 41.5176L57.7137 44.272Z" fill="#172242"/>
<path d="M2.27488 42.0582C0.378823 37.4281 -0.349046 32.4026 0.155435 27.4247C0.659916 22.4469 2.38125 17.6696 5.1677 13.514C7.95415 9.35838 11.7201 5.95208 16.1337 3.59538C20.5472 1.23867 25.4728 0.00393153 30.4761 9.37131e-06C35.4794 -0.00391279 40.4069 1.2231 44.8241 3.57288C49.2413 5.92267 53.0127 9.32305 55.8056 13.4743C58.5986 17.6255 60.3274 22.4001 60.8397 27.3771C61.352 32.3542 60.632 37.3808 58.7432 42.014L53.0946 39.7112C54.6056 36.0047 55.1816 31.9834 54.7718 28.0017C54.3619 24.0201 52.9789 20.2004 50.7445 16.8794C48.5101 13.5584 45.4931 10.8381 41.9593 8.95831C38.4255 7.07848 34.4835 6.09687 30.4809 6.10001C26.4782 6.10315 22.5378 7.09094 19.0069 8.9763C15.4761 10.8617 12.4633 13.5867 10.2342 16.9112C8.005 20.2357 6.62793 24.0575 6.22435 28.0398C5.82076 32.022 6.40306 36.0424 7.9199 39.7466L2.27488 42.0582Z" fill="#4975FF"/>
<path d="M19.6907 26.3016H15.5987L14.7517 28.2266H13.6187L17.1057 20.5266H18.1947L21.6927 28.2266H20.5377L19.6907 26.3016ZM19.3057 25.4216L17.6447 21.6486L15.9837 25.4216H19.3057ZM22.5114 20.5266H23.6114V28.2266H22.5114V20.5266ZM29.0296 28.3146C28.2596 28.3146 27.563 28.1459 26.9396 27.8086C26.3236 27.4639 25.8396 26.9946 25.4876 26.4006C25.1356 25.7992 24.9596 25.1246 24.9596 24.3766C24.9596 23.6286 25.1356 22.9576 25.4876 22.3636C25.8396 21.7622 26.3273 21.2929 26.9506 20.9556C27.574 20.6109 28.2706 20.4386 29.0406 20.4386C29.642 20.4386 30.192 20.5412 30.6906 20.7466C31.1893 20.9446 31.6146 21.2416 31.9666 21.6376L31.2516 22.3306C30.6723 21.7219 29.95 21.4176 29.0846 21.4176C28.5126 21.4176 27.9956 21.5459 27.5336 21.8026C27.0716 22.0592 26.7086 22.4149 26.4446 22.8696C26.188 23.3169 26.0596 23.8192 26.0596 24.3766C26.0596 24.9339 26.188 25.4399 26.4446 25.8946C26.7086 26.3419 27.0716 26.6939 27.5336 26.9506C27.9956 27.2072 28.5126 27.3356 29.0846 27.3356C29.9426 27.3356 30.665 27.0276 31.2516 26.4116L31.9666 27.1046C31.6146 27.5006 31.1856 27.8012 30.6796 28.0066C30.181 28.2119 29.631 28.3146 29.0296 28.3146ZM36.2089 20.5266C37.2062 20.5266 37.9909 20.7649 38.5629 21.2416C39.1349 21.7182 39.4209 22.3746 39.4209 23.2106C39.4209 24.0466 39.1349 24.7029 38.5629 25.1796C37.9909 25.6562 37.2062 25.8946 36.2089 25.8946H34.3059V28.2266H33.2059V20.5266H36.2089ZM36.1759 24.9376C36.8725 24.9376 37.4042 24.7909 37.7709 24.4976C38.1375 24.1969 38.3209 23.7679 38.3209 23.2106C38.3209 22.6532 38.1375 22.2279 37.7709 21.9346C37.4042 21.6339 36.8725 21.4836 36.1759 21.4836H34.3059V24.9376H36.1759ZM45.2262 26.3016H41.1342L40.2872 28.2266H39.1542L42.6412 20.5266H43.7302L47.2282 28.2266H46.0732L45.2262 26.3016ZM44.8412 25.4216L43.1802 21.6486L41.5192 25.4216H44.8412Z" fill="#4975FF"/>
<path d="M16.8893 38.4616C16.2953 38.4616 15.7197 38.3772 15.1623 38.2086C14.6123 38.0399 14.176 37.8162 13.8533 37.5376L14.3483 36.4266C14.6637 36.6759 15.0487 36.8812 15.5033 37.0426C15.9653 37.1966 16.4273 37.2736 16.8893 37.2736C17.4613 37.2736 17.8867 37.1819 18.1653 36.9986C18.4513 36.8152 18.5943 36.5732 18.5943 36.2726C18.5943 36.0526 18.5137 35.8729 18.3523 35.7336C18.1983 35.5869 18.0003 35.4732 17.7583 35.3926C17.5163 35.3119 17.1863 35.2202 16.7683 35.1176C16.1817 34.9782 15.705 34.8389 15.3383 34.6996C14.979 34.5602 14.6673 34.3439 14.4033 34.0506C14.1467 33.7499 14.0183 33.3466 14.0183 32.8406C14.0183 32.4152 14.132 32.0302 14.3593 31.6856C14.594 31.3336 14.9423 31.0549 15.4043 30.8496C15.8737 30.6442 16.4457 30.5416 17.1203 30.5416C17.5897 30.5416 18.0517 30.6002 18.5063 30.7176C18.961 30.8349 19.3533 31.0036 19.6833 31.2236L19.2323 32.3346C18.895 32.1366 18.543 31.9862 18.1763 31.8836C17.8097 31.7809 17.454 31.7296 17.1093 31.7296C16.5447 31.7296 16.123 31.8249 15.8443 32.0156C15.573 32.2062 15.4373 32.4592 15.4373 32.7746C15.4373 32.9946 15.5143 33.1742 15.6683 33.3136C15.8297 33.4529 16.0313 33.5629 16.2733 33.6436C16.5153 33.7242 16.8453 33.8159 17.2633 33.9186C17.8353 34.0506 18.3047 34.1899 18.6713 34.3366C19.038 34.4759 19.3497 34.6922 19.6063 34.9856C19.8703 35.2789 20.0023 35.6749 20.0023 36.1736C20.0023 36.5989 19.885 36.9839 19.6503 37.3286C19.423 37.6732 19.0747 37.9482 18.6053 38.1536C18.136 38.3589 17.564 38.4616 16.8893 38.4616ZM24.7973 38.4616C24.0126 38.4616 23.305 38.2929 22.6743 37.9556C22.0436 37.6109 21.5486 37.1379 21.1893 36.5366C20.83 35.9279 20.6503 35.2496 20.6503 34.5016C20.6503 33.7536 20.83 33.0789 21.1893 32.4776C21.5486 31.8689 22.0436 31.3959 22.6743 31.0586C23.305 30.7139 24.0126 30.5416 24.7973 30.5416C25.582 30.5416 26.2896 30.7139 26.9203 31.0586C27.551 31.3959 28.046 31.8652 28.4053 32.4666C28.7646 33.0679 28.9443 33.7462 28.9443 34.5016C28.9443 35.2569 28.7646 35.9352 28.4053 36.5366C28.046 37.1379 27.551 37.6109 26.9203 37.9556C26.2896 38.2929 25.582 38.4616 24.7973 38.4616ZM24.7973 37.2076C25.3106 37.2076 25.7726 37.0939 26.1833 36.8666C26.594 36.6319 26.9166 36.3092 27.1513 35.8986C27.386 35.4806 27.5033 35.0149 27.5033 34.5016C27.5033 33.9882 27.386 33.5262 27.1513 33.1156C26.9166 32.6976 26.594 32.3749 26.1833 32.1476C25.7726 31.9129 25.3106 31.7956 24.7973 31.7956C24.284 31.7956 23.822 31.9129 23.4113 32.1476C23.0006 32.3749 22.678 32.6976 22.4433 33.1156C22.2086 33.5262 22.0913 33.9882 22.0913 34.5016C22.0913 35.0149 22.2086 35.4806 22.4433 35.8986C22.678 36.3092 23.0006 36.6319 23.4113 36.8666C23.822 37.0939 24.284 37.2076 24.7973 37.2076ZM33.8041 38.4616C33.0267 38.4616 32.3227 38.2929 31.6921 37.9556C31.0687 37.6109 30.5774 37.1379 30.2181 36.5366C29.8661 35.9352 29.6901 35.2569 29.6901 34.5016C29.6901 33.7462 29.8697 33.0679 30.2291 32.4666C30.5884 31.8652 31.0797 31.3959 31.7031 31.0586C32.3337 30.7139 33.0377 30.5416 33.8151 30.5416C34.4457 30.5416 35.0214 30.6516 35.5421 30.8716C36.0627 31.0916 36.5027 31.4106 36.8621 31.8286L35.9381 32.6976C35.3807 32.0962 34.6951 31.7956 33.8811 31.7956C33.3531 31.7956 32.8801 31.9129 32.4621 32.1476C32.0441 32.3749 31.7177 32.6939 31.4831 33.1046C31.2484 33.5152 31.1311 33.9809 31.1311 34.5016C31.1311 35.0222 31.2484 35.4879 31.4831 35.8986C31.7177 36.3092 32.0441 36.6319 32.4621 36.8666C32.8801 37.0939 33.3531 37.2076 33.8811 37.2076C34.6951 37.2076 35.3807 36.9032 35.9381 36.2946L36.8621 37.1746C36.5027 37.5926 36.0591 37.9116 35.5311 38.1316C35.0104 38.3516 34.4347 38.4616 33.8041 38.4616ZM46.1233 36.6246V38.3516H40.1283V36.9876L43.0103 34.2926C43.2889 34.0286 43.4759 33.8049 43.5713 33.6216C43.6666 33.4309 43.7143 33.2402 43.7143 33.0496C43.7143 32.8002 43.6299 32.6059 43.4613 32.4666C43.2926 32.3272 43.0469 32.2576 42.7243 32.2576C42.4383 32.2576 42.1743 32.3236 41.9323 32.4556C41.6976 32.5802 41.5033 32.7636 41.3493 33.0056L39.7323 32.1036C40.0329 31.6049 40.4546 31.2126 40.9973 30.9266C41.5399 30.6406 42.1816 30.4976 42.9223 30.4976C43.5089 30.4976 44.0259 30.5929 44.4733 30.7836C44.9279 30.9742 45.2799 31.2492 45.5293 31.6086C45.7859 31.9606 45.9143 32.3712 45.9143 32.8406C45.9143 33.2586 45.8226 33.6546 45.6393 34.0286C45.4633 34.3952 45.1186 34.8132 44.6053 35.2826L43.1533 36.6246H46.1233Z" fill="#172242"/>
</svg>
