<svg width="118" height="30" viewBox="0 0 118 30" fill="none" xmlns="http://www.w3.org/2000/svg">
<g clip-path="url(#clip0_3812_28928)">
<path d="M47.6563 7.01562L49.0512 20.8525L50.1828 7.01562H54.305L55.3635 19.7036L55.6334 20.1729L56.898 7.01562H61.0867L58.5003 29.8117L53.3728 29.8035L52.3742 19.629C52.0989 19.5517 52.063 20.2041 52.0431 20.3764C51.6934 23.465 51.5378 26.5861 51.1867 29.676H45.7175L43.3984 7.01562H47.6536H47.6563Z" fill="black"/>
<path d="M30.342 6.78509C34.0879 6.49888 36.2062 8.47519 36.4841 12.2393C36.7235 15.4865 36.7062 20.6477 36.4908 23.9086C36.2062 28.222 34.072 30.5116 29.6718 29.904C27.0496 29.5418 25.652 27.0907 25.4512 24.5786C25.18 21.1862 25.1986 15.3672 25.4446 11.9612C25.6653 8.90246 27.2903 7.01839 30.342 6.78509ZM30.733 10.9724C30.2609 11.0944 29.9019 11.6004 29.8381 12.2379C29.8367 16.2638 29.8341 20.2896 29.8327 24.3155C29.7224 25.1904 30.3394 25.8618 30.8792 25.87C31.4284 25.8781 32.0773 25.2039 31.9643 24.3074L31.9949 12.1904C32.0109 11.6777 31.7742 11.2287 31.3925 11.0388C31.3553 11.0198 31.0707 10.8842 30.7343 10.9724H30.733Z" fill="black"/>
<path d="M90.4741 7.01562V15.5611L92.6017 7.01562H96.9898L94.5896 17.5238L97.5217 29.8035H93.0006C92.2001 26.7014 91.7546 23.4161 90.9169 20.3316C90.8477 20.078 90.8464 19.5286 90.4741 19.6304V29.8035H86.0859V7.01562H90.4741Z" fill="black"/>
<path d="M6.83356 16.0999V12.3697C6.83356 12.3195 6.63809 11.4636 6.60351 11.3836C6.2498 10.5779 4.75517 10.8817 4.71395 11.8339C4.99054 15.9195 4.32035 20.5652 4.69932 24.583C4.76315 25.2639 5.03841 25.9448 5.82429 25.8634C6.43597 25.7997 6.83356 24.9723 6.83356 24.4405V20.0322H11.2217V25.5257C11.2217 27.6946 9.05556 29.6777 7.01839 29.9191C3.08901 30.3844 0.462764 28.5831 0.178199 24.446C-0.041208 21.2584 -0.0797706 15.7988 0.186178 12.641C0.251335 11.8624 0.566484 10.5209 0.84706 9.78846C2.74061 4.83752 11.2217 6.28754 11.2217 11.5545V15.8951L11.0222 16.0985H6.83356V16.0999Z" fill="black"/>
<path d="M72.1241 7.01562V11.3562H67.736V15.8324H71.9911V19.9695L71.7917 20.1729H67.736V25.3273H72.3236L72.4938 25.5308C72.4978 25.5864 72.3901 25.6325 72.3901 25.6664V29.8035H63.2148V7.01562H72.1241Z" fill="black"/>
<path d="M83.5616 7.01562V11.3562H79.1735V15.8324H83.4286V19.9695L83.2292 20.1729H79.1735V25.3273H83.8276V29.8035H74.6523V7.01562H83.5616Z" fill="black"/>
<path d="M22.7882 11.3562H18.4V15.8324H22.5222V20.1729H18.4V25.3273H22.8547L23.0541 25.5308V29.8035H13.8789V7.01562H22.5887L22.7882 7.21909V11.3562Z" fill="black"/>
<path d="M111.087 7.01562L112.414 14.2047L113.614 7.01562H118.002L114.412 22.1397V29.8035H110.29V22.2754L106.699 7.01562H111.087Z" fill="black"/>
<path d="M103.505 7.01562V25.8021L103.705 26.0055H108.159V29.8035H99.1172V7.01562H103.505Z" fill="black"/>
<path d="M11.9648 1.40254C12.4249 2.5772 12.8864 3.75187 13.3464 4.92517H22.2783C22.7903 3.75051 23.3022 2.57585 23.8128 1.40254C22.6453 1.81489 21.4778 2.2286 20.309 2.64095C19.5018 1.76064 18.6947 0.880318 17.8888 0C17.0764 0.850477 16.2639 1.6996 15.4514 2.55007L11.9648 1.40254Z" fill="black"/>
</g>
<defs>
<clipPath id="clip0_3812_28928">
<rect width="118" height="30" fill="white"/>
</clipPath>
</defs>
</svg>
