<svg width="104" height="28" viewBox="0 0 104 28" fill="none" xmlns="http://www.w3.org/2000/svg">
<g clip-path="url(#clip0_3812_28910)">
<path d="M5.18721 0.572591H13.8358C13.8358 8.21411 7.64088 14.4083 0 14.4083V5.7598C2.86517 5.7598 5.18785 3.43712 5.18785 0.572591H5.18721ZM39.8472 13.8397C39.8472 21.4812 33.6523 27.6754 26.0114 27.6754C20.7507 27.6754 16.1757 24.7393 13.8358 20.416V27.1067H5.18721V15.0275C8.74056 13.754 11.8358 11.1802 13.6862 7.55277C16.129 2.763 20.9795 0.00901398 26.0114 0.00518025V0.00390625C33.653 0.00390625 39.8472 6.19878 39.8472 13.8397ZM31.1987 13.8397C31.1987 10.9745 28.876 8.65244 26.0108 8.65244C23.1456 8.65244 20.8236 10.9751 20.8236 13.8397C20.8236 16.7042 23.1463 19.0269 26.0108 19.0269C28.8753 19.0269 31.1987 16.7042 31.1987 13.8397Z" fill="#020000"/>
<path d="M53.1364 6.14693C53.1364 6.07033 53.1594 6.00907 53.2054 5.96314C53.2666 5.9019 53.3355 5.87127 53.4121 5.87127H56.6745C56.7511 5.87127 56.8123 5.9019 56.8583 5.96314C56.9195 6.00912 56.9501 6.07038 56.9501 6.14693V21.6775C56.9501 21.7541 56.9195 21.823 56.8583 21.8843C56.8123 21.9303 56.751 21.9533 56.6745 21.9533H53.55C53.3968 21.9533 53.2896 21.892 53.2283 21.7695L47.9442 12.9933C47.9136 12.9473 47.883 12.932 47.8524 12.9474C47.8218 12.9474 47.8064 12.978 47.8064 13.0392L47.8294 21.6776C47.8294 21.7542 47.7987 21.8231 47.7375 21.8843C47.6915 21.9303 47.6302 21.9533 47.5537 21.9533H44.2914C44.2148 21.9533 44.1458 21.9303 44.0846 21.8843C44.0386 21.8231 44.0156 21.7542 44.0156 21.6776V6.14697C44.0156 6.07037 44.0386 6.00911 44.0846 5.96318C44.1458 5.90193 44.2148 5.87131 44.2914 5.87131H47.4388C47.592 5.87131 47.6992 5.93258 47.7605 6.05511L53.0216 14.8083C53.0522 14.8543 53.0828 14.8773 53.1134 14.8773C53.1441 14.8619 53.1594 14.8236 53.1594 14.7624L53.1364 6.14693ZM70.3316 8.8579C70.3316 8.9345 70.3009 9.00342 70.2397 9.06466C70.1937 9.11064 70.1325 9.13363 70.0559 9.13363H62.842C62.7654 9.13363 62.7271 9.17192 62.7271 9.24852V12.0743C62.7271 12.1509 62.7654 12.1892 62.842 12.1892H67.4598C67.5364 12.1892 67.5977 12.2199 67.6436 12.2811C67.7049 12.3271 67.7355 12.3884 67.7355 12.4649V15.1529C67.7355 15.2295 67.7049 15.2984 67.6436 15.3597C67.5976 15.4056 67.5364 15.4286 67.4598 15.4286H62.842C62.7654 15.4286 62.7271 15.4669 62.7271 15.5435V18.5761C62.7271 18.6527 62.7654 18.691 62.842 18.691H70.0559C70.1325 18.691 70.1938 18.7216 70.2397 18.7829C70.3009 18.8289 70.3316 18.8901 70.3316 18.9667V21.6776C70.3316 21.7542 70.3009 21.8232 70.2397 21.8844C70.1937 21.9304 70.1325 21.9534 70.0559 21.9534H59.1891C59.1125 21.9534 59.0436 21.9304 58.9823 21.8844C58.9364 21.8232 58.9134 21.7542 58.9134 21.6776V6.14706C58.9134 6.07046 58.9364 6.0092 58.9823 5.96327C59.0436 5.90202 59.1125 5.8714 59.1891 5.8714H70.0559C70.1325 5.8714 70.1938 5.90202 70.2397 5.96327C70.3009 6.00924 70.3316 6.07051 70.3316 6.14706V8.8579ZM75.8725 21.9532C75.7041 21.9532 75.5968 21.8766 75.5509 21.7235L71.2777 6.16991L71.2548 6.07804C71.2548 5.94019 71.339 5.87126 71.5075 5.87126H74.9996C75.1527 5.87126 75.2523 5.94785 75.2982 6.10101L77.297 14.4636C77.3123 14.5249 77.3353 14.5555 77.366 14.5555C77.3966 14.5555 77.4196 14.5249 77.4349 14.4636L79.2269 6.12399C79.2575 5.95551 79.3571 5.87126 79.5256 5.87126H82.719C82.8721 5.87126 82.9717 5.94785 83.0177 6.10101L85.0164 14.4636C85.0318 14.5249 85.0547 14.5555 85.0854 14.5555C85.116 14.5555 85.139 14.5249 85.1543 14.4636L87.0152 6.12399C87.0459 5.95551 87.1454 5.87126 87.3139 5.87126H90.7141C90.9285 5.87126 91.0128 5.97082 90.9668 6.16993L87.0842 21.7235C87.0382 21.8766 86.931 21.9532 86.7625 21.9532H83.4772C83.3087 21.9532 83.2092 21.869 83.1785 21.7005L81.1798 12.8325C81.1645 12.7712 81.1415 12.7406 81.1108 12.7406C81.0802 12.7406 81.0572 12.7712 81.0419 12.8325L79.2499 21.7005C79.2192 21.869 79.1197 21.9532 78.9512 21.9532L75.8725 21.9532ZM97.4725 22.137C96.2013 22.137 95.0909 21.9379 94.1413 21.5397C93.207 21.1261 92.4795 20.5441 91.9587 19.7936C91.4533 19.0278 91.2006 18.1471 91.2006 17.1516V16.7151C91.2006 16.6385 91.2235 16.5772 91.2695 16.5313C91.3308 16.47 91.3997 16.4394 91.4763 16.4394H94.6697C94.7463 16.4394 94.8076 16.47 94.8535 16.5313C94.9147 16.5773 94.9454 16.6385 94.9454 16.7151V16.9908C94.9454 17.4962 95.1981 17.9404 95.7035 18.3233C96.2089 18.6909 96.8905 18.8747 97.7482 18.8747C98.4221 18.8747 98.9199 18.7292 99.2415 18.4382C99.5632 18.1472 99.724 17.8102 99.724 17.4273C99.724 17.121 99.6245 16.8759 99.4253 16.6921C99.2416 16.493 98.9888 16.3322 98.6672 16.2097C98.3455 16.0718 97.8478 15.888 97.1739 15.6583C97.082 15.6123 96.9901 15.5817 96.8982 15.5664C96.8063 15.5358 96.722 15.5051 96.6455 15.4745C95.6499 15.1529 94.7845 14.8083 94.0494 14.4407C93.3142 14.0578 92.6862 13.537 92.1655 12.8784C91.6447 12.2045 91.3844 11.3775 91.3844 10.3972C91.3844 9.44762 91.6294 8.62054 92.1195 7.916C92.625 7.19614 93.3218 6.64476 94.2102 6.26185C95.0985 5.87895 96.1017 5.6875 97.2198 5.6875C98.3992 5.6875 99.456 5.90193 100.39 6.33078C101.34 6.75963 102.083 7.36462 102.619 8.14574C103.155 8.92686 103.423 9.82286 103.423 10.8337V11.1554C103.423 11.232 103.392 11.3009 103.331 11.3621C103.285 11.4081 103.224 11.4311 103.147 11.4311H99.9538C99.8772 11.4311 99.8083 11.4081 99.747 11.3621C99.701 11.3009 99.6781 11.232 99.6781 11.1554V10.9946C99.6781 10.4585 99.4407 9.98368 98.9659 9.57015C98.4911 9.15661 97.8554 8.94984 97.059 8.94984C96.4617 8.94984 95.9945 9.07237 95.6576 9.31742C95.3206 9.56249 95.1521 9.9071 95.1521 10.3513C95.1521 10.6882 95.2593 10.9716 95.4738 11.2013C95.6882 11.4157 96.0175 11.6225 96.4617 11.8216C96.9211 12.0054 97.618 12.2505 98.5523 12.5568C99.6244 12.9244 100.459 13.246 101.057 13.5217C101.654 13.7974 102.213 14.2492 102.734 14.8772C103.27 15.4898 103.538 16.3016 103.538 17.3125C103.538 18.308 103.285 19.1657 102.78 19.8856C102.274 20.6054 101.562 21.1645 100.643 21.5627C99.7393 21.9456 98.6825 22.137 97.4725 22.137Z" fill="#020000"/>
</g>
<defs>
<clipPath id="clip0_3812_28910">
<rect width="103.538" height="27.6784" fill="white"/>
</clipPath>
</defs>
</svg>
