<svg width="119" height="31" viewBox="0 0 119 31" fill="none" xmlns="http://www.w3.org/2000/svg">
<path d="M42.1812 0.125H43.456V3.14375C43.456 3.50265 43.3709 3.81294 43.2004 4.07448C43.03 4.33602 42.7927 4.53769 42.4884 4.67959C42.1843 4.8215 41.8312 4.89239 41.4292 4.89239C41.0241 4.89239 40.6695 4.82137 40.3654 4.67959C40.0612 4.53769 39.8245 4.33602 39.6557 4.07448C39.4867 3.81294 39.4023 3.50265 39.4023 3.14375V0.125H40.6773V3.03329C40.6773 3.179 40.7093 3.30898 40.7736 3.42338C40.8377 3.53764 40.9267 3.627 41.0406 3.69134C41.1544 3.75568 41.284 3.78804 41.4293 3.78804C41.5761 3.78804 41.706 3.75581 41.8191 3.69134C41.9322 3.62687 42.0208 3.53764 42.0851 3.42338C42.1492 3.30911 42.1813 3.17913 42.1813 3.03329V0.125H42.1812Z" fill="#020000" stroke="#020000" stroke-width="0.126932" stroke-miterlimit="10"/>
<path d="M49.6216 0.125V4.8371H48.5577L46.861 2.36135H46.8336V4.8371H45.5586V0.125H46.6408L48.31 2.59158H48.3467V0.125H49.6216Z" fill="#020000" stroke="#020000" stroke-width="0.126932" stroke-miterlimit="10"/>
<path d="M53.0053 0.125V4.8371H51.7305V0.125H53.0053Z" fill="#020000" stroke="#020000" stroke-width="0.126932" stroke-miterlimit="10"/>
<path d="M54.8438 1.15584V0.125H58.9251V1.15584H57.5127V4.83723H56.2562V1.15584H54.8439H54.8438Z" fill="#020000" stroke="#020000" stroke-width="0.126932" stroke-miterlimit="10"/>
<path d="M60.7812 4.8371V0.125H64.1655V1.15584H62.0561V1.96576H63.9913V2.9966H62.0561V3.80652H64.1563V4.83736H60.7812V4.8371Z" fill="#020000" stroke="#020000" stroke-width="0.126932" stroke-miterlimit="10"/>
<path d="M68.0959 4.8371H66.2891V0.125H68.0775C68.5605 0.125 68.9782 0.218951 69.3306 0.406853C69.6829 0.594755 69.9549 0.864684 70.1469 1.21677C70.3387 1.56886 70.4345 1.99026 70.4345 2.48098C70.4345 2.9717 70.3391 3.39324 70.1481 3.74533C69.9569 4.09741 69.6865 4.36734 69.3364 4.55524C68.9862 4.74315 68.5728 4.8371 68.0959 4.8371ZM67.564 3.75109H68.05C68.2823 3.75109 68.4808 3.71348 68.6451 3.6384C68.8095 3.56332 68.9349 3.4336 69.0212 3.24963C69.1075 3.06552 69.1507 2.80935 69.1507 2.48111C69.1507 2.15288 69.1067 1.8967 69.0188 1.7126C68.9309 1.5285 68.8026 1.39891 68.6337 1.32383C68.4648 1.24861 68.2581 1.21114 68.0135 1.21114H67.5642V3.75122L67.564 3.75109Z" fill="#020000" stroke="#020000" stroke-width="0.126932" stroke-miterlimit="10"/>
<path d="M74.9453 4.8371V0.125H76.2203V2.0301H76.2844L77.6967 0.125H79.1826L77.5959 2.22337L79.2193 4.8371H77.6969L76.6422 3.07011L76.2204 3.62229V4.8371H74.9453Z" fill="#020000" stroke="#020000" stroke-width="0.126932" stroke-miterlimit="10"/>
<path d="M82.3373 0.125V4.8371H81.0625V0.125H82.3373Z" fill="#020000" stroke="#020000" stroke-width="0.126932" stroke-miterlimit="10"/>
<path d="M88.5005 0.125V4.8371H87.4366L85.7399 2.36135H85.7125V4.8371H84.4375V0.125H85.5197L87.1889 2.59158H87.2256V0.125H88.5005Z" fill="#020000" stroke="#020000" stroke-width="0.126932" stroke-miterlimit="10"/>
<path d="M93.6152 1.68234C93.5954 1.60096 93.5639 1.52929 93.5212 1.46718C93.4784 1.40507 93.4253 1.35213 93.3618 1.3085C93.2984 1.26486 93.2249 1.23184 93.1416 1.20957C93.0583 1.18729 92.9669 1.17615 92.8675 1.17615C92.6535 1.17615 92.4713 1.22765 92.3207 1.33038C92.17 1.43311 92.0554 1.58118 91.9767 1.77445C91.8978 1.96773 91.8587 2.20084 91.8587 2.47391C91.8587 2.75 91.896 2.98625 91.971 3.18254C92.0458 3.37896 92.1574 3.52925 92.3056 3.63343C92.454 3.73773 92.6381 3.78988 92.8581 3.78988C93.0523 3.78988 93.2139 3.76145 93.3431 3.70471C93.4722 3.64797 93.569 3.56752 93.6332 3.46308C93.6973 3.35878 93.7295 3.23613 93.7295 3.09488L93.9496 3.11794H92.8765V2.20673H94.9585V2.8602C94.9585 3.28972 94.868 3.65675 94.6867 3.96114C94.5056 4.26566 94.2565 4.49877 93.9392 4.6606C93.622 4.82242 93.2586 4.9034 92.849 4.9034C92.3918 4.9034 91.9907 4.80604 91.6452 4.6112C91.2997 4.41635 91.0303 4.13882 90.8369 3.77835C90.6436 3.41788 90.5469 2.98913 90.5469 2.49212C90.5469 2.10256 90.606 1.75742 90.7245 1.45683C90.8429 1.15624 91.0077 0.901901 91.2186 0.694082C91.4295 0.486262 91.6732 0.329022 91.9501 0.222361C92.2268 0.115831 92.5233 0.0625 92.8397 0.0625C93.1178 0.0625 93.3765 0.101941 93.6157 0.180954C93.855 0.259968 94.0666 0.372001 94.2509 0.516793C94.435 0.661716 94.5837 0.833239 94.6968 1.0311C94.8099 1.22896 94.8787 1.44608 94.9031 1.68221H93.6146L93.6152 1.68234Z" fill="#020000" stroke="#020000" stroke-width="0.126932" stroke-miterlimit="10"/>
<path d="M98.8576 4.8371H97.0508V0.125H98.8392C99.3221 0.125 99.7398 0.218951 100.092 0.406853C100.445 0.594755 100.717 0.864684 100.908 1.21677C101.1 1.56886 101.196 1.99026 101.196 2.48098C101.196 2.9717 101.101 3.39324 100.91 3.74533C100.719 4.09741 100.448 4.36734 100.098 4.55524C99.7479 4.74315 99.3345 4.8371 98.8576 4.8371ZM98.3256 3.75109H98.8118C99.0441 3.75109 99.2424 3.71348 99.4068 3.6384C99.5711 3.56332 99.6964 3.4336 99.7829 3.24963C99.8692 3.06552 99.9124 2.80935 99.9124 2.48111C99.9124 2.15288 99.8684 1.8967 99.7805 1.7126C99.6925 1.5285 99.5642 1.39891 99.3953 1.32383C99.2264 1.24861 99.0197 1.21114 98.7751 1.21114H98.3258V3.75122L98.3256 3.75109Z" fill="#020000" stroke="#020000" stroke-width="0.126932" stroke-miterlimit="10"/>
<path d="M107.732 2.48295C107.732 3.00761 107.63 3.44972 107.427 3.8094C107.223 4.16922 106.949 4.44138 106.603 4.62627C106.258 4.81115 105.873 4.90353 105.448 4.90353C105.02 4.90353 104.633 4.81037 104.289 4.62404C103.944 4.43771 103.67 4.16464 103.468 3.80495C103.265 3.44526 103.164 3.00473 103.164 2.48308C103.164 1.95856 103.265 1.51645 103.468 1.15663C103.67 0.796943 103.944 0.524655 104.289 0.339767C104.633 0.15501 105.02 0.0625 105.448 0.0625C105.873 0.0625 106.258 0.15501 106.603 0.339767C106.949 0.524655 107.223 0.796943 107.427 1.15663C107.63 1.51632 107.732 1.95842 107.732 2.48308V2.48295ZM106.42 2.48295C106.42 2.20071 106.383 1.96262 106.309 1.76856C106.235 1.57463 106.125 1.42735 105.981 1.32684C105.836 1.22634 105.659 1.17615 105.448 1.17615C105.237 1.17615 105.059 1.22647 104.915 1.32684C104.77 1.42721 104.661 1.57463 104.587 1.76856C104.513 1.96262 104.475 2.20071 104.475 2.48295C104.475 2.7652 104.512 3.00342 104.587 3.19735C104.661 3.39141 104.77 3.53869 104.915 3.63919C105.059 3.73969 105.237 3.78988 105.448 3.78988C105.659 3.78988 105.836 3.73969 105.981 3.63919C106.125 3.53869 106.234 3.39154 106.309 3.19735C106.383 3.00342 106.42 2.7652 106.42 2.48295Z" fill="#020000" stroke="#020000" stroke-width="0.126932" stroke-miterlimit="10"/>
<path d="M109.778 0.125H111.364L112.456 2.79402H112.511L113.602 0.125H115.189V4.8371H113.941V2.11291H113.905L112.859 4.80028H112.107L111.061 2.09443H111.025V4.8371H109.777V0.125H109.778Z" fill="#020000" stroke="#020000" stroke-width="0.126932" stroke-miterlimit="10"/>
<path d="M28.3091 22.9711C27.7281 22.9711 27.395 22.6146 27.395 21.9933V10.3749L29.3966 10.1514L29.5689 8.38139H27.3533V5.81641L25.1399 5.91887L24.4545 8.31037L22.8396 8.38597L22.7773 10.1456L24.1885 10.3706V22.0118C24.1885 24.5908 26.0476 24.9759 27.1557 24.9759C28.5461 24.9759 29.4391 24.6406 29.6796 24.5378L29.7504 24.5076L29.6043 22.9712H28.3093L28.3091 22.9711Z" fill="#020000"/>
<path d="M37.838 8.86328H37.7988C36.4059 8.86328 35.1404 9.23489 34.1241 9.94025V9.86569L33.8552 8.87036L30.0469 9.40013V10.9327L31.3809 11.0636V23.0571L30.2542 23.3179L30.1905 24.7974H35.7473L35.8536 23.318L34.5874 23.0551V11.4533C34.8702 11.2646 35.2174 11.1362 35.6687 11.0535L35.8702 12.8451L38.0591 12.9266L38.4465 9.39239L37.8379 8.86328H37.838Z" fill="#020000"/>
<path d="M108.282 9.93426L107.937 8.75391L103.686 9.24174V10.6095L105.131 10.7406V22.041C104.952 22.2992 104.785 22.5074 104.621 22.6758C104.345 22.7892 104.01 22.8466 103.624 22.8466C102.591 22.8466 102.089 22.2027 102.089 20.878V9.93439L101.745 8.75391L97.5352 9.24201V10.6092L98.9386 10.7404V21.2518C98.9386 22.3733 99.3012 24.9818 102.661 24.9818C103.979 24.9818 104.794 24.437 105.462 23.8187L105.75 24.7949H109.378L109.547 23.2779L108.282 23.033V9.93426H108.282Z" fill="#020000"/>
<path d="M22.0746 12.3111C22.0746 10.1024 20.7637 8.73047 18.6533 8.73047C17.4801 8.73047 16.4757 9.14637 15.5903 10.0004V9.75148L15.2922 8.86845L11.6055 9.39808V10.9308L13.0091 11.0618V23.0347L11.813 23.2769L11.7492 24.7958H17.32L17.4262 23.2781L16.1599 23.034V11.8126C16.2991 11.6205 16.4477 11.4257 16.606 11.2935C16.8913 11.2041 17.1403 11.1364 17.4861 11.1364C18.4669 11.1364 18.9236 11.7142 18.9236 12.9553V24.7958H23.2686L23.3533 23.2777L22.0746 23.0338V12.3111Z" fill="#020000"/>
<path d="M8.59966 20.0065L8.28444 22.9611H5.16191V14.109H6.41194L6.76398 15.6224H8.42991V10.9857L6.74531 10.9439L6.41142 12.4218H5.16191V3.96057H8.26016L8.38969 6.66668L10.7195 6.72813L10.9917 2.19922H0.104724L0 3.92873L1.71985 4.15358V22.7525L0.195085 22.9945L0.112167 24.7975H11.2114L11.037 20.0878L8.59966 20.0065Z" fill="#020000"/>
<path d="M117.693 8.86328H117.654C116.262 8.86328 114.996 9.23489 113.979 9.94025V9.86569L113.711 8.87036L109.902 9.40013V10.9327L111.236 11.0636V23.0571L110.109 23.3179L110.046 24.7974H115.603L115.709 23.318L114.443 23.0551V11.4534C114.726 11.2646 115.073 11.1362 115.524 11.0535L115.725 12.8451L117.915 12.9266L118.302 9.39239L117.693 8.86328Z" fill="#020000"/>
<path d="M66.5919 8.86328H66.5527C65.16 8.86328 63.8945 9.23489 62.878 9.94025V9.86569L62.609 8.87036L58.8008 9.40013V10.9327L60.1349 11.0636V23.0571L59.008 23.3179L58.9443 24.7974H64.5012L64.6072 23.318L63.3409 23.0551V11.4534C63.6241 11.2646 63.9714 11.1362 64.4227 11.0535L64.6238 12.8451L66.8131 12.9266L67.2003 9.39239L66.5915 8.86328H66.5919Z" fill="#020000"/>
<path d="M87.0393 12.3111C87.0393 10.1024 85.7285 8.73047 83.6182 8.73047C82.4452 8.73047 81.4406 9.14637 80.5551 10.0004V9.75148L80.2572 8.86845L76.5703 9.39808V10.9308L77.974 11.0618V23.0347L76.7779 23.2769L76.7143 24.7958H82.2848L82.3906 23.2781L81.1248 23.034V11.8126C81.2636 11.6208 81.4117 11.4264 81.5707 11.2936C81.8561 11.2041 82.1053 11.1364 82.4508 11.1364C83.4318 11.1364 83.8889 11.7142 83.8889 12.9553V24.7958H88.2334L88.3181 23.2777L87.0392 23.0338L87.0393 12.3111Z" fill="#020000"/>
<path d="M43.3191 8.70385C41.6173 8.6741 40.2364 9.56434 39.3182 11.2788C38.5649 12.685 38.1295 14.6393 38.0924 16.7813C38.0078 21.6582 40.0083 24.971 43.0704 25.0249C43.1035 25.0254 43.1364 25.0256 43.1696 25.0256C44.6148 25.0256 45.9753 24.4693 47.0098 23.4527L47.0622 23.4012L46.5106 22.1721L46.4104 22.2285C45.4862 22.7489 44.756 22.9551 43.8965 22.9399C42.1989 22.9101 41.345 20.2976 41.3666 17.6973L47.3076 17.7319L47.6585 16.8954L47.6667 16.8564C47.7544 11.8008 46.129 8.75325 43.319 8.70385H43.3191ZM41.3386 16.1363C41.3673 15.0577 41.6529 12.2284 42.2417 10.9769C42.667 10.697 42.8892 10.6496 43.1885 10.6549C44.1431 10.6717 44.714 12.5687 44.7988 15.9995L41.3385 16.1365L41.3386 16.1363Z" fill="#020000"/>
<path d="M54.6402 8.81263C53.0113 8.81263 52.1152 9.6367 51.6762 10.1429V10.025L51.3309 8.84264L47.5234 9.37227V10.8456L48.9294 11.0325V28.3546L47.7452 28.5963L47.6812 30.0596H53.2463L53.3527 28.5974L52.0846 28.3535V23.7811C52.6122 24.0362 53.2914 24.1806 53.9786 24.1806C58.6199 24.1806 58.6199 18.1679 58.6199 16.1919C58.6199 12.6245 57.5745 8.81263 54.6402 8.81263ZM54.9735 21.8703C54.5439 22.0787 54.0866 22.176 53.538 22.176C52.9475 22.176 52.4712 22.0796 52.0846 21.8816V11.8125C52.2561 11.5493 52.4648 11.3086 52.6146 11.1432C52.955 11.0259 53.2895 10.9711 53.6648 10.9711C54.5214 10.9711 55.5044 11.6274 55.5044 16.7441C55.5044 19.6118 55.0867 21.4959 54.9735 21.8703Z" fill="#020000"/>
<path d="M72.2215 8.70385C70.5151 8.6741 69.1388 9.56434 68.2204 11.2788C67.4671 12.6849 67.0319 14.6391 66.9948 16.7813C66.91 21.6582 68.9106 24.971 71.9727 25.0249C72.0059 25.0254 72.0389 25.0256 72.0719 25.0256C73.5173 25.0256 74.8776 24.4693 75.912 23.4527L75.9646 23.4012L75.4128 22.1721L75.3128 22.2285C74.3885 22.7489 73.6632 22.9545 72.7987 22.9399C71.1011 22.9101 70.2472 20.2976 70.2688 17.6973L76.2097 17.7319L76.5609 16.8954L76.5689 16.8564C76.6566 11.8008 75.0314 8.75325 72.2215 8.70385ZM70.241 16.1363C70.2697 15.0578 70.5549 12.229 71.1441 10.9769C71.5692 10.6971 71.7886 10.6497 72.0909 10.6549C73.0457 10.6717 73.6167 12.5683 73.7012 15.9995L70.241 16.1363Z" fill="#020000"/>
<path d="M93.3387 8.70385C91.6349 8.6741 90.2559 9.56434 89.3376 11.2788C88.5843 12.6849 88.1491 14.6391 88.112 16.7813C88.0272 21.6582 90.0278 24.971 93.0899 25.0249C93.1231 25.0254 93.1561 25.0256 93.1891 25.0256C94.6345 25.0256 95.9949 24.4693 97.0292 23.4527L97.0818 23.4012L96.53 22.1721L96.43 22.2285C95.5055 22.7488 94.7804 22.9541 93.9159 22.9399C92.2183 22.9101 91.3644 20.2976 91.3861 17.6973L97.327 17.7319L97.6782 16.8954L97.6863 16.8564C97.7739 11.8008 96.1486 8.75325 93.3387 8.70385ZM91.3583 16.1363C91.387 15.0577 91.6722 12.2285 92.2614 10.9768C92.6865 10.6969 92.9083 10.6486 93.2082 10.6549C94.5299 10.6781 94.7758 14.318 94.8185 15.9995L91.3583 16.1363Z" fill="#020000"/>
<path d="M116.692 23.2695C116.247 23.2695 115.898 23.6193 115.898 24.0657C115.898 24.5121 116.247 24.8616 116.692 24.8616C117.137 24.8616 117.485 24.512 117.485 24.0657C117.485 23.6194 117.137 23.2695 116.692 23.2695ZM116.692 23.4846C117.016 23.4846 117.261 23.7344 117.261 24.0657C117.261 24.2329 117.198 24.379 117.095 24.4829L116.86 24.1312C116.988 24.0961 117.057 24.0062 117.057 23.8743C117.057 23.6988 116.954 23.6098 116.751 23.6098H116.397V24.5216H116.556V24.1406H116.691L116.931 24.5216H117.048C116.952 24.5991 116.83 24.6464 116.692 24.6464C116.368 24.6464 116.123 24.3968 116.123 24.0657C116.123 23.7346 116.368 23.4846 116.692 23.4846ZM116.897 23.8744C116.897 23.9881 116.806 23.9965 116.668 23.9965H116.556V23.7541H116.722C116.879 23.7541 116.897 23.8226 116.897 23.8744Z" fill="#020000"/>
</svg>
