<svg width="24" height="24" viewBox="0 0 24 24" fill="none" xmlns="http://www.w3.org/2000/svg">
<path d="M5.73653 2L11.4315 7.247V2.012H12.5405V7.271L18.2605 2V7.983H20.6095V16.612H18.2675V21.939L12.5405 16.907V21.997H11.4305V16.99L5.74353 22V16.612H3.39453V7.982H5.73653V2ZM10.5965 9.078H4.50153V15.517H5.74153V13.486L10.5965 9.078ZM6.85153 13.972V19.557L11.4315 15.523V9.81L6.85153 13.972ZM12.5715 15.469L17.1595 19.499V16.612H17.1535V13.966L12.5715 9.806V15.469ZM18.2675 15.517H19.5015V9.077H13.4545L18.2685 13.44L18.2675 15.517ZM17.1525 7.983V4.519L13.3925 7.983H17.1525ZM10.6045 7.983L6.84453 4.519V7.983H10.6045Z" fill="white"/>
</svg>
