<svg width="116" height="30" viewBox="0 0 116 30" fill="none" xmlns="http://www.w3.org/2000/svg">
<g clip-path="url(#clip0_98_9032)">
<path d="M12.998 0.247314L25.9959 7.05593L12.998 13.8645L0 7.05593L12.998 0.247314Z" fill="black"/>
<path d="M25.9966 9.53174L14.2363 15.692V30.2472L25.9966 24.087V21.2921L16.7122 26.1554V17.19L25.9966 12.3267V9.53174Z" fill="black"/>
<path d="M11.7603 15.692L0 9.53174V24.087L11.7603 30.2472V27.4523L2.47586 22.589V13.6236L11.7603 18.4869V15.692Z" fill="black"/>
</g>
<path d="M111.801 21.2076C111.13 21.2076 110.529 21.1013 109.997 20.8885C109.465 20.6704 109.013 20.3699 108.641 19.9869C108.274 19.6039 107.992 19.1597 107.795 18.6544C107.598 18.1438 107.5 17.6012 107.5 17.0267V16.7076C107.5 16.0533 107.593 15.4549 107.779 14.9123C107.965 14.3698 108.231 13.899 108.577 13.5001C108.928 13.1011 109.354 12.7953 109.854 12.5825C110.354 12.3644 110.918 12.2554 111.545 12.2554C112.157 12.2554 112.7 12.3564 113.173 12.5586C113.646 12.7607 114.043 13.0479 114.362 13.4203C114.686 13.7926 114.931 14.2394 115.096 14.7607C115.261 15.2767 115.343 15.8512 115.343 16.4842V17.4416H108.481V15.9097H113.085V15.7341C113.085 15.415 113.027 15.1304 112.91 14.8804C112.798 14.6251 112.628 14.423 112.399 14.274C112.17 14.1251 111.878 14.0506 111.521 14.0506C111.218 14.0506 110.957 14.1171 110.739 14.2501C110.521 14.3831 110.343 14.5692 110.205 14.8086C110.072 15.048 109.971 15.3299 109.902 15.6544C109.838 15.9735 109.806 16.3246 109.806 16.7076V17.0267C109.806 17.3725 109.854 17.6916 109.95 17.9842C110.051 18.2767 110.192 18.5294 110.372 18.7422C110.559 18.9549 110.782 19.1198 111.043 19.2369C111.309 19.3539 111.609 19.4124 111.944 19.4124C112.359 19.4124 112.745 19.3326 113.101 19.173C113.463 19.0081 113.774 18.7608 114.035 18.431L115.152 19.6438C114.971 19.9044 114.724 20.1544 114.41 20.3938C114.101 20.6332 113.729 20.83 113.293 20.9842C112.856 21.1332 112.359 21.2076 111.801 21.2076Z" fill="black"/>
<path d="M98.6348 8.79248H100.933V19.0692L100.701 21.048H98.6348V8.79248ZM106.398 16.6437V16.8112C106.398 17.4548 106.329 18.0453 106.191 18.5825C106.058 19.1198 105.85 19.5852 105.568 19.9788C105.286 20.3671 104.935 20.6703 104.515 20.8884C104.1 21.1012 103.611 21.2076 103.047 21.2076C102.52 21.2076 102.063 21.1012 101.675 20.8884C101.292 20.6756 100.97 20.3751 100.709 19.9868C100.449 19.5985 100.239 19.1437 100.079 18.6224C99.9194 18.1011 99.7997 17.532 99.7199 16.9149V16.5479C99.7997 15.9309 99.9194 15.3617 100.079 14.8404C100.239 14.3192 100.449 13.8644 100.709 13.4761C100.97 13.0878 101.292 12.7872 101.675 12.5745C102.058 12.3617 102.51 12.2553 103.031 12.2553C103.6 12.2553 104.095 12.3643 104.515 12.5824C104.941 12.7952 105.292 13.0984 105.568 13.492C105.85 13.8803 106.058 14.3431 106.191 14.8803C106.329 15.4123 106.398 16 106.398 16.6437ZM104.1 16.8112V16.6437C104.1 16.2926 104.074 15.9628 104.02 15.6543C103.973 15.3405 103.888 15.0665 103.765 14.8325C103.643 14.5931 103.475 14.4043 103.262 14.266C103.055 14.1277 102.786 14.0585 102.457 14.0585C102.143 14.0585 101.877 14.1117 101.659 14.2181C101.441 14.3245 101.26 14.4734 101.116 14.6649C100.978 14.8564 100.874 15.0851 100.805 15.3511C100.736 15.6117 100.693 15.899 100.677 16.2128V17.258C100.693 17.6783 100.762 18.0506 100.885 18.3751C101.012 18.6942 101.204 18.9469 101.459 19.1331C101.72 19.3139 102.058 19.4043 102.473 19.4043C102.797 19.4043 103.066 19.3405 103.278 19.2129C103.491 19.0852 103.656 18.9043 103.773 18.6703C103.895 18.4362 103.981 18.1623 104.028 17.8485C104.076 17.5293 104.1 17.1836 104.1 16.8112Z" fill="black"/>
<path d="M94.5824 18.9816V12.415H96.8803V21.0482H94.718L94.5824 18.9816ZM94.8377 17.2103L95.5159 17.1944C95.5159 17.7688 95.4494 18.3034 95.3165 18.7981C95.1835 19.2875 94.984 19.713 94.718 20.0747C94.4521 20.4311 94.117 20.7104 93.7127 20.9125C93.3084 21.1093 92.8324 21.2077 92.2845 21.2077C91.8643 21.2077 91.476 21.1492 91.1196 21.0322C90.7685 20.9099 90.4653 20.721 90.21 20.4657C89.96 20.2051 89.7632 19.8726 89.6196 19.4683C89.4813 19.0588 89.4121 18.5667 89.4121 17.9923V12.415H91.71V18.0082C91.71 18.2635 91.7393 18.479 91.7978 18.6545C91.8616 18.83 91.9494 18.9737 92.0611 19.0854C92.1728 19.1971 92.3031 19.2768 92.452 19.3247C92.6063 19.3726 92.7765 19.3965 92.9627 19.3965C93.4361 19.3965 93.8085 19.3008 94.0797 19.1093C94.3563 18.9178 94.5505 18.6572 94.6622 18.3274C94.7792 17.9923 94.8377 17.6199 94.8377 17.2103Z" fill="black"/>
<path d="M85.6614 17.1944H88.0471C87.9992 17.9763 87.7838 18.6705 87.4008 19.2769C87.0231 19.8833 86.4938 20.3567 85.813 20.6971C85.1374 21.0375 84.3236 21.2078 83.3715 21.2078C82.6268 21.2078 81.9592 21.0801 81.3688 20.8248C80.7783 20.5641 80.273 20.1918 79.8528 19.7077C79.4379 19.2237 79.1214 18.6386 78.9033 17.9524C78.6852 17.2662 78.5762 16.4976 78.5762 15.6465V14.8406C78.5762 13.9896 78.6879 13.2209 78.9113 12.5348C79.14 11.8433 79.4645 11.2555 79.8847 10.7714C80.3102 10.2874 80.8182 9.91503 81.4087 9.65439C81.9991 9.39375 82.6587 9.26343 83.3874 9.26343C84.3555 9.26343 85.172 9.43896 85.8369 9.79003C86.5071 10.1411 87.0258 10.6252 87.3928 11.2422C87.7651 11.8592 87.9886 12.5614 88.063 13.3486H85.6694C85.6428 12.8805 85.5497 12.4842 85.3901 12.1597C85.2305 11.83 84.9885 11.5826 84.664 11.4177C84.3449 11.2475 83.9193 11.1624 83.3874 11.1624C82.9885 11.1624 82.6401 11.2369 82.3422 11.3858C82.0443 11.5347 81.7943 11.7608 81.5922 12.064C81.39 12.3672 81.2384 12.7502 81.1374 13.213C81.0416 13.6704 80.9938 14.2077 80.9938 14.8247V15.6465C80.9938 16.2476 81.039 16.7768 81.1294 17.2343C81.2198 17.6864 81.3581 18.0694 81.5443 18.3832C81.7358 18.6918 81.9805 18.9258 82.2784 19.0854C82.5816 19.2396 82.9459 19.3168 83.3715 19.3168C83.8715 19.3168 84.2837 19.237 84.6082 19.0774C84.9327 18.9178 85.18 18.6811 85.3502 18.3673C85.5257 18.0535 85.6295 17.6625 85.6614 17.1944Z" fill="black"/>
<path d="M77.4759 12.415V14.0427H72.4492V12.415H77.4759ZM73.6939 10.2847H75.9918V18.447C75.9918 18.697 76.0237 18.8885 76.0876 19.0215C76.1567 19.1545 76.2578 19.2476 76.3908 19.3008C76.5238 19.3486 76.6913 19.3726 76.8934 19.3726C77.0371 19.3726 77.1647 19.3673 77.2764 19.3566C77.3934 19.3407 77.4919 19.3247 77.5716 19.3087L77.5796 21.0003C77.3828 21.0641 77.17 21.1146 76.9413 21.1519C76.7126 21.1891 76.4599 21.2077 76.1833 21.2077C75.678 21.2077 75.2365 21.1253 74.8588 20.9604C74.4865 20.7901 74.1992 20.5189 73.9971 20.1465C73.795 19.7742 73.6939 19.2848 73.6939 18.6784V10.2847Z" fill="black"/>
<path d="M71.3479 12.415V21.0481H69.0421V12.415H71.3479ZM68.8984 10.165C68.8984 9.82988 69.0155 9.55328 69.2495 9.33519C69.4836 9.1171 69.7974 9.00806 70.191 9.00806C70.5793 9.00806 70.8905 9.1171 71.1245 9.33519C71.3639 9.55328 71.4836 9.82988 71.4836 10.165C71.4836 10.5001 71.3639 10.7767 71.1245 10.9948C70.8905 11.2129 70.5793 11.3219 70.191 11.3219C69.7974 11.3219 69.4836 11.2129 69.2495 10.9948C69.0155 10.7767 68.8984 10.5001 68.8984 10.165Z" fill="black"/>
<path d="M64.813 19.165V8.79248H67.1269V21.048H65.0444L64.813 19.165ZM59.3555 16.8352V16.6676C59.3555 16.008 59.4299 15.4096 59.5789 14.8724C59.7278 14.3298 59.9459 13.8644 60.2331 13.4761C60.5204 13.0878 60.8741 12.7872 61.2943 12.5745C61.7145 12.3617 62.1933 12.2553 62.7305 12.2553C63.2358 12.2553 63.6773 12.3617 64.055 12.5745C64.438 12.7872 64.7625 13.0904 65.0284 13.484C65.2997 13.8723 65.5178 14.3325 65.6827 14.8644C65.8476 15.391 65.9673 15.9681 66.0417 16.5958V16.9628C65.9673 17.5639 65.8476 18.1224 65.6827 18.6384C65.5178 19.1543 65.2997 19.6065 65.0284 19.9948C64.7625 20.3778 64.438 20.6756 64.055 20.8884C63.672 21.1012 63.2252 21.2076 62.7146 21.2076C62.1773 21.2076 61.6986 21.0985 61.2784 20.8804C60.8635 20.6623 60.5124 20.3565 60.2252 19.9629C59.9432 19.5692 59.7278 19.1065 59.5789 18.5745C59.4299 18.0426 59.3555 17.4628 59.3555 16.8352ZM61.6534 16.6676V16.8352C61.6534 17.1915 61.68 17.524 61.7332 17.8325C61.7917 18.141 61.8848 18.415 62.0124 18.6543C62.1454 18.8884 62.3156 19.0719 62.5231 19.2049C62.7358 19.3325 62.9938 19.3964 63.297 19.3964C63.6906 19.3964 64.0151 19.3086 64.2704 19.1331C64.5258 18.9522 64.7199 18.7049 64.8529 18.391C64.9912 18.0772 65.071 17.7155 65.0923 17.3059V16.2607C65.0763 15.9256 65.0284 15.625 64.9486 15.3591C64.8742 15.0878 64.7625 14.8564 64.6135 14.6649C64.4699 14.4734 64.2891 14.3245 64.071 14.2181C63.8582 14.1117 63.6055 14.0585 63.313 14.0585C63.0151 14.0585 62.7598 14.1277 62.547 14.266C62.3342 14.3989 62.1614 14.5825 62.0284 14.8165C61.9007 15.0506 61.805 15.3272 61.7411 15.6463C61.6826 15.9601 61.6534 16.3006 61.6534 16.6676Z" fill="black"/>
<path d="M54.8631 21.2076C54.1929 21.2076 53.5918 21.1013 53.0599 20.8885C52.528 20.6704 52.0758 20.3699 51.7035 19.9869C51.3364 19.6039 51.0545 19.1597 50.8577 18.6544C50.6609 18.1438 50.5625 17.6012 50.5625 17.0267V16.7076C50.5625 16.0533 50.6556 15.4549 50.8418 14.9123C51.0279 14.3698 51.2939 13.899 51.6396 13.5001C51.9907 13.1011 52.4163 12.7953 52.9163 12.5825C53.4163 12.3644 53.9801 12.2554 54.6078 12.2554C55.2195 12.2554 55.762 12.3564 56.2355 12.5586C56.7089 12.7607 57.1052 13.0479 57.4243 13.4203C57.7488 13.7926 57.9935 14.2394 58.1584 14.7607C58.3233 15.2767 58.4057 15.8512 58.4057 16.4842V17.4416H51.5439V15.9097H56.1477V15.7341C56.1477 15.415 56.0892 15.1304 55.9722 14.8804C55.8605 14.6251 55.6902 14.423 55.4615 14.274C55.2328 14.1251 54.9402 14.0506 54.5838 14.0506C54.2806 14.0506 54.02 14.1171 53.8019 14.2501C53.5838 14.3831 53.4056 14.5692 53.2673 14.8086C53.1343 15.048 53.0333 15.3299 52.9641 15.6544C52.9003 15.9735 52.8684 16.3246 52.8684 16.7076V17.0267C52.8684 17.3725 52.9163 17.6916 53.012 17.9842C53.1131 18.2767 53.254 18.5294 53.4349 18.7422C53.6211 18.9549 53.8445 19.1198 54.1051 19.2369C54.3711 19.3539 54.6716 19.4124 55.0067 19.4124C55.4216 19.4124 55.8073 19.3326 56.1637 19.173C56.5254 19.0081 56.8365 18.7608 57.0972 18.431L58.2142 19.6438C58.0334 19.9044 57.786 20.1544 57.4722 20.3938C57.1637 20.6332 56.7913 20.83 56.3551 20.9842C55.919 21.1332 55.4216 21.2076 54.8631 21.2076Z" fill="black"/>
<path d="M47.3624 14.298V21.0481H45.0645V12.4149H47.2267L47.3624 14.298ZM49.9635 12.3591L49.9236 14.4894C49.8119 14.4735 49.6762 14.4602 49.5166 14.4496C49.3624 14.4336 49.2214 14.4256 49.0938 14.4256C48.7693 14.4256 48.4874 14.4682 48.248 14.5533C48.014 14.6331 47.8172 14.7528 47.6576 14.9123C47.5033 15.0719 47.3863 15.2661 47.3065 15.4948C47.232 15.7235 47.1895 15.9842 47.1788 16.2767L46.7161 16.1331C46.7161 15.5746 46.7719 15.0613 46.8836 14.5932C46.9953 14.1198 47.1576 13.7075 47.3703 13.3565C47.5884 13.0054 47.8544 12.7341 48.1682 12.5426C48.4821 12.3511 48.8411 12.2554 49.2454 12.2554C49.373 12.2554 49.5034 12.266 49.6363 12.2873C49.7693 12.3032 49.8784 12.3272 49.9635 12.3591Z" fill="black"/>
<path d="M41.2512 17.1944H43.6369C43.589 17.9763 43.3736 18.6705 42.9906 19.2769C42.613 19.8833 42.0837 20.3567 41.4028 20.6971C40.7273 21.0375 39.9134 21.2078 38.9613 21.2078C38.2166 21.2078 37.549 21.0801 36.9586 20.8248C36.3682 20.5641 35.8629 20.1918 35.4426 19.7077C35.0277 19.2237 34.7112 18.6386 34.4931 17.9524C34.2751 17.2662 34.166 16.4976 34.166 15.6465V14.8406C34.166 13.9896 34.2777 13.2209 34.5011 12.5348C34.7299 11.8433 35.0543 11.2555 35.4745 10.7714C35.9001 10.2874 36.4081 9.91503 36.9985 9.65439C37.5889 9.39375 38.2485 9.26343 38.9773 9.26343C39.9454 9.26343 40.7619 9.43896 41.4268 9.79003C42.097 10.1411 42.6156 10.6252 42.9826 11.2422C43.355 11.8592 43.5784 12.5614 43.6529 13.3486H41.2592C41.2326 12.8805 41.1395 12.4842 40.98 12.1597C40.8204 11.83 40.5783 11.5826 40.2539 11.4177C39.9347 11.2475 39.5092 11.1624 38.9773 11.1624C38.5783 11.1624 38.2299 11.2369 37.932 11.3858C37.6342 11.5347 37.3842 11.7608 37.182 12.064C36.9799 12.3672 36.8283 12.7502 36.7272 13.213C36.6315 13.6704 36.5836 14.2077 36.5836 14.8247V15.6465C36.5836 16.2476 36.6288 16.7768 36.7192 17.2343C36.8097 17.6864 36.948 18.0694 37.1341 18.3832C37.3256 18.6918 37.5703 18.9258 37.8682 19.0854C38.1714 19.2396 38.5358 19.3168 38.9613 19.3168C39.4613 19.3168 39.8736 19.237 40.198 19.0774C40.5225 18.9178 40.7698 18.6811 40.9401 18.3673C41.1156 18.0535 41.2193 17.6625 41.2512 17.1944Z" fill="black"/>
<defs>
<clipPath id="clip0_98_9032">
<rect width="25.9965" height="30" fill="white"/>
</clipPath>
</defs>
</svg>
