<svg width="159" height="19" viewBox="0 0 159 19" fill="none" xmlns="http://www.w3.org/2000/svg">
<g clip-path="url(#clip0_2839_41555)">
<path d="M46.0148 5.29684V13.3789H48.0299C48.5442 13.3713 49.0517 13.2606 49.5224 13.0534C49.9932 12.8461 50.4176 12.5466 50.7705 12.1725C51.4949 11.4056 51.8913 10.3861 51.8752 9.33119C51.8905 8.80724 51.8022 8.28541 51.6153 7.79569C51.4284 7.30597 51.1465 6.85801 50.7859 6.47755C50.4315 6.10292 50.0041 5.80481 49.5302 5.60158C49.0562 5.39834 48.5456 5.29429 48.0299 5.29582H46.0158L46.0148 5.29684ZM48.0299 2.76279C51.7858 2.76279 54.6271 5.67295 54.6271 9.33119C54.6271 12.9894 51.7858 15.916 48.0299 15.916H43.5855C43.5432 15.9155 43.5013 15.9066 43.4624 15.8899C43.4234 15.8732 43.3882 15.849 43.3586 15.8186C43.329 15.7883 43.3057 15.7524 43.29 15.7131C43.2743 15.6737 43.2664 15.6316 43.267 15.5893V3.10292C43.267 2.92206 43.4098 2.77512 43.5855 2.77512L48.0299 2.76279ZM64.3081 13.6605C66.0139 13.6656 67.5543 12.6164 68.2109 11.0021C68.5326 10.2133 68.6185 9.34819 68.4584 8.51155C68.2983 7.67492 67.8989 6.9027 67.3087 6.28848C66.7288 5.68434 65.9793 5.27035 65.1592 5.10119C64.3391 4.93202 63.4869 5.01566 62.7153 5.34103C61.139 6.00692 60.1093 7.58222 60.1062 9.33119C60.1062 11.7152 61.9837 13.6492 64.3081 13.6605ZM64.3091 2.46478C68.2623 2.46478 71.2844 5.58046 71.2844 9.33119C71.2844 13.0819 68.2623 16.1976 64.3081 16.1976C60.3549 16.1976 57.3584 13.0973 57.3584 9.33119C57.3584 5.56505 60.3816 2.46478 64.3091 2.46478ZM80.8874 13.6605C83.2128 13.6543 85.0943 11.7183 85.0923 9.33428C85.0892 6.94819 83.2036 5.01631 80.8791 5.01528C78.5527 5.01528 76.666 6.94614 76.6629 9.33119C76.6629 10.4801 77.1079 11.5816 77.9001 12.3934C78.2879 12.7935 78.752 13.1118 79.2649 13.3294C79.7778 13.547 80.3302 13.6596 80.8874 13.6605ZM80.8863 2.46478C84.8272 2.46478 87.8493 5.56505 87.8493 9.33119C87.8493 13.0973 84.8148 16.1976 80.8863 16.1976C76.9588 16.1976 73.911 13.0973 73.911 9.33119C73.911 5.56505 76.9332 2.46478 80.8863 2.46478ZM97.0669 5.29684H94.2256V8.77526H97.0669C97.2914 8.78522 97.5155 8.74904 97.7255 8.66898C97.9355 8.58892 98.1268 8.46666 98.2877 8.30976C98.6165 7.99121 98.8035 7.54934 98.8076 7.08487C98.8159 6.84922 98.7765 6.61434 98.6917 6.39431C98.607 6.17429 98.4786 5.97366 98.3144 5.80448C98.1532 5.63798 97.9589 5.50707 97.744 5.42018C97.5292 5.33328 97.2985 5.29232 97.0669 5.29993V5.29684ZM91.4768 3.10292C91.4768 2.92206 91.6206 2.77512 91.7963 2.77512H97.146C99.6965 2.77512 101.542 4.69159 101.542 7.09822C101.562 8.72594 100.673 10.2211 99.2536 10.9497L101.721 15.4228C101.755 15.4742 101.774 15.5341 101.776 15.5957C101.779 15.6574 101.764 15.7185 101.733 15.7722C101.703 15.825 101.659 15.8682 101.606 15.8967C101.552 15.9251 101.492 15.9375 101.431 15.9325H99.2659C99.2059 15.9333 99.1468 15.9172 99.0956 15.8859C99.0443 15.8547 99.0029 15.8095 98.9762 15.7557L96.5983 11.3288H94.2153V15.579C94.216 15.6215 94.2083 15.6636 94.1926 15.7031C94.177 15.7426 94.1537 15.7786 94.1241 15.809C94.0945 15.8395 94.0592 15.8638 94.0202 15.8806C93.9811 15.8973 93.9392 15.9063 93.8967 15.9068H91.8107C91.7683 15.9063 91.7263 15.8973 91.6873 15.8806C91.6483 15.8638 91.613 15.8395 91.5834 15.809C91.5538 15.7786 91.5305 15.7426 91.5148 15.7031C91.4992 15.6636 91.4915 15.6215 91.4922 15.579L91.4778 3.10395L91.4768 3.10292ZM108.706 5.3585V13.4416H110.721C111.235 13.4346 111.742 13.3246 112.213 13.1181C112.684 12.9116 113.109 12.6128 113.462 12.2393C114.187 11.4732 114.584 10.4545 114.569 9.40004C114.585 8.87544 114.498 8.35277 114.311 7.86213C114.125 7.3715 113.843 6.92259 113.483 6.54127C113.128 6.166 112.7 5.86752 112.225 5.66427C111.75 5.46101 111.238 5.35729 110.722 5.35953L108.706 5.3585ZM110.721 2.82136C114.476 2.82136 117.318 5.7346 117.318 9.40004C117.318 13.0655 114.476 15.9787 110.721 15.9787H106.29C106.247 15.9782 106.205 15.9693 106.166 15.9525C106.127 15.9357 106.092 15.9114 106.062 15.881C106.033 15.8505 106.009 15.8145 105.994 15.775C105.978 15.7356 105.97 15.6934 105.971 15.6509V3.16561C105.971 2.98372 106.114 2.83677 106.29 2.83677L110.721 2.82136ZM125.699 6.03569L124.14 10.3578H127.255L125.699 6.03569ZM123.225 12.8004L122.205 15.6776C122.185 15.7453 122.142 15.8043 122.084 15.8452C122.027 15.8862 121.957 15.9067 121.886 15.9037H119.673C119.617 15.909 119.56 15.899 119.509 15.8747C119.458 15.8505 119.414 15.8129 119.382 15.766C119.35 15.7185 119.33 15.6635 119.325 15.6063C119.321 15.549 119.331 15.4915 119.354 15.4392L124.137 2.96522C124.159 2.89944 124.202 2.84276 124.26 2.8038C124.317 2.76484 124.386 2.74575 124.455 2.74943H126.932C127.001 2.74552 127.07 2.7645 127.128 2.80348C127.186 2.84245 127.229 2.89927 127.252 2.96522L132.034 15.4392C132.058 15.4916 132.068 15.5492 132.062 15.6064C132.057 15.6636 132.038 15.7186 132.005 15.766C131.973 15.8128 131.93 15.8501 131.879 15.8741C131.827 15.8982 131.771 15.908 131.714 15.9027H129.502C129.431 15.9057 129.362 15.8851 129.304 15.8442C129.246 15.8033 129.204 15.7443 129.183 15.6766L128.163 12.7993H123.225V12.8004ZM134.6 6.31622C134.6 4.25075 136.341 2.46478 139.089 2.46478C140.57 2.43173 142.003 2.98546 143.077 4.00515C143.109 4.03608 143.135 4.07336 143.153 4.1147C143.171 4.15605 143.18 4.20059 143.18 4.24561C143.18 4.29063 143.171 4.33518 143.153 4.37652C143.135 4.41787 143.109 4.45514 143.077 4.48607L141.851 5.7346C141.821 5.76493 141.786 5.78905 141.747 5.80553C141.708 5.822 141.667 5.83049 141.625 5.83049C141.582 5.83049 141.541 5.822 141.502 5.80553C141.463 5.78905 141.428 5.76493 141.398 5.7346C140.821 5.19339 140.063 4.88674 139.271 4.8745C138.172 4.8745 137.359 5.52908 137.359 6.28437C137.359 8.72594 143.857 7.3171 143.857 12.0153C143.853 14.3962 142.099 16.1976 138.998 16.1976C138.137 16.2064 137.283 16.0419 136.486 15.7139C135.69 15.3859 134.968 14.9011 134.363 14.2883C134.33 14.2574 134.304 14.2201 134.286 14.1788C134.268 14.1374 134.259 14.0929 134.259 14.0479C134.259 14.0029 134.268 13.9583 134.286 13.917C134.304 13.8756 134.33 13.8383 134.363 13.8074L135.548 12.5907C135.578 12.5589 135.614 12.5336 135.653 12.5162C135.693 12.4988 135.736 12.4899 135.78 12.4899C135.823 12.4899 135.866 12.4988 135.906 12.5162C135.945 12.5336 135.981 12.5589 136.011 12.5907C136.757 13.3305 137.762 13.7507 138.813 13.7622C140.187 13.7622 141.092 13.01 141.092 12.0677C141.092 9.62509 134.598 11.035 134.598 6.33575M155.639 3.08648V8.02306H150.139V3.08648C150.14 3.04411 150.132 3.00204 150.116 2.96268C150.101 2.92333 150.077 2.88745 150.048 2.85711C150.018 2.82677 149.983 2.80254 149.944 2.78583C149.905 2.76912 149.863 2.76024 149.821 2.7597H147.735C147.692 2.76024 147.65 2.76912 147.611 2.78583C147.573 2.80254 147.537 2.82677 147.508 2.85711C147.478 2.88745 147.455 2.92333 147.439 2.96268C147.423 3.00204 147.416 3.04411 147.416 3.08648V15.5584C147.416 15.7393 147.56 15.8862 147.735 15.8862H149.821C149.995 15.8862 150.139 15.7393 150.139 15.5584V10.5438H155.635V15.5584C155.635 15.7393 155.779 15.8862 155.953 15.8862H158.039C158.215 15.8862 158.358 15.7393 158.358 15.5584V3.08648C158.359 3.04411 158.351 3.00204 158.335 2.96268C158.319 2.92333 158.296 2.88745 158.266 2.85711C158.237 2.82677 158.202 2.80254 158.163 2.78583C158.124 2.76912 158.082 2.76024 158.039 2.7597H155.953C155.869 2.76186 155.788 2.79737 155.729 2.85854C155.67 2.9197 155.638 3.0016 155.639 3.08648ZM31.5575 4.42441C30.1107 1.74238 27.2796 0.0725348 24.2009 0.0828108H0.907346C0.750038 0.0834494 0.596396 0.130363 0.465563 0.217707C0.33473 0.305051 0.232492 0.428963 0.171586 0.574003C0.111571 0.718113 0.0959401 0.876858 0.126696 1.02991C0.157452 1.18295 0.233195 1.32334 0.344223 1.43307L5.4185 6.46831C5.86653 6.91428 6.47693 7.16399 7.11198 7.16399H23.533C24.7034 7.15166 25.6601 8.07855 25.6725 9.23255C25.6848 10.3865 24.7466 11.3319 23.5762 11.3432H12.2551C12.0977 11.3433 11.9438 11.3897 11.8126 11.4767C11.6813 11.5637 11.5786 11.6874 11.5173 11.8324C11.4567 11.9766 11.4407 12.1357 11.4712 12.2892C11.5018 12.4427 11.5776 12.5835 11.6889 12.6935L16.7663 17.7328C17.2171 18.1786 17.8257 18.4283 18.4597 18.4275H23.5803C30.2422 18.4275 35.2795 11.3987 31.5575 4.42133" fill="black"/>
</g>
<defs>
<clipPath id="clip0_2839_41555">
<rect width="158.39" height="18.5" fill="white"/>
</clipPath>
</defs>
</svg>
