<svg width="170" height="30" viewBox="0 0 170 30" fill="none" xmlns="http://www.w3.org/2000/svg">
<g clip-path="url(#clip0_2839_41575)">
<path d="M44.6087 4.19846C39.8158 -0.443355 32.2506 -0.798171 27.0284 3.12628C27.0278 3.12674 27.0271 3.12722 27.0264 3.12772C26.6102 3.44068 26.2076 3.77873 25.8237 4.14626C23.667 6.00768 21.1636 8.34456 19.46 10.1128C18.4551 11.1556 17.1141 12.5296 16.0794 13.5449C15.8524 12.6288 14.0858 11.5149 13.9032 11.4043C13.1993 10.9778 12.4282 10.6542 11.6192 10.4699C10.3364 10.1776 8.47249 10.1039 7.35628 10.926C7.12525 11.0961 7.01808 11.4059 7.20453 11.5539C7.58979 11.8594 8.16426 12.0147 8.60477 12.2324C9.22742 12.5399 9.81153 12.9293 10.3612 13.347C11.1899 13.9768 11.9413 14.704 12.5806 15.5153C12.9173 15.9425 13.23 16.3935 13.493 16.8671C13.7051 17.2491 13.8486 17.7226 14.2576 17.9553C14.4816 18.0827 14.7513 18.1126 15.0108 18.1047C15.6564 18.0853 16.1288 17.8143 16.5385 17.3494C17.3992 16.373 19.4292 13.8245 20.2925 12.8487C21.5387 11.4401 22.5698 10.3086 23.4663 9.35752L27.2806 5.66398C31.641 1.44217 38.7349 1.44217 43.0953 5.66398C47.4553 9.88606 47.4553 16.7553 43.0953 20.9775C40.9832 23.0226 38.1749 24.149 35.188 24.149C32.2011 24.149 29.3927 23.0226 27.2806 20.9775L25.7671 22.4429C28.2833 24.8798 31.6292 26.2219 35.188 26.2219C38.7466 26.2219 42.0924 24.8798 44.6087 22.4429C49.8035 17.413 49.8035 9.22832 44.6087 4.19846Z" fill="black"/>
<path d="M38.0314 10.6103C36.4865 9.11413 33.9881 9.06208 32.4068 10.4942L32.3419 10.5524C32.3205 10.5723 29.0855 13.7005 29.0855 13.7005L29.087 13.702L21.1329 21.3988C18.9254 23.5364 15.9904 24.7136 12.8686 24.7136C9.74667 24.7136 6.81174 23.5364 4.60414 21.3988C2.39665 19.2612 1.18086 16.4191 1.18086 13.3962C1.18086 10.3733 2.39665 7.53128 4.60414 5.39372C9.16119 0.981184 16.5758 0.981184 21.1329 5.39372L21.968 4.58509C16.9505 -0.273113 8.78659 -0.273235 3.76917 4.58521C1.33868 6.93868 0 10.0678 0 13.3962C0 16.7247 1.33868 19.8538 3.76917 22.2073C6.19962 24.5608 9.43126 25.8571 12.8686 25.8571C16.3058 25.8571 19.5374 24.5608 21.968 22.2073L29.9192 14.5078L29.9204 14.5091L33.1118 11.4187C34.2381 10.3285 36.0701 10.3285 37.1964 11.4187C38.3225 12.5092 38.3225 14.2834 37.1964 15.3738C36.6508 15.902 35.9255 16.193 35.1542 16.193C34.3827 16.193 33.6573 15.902 33.1118 15.3738L32.2768 16.1823C33.07 16.9505 34.1122 17.3345 35.1542 17.3345C36.196 17.3345 37.2382 16.9505 38.0314 16.1823C39.618 14.6461 39.6177 12.1467 38.0314 10.6103Z" fill="black"/>
<path d="M55.5282 8.6854H57.5239V23.0824H55.5282V8.6854ZM54.9922 4.40132C54.9922 3.55619 55.6476 2.91504 56.5112 2.91504C57.3751 2.91504 58.0304 3.55619 58.0304 4.40132C58.0304 5.24653 57.3751 5.88759 56.5112 5.88759C55.6476 5.88759 54.9922 5.24653 54.9922 4.40132Z" fill="black"/>
<path d="M131.004 4.40132C131.004 3.55619 131.66 2.91504 132.524 2.91504C133.387 2.91504 134.042 3.55619 134.042 4.40132C134.042 5.24654 133.387 5.88759 132.524 5.88759C131.66 5.88759 131.004 5.24654 131.004 4.40132Z" fill="black"/>
<path d="M61.5156 4.02246H63.6598V21.159H75.4553V23.0824H61.5156V4.02246Z" fill="black"/>
<path d="M88.205 11.0824C85.7618 9.35139 82.8552 9.72244 80.749 11.7831C78.5798 13.9057 78.2849 16.7907 80.0116 19.099L88.205 11.0824ZM79.3169 21.3452C76.1575 18.2542 76.1575 13.7203 79.4434 10.5054C82.7289 7.29051 87.3206 7.33179 90.4799 10.4228L90.9432 10.8764L81.2337 20.3764C83.5925 22.3138 86.7516 22.2313 89.0895 19.9437C89.9126 19.1388 90.471 18.2613 90.7577 17.3556C90.7825 17.3472 92.5128 17.9016 92.5182 17.8936C92.2004 18.8663 91.6651 19.8107 90.9096 20.6772C90.7485 20.8624 90.5769 21.0439 90.3956 21.2214C87.1096 24.4364 82.4762 24.4364 79.3169 21.3452Z" fill="black"/>
<path d="M95.3828 15.5636C95.3828 10.7839 98.3021 8.30664 102.651 8.30664C106.999 8.30664 109.919 10.7839 109.919 15.5636V23.0825H107.923V15.5636C107.923 12.0079 105.838 10.1136 102.651 10.1136C99.4639 10.1136 97.3786 12.0079 97.3786 15.5636V23.0825H95.3828V15.5636Z" fill="black"/>
<path d="M126.063 15.8841C126.063 12.5618 123.709 10.1137 120.165 10.1137C116.65 10.1137 114.268 12.5618 114.268 15.8841C114.268 19.2067 116.65 21.6545 120.165 21.6545C123.709 21.6545 126.063 19.2067 126.063 15.8841ZM112.242 15.8259C112.242 11.396 115.548 8.30673 119.867 8.30673C122.667 8.30673 124.961 9.58922 126.063 11.7748V2.39062H128.058V15.7967C128.058 20.4305 124.752 23.4615 120.194 23.4615C115.518 23.4615 112.242 20.2557 112.242 15.8259Z" fill="black"/>
<path d="M131.541 8.68555H133.537V23.0826H131.541V8.68555Z" fill="black"/>
<path d="M136.98 15.5245C136.98 10.7448 139.9 8.26758 144.248 8.26758C148.597 8.26758 151.516 10.7448 151.516 15.5245V23.0434H149.52V15.5245C149.52 11.9689 147.435 10.0745 144.248 10.0745C141.061 10.0745 138.976 11.9689 138.976 15.5245V23.0434H136.98V15.5245Z" fill="black"/>
<path d="M167.659 15.8449C167.659 12.5226 165.276 10.0745 161.761 10.0745C158.246 10.0745 155.863 12.5226 155.863 15.8449C155.863 19.1673 158.246 21.5279 161.761 21.5279C165.276 21.5279 167.659 19.1673 167.659 15.8449ZM154.464 24.9379H156.489C157.293 26.9779 159.349 27.8521 161.85 27.8521C165.246 27.8521 167.659 26.1909 167.659 21.936V19.8376C166.527 22.0817 164.263 23.3348 161.463 23.3348C157.323 23.3348 153.838 20.5371 153.838 15.8449C153.838 11.4733 157.114 8.26758 161.761 8.26758C166.408 8.26758 169.654 11.3568 169.654 15.9323V21.8486C169.654 27.415 166.229 29.5716 161.85 29.5716C158.306 29.5716 155.477 28.1435 154.464 24.9379Z" fill="black"/>
</g>
<defs>
<clipPath id="clip0_2839_41575">
<rect width="169.655" height="30" fill="white"/>
</clipPath>
</defs>
</svg>
