<svg width="36" height="36" viewBox="0 0 36 36" fill="none" xmlns="http://www.w3.org/2000/svg">
<path fill-rule="evenodd" clip-rule="evenodd" d="M2.65999 16.457C3.43335 8.66779 10.0072 2.5835 18.0005 2.5835C26.5149 2.5835 33.4171 9.48577 33.4171 18.0002C33.4171 26.5146 26.5149 33.4168 18.0005 33.4168C17.3101 33.4168 16.7505 33.9765 16.7505 34.6668C16.7505 35.3572 17.3101 35.9168 18.0005 35.9168C27.8956 35.9168 35.9171 27.8953 35.9171 18.0002C35.9171 8.10506 27.8956 0.0834961 18.0005 0.0834961C8.70931 0.0834961 1.07128 7.15479 0.172224 16.21C0.104017 16.897 0.605629 17.5092 1.29261 17.5774C1.97959 17.6456 2.59178 17.144 2.65999 16.457ZM3.09699 21.9608C2.92015 21.2935 2.23583 20.8958 1.5685 21.0727C0.901181 21.2495 0.503567 21.9338 0.680407 22.6012C0.817227 23.1175 0.976508 23.6246 1.15714 24.1215C1.39299 24.7704 2.11015 25.1051 2.75897 24.8693C3.40779 24.6334 3.74257 23.9163 3.50672 23.2675C3.35147 22.8404 3.21458 22.4045 3.09699 21.9608ZM5.84056 27.4782C5.41575 26.934 4.63023 26.8372 4.08605 27.2621C3.54188 27.6869 3.44511 28.4724 3.86992 29.0166C4.22895 29.4765 4.60992 29.9184 5.01126 30.3407C5.48683 30.8411 6.27803 30.8612 6.77845 30.3857C7.27887 29.9101 7.29902 29.1189 6.82345 28.6185C6.47778 28.2548 6.1497 27.8742 5.84056 27.4782ZM10.8352 31.6543C10.2242 31.333 9.46837 31.5678 9.14702 32.1788C8.82567 32.7898 9.06048 33.5456 9.67148 33.867C10.1207 34.1033 10.5813 34.321 11.0521 34.5193C11.6884 34.7872 12.4214 34.4887 12.6893 33.8524C12.9572 33.2162 12.6586 32.4832 12.0224 32.2153C11.6176 32.0448 11.2216 31.8576 10.8352 31.6543ZM19.2506 8.00016C19.2506 7.30981 18.6909 6.75016 18.0006 6.75016C17.3102 6.75016 16.7506 7.30981 16.7506 8.00016V17.1668C16.7506 18.3174 17.6833 19.2502 18.8339 19.2502H23.8339C24.5243 19.2502 25.0839 18.6905 25.0839 18.0002C25.0839 17.3098 24.5243 16.7502 23.8339 16.7502H19.2506V8.00016Z" fill="black"/>
</svg>
