<svg width="40" height="40" viewBox="0 0 40 40" fill="none" xmlns="http://www.w3.org/2000/svg">
<path d="M14.584 10.0002C14.584 7.00862 17.0091 4.5835 20.0007 4.5835C22.9922 4.5835 25.4173 7.00862 25.4173 10.0002C25.4173 10.4697 25.3579 10.9235 25.2467 11.3553C25.0747 12.0238 25.4772 12.7053 26.1457 12.8774C26.8143 13.0495 27.4958 12.647 27.6678 11.9784C27.8309 11.3448 27.9173 10.6816 27.9173 10.0002C27.9173 5.62791 24.3729 2.0835 20.0007 2.0835C15.6284 2.0835 12.084 5.62791 12.084 10.0002C12.084 12.6759 13.4115 15.0398 15.4404 16.472L10.2796 26.6783C10.1876 26.6707 10.0946 26.6668 10.0007 26.6668C8.1597 26.6668 6.66732 28.1592 6.66732 30.0002C6.66732 31.8411 8.1597 33.3335 10.0007 33.3335C11.8416 33.3335 13.334 31.8411 13.334 30.0002C13.334 29.1602 13.0233 28.3928 12.5105 27.8066L18.7697 15.428L17.6299 14.8721C15.8239 13.9913 14.584 12.1394 14.584 10.0002Z" fill="black"/>
<path d="M22.5734 12.1198C23.0486 11.5437 23.334 10.8053 23.334 10.0002C23.334 8.15921 21.8416 6.66683 20.0007 6.66683C18.1597 6.66683 16.6673 8.15921 16.6673 10.0002C16.6673 11.8411 18.1597 13.3335 20.0007 13.3335C20.1276 13.3335 20.253 13.3264 20.3763 13.3126L26.9347 25.3957L27.9697 24.9768C28.5952 24.7236 29.28 24.5835 30.0006 24.5835C32.9922 24.5835 35.4173 27.0086 35.4173 30.0002C35.4173 32.9917 32.9922 35.4168 30.0006 35.4168C28.5798 35.4168 27.2892 34.8714 26.3221 33.9762C25.8155 33.5073 25.0247 33.5378 24.5557 34.0444C24.0867 34.551 24.1172 35.3419 24.6238 35.8108C26.0347 37.1169 27.9257 37.9168 30.0006 37.9168C34.3729 37.9168 37.9173 34.3724 37.9173 30.0002C37.9173 25.6279 34.3729 22.0835 30.0006 22.0835C29.3484 22.0835 28.7135 22.1626 28.1055 22.3121L22.5734 12.1198Z" fill="black"/>
<path d="M33.334 30.0002C33.334 31.8411 31.8416 33.3335 30.0007 33.3335C28.6017 33.3335 27.4041 32.4718 26.9096 31.2502H17.8192C17.2199 35.0285 13.9476 37.9168 10.0007 37.9168C5.6284 37.9168 2.08398 34.3724 2.08398 30.0002C2.08398 26.6758 4.13264 23.8329 7.03163 22.6594C7.67155 22.4004 8.40029 22.7092 8.65932 23.3491C8.91835 23.989 8.60959 24.7177 7.96967 24.9768C5.98227 25.7812 4.58398 27.7289 4.58398 30.0002C4.58398 32.9917 7.00911 35.4168 10.0007 35.4168C12.9922 35.4168 15.4173 32.9917 15.4173 30.0002V28.7502H26.9096C27.4041 27.5286 28.6017 26.6668 30.0007 26.6668C31.8416 26.6668 33.334 28.1592 33.334 30.0002Z" fill="black"/>
</svg>
