<svg width="36" height="37" viewBox="0 0 36 37" fill="none" xmlns="http://www.w3.org/2000/svg">
<path fill-rule="evenodd" clip-rule="evenodd" d="M18.0007 0.25C18.5474 0.25 19.0307 0.605312 19.1938 1.12716L23.1696 13.8498L35.0626 17.8141C35.573 17.9843 35.9173 18.462 35.9173 19C35.9173 19.538 35.573 20.0157 35.0626 20.1859L23.1555 24.1549L19.1865 36.062C19.0164 36.5724 18.5387 36.9167 18.0007 36.9167C17.4626 36.9167 16.9849 36.5724 16.8148 36.062L12.8458 24.1549L0.9387 20.1859C0.428272 20.0157 0.0839844 19.538 0.0839844 19C0.0839844 18.462 0.428272 17.9843 0.9387 17.8141L12.8317 13.8498L16.8076 1.12716C16.9706 0.605312 17.4539 0.25 18.0007 0.25ZM18.0007 5.69077L15.0271 15.2062C14.9073 15.5896 14.6104 15.8921 14.2293 16.0192L5.28683 19L14.2293 21.9808C14.6025 22.1052 14.8954 22.3981 15.0198 22.7714L18.0007 31.7138L20.9815 22.7714C21.1059 22.3981 21.3988 22.1052 21.772 21.9808L30.7145 19L21.772 16.0192C21.3909 15.8921 21.0941 15.5896 20.9742 15.2062L18.0007 5.69077Z" fill="black"/>
<path d="M6.33398 2.75C7.02434 2.75 7.58398 3.30964 7.58398 4V6.08333H9.66732C10.3577 6.08333 10.9173 6.64298 10.9173 7.33333C10.9173 8.02369 10.3577 8.58333 9.66732 8.58333H7.58398V10.6667C7.58398 11.357 7.02434 11.9167 6.33398 11.9167C5.64363 11.9167 5.08398 11.357 5.08398 10.6667V8.58333H3.00065C2.3103 8.58333 1.75065 8.02369 1.75065 7.33333C1.75065 6.64298 2.3103 6.08333 3.00065 6.08333H5.08398V4C5.08398 3.30964 5.64363 2.75 6.33398 2.75Z" fill="black"/>
<path d="M30.9173 27.3333C30.9173 26.643 30.3577 26.0833 29.6673 26.0833C28.977 26.0833 28.4173 26.643 28.4173 27.3333V29.4167H26.334C25.6436 29.4167 25.084 29.9763 25.084 30.6667C25.084 31.357 25.6436 31.9167 26.334 31.9167H28.4173V34C28.4173 34.6904 28.977 35.25 29.6673 35.25C30.3577 35.25 30.9173 34.6904 30.9173 34V31.9167H33.0007C33.691 31.9167 34.2507 31.357 34.2507 30.6667C34.2507 29.9763 33.691 29.4167 33.0007 29.4167H30.9173V27.3333Z" fill="black"/>
</svg>
