<svg width="37" height="35" viewBox="0 0 37 35" fill="none" xmlns="http://www.w3.org/2000/svg">
<path fill-rule="evenodd" clip-rule="evenodd" d="M31.7736 2.4514C32.3339 2.73153 34.416 4.64533 34.416 9.6667C34.416 14.6881 32.3339 16.6019 31.7736 16.882L32.8916 19.1181C34.5536 18.2871 36.916 15.312 36.916 9.6667C36.916 4.0214 34.5536 1.04631 32.8916 0.215332L31.7736 2.4514ZM19.8327 11.3335C19.8327 14.5552 17.221 17.1668 13.9993 17.1668C10.7777 17.1668 8.16602 14.5552 8.16602 11.3335C8.16602 8.11184 10.7777 5.50016 13.9993 5.50016C17.221 5.50016 19.8327 8.11184 19.8327 11.3335ZM22.3327 11.3335C22.3327 15.9359 18.6017 19.6668 13.9993 19.6668C9.39698 19.6668 5.66602 15.9359 5.66602 11.3335C5.66602 6.73112 9.39698 3.00016 13.9993 3.00016C18.6017 3.00016 22.3327 6.73112 22.3327 11.3335ZM3.16602 28.8335C3.16602 26.9925 4.6584 25.5002 6.49935 25.5002H21.4993C23.3403 25.5002 24.8327 26.9925 24.8327 28.8335C24.8327 30.6744 23.3403 32.1668 21.4993 32.1668H6.49935C4.6584 32.1668 3.16602 30.6744 3.16602 28.8335ZM0.666016 28.8335C0.666016 25.6118 3.27769 23.0002 6.49935 23.0002H21.4993C24.721 23.0002 27.3327 25.6118 27.3327 28.8335C27.3327 32.0552 24.721 34.6668 21.4993 34.6668H6.49935C3.27769 34.6668 0.666016 32.0552 0.666016 28.8335ZM27.6101 7.45411L27.6076 7.45224C27.6058 7.45087 27.6056 7.45063 27.6072 7.4514L28.7252 5.21533C29.8316 5.76853 31.0828 7.5214 31.0828 10.5C31.0828 13.4787 29.8316 15.2315 28.7252 15.7847L27.6072 13.5487C27.6051 13.5497 27.6062 13.5489 27.6101 13.546C27.6424 13.522 27.8648 13.3565 28.0968 12.9065C28.3425 12.4298 28.5828 11.6577 28.5828 10.5C28.5828 9.34242 28.3425 8.57029 28.0968 8.09359C27.8648 7.64361 27.6424 7.4781 27.6101 7.45411Z" fill="black"/>
</svg>
