<svg width="16" height="17" viewBox="0 0 16 17" fill="none" xmlns="http://www.w3.org/2000/svg">
<path d="M14 12.5V8.5C14 5.18629 11.3137 2.5 8 2.5C4.68629 2.5 2 5.18629 2 8.5V12.5M3.66667 14.5C2.74619 14.5 2 13.7538 2 12.8333V11.5C2 10.5795 2.74619 9.83333 3.66667 9.83333C4.58714 9.83333 5.33333 10.5795 5.33333 11.5V12.8333C5.33333 13.7538 4.58714 14.5 3.66667 14.5ZM12.3333 14.5C11.4129 14.5 10.6667 13.7538 10.6667 12.8333V11.5C10.6667 10.5795 11.4129 9.83333 12.3333 9.83333C13.2538 9.83333 14 10.5795 14 11.5V12.8333C14 13.7538 13.2538 14.5 12.3333 14.5Z" stroke="#AAAAAA" stroke-width="1.33333" stroke-linecap="round" stroke-linejoin="round"/>
</svg>
