<svg xmlns="http://www.w3.org/2000/svg" xmlns:xlink="http://www.w3.org/1999/xlink" width="68" zoomAndPan="magnify" viewBox="0 0 50.879997 48" height="64" preserveAspectRatio="xMidYMid meet" version="1.2"><defs><clipPath id="3c09573ee0"><path d="M 1.375 3 L 37 3 L 37 47 L 1.375 47 Z M 1.375 3 "/></clipPath><clipPath id="b2d0ddbfbc"><path d="M 24 12 L 50.300781 12 L 50.300781 15 L 24 15 Z M 24 12 "/></clipPath></defs><g id="d7ccecc31c"><g clip-rule="nonzero" clip-path="url(#3c09573ee0)"><path style=" stroke:none;fill-rule:nonzero;fill:#a6a6a6;fill-opacity:1;" d="M 26.015625 47 C 24.695312 47 23.53125 46.578125 22.515625 45.734375 C 17.511719 41.597656 13.25 36.867188 9.851562 31.675781 C 6.457031 26.480469 3.828125 20.679688 2.046875 14.441406 C 1.882812 13.875 1.8125 13.296875 1.835938 12.707031 C 1.859375 12.117188 1.976562 11.546875 2.183594 10.996094 C 2.386719 10.441406 2.675781 9.9375 3.046875 9.476562 C 3.417969 9.015625 3.847656 8.628906 4.34375 8.308594 L 11.714844 3.480469 C 11.902344 3.359375 12.109375 3.320312 12.328125 3.367188 C 12.550781 3.414062 12.722656 3.53125 12.84375 3.71875 L 18.796875 12.816406 C 18.921875 13.007812 18.960938 13.210938 18.914062 13.433594 C 18.867188 13.652344 18.75 13.824219 18.558594 13.949219 L 16.214844 15.480469 C 15.980469 15.632812 15.769531 15.804688 15.570312 15.996094 C 15.375 16.191406 15.199219 16.398438 15.042969 16.628906 C 14.886719 16.855469 14.757812 17.097656 14.648438 17.351562 C 14.542969 17.605469 14.460938 17.867188 14.402344 18.136719 C 14.347656 18.40625 14.316406 18.679688 14.316406 18.953125 C 14.3125 19.230469 14.335938 19.503906 14.386719 19.773438 C 14.441406 20.046875 14.515625 20.308594 14.621094 20.5625 C 14.722656 20.820312 14.851562 21.0625 15 21.292969 L 21.425781 31.117188 C 21.574219 31.347656 21.75 31.5625 21.941406 31.757812 C 22.132812 31.957031 22.34375 32.132812 22.570312 32.285156 C 22.800781 32.441406 23.039062 32.574219 23.292969 32.683594 C 23.546875 32.789062 23.808594 32.871094 24.078125 32.929688 C 24.347656 32.984375 24.621094 33.015625 24.898438 33.015625 C 25.171875 33.019531 25.445312 32.996094 25.71875 32.945312 C 25.988281 32.894531 26.253906 32.816406 26.507812 32.714844 C 26.765625 32.609375 27.007812 32.484375 27.238281 32.332031 L 29.585938 30.800781 C 29.773438 30.679688 29.980469 30.640625 30.199219 30.683594 C 30.421875 30.730469 30.59375 30.847656 30.714844 31.039062 L 36.667969 40.136719 C 36.789062 40.328125 36.828125 40.53125 36.78125 40.753906 C 36.738281 40.972656 36.617188 41.144531 36.429688 41.269531 L 29.054688 46.085938 C 28.132812 46.695312 27.121094 46.996094 26.015625 47 Z M 11.925781 5.296875 L 5.238281 9.667969 C 4.886719 9.894531 4.585938 10.167969 4.324219 10.492188 C 4.0625 10.816406 3.859375 11.171875 3.714844 11.5625 C 3.570312 11.949219 3.488281 12.351562 3.46875 12.765625 C 3.453125 13.183594 3.503906 13.589844 3.617188 13.988281 C 7.089844 26.15625 13.800781 36.414062 23.554688 44.476562 C 23.875 44.738281 24.226562 44.945312 24.613281 45.097656 C 25 45.25 25.402344 45.335938 25.816406 45.355469 C 26.230469 45.378906 26.640625 45.335938 27.039062 45.226562 C 27.441406 45.117188 27.816406 44.949219 28.160156 44.722656 L 34.847656 40.347656 L 29.792969 32.609375 L 28.132812 33.695312 C 27.8125 33.90625 27.472656 34.082031 27.117188 34.222656 C 26.761719 34.367188 26.398438 34.472656 26.019531 34.546875 C 25.644531 34.617188 25.265625 34.648438 24.882812 34.644531 C 24.5 34.640625 24.121094 34.601562 23.746094 34.523438 C 23.371094 34.445312 23.007812 34.328125 22.65625 34.179688 C 22.300781 34.03125 21.96875 33.847656 21.652344 33.632812 C 21.335938 33.414062 21.042969 33.171875 20.773438 32.898438 C 20.507812 32.625 20.269531 32.328125 20.058594 32.003906 L 13.636719 22.183594 C 13.425781 21.863281 13.25 21.523438 13.105469 21.171875 C 12.960938 20.816406 12.855469 20.449219 12.785156 20.074219 C 12.714844 19.695312 12.679688 19.316406 12.683594 18.933594 C 12.6875 18.550781 12.726562 18.171875 12.804688 17.796875 C 12.882812 17.421875 13 17.058594 13.148438 16.707031 C 13.300781 16.355469 13.480469 16.019531 13.699219 15.703125 C 13.914062 15.386719 14.160156 15.09375 14.433594 14.828125 C 14.707031 14.558594 15.003906 14.320312 15.324219 14.109375 L 16.984375 13.023438 Z M 11.925781 5.296875 "/></g><path style=" stroke:none;fill-rule:nonzero;fill:#a6a6a6;fill-opacity:1;" d="M 18.113281 14.082031 C 18.058594 14.082031 18 14.078125 17.945312 14.0625 C 17.726562 14.019531 17.554688 13.902344 17.429688 13.710938 L 11.476562 4.613281 C 11.355469 4.421875 11.316406 4.21875 11.363281 3.996094 C 11.410156 3.777344 11.527344 3.605469 11.714844 3.480469 L 13.789062 2.125 C 14.078125 1.9375 14.390625 1.8125 14.726562 1.746094 C 15.066406 1.683594 15.402344 1.6875 15.738281 1.757812 C 16.074219 1.828125 16.382812 1.960938 16.667969 2.152344 C 16.953125 2.347656 17.1875 2.585938 17.375 2.875 L 21.386719 9.003906 C 21.574219 9.292969 21.699219 9.605469 21.761719 9.941406 C 21.828125 10.28125 21.824219 10.617188 21.753906 10.953125 C 21.683594 11.289062 21.550781 11.601562 21.355469 11.882812 C 21.164062 12.167969 20.921875 12.40625 20.636719 12.59375 L 18.558594 13.949219 C 18.425781 14.039062 18.277344 14.082031 18.113281 14.082031 Z M 13.292969 4.402344 L 18.351562 12.136719 L 19.742188 11.226562 C 19.964844 11.082031 20.101562 10.878906 20.15625 10.621094 C 20.210938 10.359375 20.164062 10.121094 20.019531 9.898438 L 16.011719 3.769531 C 15.863281 3.546875 15.664062 3.410156 15.402344 3.355469 C 15.144531 3.300781 14.90625 3.347656 14.683594 3.492188 Z M 13.292969 4.402344 "/><path style=" stroke:none;fill-rule:nonzero;fill:#a6a6a6;fill-opacity:1;" d="M 35.980469 41.398438 C 35.921875 41.398438 35.867188 41.394531 35.8125 41.382812 C 35.589844 41.335938 35.417969 41.21875 35.296875 41.03125 L 29.34375 31.929688 C 29.21875 31.742188 29.183594 31.535156 29.226562 31.316406 C 29.273438 31.09375 29.390625 30.921875 29.582031 30.796875 L 31.65625 29.445312 C 31.941406 29.257812 32.253906 29.132812 32.59375 29.070312 C 32.929688 29.003906 33.265625 29.007812 33.601562 29.078125 C 33.9375 29.148438 34.25 29.28125 34.53125 29.472656 C 34.816406 29.667969 35.054688 29.90625 35.242188 30.195312 L 39.25 36.324219 C 39.4375 36.613281 39.566406 36.925781 39.628906 37.265625 C 39.691406 37.601562 39.6875 37.9375 39.617188 38.273438 C 39.546875 38.609375 39.417969 38.921875 39.222656 39.203125 C 39.027344 39.488281 38.789062 39.726562 38.5 39.914062 L 36.425781 41.269531 C 36.289062 41.355469 36.140625 41.402344 35.980469 41.398438 Z M 31.15625 31.71875 L 36.214844 39.453125 L 37.605469 38.542969 C 37.828125 38.398438 37.96875 38.195312 38.019531 37.9375 C 38.074219 37.675781 38.03125 37.4375 37.882812 37.214844 L 33.875 31.085938 C 33.730469 30.863281 33.527344 30.726562 33.269531 30.671875 C 33.011719 30.617188 32.769531 30.664062 32.546875 30.808594 Z M 31.15625 31.71875 "/><path style=" stroke:none;fill-rule:nonzero;fill:#a6a6a6;fill-opacity:1;" d="M 37.25 26.386719 C 37.027344 26.386719 36.832031 26.308594 36.671875 26.148438 C 36.515625 25.988281 36.433594 25.796875 36.433594 25.570312 L 36.433594 0.871094 C 36.433594 0.648438 36.515625 0.453125 36.671875 0.296875 C 36.832031 0.136719 37.027344 0.0546875 37.25 0.0546875 C 37.476562 0.0546875 37.667969 0.136719 37.828125 0.296875 C 37.988281 0.453125 38.066406 0.648438 38.066406 0.871094 L 38.066406 25.570312 C 38.066406 25.796875 37.988281 25.988281 37.828125 26.148438 C 37.667969 26.308594 37.476562 26.386719 37.25 26.386719 Z M 37.25 26.386719 "/><path style=" stroke:none;fill-rule:nonzero;fill:#a6a6a6;fill-opacity:1;" d="M 37.25 8.113281 C 37.054688 8.113281 36.878906 8.050781 36.726562 7.925781 L 30.597656 2.808594 C 30.421875 2.664062 30.328125 2.476562 30.304688 2.253906 C 30.285156 2.027344 30.347656 1.828125 30.492188 1.65625 C 30.636719 1.484375 30.820312 1.386719 31.046875 1.367188 C 31.269531 1.347656 31.46875 1.410156 31.644531 1.550781 L 37.257812 6.230469 L 42.871094 1.550781 C 43.042969 1.429688 43.238281 1.378906 43.449219 1.40625 C 43.660156 1.433594 43.835938 1.53125 43.972656 1.695312 C 44.109375 1.859375 44.171875 2.050781 44.160156 2.265625 C 44.148438 2.476562 44.0625 2.660156 43.910156 2.808594 L 37.777344 7.921875 C 37.625 8.050781 37.449219 8.113281 37.25 8.113281 Z M 37.25 8.113281 "/><path style=" stroke:none;fill-rule:nonzero;fill:#a6a6a6;fill-opacity:1;" d="M 43.386719 25.085938 C 43.1875 25.085938 43.015625 25.019531 42.863281 24.894531 L 37.25 20.214844 L 31.636719 24.894531 C 31.460938 25.039062 31.261719 25.101562 31.039062 25.082031 C 30.8125 25.0625 30.628906 24.964844 30.484375 24.792969 C 30.339844 24.617188 30.277344 24.417969 30.300781 24.195312 C 30.320312 23.96875 30.417969 23.785156 30.589844 23.640625 L 36.730469 18.523438 C 36.882812 18.398438 37.054688 18.335938 37.253906 18.335938 C 37.449219 18.335938 37.625 18.398438 37.777344 18.523438 L 43.910156 23.640625 C 44.039062 23.75 44.128906 23.886719 44.171875 24.054688 C 44.21875 24.21875 44.210938 24.382812 44.152344 24.546875 C 44.09375 24.707031 43.996094 24.835938 43.855469 24.933594 C 43.714844 25.035156 43.558594 25.082031 43.386719 25.082031 Z M 43.386719 25.085938 "/><g clip-rule="nonzero" clip-path="url(#b2d0ddbfbc)"><path style=" stroke:none;fill-rule:nonzero;fill:#a6a6a6;fill-opacity:1;" d="M 49.601562 14.039062 L 24.902344 14.039062 C 24.675781 14.039062 24.484375 13.960938 24.324219 13.800781 C 24.164062 13.640625 24.085938 13.449219 24.085938 13.222656 C 24.085938 13 24.164062 12.804688 24.324219 12.648438 C 24.484375 12.488281 24.675781 12.40625 24.902344 12.40625 L 49.601562 12.40625 C 49.824219 12.40625 50.019531 12.488281 50.179688 12.648438 C 50.335938 12.804688 50.417969 13 50.417969 13.222656 C 50.417969 13.449219 50.335938 13.640625 50.179688 13.800781 C 50.019531 13.960938 49.824219 14.039062 49.601562 14.039062 Z M 49.601562 14.039062 "/></g><path style=" stroke:none;fill-rule:nonzero;fill:#a6a6a6;fill-opacity:1;" d="M 48.296875 20.171875 C 48.042969 20.171875 47.832031 20.074219 47.667969 19.878906 L 42.558594 13.746094 C 42.433594 13.59375 42.367188 13.421875 42.367188 13.222656 C 42.367188 13.027344 42.433594 12.851562 42.558594 12.699219 L 47.671875 6.566406 C 47.816406 6.394531 48 6.296875 48.226562 6.277344 C 48.449219 6.257812 48.648438 6.320312 48.824219 6.464844 C 48.996094 6.609375 49.09375 6.792969 49.113281 7.015625 C 49.132812 7.242188 49.070312 7.441406 48.925781 7.613281 L 44.25 13.226562 L 48.925781 18.839844 C 49.148438 19.105469 49.1875 19.394531 49.039062 19.710938 C 48.890625 20.023438 48.644531 20.179688 48.300781 20.179688 Z M 48.296875 20.171875 "/><path style=" stroke:none;fill-rule:nonzero;fill:#a6a6a6;fill-opacity:1;" d="M 26.207031 20.171875 C 25.859375 20.171875 25.613281 20.015625 25.464844 19.703125 C 25.320312 19.386719 25.359375 19.097656 25.582031 18.832031 L 30.257812 13.21875 L 25.582031 7.605469 C 25.453125 7.429688 25.402344 7.234375 25.429688 7.019531 C 25.453125 6.804688 25.550781 6.625 25.71875 6.488281 C 25.886719 6.351562 26.078125 6.289062 26.296875 6.304688 C 26.511719 6.320312 26.695312 6.40625 26.839844 6.566406 L 31.953125 12.699219 C 32.082031 12.851562 32.144531 13.027344 32.144531 13.222656 C 32.144531 13.421875 32.082031 13.59375 31.953125 13.746094 L 26.839844 19.878906 C 26.675781 20.078125 26.464844 20.175781 26.207031 20.171875 Z M 26.207031 20.171875 "/></g></svg>