<svg width="16" height="17" viewBox="0 0 16 17" fill="none" xmlns="http://www.w3.org/2000/svg">
<path d="M4.00042 7.83398H6.66708M5.33375 6.50065V9.16732M10.0004 8.50065H10.0071M12.0004 7.16732H12.0071M6.96639 3.83398H9.03445C10.7844 3.83398 11.6593 3.83398 12.3461 4.16561C12.9508 4.45758 13.4532 4.92538 13.7875 5.50771C14.1672 6.16912 14.2295 7.04186 14.3542 8.78733L14.5182 11.0837C14.5987 12.2096 13.7069 13.1673 12.5781 13.1673C12.0008 13.1673 11.4534 12.9109 11.0839 12.4674L10.8337 12.1673C10.605 11.8928 10.4906 11.7555 10.3603 11.6446C10.0873 11.4121 9.75675 11.2573 9.40332 11.1964C9.23474 11.1673 9.05606 11.1673 8.69871 11.1673H7.30212C6.94477 11.1673 6.76609 11.1673 6.59751 11.1964C6.24408 11.2573 5.91353 11.4121 5.64049 11.6446C5.51024 11.7555 5.39585 11.8928 5.16708 12.1673L4.91697 12.4674C4.54742 12.9109 3.99998 13.1673 3.42272 13.1673C2.29391 13.1673 1.40216 12.2096 1.48258 11.0837L1.64661 8.78733C1.77128 7.04185 1.83362 6.16912 2.21333 5.50771C2.54765 4.92538 3.05004 4.45758 3.65472 4.16561C4.3415 3.83398 5.21646 3.83398 6.96639 3.83398Z" stroke="#AAAAAA" stroke-width="1.33333" stroke-linecap="round" stroke-linejoin="round"/>
</svg>
