<svg width="16" height="17" viewBox="0 0 16 17" fill="none" xmlns="http://www.w3.org/2000/svg">
<path d="M10 3.56667C10 3.1933 10 3.00661 9.92734 2.86401C9.86342 2.73856 9.76144 2.63658 9.63599 2.57266C9.49339 2.5 9.3067 2.5 8.93333 2.5H7.06667C6.6933 2.5 6.50661 2.5 6.36401 2.57266C6.23857 2.63658 6.13658 2.73856 6.07266 2.86401C6 3.00661 6 3.1933 6 3.56667V5.43333C6 5.8067 6 5.99339 5.92734 6.13599C5.86342 6.26143 5.76144 6.36342 5.63599 6.42734C5.49339 6.5 5.3067 6.5 4.93333 6.5H3.06667C2.6933 6.5 2.50661 6.5 2.36401 6.57266C2.23856 6.63658 2.13658 6.73856 2.07266 6.86401C2 7.00661 2 7.1933 2 7.56667V9.43333C2 9.8067 2 9.99339 2.07266 10.136C2.13658 10.2614 2.23856 10.3634 2.36401 10.4273C2.50661 10.5 2.6933 10.5 3.06667 10.5H4.93333C5.3067 10.5 5.49339 10.5 5.63599 10.5727C5.76144 10.6366 5.86342 10.7386 5.92734 10.864C6 11.0066 6 11.1933 6 11.5667V13.4333C6 13.8067 6 13.9934 6.07266 14.136C6.13658 14.2614 6.23857 14.3634 6.36401 14.4273C6.50661 14.5 6.6933 14.5 7.06667 14.5H8.93333C9.3067 14.5 9.49339 14.5 9.63599 14.4273C9.76144 14.3634 9.86342 14.2614 9.92734 14.136C10 13.9934 10 13.8067 10 13.4333V11.5667C10 11.1933 10 11.0066 10.0727 10.864C10.1366 10.7386 10.2386 10.6366 10.364 10.5727C10.5066 10.5 10.6933 10.5 11.0667 10.5H12.9333C13.3067 10.5 13.4934 10.5 13.636 10.4273C13.7614 10.3634 13.8634 10.2614 13.9273 10.136C14 9.99339 14 9.8067 14 9.43333V7.56667C14 7.1933 14 7.00661 13.9273 6.86401C13.8634 6.73857 13.7614 6.63658 13.636 6.57266C13.4934 6.5 13.3067 6.5 12.9333 6.5L11.0667 6.5C10.6933 6.5 10.5066 6.5 10.364 6.42734C10.2386 6.36342 10.1366 6.26143 10.0727 6.13599C10 5.99339 10 5.8067 10 5.43333V3.56667Z" stroke="#AAAAAA" stroke-width="1.33333" stroke-linecap="round" stroke-linejoin="round"/>
</svg>
