<svg width="14" height="14" viewBox="0 0 14 14" fill="none" xmlns="http://www.w3.org/2000/svg">
<path fill-rule="evenodd" clip-rule="evenodd" d="M6.66667 12.3333C3.53705 12.3333 1 9.79628 1 6.66667C1 3.53705 3.53705 1 6.66667 1C9.79628 1 12.3333 3.53705 12.3333 6.66667C12.3333 7.5772 12.1193 8.43487 11.7398 9.19479C11.5643 9.54607 11.5007 9.97004 11.6114 10.3904L12.5784 10.1356L11.6114 10.3904L11.9718 11.7579L10.4017 11.4948C10.0137 11.4298 9.63549 11.5076 9.32114 11.6747C8.53033 12.0948 7.62783 12.3333 6.66667 12.3333ZM13.0703 12.0021L12.5784 10.1356C12.5348 9.97006 12.5579 9.79477 12.6344 9.64162C13.0817 8.74608 13.3333 7.73576 13.3333 6.66667C13.3333 2.98477 10.3486 0 6.66667 0C2.98477 0 0 2.98477 0 6.66667C0 10.3486 2.98477 13.3333 6.66667 13.3333C7.79538 13.3333 8.85858 13.0528 9.79036 12.5577C9.92721 12.485 10.0836 12.4555 10.2365 12.4811L12.3155 12.8294C12.7929 12.9094 13.1937 12.4701 13.0703 12.0021ZM6.06865 7.91855V8.00472H7.17235V7.91855C7.17456 7.68433 7.20218 7.48767 7.25521 7.32858C7.31045 7.16728 7.39441 7.02697 7.5071 6.90766C7.622 6.78834 7.76894 6.67344 7.94792 6.56296C8.1512 6.44143 8.32686 6.30333 8.47491 6.14866C8.62295 5.99399 8.73674 5.81722 8.81629 5.61836C8.89804 5.41949 8.93892 5.19411 8.93892 4.94222C8.93892 4.5688 8.84833 4.2462 8.66714 3.97442C8.48816 3.70043 8.23737 3.48941 7.91477 3.34137C7.59438 3.19332 7.22317 3.1193 6.80114 3.1193C6.41446 3.1193 6.06092 3.19001 5.74053 3.33142C5.42235 3.47284 5.16604 3.68496 4.97159 3.96779C4.77936 4.25062 4.67771 4.60194 4.66667 5.02177H5.84659C5.85764 4.81406 5.90846 4.64282 5.99905 4.50803C6.09186 4.37104 6.20786 4.2694 6.34706 4.20311C6.48848 4.13461 6.63763 4.10036 6.79451 4.10036C6.96465 4.10036 7.11821 4.13572 7.25521 4.20642C7.39441 4.27713 7.50489 4.37656 7.58665 4.50472C7.6684 4.63288 7.70928 4.78423 7.70928 4.95879C7.70928 5.11346 7.67835 5.25377 7.61648 5.37972C7.55461 5.50346 7.46954 5.61615 7.36127 5.71779C7.25521 5.81722 7.13478 5.90892 7 5.99288C6.80335 6.11441 6.63652 6.24809 6.49953 6.39392C6.36253 6.53755 6.25647 6.72757 6.18134 6.964C6.10843 7.20043 6.07086 7.51861 6.06865 7.91855ZM6.13163 9.86078C6.27525 10.0022 6.4465 10.0729 6.64536 10.0729C6.77794 10.0729 6.89836 10.0409 7.00663 9.97678C7.11711 9.9105 7.20549 9.82211 7.27178 9.71163C7.34028 9.60115 7.37453 9.47852 7.37453 9.34373C7.37453 9.14487 7.30161 8.97473 7.15578 8.83332C7.01215 8.6919 6.84201 8.6212 6.64536 8.6212C6.4465 8.6212 6.27525 8.6919 6.13163 8.83332C5.988 8.97473 5.91619 9.14487 5.91619 9.34373C5.91619 9.54702 5.988 9.71937 6.13163 9.86078Z" fill="#707B73"/>
</svg>
