<svg width="20" height="20" viewBox="0 0 20 20" fill="none" xmlns="http://www.w3.org/2000/svg">
<path d="M10.585 1.8287L16.4183 4.0162C16.7361 4.13531 17.0099 4.34858 17.2032 4.62749C17.3965 4.90641 17.5 5.23768 17.5 5.57703V10.0462C17.5 11.4391 17.1122 12.8044 16.3799 13.9892C15.6477 15.1741 14.6 16.1316 13.3542 16.7545L10.5592 18.152C10.3856 18.2389 10.1941 18.2841 10 18.2841C9.80589 18.2841 9.61444 18.2389 9.44083 18.152L6.64583 16.7545C5.40003 16.1316 4.35231 15.1741 3.62006 13.9892C2.88781 12.8044 2.49997 11.4391 2.5 10.0462V5.57703C2.49996 5.23768 2.6035 4.90641 2.79679 4.62749C2.99009 4.34858 3.26391 4.13531 3.58167 4.0162L9.415 1.8287C9.79219 1.68731 10.2078 1.68731 10.585 1.8287ZM10 3.38953L4.16667 5.57703V10.0462C4.16686 11.1294 4.46866 12.1912 5.03826 13.1126C5.60786 14.0339 6.42276 14.7785 7.39167 15.2629L10 16.5687L12.6083 15.2645C13.5775 14.7801 14.3926 14.0352 14.9622 13.1135C15.5318 12.1918 15.8335 11.1297 15.8333 10.0462V5.57703L10 3.38953Z" fill="#AEAEB2" stroke="white" stroke-width="0.3"/>
<path d="M9.35687 12.9554C9.10814 12.9173 8.95215 12.7007 8.94342 12.449C8.93333 12.1602 8.9216 11.7121 8.91478 11.0851C8.28779 11.0783 7.83971 11.0666 7.55063 11.0565C7.29918 11.0478 7.08263 10.8918 7.04445 10.6431C7.01964 10.4824 7 10.2697 7 10C7 9.73028 7.01991 9.51784 7.04445 9.35693C7.08263 9.10822 7.29918 8.95222 7.55063 8.94349C8.00522 8.92858 8.45997 8.91904 8.91478 8.91486C8.9216 8.28788 8.93333 7.83981 8.94342 7.55073C8.95215 7.29928 9.10814 7.08275 9.35687 7.04457C9.56978 7.0134 9.78476 6.99854 9.99994 7.00011C10.2151 6.99865 10.4301 7.01351 10.643 7.04457C10.8917 7.08275 11.0477 7.29928 11.0565 7.55073C11.0714 8.00531 11.0809 8.46005 11.0851 8.91486C11.7121 8.92168 12.1602 8.9334 12.4493 8.94349C12.7007 8.95222 12.9173 9.10822 12.9554 9.35693C12.9866 9.56984 13.0015 9.78483 12.9999 10C12.9999 10.2697 12.98 10.4822 12.9554 10.6431C12.9173 10.8918 12.7007 11.0478 12.4493 11.0565C11.9947 11.0714 11.5399 11.081 11.0851 11.0851C11.0783 11.7121 11.0666 12.1602 11.0565 12.4493C11.0477 12.7007 10.8917 12.9173 10.643 12.9554C10.4301 12.9866 10.2151 13.0015 9.99994 12.9999C9.73022 12.9999 9.51777 12.98 9.35687 12.9554Z" fill="#AEAEB2" stroke="white" stroke-width="0.5" stroke-linecap="round" stroke-linejoin="round"/>
</svg>
