<svg width="20" height="20" viewBox="0 0 20 20" fill="none" xmlns="http://www.w3.org/2000/svg">
<path d="M14.4355 1.9502C15.2152 1.9502 15.7233 2.7698 15.376 3.46777L13.9434 6.34375L17.5811 10.71C17.9478 11.151 18.2285 11.6402 18.4229 12.1768C18.6172 12.7141 18.7139 13.2692 18.7139 13.8408C18.7139 15.1933 18.2386 16.3445 17.2891 17.292C16.3395 18.2394 15.1895 18.7139 13.8418 18.7139H6.82227C5.47046 18.7139 4.31959 18.2395 3.37207 17.292C2.42454 16.3445 1.9502 15.1933 1.9502 13.8408C1.9502 13.2693 2.04702 12.7152 2.24121 12.1787C2.43552 11.6421 2.71621 11.1518 3.08301 10.71L6.71973 6.34375L5.28809 3.46777C4.94079 2.7698 5.44883 1.9502 6.22852 1.9502H14.4355ZM3.97363 11.4424C3.69 11.7767 3.47146 12.1506 3.31934 12.5645C3.16721 12.9783 3.0918 13.4038 3.0918 13.8408C3.0918 14.8704 3.4564 15.7494 4.18652 16.4795C4.91586 17.2086 5.79358 17.5723 6.82227 17.5723H13.8418C14.884 17.5723 15.7653 17.2085 16.4883 16.4795C17.2115 15.7501 17.5723 14.8713 17.5723 13.8408C17.5723 13.4036 17.4994 12.9789 17.3535 12.5664C17.2076 12.1541 16.994 11.781 16.7119 11.4482H16.7109L12.9971 6.99707H7.69141L3.97363 11.4424ZM7.76953 5.85547H12.915L14.2871 3.0918H6.37793L7.76953 5.85547Z" fill="#AEAEB2" stroke="#AEAEB2" stroke-width="0.1"/>
</svg>
