<svg xmlns="http://www.w3.org/2000/svg" xmlns:xlink="http://www.w3.org/1999/xlink" width="68" zoomAndPan="magnify" viewBox="0 0 50.879997 48" height="64" preserveAspectRatio="xMidYMid meet" version="1.2"><defs><clipPath id="e680c5ec2d"><path d="M 0.460938 0.527344 L 50.300781 0.527344 L 50.300781 46.816406 L 0.460938 46.816406 Z M 0.460938 0.527344 "/></clipPath></defs><g id="4632407d73"><g clip-rule="nonzero" clip-path="url(#e680c5ec2d)"><path style=" stroke:none;fill-rule:evenodd;fill:#a6a6a6;fill-opacity:1;" d="M 18.203125 16.804688 C 16.316406 16.804688 14.78125 18.339844 14.78125 20.226562 C 14.78125 21.140625 15.140625 21.96875 15.722656 22.582031 C 13.847656 23.433594 12.480469 25.222656 12.25 27.394531 C 12.226562 27.621094 12.296875 27.847656 12.449219 28.015625 C 12.601562 28.183594 12.820312 28.28125 13.046875 28.28125 L 23.359375 28.28125 C 23.589844 28.28125 23.804688 28.183594 23.957031 28.015625 C 24.109375 27.847656 24.183594 27.621094 24.15625 27.394531 C 24.113281 26.960938 24.019531 26.542969 23.886719 26.144531 L 27.171875 26.144531 C 27.042969 26.542969 26.949219 26.960938 26.902344 27.394531 C 26.878906 27.621094 26.949219 27.847656 27.101562 28.015625 C 27.253906 28.183594 27.472656 28.28125 27.699219 28.28125 L 38.015625 28.28125 C 38.242188 28.28125 38.457031 28.183594 38.609375 28.015625 C 38.761719 27.847656 38.835938 27.621094 38.808594 27.394531 C 38.578125 25.222656 37.210938 23.433594 35.335938 22.582031 C 35.921875 21.96875 36.28125 21.140625 36.28125 20.226562 C 36.28125 18.339844 34.746094 16.804688 32.855469 16.804688 C 30.96875 16.804688 29.433594 18.339844 29.433594 20.226562 C 29.433594 20.726562 29.542969 21.203125 29.734375 21.632812 C 29.234375 21.136719 28.652344 20.738281 28.011719 20.445312 C 28.59375 19.832031 28.953125 19.003906 28.953125 18.09375 C 28.953125 16.203125 27.417969 14.667969 25.53125 14.667969 C 23.640625 14.667969 22.105469 16.203125 22.105469 18.09375 C 22.105469 19.003906 22.464844 19.832031 23.046875 20.445312 C 22.410156 20.738281 21.824219 21.136719 21.324219 21.632812 C 21.519531 21.203125 21.628906 20.726562 21.628906 20.226562 C 21.628906 18.339844 20.09375 16.804688 18.203125 16.804688 Z M 16.382812 20.226562 C 16.382812 19.222656 17.199219 18.40625 18.203125 18.40625 C 19.207031 18.40625 20.027344 19.222656 20.027344 20.226562 C 20.027344 21.230469 19.207031 22.046875 18.203125 22.046875 C 17.199219 22.046875 16.382812 21.230469 16.382812 20.226562 Z M 14.03125 26.679688 C 14.605469 24.902344 16.265625 23.652344 18.203125 23.652344 C 20.140625 23.652344 21.804688 24.902344 22.375 26.679688 Z M 37.027344 26.679688 L 28.683594 26.679688 C 29.257812 24.902344 30.917969 23.652344 32.855469 23.652344 C 34.792969 23.652344 36.457031 24.902344 37.027344 26.679688 Z M 32.855469 18.40625 C 33.859375 18.40625 34.679688 19.222656 34.679688 20.226562 C 34.679688 21.230469 33.859375 22.046875 32.855469 22.046875 C 31.851562 22.046875 31.035156 21.230469 31.035156 20.226562 C 31.035156 19.222656 31.851562 18.40625 32.855469 18.40625 Z M 23.707031 18.09375 C 23.707031 17.085938 24.527344 16.269531 25.53125 16.269531 C 26.535156 16.269531 27.351562 17.085938 27.351562 18.09375 C 27.351562 19.097656 26.535156 19.914062 25.53125 19.914062 C 24.527344 19.914062 23.707031 19.097656 23.707031 18.09375 Z M 25.53125 21.515625 C 26.976562 21.515625 28.292969 22.210938 29.105469 23.363281 C 28.683594 23.703125 28.304688 24.097656 27.988281 24.542969 L 23.074219 24.542969 C 22.753906 24.097656 22.378906 23.703125 21.953125 23.363281 C 22.769531 22.210938 24.085938 21.515625 25.53125 21.515625 Z M 50.160156 9.597656 L 45.628906 1.589844 C 45.195312 0.820312 44.210938 0.546875 43.4375 0.984375 L 41.894531 1.855469 C 41.121094 2.292969 40.851562 3.277344 41.289062 4.050781 L 41.601562 4.605469 L 41.050781 4.921875 L 34.144531 3.070312 C 32.886719 2.734375 31.644531 2.910156 30.554688 3.578125 L 20.589844 9.714844 C 19.523438 10.371094 19.191406 11.953125 19.878906 13.101562 C 20.203125 13.644531 21.523438 15.261719 24.886719 13.304688 L 30.382812 10.105469 C 30.421875 10.082031 30.464844 10.058594 30.507812 10.035156 C 30.207031 11.234375 30.917969 12.472656 32.140625 12.871094 C 32.175781 12.878906 32.210938 12.890625 32.246094 12.894531 C 33.460938 13.117188 34.671875 13.503906 35.738281 13.878906 C 40.351562 17.21875 41.679688 23.429688 38.820312 28.382812 C 37.820312 30.117188 36.367188 31.539062 34.636719 32.507812 C 34.785156 32.132812 34.628906 31.699219 34.265625 31.507812 C 33.875 31.300781 33.390625 31.449219 33.183594 31.839844 L 32.15625 33.777344 C 32.042969 33.992188 32.03125 34.25 32.132812 34.476562 C 32.234375 34.703125 32.429688 34.867188 32.671875 34.929688 L 34.796875 35.460938 C 34.859375 35.476562 34.925781 35.484375 34.992188 35.484375 C 35.351562 35.484375 35.675781 35.242188 35.769531 34.878906 C 35.863281 34.5 35.667969 34.113281 35.324219 33.957031 C 37.347656 32.847656 39.046875 31.199219 40.210938 29.183594 C 41.792969 26.4375 42.292969 23.222656 41.613281 20.125 C 41.179688 18.144531 40.285156 16.320312 39.023438 14.785156 C 40.046875 14.761719 40.972656 14.324219 41.777344 13.855469 L 45.589844 11.648438 L 45.816406 12.054688 C 46.113281 12.578125 46.660156 12.871094 47.222656 12.871094 C 47.492188 12.871094 47.761719 12.804688 48.011719 12.664062 L 49.554688 11.789062 C 49.925781 11.578125 50.195312 11.234375 50.3125 10.820312 C 50.425781 10.40625 50.371094 9.96875 50.160156 9.597656 Z M 40.972656 12.46875 C 39.808594 13.144531 39.027344 13.324219 38.28125 13.082031 C 37.953125 12.972656 37.570312 12.835938 37.128906 12.675781 C 35.847656 12.210938 34.253906 11.636719 32.589844 11.328125 C 32.1875 11.179688 31.960938 10.792969 32.0625 10.414062 C 32.109375 10.246094 32.226562 9.808594 32.984375 9.890625 C 33.773438 10.054688 34.53125 10.269531 35.335938 10.5 C 35.722656 10.609375 36.121094 10.722656 36.535156 10.832031 C 36.601562 10.851562 36.671875 10.859375 36.742188 10.859375 C 37.09375 10.859375 37.417969 10.625 37.515625 10.265625 C 37.628906 9.839844 37.375 9.398438 36.949219 9.285156 C 36.550781 9.179688 36.15625 9.066406 35.773438 8.957031 C 34.929688 8.714844 34.132812 8.488281 33.269531 8.3125 C 33.261719 8.3125 33.242188 8.308594 33.238281 8.304688 L 32.554688 8.195312 C 31.457031 8.019531 30.484375 8.191406 29.574219 8.71875 L 24.082031 11.917969 C 22.691406 12.730469 21.605469 12.867188 21.253906 12.28125 C 21.007812 11.867188 21.144531 11.257812 21.429688 11.082031 L 31.394531 4.945312 C 32.109375 4.503906 32.894531 4.394531 33.726562 4.617188 L 40.957031 6.554688 C 41.164062 6.609375 41.382812 6.582031 41.566406 6.476562 L 42.390625 6 L 44.800781 10.253906 Z M 48.761719 10.394531 L 47.214844 11.265625 C 47.214844 11.265625 47.210938 11.265625 47.210938 11.265625 L 43.382812 4.5 L 42.683594 3.261719 L 42.683594 3.25 L 44.226562 2.378906 L 44.234375 2.378906 L 48.765625 10.386719 Z M 46.929688 9.996094 C 46.886719 9.695312 47.09375 9.414062 47.394531 9.371094 C 47.695312 9.328125 47.976562 9.535156 48.019531 9.835938 C 48.0625 10.136719 47.855469 10.417969 47.554688 10.460938 C 47.253906 10.503906 46.972656 10.296875 46.929688 9.996094 Z M 26.171875 33.9375 L 20.679688 37.136719 C 20.636719 37.160156 20.59375 37.183594 20.554688 37.207031 C 20.851562 36.007812 20.140625 34.769531 18.917969 34.371094 C 18.886719 34.359375 18.851562 34.351562 18.816406 34.34375 C 17.597656 34.125 16.386719 33.734375 15.320312 33.359375 C 10.707031 30.023438 9.378906 23.808594 12.238281 18.859375 C 13.238281 17.125 14.691406 15.703125 16.421875 14.734375 C 16.277344 15.109375 16.429688 15.539062 16.792969 15.734375 C 16.914062 15.796875 17.039062 15.828125 17.167969 15.828125 C 17.453125 15.828125 17.730469 15.671875 17.875 15.402344 L 18.902344 13.464844 C 19.019531 13.246094 19.027344 12.988281 18.925781 12.765625 C 18.828125 12.539062 18.628906 12.371094 18.390625 12.3125 L 16.265625 11.78125 C 15.835938 11.671875 15.398438 11.933594 15.292969 12.363281 C 15.195312 12.742188 15.390625 13.125 15.734375 13.285156 C 13.714844 14.394531 12.015625 16.042969 10.851562 18.058594 C 9.265625 20.800781 8.769531 24.019531 9.445312 27.113281 C 9.878906 29.097656 10.773438 30.921875 12.035156 32.453125 C 11.011719 32.480469 10.089844 32.917969 9.28125 33.382812 L 5.472656 35.589844 L 5.242188 35.1875 C 5.03125 34.8125 4.6875 34.542969 4.269531 34.429688 C 3.855469 34.3125 3.421875 34.367188 3.046875 34.578125 L 1.507812 35.449219 C 0.734375 35.886719 0.460938 36.871094 0.898438 37.644531 L 5.429688 45.648438 C 5.640625 46.023438 5.984375 46.292969 6.402344 46.40625 C 6.542969 46.445312 6.691406 46.464844 6.835938 46.464844 C 7.109375 46.464844 7.378906 46.394531 7.625 46.257812 L 9.164062 45.386719 C 9.539062 45.175781 9.808594 44.828125 9.921875 44.414062 C 10.035156 44 9.984375 43.566406 9.773438 43.191406 L 9.457031 42.636719 L 10.007812 42.320312 L 16.917969 44.171875 C 17.332031 44.28125 17.746094 44.335938 18.152344 44.335938 C 18.980469 44.335938 19.777344 44.109375 20.503906 43.660156 L 30.472656 37.523438 C 31.539062 36.867188 31.867188 35.285156 31.179688 34.136719 C 30.855469 33.59375 29.535156 31.976562 26.171875 33.9375 Z M 8.375 43.992188 L 6.832031 44.863281 L 6.824219 44.859375 L 2.292969 36.855469 L 2.296875 36.84375 L 3.847656 35.972656 C 3.847656 35.972656 3.847656 35.976562 3.847656 35.976562 L 8.378906 43.980469 Z M 29.632812 36.160156 L 19.664062 42.296875 C 18.949219 42.738281 18.164062 42.847656 17.332031 42.621094 L 10.101562 40.6875 C 9.898438 40.628906 9.679688 40.660156 9.496094 40.765625 L 8.667969 41.242188 L 6.261719 36.984375 L 10.085938 34.769531 C 11.253906 34.09375 12.03125 33.917969 12.777344 34.160156 C 13.105469 34.265625 13.488281 34.40625 13.933594 34.566406 C 15.214844 35.027344 16.804688 35.605469 18.46875 35.910156 C 18.871094 36.0625 19.097656 36.449219 18.996094 36.828125 C 18.953125 36.992188 18.832031 37.433594 18.078125 37.351562 C 17.285156 37.1875 16.527344 36.972656 15.726562 36.742188 C 15.339844 36.632812 14.9375 36.515625 14.527344 36.40625 C 14.097656 36.292969 13.660156 36.546875 13.542969 36.972656 C 13.429688 37.402344 13.683594 37.839844 14.109375 37.953125 C 14.511719 38.0625 14.90625 38.175781 15.285156 38.285156 C 16.128906 38.523438 16.925781 38.753906 17.792969 38.929688 C 17.796875 38.929688 17.816406 38.933594 17.824219 38.933594 L 18.507812 39.046875 C 19.601562 39.222656 20.578125 39.050781 21.484375 38.519531 L 26.976562 35.320312 C 28.371094 34.511719 29.453125 34.371094 29.804688 34.960938 C 30.050781 35.371094 29.917969 35.984375 29.632812 36.160156 Z M 4.128906 37.246094 C 4.171875 37.546875 3.964844 37.824219 3.664062 37.871094 C 3.363281 37.914062 3.085938 37.707031 3.039062 37.40625 C 2.996094 37.105469 3.207031 36.824219 3.503906 36.78125 C 3.804688 36.738281 4.085938 36.945312 4.128906 37.246094 Z M 4.128906 37.246094 "/></g></g></svg>