<svg xmlns="http://www.w3.org/2000/svg" xmlns:xlink="http://www.w3.org/1999/xlink" width="68" zoomAndPan="magnify" viewBox="0 0 50.879997 48" height="64" preserveAspectRatio="xMidYMid meet" version="1.2"><defs><clipPath id="8c9dfa930c"><path d="M 0.460938 14 L 43 14 L 43 45.703125 L 0.460938 45.703125 Z M 0.460938 14 "/></clipPath><clipPath id="ef0eb90c16"><path d="M 30 1.621094 L 50 1.621094 L 50 27 L 30 27 Z M 30 1.621094 "/></clipPath></defs><g id="cc8c64c37f"><g clip-rule="nonzero" clip-path="url(#8c9dfa930c)"><path style=" stroke:none;fill-rule:nonzero;fill:#a6a6a6;fill-opacity:1;" d="M 31.023438 45.335938 L 31.023438 40.875 C 33.378906 41.738281 35.816406 42.609375 38.308594 42.949219 C 39.148438 43.066406 40.222656 43.195312 40.992188 42.726562 C 42.171875 42.011719 42.574219 40.140625 42.507812 38.886719 C 42.449219 37.84375 42.121094 36.570312 41.4375 35.75 C 40.984375 35.207031 40.300781 35.253906 39.664062 35.15625 C 38.980469 35.054688 38.308594 34.898438 37.648438 34.691406 C 34.9375 33.839844 32.527344 32.167969 30.566406 30.132812 C 30.058594 29.609375 29.578125 29.054688 29.144531 28.46875 C 28.34375 27.394531 27.246094 26.554688 26.03125 25.996094 C 28.058594 24.132812 28.695312 21.113281 27.558594 18.601562 C 26.550781 16.359375 24.285156 14.851562 21.828125 14.792969 C 19.359375 14.734375 17.027344 16.136719 15.910156 18.335938 C 14.628906 20.851562 15.1875 23.984375 17.234375 25.925781 C 16.082031 26.429688 14.820312 27.242188 14.09375 28.292969 C 13.890625 28.585938 13.671875 28.863281 13.445312 29.136719 C 12.308594 30.503906 10.976562 31.71875 9.507812 32.714844 C 8.515625 33.386719 7.457031 33.957031 6.339844 34.386719 C 5.761719 34.609375 5.167969 34.796875 4.5625 34.941406 C 3.871094 35.105469 3.160156 35.136719 2.46875 35.277344 C 1.378906 35.496094 0.917969 37.046875 0.722656 37.988281 C 0.4375 39.347656 0.644531 40.773438 1.410156 41.945312 C 1.9375 42.757812 2.585938 43.035156 3.566406 43.042969 C 4.597656 43.046875 5.628906 42.835938 6.628906 42.59375 C 8.480469 42.148438 10.296875 41.53125 12.085938 40.875 L 12.085938 45.335938 L 14.984375 45.335938 L 14.984375 33.792969 C 14.984375 30.597656 17.585938 27.996094 20.78125 27.996094 L 22.324219 27.996094 C 25.523438 27.996094 28.125 30.597656 28.125 33.792969 L 28.125 45.335938 Z M 21.671875 17.582031 C 23.664062 17.582031 25.335938 19.253906 25.335938 21.246094 C 25.335938 23.242188 23.664062 24.910156 21.671875 24.910156 C 19.675781 24.910156 18.007812 23.242188 18.007812 21.246094 C 18.007812 19.253906 19.675781 17.582031 21.671875 17.582031 Z M 3.675781 40.277344 C 3.671875 40.277344 3.671875 40.277344 3.667969 40.277344 C 3.207031 39.429688 3.421875 38.515625 3.648438 37.949219 C 7.203125 37.46875 10.070312 35.871094 12.191406 34.214844 L 12.191406 37.855469 C 8.804688 39.121094 4.953125 40.277344 3.675781 40.277344 Z M 39.441406 40.277344 C 38.308594 40.277344 37.128906 39.875 36.050781 39.566406 C 34.320312 39.066406 32.609375 38.484375 30.917969 37.855469 L 30.917969 34.214844 C 33.039062 35.871094 35.910156 37.46875 39.460938 37.949219 C 39.6875 38.515625 39.90625 39.433594 39.441406 40.277344 C 39.441406 40.277344 39.90625 39.433594 39.441406 40.277344 Z M 39.441406 40.277344 "/></g><g clip-rule="nonzero" clip-path="url(#ef0eb90c16)"><path style=" stroke:none;fill-rule:nonzero;fill:#a6a6a6;fill-opacity:1;" d="M 40.152344 1.691406 C 36.609375 1.691406 33.285156 3.699219 31.621094 6.824219 C 29.734375 10.363281 30.296875 14.824219 32.980469 17.804688 L 30.6875 24.265625 C 30.222656 25.578125 31.851562 26.703125 32.914062 25.792969 L 38.640625 20.886719 C 43.929688 21.738281 49.046875 17.90625 49.730469 12.59375 C 50.398438 7.441406 46.695312 2.539062 41.550781 1.789062 C 41.085938 1.722656 40.617188 1.691406 40.152344 1.691406 Z M 40.152344 18.214844 C 39.25 18.214844 38.109375 17.660156 37.335938 18.324219 L 35.070312 20.265625 L 35.902344 17.914062 C 36.164062 17.175781 35.761719 16.664062 35.273438 16.167969 C 34.746094 15.636719 34.300781 15.023438 33.972656 14.347656 C 33.355469 13.089844 33.148438 11.648438 33.371094 10.269531 C 33.761719 7.796875 35.539062 5.6875 37.898438 4.863281 C 40.3125 4.023438 43.058594 4.628906 44.898438 6.394531 C 46.742188 8.160156 47.464844 10.871094 46.730469 13.316406 C 45.871094 16.1875 43.148438 18.214844 40.152344 18.214844 Z M 40.152344 18.214844 "/></g><path style=" stroke:none;fill-rule:nonzero;fill:#a6a6a6;fill-opacity:1;" d="M 41.777344 8.039062 C 40.835938 8.15625 40.390625 8.675781 40.183594 9.125 C 39.332031 7.300781 36.679688 7.929688 36.140625 9.621094 C 35.332031 12.140625 38.394531 14.347656 40.183594 15.421875 C 40.191406 15.410156 40.175781 15.410156 40.183594 15.421875 C 46.683594 11.511719 44.191406 7.746094 41.777344 8.039062 Z M 41.777344 8.039062 "/></g></svg>