<svg xmlns="http://www.w3.org/2000/svg" width="274" height="552" fill="none" xmlns:v="https://vecta.io/nano"><path d="M228.459 0H45.492C21.647 0 2.316 19.312 2.316 43.134v465.732c0 23.822 19.33 43.134 43.176 43.134h182.967c23.845 0 43.176-19.312 43.176-43.134V43.134C271.635 19.312 252.304 0 228.459 0z" fill="#e0e1e3"/><path d="M228.124 1.285H45.826c-23.318 0-42.224 18.888-42.224 42.183V508.52c0 23.295 18.906 42.183 42.224 42.183h182.298c23.317 0 42.224-18.888 42.224-42.183V43.468c0-23.295-18.907-42.183-42.224-42.183zm40.938 506.901c0 22.781-18.482 41.244-41.286 41.244H46.173c-22.803 0-41.285-18.463-41.285-41.244V43.815C4.888 21.034 23.37 2.57 46.173 2.57h181.616c22.804 0 41.285 18.464 41.285 41.245v464.383l-.012-.012z" fill="#000" style="mix-blend-mode:overlay"/><path d="M227.379 4.215H46.586c-21.928 0-39.703 17.758-39.703 39.664v464.243c0 21.906 17.776 39.664 39.703 39.664h180.793c21.928 0 39.703-17.758 39.703-39.664V43.879c0-21.906-17.775-39.664-39.703-39.664z" fill="#1d1d1b"/><path d="M273.215 141.029h-1.582v66.532h1.582v-66.532z" fill="url(#B)"/><path d="M273.215 207.573v-66.518l.784.861c-.398 7.079-.373 57.717 0 64.784l-.784.86v.013z" fill="url(#C)"/><path d="M1.35 180.053h-.9v42.144h.9v-42.144z" fill="url(#D)"/><path d="M.45 222.198v-42.132l-.45.553c.232 4.484.206 36.568 0 41.039l.45.553v-.013z" fill="url(#E)"/><path d="M2.316 180.066h-.965v42.145h.965v-42.145z" fill="url(#F)"/><path d="M1.35 127.037h-.9v42.144h.9v-42.144z" fill="url(#G)"/><path d="M.45 169.182v-42.131l-.45.552c.232 4.485.206 36.568 0 41.04l.45.552v-.013z" fill="url(#H)"/><path d="M2.316 127.037h-.965v42.144h.965v-42.144z" fill="url(#I)"/><path d="M1.35 87.219h-.9v21.637h.9V87.219z" fill="url(#J)"/><path d="M.45 108.843V87.219l-.45.514c.232 4.24.206 16.356 0 20.584l.45.514v.012z" fill="url(#K)"/><path d="M2.316 87.219h-.965v21.637h.965V87.219z" fill="url(#L)"/><mask id="A" maskUnits="userSpaceOnUse" x="15" y="13" width="244" height="526" mask-type="alpha"><path d="M206.553 13h21.029c17.093 0 30.932 13.838 30.932 30.902v464.153c0 17.076-13.852 30.901-30.932 30.901H46.377c-17.093 0-30.932-13.838-30.932-30.901V43.902C15.445 26.825 29.297 13 46.377 13h160.176z" fill="#fff"/></mask><g mask="url(#A)"><path d="M206.553 13h21.029c17.093 0 30.932 13.838 30.932 30.902v464.153c0 17.076-13.852 30.901-30.932 30.901H46.377c-17.093 0-30.932-13.838-30.932-30.901V43.902C15.445 26.825 29.297 13 46.377 13h160.176z" fill="#fff"/></g><path d="M157.319 38.611h-43.021a8.76 8.76 0 0 1-8.759-8.75 8.77 8.77 0 0 1 8.759-8.763h43.021a8.76 8.76 0 0 1 8.759 8.763 8.76 8.76 0 0 1-8.759 8.75z" fill="#1d1d1b"/><path d="M154.887 33.689a3.83 3.83 0 0 0 3.833-3.829 3.83 3.83 0 1 0-7.665 0 3.83 3.83 0 0 0 3.832 3.829z" fill="url(#M)"/><path d="M154.886 32.044c1.207 0 2.186-.978 2.186-2.184s-.979-2.184-2.186-2.184-2.187.978-2.187 2.184.979 2.184 2.187 2.184z" fill="url(#N)"/><use href="#R" fill="url(#O)"/><use href="#R" style="mix-blend-mode:multiply" fill="url(#P)"/><path style="mix-blend-mode:screen" d="M156.621 30.863c0-.373-.309-.681-.682-.681s-.681.308-.681.681.308.681.681.681.682-.308.682-.681z" fill="url(#Q)"/><defs><linearGradient id="B" x1="272.417" y1="141.029" x2="272.417" y2="207.561" href="#S"><stop stop-color="#58595a"/><stop offset=".02" stop-color="#e0e1e3"/><stop offset=".04" stop-color="#a7a8a9"/><stop offset=".08" stop-color="#2b1d2a"/><stop offset=".11" stop-color="#8c8c8c"/><stop offset=".9" stop-color="#696969"/><stop offset=".94" stop-color="#2b1d2a"/><stop offset=".96" stop-color="#a7a8a9"/><stop offset=".98" stop-color="#8c8c8c"/><stop offset="1" stop-color="#a7a8a9"/></linearGradient><linearGradient id="C" x1="273.601" y1="141.042" x2="273.601" y2="207.56" href="#S"><stop stop-color="#676067"/><stop offset=".06" stop-color="#707070"/><stop offset=".19" stop-color="#8a8a8a"/><stop offset=".81" stop-color="#8a8a8a"/><stop offset=".92" stop-color="#707070"/><stop offset="1" stop-color="#676067"/></linearGradient><linearGradient id="D" x1="-1127.82" y1="180.053" x2="-1127.82" y2="222.197" href="#S"><stop stop-color="#58595a"/><stop offset=".02" stop-color="#e0e1e3"/><stop offset=".04" stop-color="#a7a8a9"/><stop offset=".08" stop-color="#2d1e2c"/><stop offset=".11" stop-color="#8c8c8c"/><stop offset=".9" stop-color="#696969"/><stop offset=".94" stop-color="#2d1e2c"/><stop offset=".96" stop-color="#a7a8a9"/><stop offset=".98" stop-color="#8c8c8c"/><stop offset="1" stop-color="#a7a8a9"/></linearGradient><linearGradient id="E" x1=".232" y1="180.066" x2=".232" y2="222.198" href="#S"><stop stop-color="#676067"/><stop offset=".06" stop-color="#707070"/><stop offset=".19" stop-color="#8a8a8a"/><stop offset=".81" stop-color="#8a8a8a"/><stop offset=".92" stop-color="#707070"/><stop offset="1" stop-color="#676067"/></linearGradient><linearGradient id="F" x1=".001" y1="222.211" x2="1.285" y2="180.066" href="#S"><stop stop-color="#58595a"/><stop offset=".05" stop-color="#2d1e2c"/><stop offset=".52" stop-color="#a7a8a9"/><stop offset=".96" stop-color="#2d1e2c"/><stop offset="1" stop-color="#a7a8a9"/></linearGradient><linearGradient id="G" x1=".899" y1="127.024" x2=".899" y2="169.169" href="#S"><stop stop-color="#58595a"/><stop offset=".02" stop-color="#e0e1e3"/><stop offset=".04" stop-color="#a7a8a9"/><stop offset=".08" stop-color="#2d1e2c"/><stop offset=".11" stop-color="#8c8c8c"/><stop offset=".9" stop-color="#696969"/><stop offset=".94" stop-color="#2d1e2c"/><stop offset=".96" stop-color="#a7a8a9"/><stop offset=".98" stop-color="#8c8c8c"/><stop offset="1" stop-color="#a7a8a9"/></linearGradient><linearGradient id="H" x1=".232" y1="127.038" x2=".232" y2="169.169" href="#S"><stop stop-color="#676067"/><stop offset=".06" stop-color="#707070"/><stop offset=".19" stop-color="#8a8a8a"/><stop offset=".81" stop-color="#8a8a8a"/><stop offset=".92" stop-color="#707070"/><stop offset="1" stop-color="#676067"/></linearGradient><linearGradient id="I" x1="1.827" y1="169.194" x2="1.827" y2="127.037" href="#S"><stop stop-color="#58595a"/><stop offset=".05" stop-color="#2d1e2c"/><stop offset=".52" stop-color="#a7a8a9"/><stop offset=".96" stop-color="#2d1e2c"/><stop offset="1" stop-color="#a7a8a9"/></linearGradient><linearGradient id="J" x1="-1127.82" y1="87.206" x2="-1127.82" y2="108.843" href="#S"><stop stop-color="#58595a"/><stop offset=".02" stop-color="#e0e1e3"/><stop offset=".04" stop-color="#a7a8a9"/><stop offset=".08" stop-color="#2d1e2c"/><stop offset=".11" stop-color="#8c8c8c"/><stop offset=".9" stop-color="#696969"/><stop offset=".94" stop-color="#2d1e2c"/><stop offset=".96" stop-color="#a7a8a9"/><stop offset=".98" stop-color="#8c8c8c"/><stop offset="1" stop-color="#a7a8a9"/></linearGradient><linearGradient id="K" x1=".232" y1="87.219" x2=".232" y2="108.843" href="#S"><stop stop-color="#676067"/><stop offset=".06" stop-color="#707070"/><stop offset=".19" stop-color="#8a8a8a"/><stop offset=".81" stop-color="#8a8a8a"/><stop offset=".92" stop-color="#707070"/><stop offset="1" stop-color="#676067"/></linearGradient><linearGradient id="L" x1=".001" y1="108.856" x2="1.824" y2="87.219" href="#S"><stop stop-color="#58595a"/><stop offset=".05" stop-color="#2d1e2c"/><stop offset=".52" stop-color="#a7a8a9"/><stop offset=".96" stop-color="#2d1e2c"/><stop offset="1" stop-color="#a7a8a9"/></linearGradient><linearGradient id="M" x1="154.887" y1="33.445" x2="154.887" y2="25.916" href="#S"><stop stop-color="#666"/><stop offset="1" stop-color="#010104"/></linearGradient><linearGradient id="N" x1="154.899" y1="27.817" x2="154.899" y2="32.121" href="#S"><stop stop-color="#0b131c"/><stop offset="1" stop-color="#354039"/></linearGradient><linearGradient id="O" x1="156.236" y1="31.209" x2="153.537" y2="28.508" href="#S"><stop stop-color="#231f20"/><stop offset=".08" stop-color="#212226"/><stop offset=".2" stop-color="#1f2c37"/><stop offset=".33" stop-color="#1a3c53"/><stop offset=".47" stop-color="#13537b"/><stop offset=".62" stop-color="#0a70ae"/><stop offset=".78" stop-color="#0095ee"/><stop offset=".8" stop-color="#0387d6"/><stop offset=".84" stop-color="#0d689f"/><stop offset=".88" stop-color="#154d71"/><stop offset=".91" stop-color="#1b394e"/><stop offset=".95" stop-color="#1f2a34"/><stop offset=".98" stop-color="#222225"/><stop offset="1" stop-color="#231f20"/></linearGradient><radialGradient id="P" cx="0" cy="0" r="1" gradientTransform="matrix(1.91635,0,0,1.91448,154.885,29.8598)" href="#S"><stop stop-color="#231f20"/><stop offset=".2" stop-color="#165068"/><stop offset=".38" stop-color="#0c78a1"/><stop offset=".54" stop-color="#0594cb"/><stop offset=".66" stop-color="#01a6e4"/><stop offset=".73" stop-color="#00adee"/><stop offset=".76" stop-color="#01a5e3"/><stop offset=".81" stop-color="#0693c8"/><stop offset=".87" stop-color="#0d749b"/><stop offset=".94" stop-color="#184a5e"/><stop offset="1" stop-color="#231f20"/></radialGradient><radialGradient id="Q" cx="0" cy="0" r="1" gradientTransform="translate(155.939 30.8626) scale(0.681656 0.68099)" href="#S"><stop stop-color="#ccc"/><stop offset=".02" stop-color="#c4c4c4"/><stop offset=".22" stop-color="#898989"/><stop offset=".41" stop-color="#585858"/><stop offset=".59" stop-color="#313131"/><stop offset=".75" stop-color="#161616"/><stop offset=".89" stop-color="#050505"/><stop offset="1"/></radialGradient><path id="R" d="M156.801 29.86a1.92 1.92 0 0 1-1.916 1.915 1.92 1.92 0 0 1-1.916-1.915 1.91 1.91 0 0 1 1.916-1.915c1.068 0 1.916.848 1.916 1.915z"/><linearGradient id="S" gradientUnits="userSpaceOnUse"/></defs></svg>