<svg width="28" height="26" viewBox="0 0 28 26" fill="none" xmlns="http://www.w3.org/2000/svg">
<path d="M17.7109 19L24.6603 11.8456C28.0555 7.61922 22.5497 1.42153 17.7109 7.61955" stroke="black" stroke-width="1.42" stroke-linecap="round" stroke-linejoin="round"/>
<path d="M17.7109 19L10.7616 11.8456C7.36637 7.61922 12.8722 1.42153 17.7109 7.61955" stroke="black" stroke-width="1.42" stroke-linecap="round" stroke-linejoin="round"/>
<path d="M4.6625 8.35131C4.24194 8.35119 3.82892 8.46291 3.46576 8.67501C3.1026 8.88711 2.80238 9.19197 2.59586 9.55834C2.38935 9.92471 2.28398 10.3394 2.29054 10.7599C2.29711 11.1804 2.41538 11.5916 2.63323 11.9514C2.09215 12.0559 1.60434 12.3456 1.25357 12.7706C0.902795 13.1956 0.710938 13.7295 0.710938 14.2806C0.710938 14.8317 0.902795 15.3656 1.25357 15.7907C1.60434 16.2157 2.09215 16.5054 2.63323 16.6099M4.6625 8.35131C4.6625 7.82716 4.87072 7.32448 5.24135 6.95385C5.61198 6.58322 6.11466 6.375 6.63881 6.375C7.16296 6.375 7.66565 6.58322 8.03628 6.95385C8.61512 7.5327 8.61512 8.35131 8.61512 8.35131V20.2092C8.61512 20.7333 8.40691 21.236 8.03628 21.6066C7.66565 21.9773 7.16296 22.1855 6.63881 22.1855C6.11466 22.1855 5.61198 21.9773 5.24135 21.6066C4.87072 21.236 4.6625 20.7333 4.6625 20.2092C4.24206 20.2092 3.82917 20.0975 3.46613 19.8854C3.10308 19.6733 2.80294 19.3686 2.59645 19.0023C2.38996 18.6361 2.28455 18.2215 2.29101 17.8011C2.29748 17.3808 2.41558 16.9696 2.63323 16.6099M4.6625 8.35131C4.6625 8.99796 4.97318 9.57188 5.45303 9.93236L4.6625 8.35131ZM2.63323 16.6099C2.91693 16.1402 3.35471 15.7835 3.87198 15.6004L2.63323 16.6099Z" fill="white"/>
<path d="M4.6625 8.35131C4.24194 8.35119 3.82892 8.46291 3.46576 8.67501C3.1026 8.88711 2.80238 9.19197 2.59586 9.55834C2.38935 9.92471 2.28398 10.3394 2.29054 10.7599C2.29711 11.1804 2.41538 11.5916 2.63323 11.9514C2.09215 12.0559 1.60434 12.3456 1.25357 12.7706C0.902795 13.1956 0.710938 13.7295 0.710938 14.2806C0.710938 14.8317 0.902795 15.3656 1.25357 15.7907C1.60434 16.2157 2.09215 16.5054 2.63323 16.6099M4.6625 8.35131C4.6625 7.82716 4.87072 7.32448 5.24135 6.95385C5.61198 6.58322 6.11466 6.375 6.63881 6.375C7.16296 6.375 7.66565 6.58322 8.03628 6.95385C8.61512 7.5327 8.61512 8.35131 8.61512 8.35131V20.2092M4.6625 8.35131C4.6625 8.99796 4.97318 9.57188 5.45303 9.93236M2.63323 16.6099C2.41558 16.9696 2.29748 17.3808 2.29101 17.8011C2.28455 18.2215 2.38996 18.6361 2.59645 19.0023C2.80294 19.3686 3.10308 19.6733 3.46613 19.8854C3.82917 20.0975 4.24206 20.2092 4.6625 20.2092C4.6625 20.7333 4.87072 21.236 5.24135 21.6066C5.61198 21.9773 6.11466 22.1855 6.63881 22.1855C7.16296 22.1855 7.66565 21.9773 8.03628 21.6066C8.40691 21.236 8.61512 20.7333 8.61512 20.2092M2.63323 16.6099C2.91693 16.1402 3.35471 15.7835 3.87198 15.6004M8.61512 20.2092C8.61512 20.7333 8.82334 21.236 9.19397 21.6066" stroke="black" stroke-width="1.42294" stroke-linecap="round" stroke-linejoin="round"/>
<path d="M12.2437 8.35131C12.6643 8.35119 13.0773 8.46291 13.4405 8.67501C13.8036 8.88711 14.1039 9.19197 14.3104 9.55834C14.5169 9.92471 14.6223 10.3394 14.6157 10.7599C14.6091 11.1804 14.4909 11.5916 14.273 11.9514C14.8141 12.0559 15.3019 12.3456 15.6527 12.7706C16.0035 13.1956 16.1953 13.7295 16.1953 14.2806C16.1953 14.8317 16.0035 15.3656 15.6527 15.7907C15.3019 16.2157 14.8141 16.5054 14.273 16.6099M12.2437 8.35131C12.2437 7.82716 12.0355 7.32448 11.6649 6.95385C11.2943 6.58322 10.7916 6.375 10.2674 6.375C9.74329 6.375 9.2406 6.58322 8.86997 6.95385C8.29113 7.5327 8.29113 8.35131 8.29113 8.35131V20.2092C8.29113 20.7333 8.49934 21.236 8.86997 21.6066C9.2406 21.9773 9.74329 22.1855 10.2674 22.1855C10.7916 22.1855 11.2943 21.9773 11.6649 21.6066C12.0355 21.236 12.2437 20.7333 12.2437 20.2092C12.6642 20.2092 13.0771 20.0975 13.4401 19.8854C13.8032 19.6733 14.1033 19.3686 14.3098 19.0023C14.5163 18.6361 14.6217 18.2215 14.6152 17.8011C14.6088 17.3808 14.4907 16.9696 14.273 16.6099M12.2437 8.35131C12.2437 8.99796 11.9331 9.57188 11.4532 9.93236L12.2437 8.35131ZM14.273 16.6099C13.9893 16.1402 13.5515 15.7835 13.0343 15.6004L14.273 16.6099Z" fill="white"/>
<path d="M12.2437 8.35131C12.6643 8.35119 13.0773 8.46291 13.4405 8.67501C13.8036 8.88711 14.1039 9.19197 14.3104 9.55834C14.5169 9.92471 14.6223 10.3394 14.6157 10.7599C14.6091 11.1804 14.4909 11.5916 14.273 11.9514C14.8141 12.0559 15.3019 12.3456 15.6527 12.7706C16.0035 13.1956 16.1953 13.7295 16.1953 14.2806C16.1953 14.8317 16.0035 15.3656 15.6527 15.7907C15.3019 16.2157 14.8141 16.5054 14.273 16.6099M12.2437 8.35131C12.2437 7.82716 12.0355 7.32448 11.6649 6.95385C11.2943 6.58322 10.7916 6.375 10.2674 6.375C9.74329 6.375 9.2406 6.58322 8.86997 6.95385C8.29113 7.5327 8.29113 8.35131 8.29113 8.35131V20.2092M12.2437 8.35131C12.2437 8.99796 11.9331 9.57188 11.4532 9.93236M14.273 16.6099C14.4907 16.9696 14.6088 17.3808 14.6152 17.8011C14.6217 18.2215 14.5163 18.6361 14.3098 19.0023C14.1033 19.3686 13.8032 19.6733 13.4401 19.8854C13.0771 20.0975 12.6642 20.2092 12.2437 20.2092C12.2437 20.7333 12.0355 21.236 11.6649 21.6066C11.2943 21.9773 10.7916 22.1855 10.2674 22.1855C9.74329 22.1855 9.2406 21.9773 8.86997 21.6066C8.49934 21.236 8.29113 20.7333 8.29113 20.2092M14.273 16.6099C13.9893 16.1402 13.5515 15.7835 13.0343 15.6004M8.29113 20.2092C8.29113 20.7333 8.08291 21.236 7.71228 21.6066" stroke="black" stroke-width="1.42294" stroke-linecap="round" stroke-linejoin="round"/>
</svg>
