<svg width="24" height="24" viewBox="0 0 24 24" fill="none" xmlns="http://www.w3.org/2000/svg">
<g clip-path="url(#clip0_2342_37194)">
<path d="M5.90527 7.53906C6.344 7.53906 6.70014 7.8943 6.7002 8.33301C6.7002 8.77177 6.34403 9.12793 5.90527 9.12793H3.47363C3.31609 9.12802 3.16511 9.19035 3.05371 9.30176C2.94231 9.41316 2.87997 9.56414 2.87988 9.72168V20.627L5.07227 18.9004L5.0752 18.8975C5.12747 18.8597 5.2089 18.7929 5.28125 18.7461C5.35733 18.697 5.45221 18.6494 5.55762 18.6494H15.2793C15.437 18.6494 15.5887 18.5871 15.7002 18.4756C15.8115 18.3642 15.8739 18.2131 15.874 18.0557V17.0557C15.874 16.617 16.2294 16.261 16.668 16.2607C17.1067 16.2607 17.4629 16.6169 17.4629 17.0557V18.1416L17.46 18.3496C17.4463 18.5559 17.4008 18.7598 17.3252 18.9531C17.2243 19.211 17.0711 19.4451 16.876 19.6416C16.6808 19.8381 16.4477 19.9931 16.1904 20.0957C15.9341 20.1979 15.6596 20.245 15.3838 20.2373V20.2383H6.08301L2.5332 22.8516H2.53223C2.41877 22.9336 2.28577 22.984 2.14648 22.998C2.00695 23.012 1.86593 22.9887 1.73828 22.9307L1.73535 22.9297C1.60304 22.8648 1.49161 22.7643 1.41309 22.6396C1.33451 22.5148 1.2922 22.3702 1.29102 22.2227V9.72168C1.2911 9.14274 1.52031 8.58711 1.92969 8.17773C2.33907 7.76836 2.89469 7.53915 3.47363 7.53906H5.90527Z" fill="#6C8B00" stroke="#6C8B00" stroke-width="0.2"/>
<path d="M21.5332 2.67773C22.0994 2.69671 22.6365 2.93446 23.0303 3.3418C23.424 3.74912 23.6438 4.29386 23.6436 4.86035V17.3057C23.6431 17.4553 23.6006 17.6021 23.5205 17.7285C23.4404 17.855 23.3256 17.9561 23.1904 18.0205L23.1885 18.0215C23.0602 18.0784 22.9188 18.1003 22.7793 18.085C22.6398 18.0696 22.5064 18.018 22.3936 17.9346L22.3916 17.9326L19.0986 15.377H9.72363C9.14469 15.3769 8.58907 15.1477 8.17969 14.7383C7.77031 14.3289 7.5411 13.7733 7.54102 13.1943V4.86035C7.5411 4.28141 7.77031 3.72578 8.17969 3.31641C8.58907 2.90703 9.14469 2.67782 9.72363 2.67773H21.5332ZM9.72363 4.2666C9.56609 4.26669 9.41511 4.32903 9.30371 4.44043C9.19231 4.55183 9.12997 4.70281 9.12988 4.86035V13.1943C9.12997 13.3519 9.19231 13.5029 9.30371 13.6143C9.41511 13.7257 9.56609 13.788 9.72363 13.7881H19.3701L19.5 13.7998C19.6285 13.8215 19.7505 13.8744 19.8545 13.9551L22.124 15.7256V4.90527L22.1094 4.78613C22.0839 4.66887 22.0267 4.56007 21.9434 4.47168C21.8333 4.35505 21.6848 4.28228 21.5254 4.2666H9.72363Z" fill="#6C8B00" stroke="#6C8B00" stroke-width="0.2"/>
</g>
<defs>
<clipPath id="clip0_2342_37194">
<rect width="24" height="24" fill="white"/>
</clipPath>
</defs>
</svg>
