<svg width="20" height="20" viewBox="0 0 20 20" fill="none" xmlns="http://www.w3.org/2000/svg">
<path fill-rule="evenodd" clip-rule="evenodd" d="M17.9154 3.75065C17.9154 4.67113 17.1692 5.41732 16.2487 5.41732C15.3282 5.41732 14.582 4.67113 14.582 3.75065C14.582 2.83018 15.3282 2.08398 16.2487 2.08398C17.1692 2.08398 17.9154 2.83018 17.9154 3.75065ZM19.1654 3.75065C19.1654 5.36148 17.8595 6.66732 16.2487 6.66732C15.7847 6.66732 15.3461 6.55898 14.9566 6.36623L12.0346 10.0187L14.7478 13.7493C15.1863 13.4856 15.6998 13.334 16.2487 13.334C17.8595 13.334 19.1654 14.6398 19.1654 16.2506C19.1654 17.8615 17.8595 19.1673 16.2487 19.1673C14.6379 19.1673 13.332 17.8615 13.332 16.2506C13.332 15.645 13.5166 15.0824 13.8327 14.6162L10.9304 10.6257H6.59824C6.31213 11.9361 5.145 12.9173 3.7487 12.9173C2.13787 12.9173 0.832031 11.6115 0.832031 10.0007C0.832031 8.38982 2.13787 7.08398 3.7487 7.08398C5.145 7.08398 6.31213 8.06516 6.59824 9.37565H10.9483L13.9809 5.58492C13.5751 5.08386 13.332 4.44564 13.332 3.75065C13.332 2.13982 14.6379 0.833984 16.2487 0.833984C17.8595 0.833984 19.1654 2.13982 19.1654 3.75065ZM5.41536 10.0007C5.41536 10.9211 4.66917 11.6673 3.7487 11.6673C2.82822 11.6673 2.08203 10.9211 2.08203 10.0007C2.08203 9.08018 2.82822 8.33398 3.7487 8.33398C4.66917 8.33398 5.41536 9.08018 5.41536 10.0007ZM16.2487 17.9173C17.1692 17.9173 17.9154 17.1711 17.9154 16.2506C17.9154 15.3302 17.1692 14.584 16.2487 14.584C15.3282 14.584 14.582 15.3302 14.582 16.2506C14.582 17.1711 15.3282 17.9173 16.2487 17.9173Z" fill="black"/>
</svg>
