<svg width="24" height="24" viewBox="0 0 24 24" fill="none" xmlns="http://www.w3.org/2000/svg">
<g clip-path="url(#clip0_2342_37234)">
<path d="M12 0.0917969C14.0898 0.0919361 16.1282 0.740936 17.834 1.94824C19.5399 3.15568 20.8295 4.86295 21.5244 6.83398C22.2193 8.80493 22.2862 10.9429 21.7148 12.9531C21.1437 14.9629 19.9629 16.7458 18.3359 18.0566L18.0635 18.2705L17.9863 18.3301L18.0107 18.4258L18.8662 21.8506C18.9241 22.083 18.9314 22.3253 18.8867 22.5605C18.842 22.7959 18.7465 23.0188 18.6074 23.2139C18.4684 23.4088 18.2889 23.5715 18.0811 23.6904C17.925 23.7797 17.7557 23.8431 17.5801 23.8779L17.4092 23.9023L17.2578 23.9092H6.74219C6.50253 23.9091 6.26546 23.8572 6.04785 23.7568C5.83035 23.6564 5.63698 23.5103 5.48145 23.3281C5.32583 23.1458 5.21148 22.9319 5.14648 22.7012C5.08148 22.4705 5.06792 22.2279 5.10547 21.9912L5.10449 21.9902L5.13574 21.8418L5.13477 21.8408L5.99023 18.4238L6.01465 18.3271L5.93457 18.2666C4.24046 16.9939 2.9891 15.2211 2.3584 13.1982C1.72773 11.1752 1.74907 9.00421 2.41992 6.99414C3.09079 4.98421 4.37751 3.23674 6.09668 1.99805C7.81592 0.759326 9.88099 0.0919103 12 0.0917969ZM7.9707 19.2002L7.36816 21.6123L7.32129 21.7988H16.6797L16.6328 21.6123L16.0293 19.2002L16.001 19.0859H7.99902L7.9707 19.2002ZM12 2.20215C10.2676 2.20168 8.58203 2.76473 7.19727 3.80566C5.81246 4.84678 4.8031 6.31016 4.32227 7.97461C3.84151 9.63908 3.9149 11.415 4.53125 13.0342C5.14773 14.6534 6.27416 16.0288 7.74023 16.9521L7.77637 16.9756H16.2236L16.2607 16.9521C17.7266 16.0288 18.8523 14.6533 19.4688 13.0342C20.0851 11.415 20.1585 9.63911 19.6777 7.97461C19.1969 6.31019 18.1885 4.84677 16.8037 3.80566C15.4188 2.76448 13.7326 2.20164 12 2.20215Z" fill="#FC5DA8" stroke="white" stroke-width="0.301486"/>
<path d="M12.5 4.99988C12.5 4.99988 14 4.5 15.5 6C17 7.5 17 8.99988 17 8.99988" stroke="#FC5DA8" stroke-width="1.8" stroke-linecap="round"/>
</g>
<defs>
<clipPath id="clip0_2342_37234">
<rect width="24" height="24" fill="white"/>
</clipPath>
</defs>
</svg>
