<svg width="20" height="20" viewBox="0 0 20 20" fill="none" xmlns="http://www.w3.org/2000/svg">
<path fill-rule="evenodd" clip-rule="evenodd" d="M16.2487 7.5013C17.8595 7.5013 19.1654 6.19547 19.1654 4.58464C19.1654 2.9738 17.8595 1.66797 16.2487 1.66797C14.6379 1.66797 13.332 2.9738 13.332 4.58464C13.332 6.19547 14.6379 7.5013 16.2487 7.5013ZM16.2487 6.2513C17.1692 6.2513 17.9154 5.50511 17.9154 4.58464C17.9154 3.66416 17.1692 2.91797 16.2487 2.91797C15.3282 2.91797 14.582 3.66416 14.582 4.58464C14.582 5.50511 15.3282 6.2513 16.2487 6.2513Z" fill="black"/>
<path fill-rule="evenodd" clip-rule="evenodd" d="M3.7487 12.918C5.35953 12.918 6.66536 11.6121 6.66536 10.0013C6.66536 8.39047 5.35953 7.08464 3.7487 7.08464C2.13787 7.08464 0.832031 8.39047 0.832031 10.0013C0.832031 11.6121 2.13787 12.918 3.7487 12.918ZM3.7487 11.668C4.66917 11.668 5.41536 10.9218 5.41536 10.0013C5.41536 9.08083 4.66917 8.33464 3.7487 8.33464C2.82822 8.33464 2.08203 9.08083 2.08203 10.0013C2.08203 10.9218 2.82822 11.668 3.7487 11.668Z" fill="black"/>
<path fill-rule="evenodd" clip-rule="evenodd" d="M19.1654 15.418C19.1654 17.0288 17.8595 18.3346 16.2487 18.3346C14.6379 18.3346 13.332 17.0288 13.332 15.418C13.332 13.8071 14.6379 12.5013 16.2487 12.5013C17.8595 12.5013 19.1654 13.8071 19.1654 15.418ZM17.9154 15.418C17.9154 16.3384 17.1692 17.0846 16.2487 17.0846C15.3282 17.0846 14.582 16.3384 14.582 15.418C14.582 14.4975 15.3282 13.7513 16.2487 13.7513C17.1692 13.7513 17.9154 14.4975 17.9154 15.418Z" fill="black"/>
<path d="M11.6654 5.20964C11.0901 5.20964 10.6237 5.67601 10.6237 6.2513V8.33464C10.6237 8.99132 10.3475 9.58348 9.90492 10.0013C10.3475 10.4191 10.6237 11.0113 10.6237 11.668V13.7513C10.6237 14.3266 11.0901 14.793 11.6654 14.793C12.0105 14.793 12.2904 15.0728 12.2904 15.418C12.2904 15.7631 12.0105 16.043 11.6654 16.043C10.3997 16.043 9.3737 15.017 9.3737 13.7513V11.668C9.3737 11.0927 8.90733 10.6263 8.33203 10.6263C7.98685 10.6263 7.70703 10.3465 7.70703 10.0013C7.70703 9.65612 7.98685 9.3763 8.33203 9.3763C8.90733 9.3763 9.3737 8.90993 9.3737 8.33464V6.2513C9.3737 4.98565 10.3997 3.95964 11.6654 3.95964C12.0105 3.95964 12.2904 4.23946 12.2904 4.58464C12.2904 4.92981 12.0105 5.20964 11.6654 5.20964Z" fill="black"/>
</svg>
