<svg width="24" height="24" viewBox="0 0 24 24" fill="none" xmlns="http://www.w3.org/2000/svg">
<path d="M22.001 12.0005C22.001 13.3138 21.7423 14.6142 21.2398 15.8275C20.7372 17.0408 20.0006 18.1433 19.0719 19.0719C18.1433 20.0006 17.0408 20.7372 15.8275 21.2398C14.6142 21.7423 13.3138 22.001 12.0005 22.001C10.6872 22.001 9.38679 21.7423 8.17347 21.2398C6.96016 20.7372 5.85771 20.0006 4.92908 19.0719C4.00045 18.1433 3.26381 17.0408 2.76124 15.8275C2.25867 14.6142 2 13.3138 2 12.0005C2 9.3482 3.05362 6.80454 4.92908 4.92908C6.80454 3.05362 9.3482 2 12.0005 2C14.6528 2 17.1965 3.05362 19.0719 4.92908C20.9474 6.80454 22.001 9.3482 22.001 12.0005Z" stroke="#1938B0" stroke-width="1.8"/>
<path d="M16.0001 12C16.0001 13.313 15.8961 14.614 15.6951 15.827C15.4951 17.04 15.2001 18.142 14.8281 19.071C14.4571 20 14.0161 20.736 13.5311 21.239C13.0451 21.741 12.5251 22 12.0001 22C11.4751 22 10.9551 21.741 10.4701 21.239C9.98406 20.736 9.54305 19.999 9.17205 19.071C8.80005 18.142 8.50505 17.041 8.30405 15.827C8.09896 14.5617 7.99729 13.2818 8.00005 12C8.00005 10.687 8.10305 9.386 8.30405 8.173C8.50505 6.96 8.80005 5.858 9.17205 4.929C9.54305 4 9.98405 3.264 10.4691 2.761C10.9551 2.26 11.4751 2 12.0001 2C12.5251 2 13.0451 2.259 13.5301 2.761C14.0161 3.264 14.4571 4.001 14.8281 4.929C15.2001 5.858 15.4951 6.959 15.6951 8.173C15.8971 9.386 16.0001 10.687 16.0001 12Z" stroke="#1938B0" stroke-width="1.8"/>
<path d="M2 12H22" stroke="#1938B0" stroke-width="1.8" stroke-linecap="round"/>
</svg>
