<svg width="24" height="24" viewBox="0 0 24 24" fill="none" xmlns="http://www.w3.org/2000/svg">
<mask id="path-1-outside-1_2342_37253" maskUnits="userSpaceOnUse" x="-0.5" y="1" width="25" height="22" fill="black">
<rect fill="white" x="-0.5" y="1" width="25" height="22"/>
<path d="M11.6472 20.8854C11.7973 20.8854 11.9512 20.8528 12.109 20.7874C12.2668 20.7221 12.3943 20.6423 12.4916 20.548L21.4481 11.8664C21.7369 11.5865 21.9598 11.3007 22.1168 11.009C22.273 10.7158 22.3511 10.3944 22.3511 10.0448C22.3511 9.69068 22.273 9.34699 22.1168 9.01369C21.9598 8.67966 21.7369 8.37531 21.4481 8.10066L17.1399 3.92518C16.8557 3.64533 16.5635 3.44008 16.2633 3.30943C15.9638 3.17878 15.6314 3.11346 15.2661 3.11346C14.9054 3.11346 14.5703 3.17878 14.2608 3.30943C13.9514 3.44008 13.66 3.64495 13.3866 3.92406L12.3847 4.895L14.5101 6.96047C14.7384 7.17797 14.9088 7.42516 15.0214 7.70204C15.1332 7.97892 15.1891 8.25988 15.1891 8.54493C15.1891 9.12467 14.9934 9.6042 14.6021 9.98352C14.2107 10.3628 13.7163 10.5521 13.1189 10.5514C12.824 10.5514 12.5364 10.508 12.2561 10.4211C11.9758 10.3343 11.7234 10.1821 11.499 9.96459L9.3012 7.84233L4.34041 12.6491C4.22476 12.762 4.13783 12.89 4.07962 13.0333C4.02141 13.1766 3.9923 13.3213 3.9923 13.4675C3.9923 13.7303 4.07923 13.9467 4.25309 14.1167C4.42619 14.2874 4.6483 14.3728 4.91944 14.3728C5.06955 14.3728 5.2235 14.3401 5.38128 14.2748C5.53906 14.2087 5.66658 14.1286 5.76385 14.0343L9.01043 10.8878C9.23009 10.6749 9.5791 10.6749 9.79876 10.8878C10.0282 11.1101 10.0284 11.4782 9.79915 11.7008L6.58299 14.8237C6.46657 14.9358 6.37926 15.0635 6.32105 15.2068C6.26361 15.3508 6.23488 15.4955 6.23488 15.641C6.23488 15.8897 6.32526 16.1016 6.50602 16.2768C6.68677 16.452 6.90544 16.54 7.16202 16.5407C7.31213 16.5407 7.46608 16.5077 7.62386 16.4416C7.78164 16.3755 7.90916 16.2957 8.00643 16.2022L11.5188 12.804C11.7384 12.5917 12.0867 12.5917 12.3062 12.8041C12.5359 13.0264 12.5361 13.3946 12.3068 13.6172L8.82557 16.9961C8.7237 17.0904 8.64022 17.214 8.57512 17.3669C8.50925 17.5198 8.47632 17.669 8.47632 17.8145C8.47632 18.0624 8.56708 18.274 8.7486 18.4492C8.92935 18.6258 9.14802 18.7142 9.4046 18.7142C9.55472 18.7142 9.70407 18.686 9.85265 18.6295C10.0012 18.5731 10.133 18.4885 10.2479 18.3757L13.7599 14.9769C13.9796 14.7643 14.3283 14.7644 14.5478 14.9772C14.7774 15.1997 14.7774 15.568 14.5478 15.7905L11.0613 19.1696C10.9456 19.2824 10.8587 19.4179 10.8005 19.576C10.7423 19.7341 10.7132 19.8785 10.7132 20.0091C10.7132 20.2719 10.8085 20.4838 10.9992 20.6449C11.1899 20.806 11.4059 20.8865 11.6472 20.8865M11.6403 22C11.0498 22 10.5443 21.7907 10.1238 21.372C9.7033 20.9526 9.51872 20.4352 9.57003 19.8198C8.91901 19.8273 8.37713 19.6391 7.94439 19.2553C7.51165 18.8708 7.30601 18.3349 7.32745 17.6475C6.61822 17.6549 6.05911 17.4582 5.65011 17.0573C5.24112 16.6565 5.055 16.1287 5.09176 15.474C4.453 15.4814 3.91839 15.307 3.48795 14.9507C3.05828 14.5958 2.84344 14.1015 2.84344 13.4675C2.84344 13.1818 2.9005 12.896 3.01462 12.6102C3.12874 12.3236 3.29724 12.072 3.52012 11.8552L8.60526 6.93269C8.99315 6.55719 9.60907 6.55737 9.99674 6.9331L12.2676 9.13395C12.3648 9.23268 12.4851 9.31396 12.6283 9.3778C12.7715 9.44164 12.9328 9.47318 13.112 9.47244C13.3578 9.47244 13.575 9.3893 13.7634 9.22303C13.9518 9.05675 14.0464 8.83999 14.0472 8.57276C14.0472 8.39906 14.0142 8.24318 13.9483 8.10511C13.8825 7.9663 13.799 7.84976 13.6979 7.75548L9.74581 3.92518C9.46089 3.64533 9.16487 3.44008 8.85774 3.30943C8.55061 3.17878 8.21438 3.11346 7.84904 3.11346C7.48829 3.11346 7.16048 3.17878 6.86561 3.30943C6.5715 3.44008 6.28007 3.64533 5.99132 3.92518L2.49419 7.32123C2.24756 7.55877 2.04843 7.8427 1.89678 8.17303C1.74513 8.50262 1.66471 8.84296 1.65552 9.19408C1.64786 9.44572 1.67007 9.68734 1.72215 9.91894C1.7393 9.99522 1.75995 10.0701 1.78408 10.1434C1.87079 10.4071 1.83568 10.7086 1.63638 10.9017C1.36081 11.1688 0.908913 11.1149 0.77257 10.7562C0.727615 10.6379 0.687228 10.5147 0.65141 10.3866C0.542651 9.99762 0.492484 9.60049 0.500909 9.19519C0.510099 8.68894 0.614646 8.20458 0.814548 7.74212C1.01445 7.27966 1.3009 6.86731 1.6739 6.50507L5.14921 3.13684C5.54978 2.75233 5.97371 2.46654 6.421 2.27948C6.86829 2.09316 7.35196 2 7.87201 2C8.39207 2 8.87152 2.09353 9.31039 2.28059C9.75002 2.46691 10.1682 2.75233 10.5649 3.13684L11.5645 4.10667L12.5663 3.13684C12.9668 2.75233 13.3869 2.46654 13.8266 2.27948C14.2662 2.09316 14.746 2 15.2661 2C15.7861 2 16.2698 2.09353 16.7171 2.28059C17.1636 2.46691 17.5849 2.75233 17.9809 3.13684L22.2615 7.28449C22.6575 7.66826 22.9631 8.09917 23.1783 8.57722C23.3935 9.05526 23.5008 9.5463 23.5 10.0503C23.5 10.5551 23.3928 11.0202 23.1783 11.4455C22.9639 11.8708 22.6583 12.2761 22.2615 12.6614L13.3038 21.3353C13.0656 21.5669 12.806 21.7354 12.5249 21.8408C12.2446 21.9462 11.9497 21.9989 11.6403 21.9989"/>
</mask>
<path d="M11.6472 20.8854C11.7973 20.8854 11.9512 20.8528 12.109 20.7874C12.2668 20.7221 12.3943 20.6423 12.4916 20.548L21.4481 11.8664C21.7369 11.5865 21.9598 11.3007 22.1168 11.009C22.273 10.7158 22.3511 10.3944 22.3511 10.0448C22.3511 9.69068 22.273 9.34699 22.1168 9.01369C21.9598 8.67966 21.7369 8.37531 21.4481 8.10066L17.1399 3.92518C16.8557 3.64533 16.5635 3.44008 16.2633 3.30943C15.9638 3.17878 15.6314 3.11346 15.2661 3.11346C14.9054 3.11346 14.5703 3.17878 14.2608 3.30943C13.9514 3.44008 13.66 3.64495 13.3866 3.92406L12.3847 4.895L14.5101 6.96047C14.7384 7.17797 14.9088 7.42516 15.0214 7.70204C15.1332 7.97892 15.1891 8.25988 15.1891 8.54493C15.1891 9.12467 14.9934 9.6042 14.6021 9.98352C14.2107 10.3628 13.7163 10.5521 13.1189 10.5514C12.824 10.5514 12.5364 10.508 12.2561 10.4211C11.9758 10.3343 11.7234 10.1821 11.499 9.96459L9.3012 7.84233L4.34041 12.6491C4.22476 12.762 4.13783 12.89 4.07962 13.0333C4.02141 13.1766 3.9923 13.3213 3.9923 13.4675C3.9923 13.7303 4.07923 13.9467 4.25309 14.1167C4.42619 14.2874 4.6483 14.3728 4.91944 14.3728C5.06955 14.3728 5.2235 14.3401 5.38128 14.2748C5.53906 14.2087 5.66658 14.1286 5.76385 14.0343L9.01043 10.8878C9.23009 10.6749 9.5791 10.6749 9.79876 10.8878C10.0282 11.1101 10.0284 11.4782 9.79915 11.7008L6.58299 14.8237C6.46657 14.9358 6.37926 15.0635 6.32105 15.2068C6.26361 15.3508 6.23488 15.4955 6.23488 15.641C6.23488 15.8897 6.32526 16.1016 6.50602 16.2768C6.68677 16.452 6.90544 16.54 7.16202 16.5407C7.31213 16.5407 7.46608 16.5077 7.62386 16.4416C7.78164 16.3755 7.90916 16.2957 8.00643 16.2022L11.5188 12.804C11.7384 12.5917 12.0867 12.5917 12.3062 12.8041C12.5359 13.0264 12.5361 13.3946 12.3068 13.6172L8.82557 16.9961C8.7237 17.0904 8.64022 17.214 8.57512 17.3669C8.50925 17.5198 8.47632 17.669 8.47632 17.8145C8.47632 18.0624 8.56708 18.274 8.7486 18.4492C8.92935 18.6258 9.14802 18.7142 9.4046 18.7142C9.55472 18.7142 9.70407 18.686 9.85265 18.6295C10.0012 18.5731 10.133 18.4885 10.2479 18.3757L13.7599 14.9769C13.9796 14.7643 14.3283 14.7644 14.5478 14.9772C14.7774 15.1997 14.7774 15.568 14.5478 15.7905L11.0613 19.1696C10.9456 19.2824 10.8587 19.4179 10.8005 19.576C10.7423 19.7341 10.7132 19.8785 10.7132 20.0091C10.7132 20.2719 10.8085 20.4838 10.9992 20.6449C11.1899 20.806 11.4059 20.8865 11.6472 20.8865M11.6403 22C11.0498 22 10.5443 21.7907 10.1238 21.372C9.7033 20.9526 9.51872 20.4352 9.57003 19.8198C8.91901 19.8273 8.37713 19.6391 7.94439 19.2553C7.51165 18.8708 7.30601 18.3349 7.32745 17.6475C6.61822 17.6549 6.05911 17.4582 5.65011 17.0573C5.24112 16.6565 5.055 16.1287 5.09176 15.474C4.453 15.4814 3.91839 15.307 3.48795 14.9507C3.05828 14.5958 2.84344 14.1015 2.84344 13.4675C2.84344 13.1818 2.9005 12.896 3.01462 12.6102C3.12874 12.3236 3.29724 12.072 3.52012 11.8552L8.60526 6.93269C8.99315 6.55719 9.60907 6.55737 9.99674 6.9331L12.2676 9.13395C12.3648 9.23268 12.4851 9.31396 12.6283 9.3778C12.7715 9.44164 12.9328 9.47318 13.112 9.47244C13.3578 9.47244 13.575 9.3893 13.7634 9.22303C13.9518 9.05675 14.0464 8.83999 14.0472 8.57276C14.0472 8.39906 14.0142 8.24318 13.9483 8.10511C13.8825 7.9663 13.799 7.84976 13.6979 7.75548L9.74581 3.92518C9.46089 3.64533 9.16487 3.44008 8.85774 3.30943C8.55061 3.17878 8.21438 3.11346 7.84904 3.11346C7.48829 3.11346 7.16048 3.17878 6.86561 3.30943C6.5715 3.44008 6.28007 3.64533 5.99132 3.92518L2.49419 7.32123C2.24756 7.55877 2.04843 7.8427 1.89678 8.17303C1.74513 8.50262 1.66471 8.84296 1.65552 9.19408C1.64786 9.44572 1.67007 9.68734 1.72215 9.91894C1.7393 9.99522 1.75995 10.0701 1.78408 10.1434C1.87079 10.4071 1.83568 10.7086 1.63638 10.9017C1.36081 11.1688 0.908913 11.1149 0.77257 10.7562C0.727615 10.6379 0.687228 10.5147 0.65141 10.3866C0.542651 9.99762 0.492484 9.60049 0.500909 9.19519C0.510099 8.68894 0.614646 8.20458 0.814548 7.74212C1.01445 7.27966 1.3009 6.86731 1.6739 6.50507L5.14921 3.13684C5.54978 2.75233 5.97371 2.46654 6.421 2.27948C6.86829 2.09316 7.35196 2 7.87201 2C8.39207 2 8.87152 2.09353 9.31039 2.28059C9.75002 2.46691 10.1682 2.75233 10.5649 3.13684L11.5645 4.10667L12.5663 3.13684C12.9668 2.75233 13.3869 2.46654 13.8266 2.27948C14.2662 2.09316 14.746 2 15.2661 2C15.7861 2 16.2698 2.09353 16.7171 2.28059C17.1636 2.46691 17.5849 2.75233 17.9809 3.13684L22.2615 7.28449C22.6575 7.66826 22.9631 8.09917 23.1783 8.57722C23.3935 9.05526 23.5008 9.5463 23.5 10.0503C23.5 10.5551 23.3928 11.0202 23.1783 11.4455C22.9639 11.8708 22.6583 12.2761 22.2615 12.6614L13.3038 21.3353C13.0656 21.5669 12.806 21.7354 12.5249 21.8408C12.2446 21.9462 11.9497 21.9989 11.6403 21.9989" fill="#B88D26"/>
<path d="M12.4916 20.548L12.6169 20.6773L12.6169 20.6773L12.4916 20.548ZM21.4481 11.8664L21.3229 11.7371L21.3228 11.7371L21.4481 11.8664ZM22.1168 11.009L22.2753 11.0943L22.2756 11.0937L22.1168 11.009ZM22.1168 9.01369L22.2797 8.93729L22.2797 8.93712L22.1168 9.01369ZM21.4481 8.10066L21.3229 8.22992L21.3241 8.23108L21.4481 8.10066ZM17.1399 3.92518L17.0136 4.05343L17.0146 4.05443L17.1399 3.92518ZM16.2633 3.30943L16.1913 3.47441L16.1915 3.47448L16.2633 3.30943ZM13.3866 3.92406L13.5119 4.05336L13.5151 4.05003L13.3866 3.92406ZM12.3847 4.895L12.2595 4.76574L12.1263 4.89483L12.2593 5.02409L12.3847 4.895ZM14.5101 6.96047L14.3847 7.08956L14.386 7.09078L14.5101 6.96047ZM15.0214 7.70204L15.1883 7.63463L15.1881 7.63423L15.0214 7.70204ZM13.1189 10.5514L13.1191 10.3714H13.1189V10.5514ZM11.499 9.96459L11.6242 9.83534L11.624 9.83511L11.499 9.96459ZM9.3012 7.84233L9.42623 7.71285L9.30098 7.5919L9.17594 7.71306L9.3012 7.84233ZM4.34041 12.6491L4.21515 12.5199L4.21471 12.5203L4.34041 12.6491ZM3.9923 13.4675H4.1723H3.9923ZM4.25309 14.1167L4.3795 13.9885L4.37893 13.988L4.25309 14.1167ZM5.38128 14.2748L5.45014 14.4411L5.4508 14.4408L5.38128 14.2748ZM5.76385 14.0343L5.63858 13.905L5.76385 14.0343ZM6.58299 14.8237L6.70784 14.9534L6.70838 14.9529L6.58299 14.8237ZM6.32105 15.2068L6.15428 15.139L6.15386 15.1401L6.32105 15.2068ZM7.16202 16.5407L7.1615 16.7207H7.16202V16.5407ZM8.00643 16.2022L8.13119 16.332L8.13159 16.3316L8.00643 16.2022ZM8.82557 16.9961L8.94787 17.1282L8.95094 17.1253L8.82557 16.9961ZM8.57512 17.3669L8.74043 17.4381L8.74073 17.4374L8.57512 17.3669ZM8.7486 18.4492L8.87442 18.3204L8.8736 18.3196L8.7486 18.4492ZM10.2479 18.3757L10.1227 18.2463L10.1217 18.2473L10.2479 18.3757ZM11.0613 19.1696L10.936 19.0403L10.9356 19.0407L11.0613 19.1696ZM10.1238 21.372L9.99667 21.4994L9.99678 21.4996L10.1238 21.372ZM9.57003 19.8198L9.74941 19.8348L9.76586 19.6376L9.56798 19.6399L9.57003 19.8198ZM7.94439 19.2553L7.82483 19.3899L7.82496 19.39L7.94439 19.2553ZM7.32745 17.6475L7.50737 17.6531L7.51322 17.4655L7.32557 17.4675L7.32745 17.6475ZM5.09176 15.474L5.27148 15.4841L5.28228 15.2918L5.08967 15.294L5.09176 15.474ZM3.48795 14.9507L3.60273 14.812L3.60257 14.8119L3.48795 14.9507ZM3.01462 12.6102L3.18179 12.6769L3.18185 12.6768L3.01462 12.6102ZM3.52012 11.8552L3.39492 11.7259L3.39463 11.7262L3.52012 11.8552ZM12.2676 9.13395L12.3958 9.00758L12.3928 9.00469L12.2676 9.13395ZM13.112 9.47244V9.29244L13.1112 9.29244L13.112 9.47244ZM14.0472 8.57276L14.2272 8.57328V8.57276H14.0472ZM13.9483 8.10511L13.7857 8.18228L13.7859 8.18261L13.9483 8.10511ZM13.6979 7.75548L13.5726 7.88476L13.5751 7.88713L13.6979 7.75548ZM9.74581 3.92518L9.61967 4.05359L9.62054 4.05443L9.74581 3.92518ZM6.86561 3.30943L6.7927 3.14486L6.79254 3.14493L6.86561 3.30943ZM5.99132 3.92518L5.86605 3.79592L5.86593 3.79604L5.99132 3.92518ZM2.49419 7.32123L2.61906 7.45088L2.61959 7.45037L2.49419 7.32123ZM1.89678 8.17303L2.0603 8.24827L2.06036 8.24813L1.89678 8.17303ZM1.65552 9.19408L1.83543 9.19955L1.83545 9.19879L1.65552 9.19408ZM1.72215 9.91894L1.54654 9.95843L1.72215 9.91894ZM0.500909 9.19519L0.68087 9.19893L0.680879 9.19846L0.500909 9.19519ZM1.6739 6.50507L1.54863 6.37581L1.54849 6.37594L1.6739 6.50507ZM5.14921 3.13684L5.02456 3.00699L5.02394 3.00759L5.14921 3.13684ZM6.421 2.27948L6.35179 2.11332L6.35155 2.11342L6.421 2.27948ZM9.31039 2.28059L9.23981 2.44618L9.24015 2.44632L9.31039 2.28059ZM10.5649 3.13684L10.6903 3.00766L10.6902 3.00759L10.5649 3.13684ZM11.5645 4.10667L11.4391 4.23585L11.5643 4.35734L11.6897 4.236L11.5645 4.10667ZM12.5663 3.13684L12.4416 3.00699L12.4411 3.00752L12.5663 3.13684ZM13.8266 2.27948L13.7563 2.11375L13.7561 2.11385L13.8266 2.27948ZM16.7171 2.28059L16.6477 2.44666L16.6478 2.44671L16.7171 2.28059ZM17.9809 3.13684L17.8555 3.26598L17.8556 3.26612L17.9809 3.13684ZM22.2615 7.28449L22.3868 7.15523L22.3868 7.15522L22.2615 7.28449ZM23.5 10.0503L23.32 10.0501V10.0503H23.5ZM22.2615 12.6614L22.3867 12.7907L22.3869 12.7905L22.2615 12.6614ZM13.3038 21.3353L13.1786 21.2059L13.1784 21.2062L13.3038 21.3353ZM12.5249 21.8408L12.4617 21.6722L12.4616 21.6723L12.5249 21.8408ZM8.60526 6.93269L8.48006 6.80336L8.60526 6.93269ZM9.99674 6.9331L10.122 6.80384L9.99674 6.9331ZM14.5478 15.7905L14.4225 15.6612L14.5478 15.7905ZM1.78408 10.1434L1.61309 10.1997L1.78408 10.1434ZM9.79915 11.7008L9.92454 11.8299L9.79915 11.7008ZM9.01043 10.8878L8.88516 10.7585L9.01043 10.8878ZM11.6472 20.8854V21.0654C11.8239 21.0654 12.0013 21.0269 12.1779 20.9537L12.109 20.7874L12.0402 20.6211C11.9012 20.6786 11.7706 20.7054 11.6472 20.7054V20.8854ZM12.109 20.7874L12.1779 20.9537C12.3514 20.8819 12.4997 20.7909 12.6169 20.6773L12.4916 20.548L12.3663 20.4188C12.289 20.4937 12.1822 20.5623 12.0402 20.6211L12.109 20.7874ZM12.4916 20.548L12.6169 20.6773L21.5734 11.9956L21.4481 11.8664L21.3228 11.7371L12.3663 20.4188L12.4916 20.548ZM21.4481 11.8664L21.5734 11.9956C21.8727 11.7056 22.1079 11.4054 22.2753 11.0943L22.1168 11.009L21.9583 10.9237C21.8116 11.1961 21.6011 11.4675 21.3229 11.7371L21.4481 11.8664ZM22.1168 11.009L22.2756 11.0937C22.4465 10.773 22.5311 10.4223 22.5311 10.0448H22.3511H22.1711C22.1711 10.3665 22.0995 10.6586 21.9579 10.9244L22.1168 11.009ZM22.3511 10.0448H22.5311C22.5311 9.66322 22.4467 9.29353 22.2797 8.93729L22.1168 9.01369L21.9538 9.0901C22.0993 9.40045 22.1711 9.71814 22.1711 10.0448H22.3511ZM22.1168 9.01369L22.2797 8.93712C22.1124 8.58132 21.8758 8.25904 21.5722 7.97023L21.4481 8.10066L21.3241 8.23108C21.5979 8.49158 21.8071 8.77799 21.9539 9.09026L22.1168 9.01369ZM21.4481 8.10066L21.5734 7.9714L17.2652 3.79592L17.1399 3.92518L17.0146 4.05443L21.3229 8.22991L21.4481 8.10066ZM17.1399 3.92518L17.2662 3.79693C16.9696 3.50485 16.6595 3.28554 16.3351 3.14438L16.2633 3.30943L16.1915 3.47448C16.4676 3.59462 16.7419 3.7858 17.0136 4.05342L17.1399 3.92518ZM16.2633 3.30943L16.3353 3.14445C16.0106 3.00279 15.6533 2.93346 15.2661 2.93346V3.11346V3.29346C15.6096 3.29346 15.9171 3.35478 16.1913 3.47441L16.2633 3.30943ZM15.2661 3.11346V2.93346C14.8831 2.93346 14.524 3.00293 14.1908 3.14361L14.2608 3.30943L14.3309 3.47526C14.6165 3.35464 14.9276 3.29346 15.2661 3.29346V3.11346ZM14.2608 3.30943L14.1908 3.14361C13.8561 3.28492 13.5454 3.5047 13.258 3.7981L13.3866 3.92406L13.5151 4.05003C13.7746 3.78521 14.0467 3.59524 14.3309 3.47526L14.2608 3.30943ZM13.3866 3.92406L13.2613 3.79481L12.2595 4.76574L12.3847 4.895L12.51 5.02426L13.5118 4.05332L13.3866 3.92406ZM12.3847 4.895L12.2593 5.02409L14.3847 7.08956L14.5101 6.96047L14.6356 6.83139L12.5102 4.76591L12.3847 4.895ZM14.5101 6.96047L14.386 7.09078C14.5968 7.29167 14.7522 7.51786 14.8546 7.76984L15.0214 7.70204L15.1881 7.63423C15.0654 7.33245 14.88 7.06426 14.6343 6.83016L14.5101 6.96047ZM15.0214 7.70204L14.8545 7.76944C14.9581 8.02594 15.0091 8.28407 15.0091 8.54493H15.1891H15.3691C15.3691 8.23569 15.3083 7.9319 15.1883 7.63463L15.0214 7.70204ZM15.1891 8.54493H15.0091C15.0091 9.07941 14.8308 9.51118 14.4768 9.85426L14.6021 9.98352L14.7273 10.1128C15.1561 9.69722 15.3691 9.16993 15.3691 8.54493H15.1891ZM14.6021 9.98352L14.4768 9.85426C14.1224 10.1977 13.6746 10.3721 13.1191 10.3714L13.1189 10.5514L13.1186 10.7314C13.758 10.7322 14.2989 10.528 14.7273 10.1128L14.6021 9.98352ZM13.1189 10.5514V10.3714C12.842 10.3714 12.5723 10.3307 12.3093 10.2492L12.2561 10.4211L12.2028 10.593C12.5005 10.6853 12.806 10.7314 13.1189 10.7314V10.5514ZM12.2561 10.4211L12.3093 10.2492C12.0578 10.1712 11.8297 10.0345 11.6242 9.83534L11.499 9.96459L11.3737 10.0938C11.6171 10.3297 11.8937 10.4973 12.2028 10.593L12.2561 10.4211ZM11.499 9.96459L11.624 9.83511L9.42623 7.71285L9.3012 7.84233L9.17616 7.97182L11.3739 10.0941L11.499 9.96459ZM9.3012 7.84233L9.17594 7.71306L4.21515 12.5199L4.34041 12.6491L4.46567 12.7784L9.42646 7.9716L9.3012 7.84233ZM4.34041 12.6491L4.21471 12.5203C4.08212 12.6497 3.98082 12.7983 3.91286 12.9655L4.07962 13.0333L4.24638 13.101C4.29483 12.9818 4.36739 12.8743 4.46611 12.778L4.34041 12.6491ZM4.07962 13.0333L3.91286 12.9655C3.84641 13.1291 3.8123 13.2968 3.8123 13.4675H3.9923H4.1723C4.1723 13.3458 4.1964 13.224 4.24638 13.101L4.07962 13.0333ZM3.9923 13.4675H3.8123C3.8123 13.7744 3.91578 14.0386 4.12726 14.2454L4.25309 14.1167L4.37893 13.988C4.24269 13.8548 4.1723 13.6862 4.1723 13.4675H3.9923ZM4.25309 14.1167L4.12669 14.2448C4.33748 14.4528 4.60694 14.5528 4.91944 14.5528V14.3728V14.1928C4.68966 14.1928 4.5149 14.1221 4.3795 13.9885L4.25309 14.1167ZM4.91944 14.3728V14.5528C5.09621 14.5528 5.27351 14.5142 5.45013 14.4411L5.38128 14.2748L5.31242 14.1085C5.17349 14.166 5.0429 14.1928 4.91944 14.1928V14.3728ZM5.38128 14.2748L5.4508 14.4408C5.62407 14.3683 5.77211 14.277 5.88912 14.1635L5.76385 14.0343L5.63858 13.905C5.56105 13.9802 5.45404 14.0492 5.31176 14.1088L5.38128 14.2748ZM5.76385 14.0343L5.88912 14.1635L9.1357 11.017L9.01043 10.8878L8.88516 10.7585L5.63858 13.905L5.76385 14.0343ZM9.79915 11.7008L9.67375 11.5716L6.4576 14.6946L6.58299 14.8237L6.70838 14.9529L9.92454 11.8299L9.79915 11.7008ZM6.58299 14.8237L6.45814 14.6941C6.32441 14.8228 6.22241 14.9714 6.15429 15.139L6.32105 15.2068L6.48781 15.2745C6.53611 15.1557 6.60873 15.0488 6.70784 14.9534L6.58299 14.8237ZM6.32105 15.2068L6.15386 15.1401C6.08851 15.3039 6.05488 15.4712 6.05488 15.641H6.23488H6.41488C6.41488 15.5198 6.4387 15.3977 6.48824 15.2735L6.32105 15.2068ZM6.23488 15.641H6.05488C6.05488 15.9391 6.16549 16.1974 6.38074 16.4061L6.50602 16.2768L6.63129 16.1475C6.48503 16.0058 6.41488 15.8403 6.41488 15.641H6.23488ZM6.50602 16.2768L6.38074 16.4061C6.59566 16.6144 6.85934 16.7198 7.1615 16.7207L7.16202 16.5407L7.16254 16.3607C6.95154 16.3601 6.77788 16.2896 6.63129 16.1475L6.50602 16.2768ZM7.16202 16.5407V16.7207C7.33911 16.7207 7.51664 16.6816 7.69338 16.6076L7.62386 16.4416L7.55434 16.2756C7.41553 16.3337 7.28516 16.3607 7.16202 16.3607V16.5407ZM7.62386 16.4416L7.69338 16.6076C7.8664 16.5352 8.01426 16.4444 8.13119 16.332L8.00643 16.2022L7.88167 16.0725C7.80406 16.1471 7.69687 16.2159 7.55434 16.2756L7.62386 16.4416ZM8.00643 16.2022L8.13159 16.3316L11.644 12.9334L11.5188 12.804L11.3937 12.6747L7.88127 16.0728L8.00643 16.2022ZM12.3068 13.6172L12.1814 13.488L8.7002 16.8669L8.82557 16.9961L8.95094 17.1253L12.4322 13.7463L12.3068 13.6172ZM8.82557 16.9961L8.70331 16.864C8.5795 16.9786 8.48262 17.1246 8.4095 17.2964L8.57512 17.3669L8.74073 17.4374C8.79782 17.3033 8.86791 17.2022 8.94783 17.1282L8.82557 16.9961ZM8.57512 17.3669L8.4098 17.2957C8.33564 17.4679 8.29632 17.6412 8.29632 17.8145H8.47632H8.65632C8.65632 17.6968 8.68286 17.5717 8.74043 17.4381L8.57512 17.3669ZM8.47632 17.8145H8.29632C8.29632 18.1122 8.40762 18.3703 8.6236 18.5787L8.7486 18.4492L8.8736 18.3196C8.72653 18.1777 8.65632 18.0126 8.65632 17.8145H8.47632ZM8.7486 18.4492L8.62278 18.5779C8.83773 18.788 9.10179 18.8942 9.4046 18.8942V18.7142V18.5342C9.19425 18.5342 9.02097 18.4637 8.87441 18.3204L8.7486 18.4492ZM9.4046 18.7142V18.8942C9.57781 18.8942 9.74876 18.8615 9.91655 18.7978L9.85265 18.6295L9.78876 18.4613C9.65937 18.5104 9.53162 18.5342 9.4046 18.5342V18.7142ZM9.85265 18.6295L9.91655 18.7978C10.0887 18.7325 10.2416 18.6341 10.374 18.5041L10.2479 18.3757L10.1217 18.2473C10.0244 18.3429 9.91376 18.4138 9.78876 18.4613L9.85265 18.6295ZM10.2479 18.3757L10.373 18.505L13.8851 15.1062L13.7599 14.9769L13.6347 14.8475L10.1227 18.2463L10.2479 18.3757ZM14.5478 15.7905L14.4225 15.6612L10.936 19.0403L11.0613 19.1696L11.1865 19.2988L14.6731 15.9197L14.5478 15.7905ZM11.0613 19.1696L10.9356 19.0407C10.7999 19.1731 10.6986 19.3316 10.6315 19.5138L10.8005 19.576L10.9694 19.6382C11.0187 19.5041 11.0913 19.3917 11.187 19.2984L11.0613 19.1696ZM10.8005 19.576L10.6315 19.5138C10.568 19.6863 10.5332 19.8521 10.5332 20.0091H10.7132H10.8932C10.8932 19.9049 10.9165 19.7819 10.9694 19.6382L10.8005 19.576ZM10.7132 20.0091H10.5332C10.5332 20.3217 10.6495 20.5851 10.8831 20.7824L10.9992 20.6449L11.1154 20.5074C10.9675 20.3825 10.8932 20.2221 10.8932 20.0091H10.7132ZM10.9992 20.6449L10.8831 20.7824C11.105 20.9699 11.3618 21.0665 11.6472 21.0665V20.8865V20.7065C11.45 20.7065 11.2748 20.6421 11.1154 20.5074L10.9992 20.6449ZM11.6403 22V21.82C11.0976 21.82 10.6377 21.6297 10.2508 21.2444L10.1238 21.372L9.99678 21.4996C10.4508 21.9516 11.0019 22.18 11.6403 22.18V22ZM10.1238 21.372L10.2509 21.2446C9.86964 20.8643 9.7023 20.3997 9.74941 19.8348L9.57003 19.8198L9.39066 19.8049C9.33513 20.4707 9.53696 21.0409 9.99667 21.4994L10.1238 21.372ZM9.57003 19.8198L9.56798 19.6399C8.95564 19.6468 8.45884 19.471 8.06382 19.1206L7.94439 19.2553L7.82496 19.39C8.29542 19.8072 8.88239 20.0077 9.57209 19.9998L9.57003 19.8198ZM7.94439 19.2553L8.06395 19.1208C7.67874 18.7785 7.48724 18.2982 7.50737 17.6531L7.32745 17.6475L7.14754 17.6419C7.12478 18.3715 7.34457 18.9631 7.82483 19.3899L7.94439 19.2553ZM7.32745 17.6475L7.32557 17.4675C6.65203 17.4745 6.14324 17.2886 5.7761 16.9288L5.65011 17.0573L5.52412 17.1859C5.97498 17.6278 6.58441 17.8353 7.32934 17.8275L7.32745 17.6475ZM5.65011 17.0573L5.7761 16.9288C5.40974 16.5697 5.23716 16.0953 5.27148 15.4841L5.09176 15.474L4.91205 15.4639C4.87284 16.1621 5.0725 16.7433 5.52412 17.1859L5.65011 17.0573ZM5.09176 15.474L5.08967 15.294C4.48705 15.301 3.99567 15.1373 3.60273 14.812L3.48795 14.9507L3.37317 15.0893C3.84111 15.4767 4.41894 15.6618 5.09386 15.654L5.09176 15.474ZM3.48795 14.9507L3.60257 14.8119C3.2203 14.4962 3.02344 14.0561 3.02344 13.4675H2.84344H2.66344C2.66344 14.1469 2.89625 14.6955 3.37334 15.0895L3.48795 14.9507ZM2.84344 13.4675H3.02344C3.02344 13.2063 3.07549 12.9431 3.18179 12.6769L3.01462 12.6102L2.84746 12.5434C2.72551 12.8488 2.66344 13.1572 2.66344 13.4675H2.84344ZM3.01462 12.6102L3.18185 12.6768C3.28652 12.414 3.44073 12.1835 3.64561 11.9843L3.52012 11.8552L3.39463 11.7262C3.15375 11.9605 2.97096 12.2333 2.8474 12.5436L3.01462 12.6102ZM3.52012 11.8552L3.64532 11.9846L8.73045 7.06202L8.60526 6.93269L8.48006 6.80336L3.39493 11.7259L3.52012 11.8552ZM9.99674 6.9331L9.87147 7.06235L12.1423 9.2632L12.2676 9.13395L12.3928 9.00469L10.122 6.80384L9.99674 6.9331ZM12.2676 9.13395L12.1393 9.26028C12.2543 9.37698 12.3939 9.47041 12.555 9.54221L12.6283 9.3778L12.7016 9.21339C12.5762 9.15751 12.4753 9.08837 12.3958 9.00762L12.2676 9.13395ZM12.6283 9.3778L12.555 9.54221C12.7247 9.61781 12.9116 9.65327 13.1127 9.65244L13.112 9.47244L13.1112 9.29244C12.9539 9.29309 12.8184 9.26546 12.7016 9.21339L12.6283 9.3778ZM13.112 9.47244V9.65244C13.4028 9.65244 13.662 9.55258 13.8825 9.35799L13.7634 9.22303L13.6443 9.08807C13.488 9.22602 13.3129 9.29244 13.112 9.29244V9.47244ZM13.7634 9.22303L13.8825 9.35799C14.1122 9.15529 14.2262 8.88828 14.2272 8.57328L14.0472 8.57276L13.8672 8.57225C13.8665 8.79171 13.7914 8.95821 13.6443 9.08807L13.7634 9.22303ZM14.0472 8.57276H14.2272C14.2272 8.37589 14.1897 8.19297 14.1108 8.02761L13.9483 8.10511L13.7859 8.18261C13.8387 8.29339 13.8672 8.42224 13.8672 8.57276H14.0472ZM13.9483 8.10511L14.111 8.02794C14.0365 7.8709 13.9401 7.73523 13.8207 7.62384L13.6979 7.75548L13.5751 7.88713C13.6579 7.96428 13.7285 8.06169 13.7857 8.18228L13.9483 8.10511ZM13.6979 7.75548L13.8232 7.62623L9.87108 3.79592L9.74581 3.92518L9.62054 4.05443L13.5726 7.88474L13.6979 7.75548ZM9.74581 3.92518L9.87194 3.79676C9.57404 3.50416 9.25969 3.2848 8.9282 3.14379L8.85774 3.30943L8.78728 3.47507C9.07005 3.59535 9.34774 3.78649 9.61968 4.05359L9.74581 3.92518ZM8.85774 3.30943L8.9282 3.14379C8.59676 3.00281 8.23628 2.93346 7.84904 2.93346V3.11346V3.29346C8.19247 3.29346 8.50446 3.35476 8.78728 3.47507L8.85774 3.30943ZM7.84904 3.11346V2.93346C7.46616 2.93346 7.11311 3.0029 6.7927 3.14486L6.86561 3.30943L6.93852 3.474C7.20786 3.35467 7.51042 3.29346 7.84904 3.29346V3.11346ZM6.86561 3.30943L6.79254 3.14493C6.47495 3.28601 6.16635 3.50487 5.86605 3.79592L5.99132 3.92518L6.1166 4.05443C6.39379 3.78578 6.66806 3.59415 6.93868 3.47393L6.86561 3.30943ZM5.99132 3.92518L5.86593 3.79604L2.36879 7.1921L2.49419 7.32123L2.61959 7.45037L6.11672 4.05431L5.99132 3.92518ZM2.49419 7.32123L2.36932 7.19159C2.10552 7.44567 1.89364 7.74843 1.73319 8.09793L1.89678 8.17303L2.06036 8.24813C2.20321 7.93697 2.38961 7.67187 2.61906 7.45088L2.49419 7.32123ZM1.89678 8.17303L1.73326 8.09779C1.57176 8.44878 1.48543 8.81307 1.47558 9.18937L1.65552 9.19408L1.83545 9.19879C1.84399 8.87286 1.9185 8.55645 2.0603 8.24827L1.89678 8.17303ZM1.65552 9.19408L1.4756 9.1886C1.46751 9.45444 1.49094 9.71122 1.54654 9.95843L1.72215 9.91894L1.89776 9.87945C1.84919 9.66346 1.82821 9.437 1.83543 9.19955L1.65552 9.19408ZM1.72215 9.91894L1.54654 9.95843C1.56494 10.0403 1.58712 10.1207 1.61309 10.1997L1.78408 10.1434L1.95507 10.0872C1.93277 10.0194 1.91366 9.95014 1.89776 9.87945L1.72215 9.91894ZM0.77257 10.7562L0.940827 10.6922C0.897897 10.5793 0.859189 10.4613 0.824761 10.3381L0.65141 10.3866L0.478059 10.4351C0.515266 10.5681 0.557332 10.6965 0.604314 10.8201L0.77257 10.7562ZM0.65141 10.3866L0.824761 10.3381C0.720769 9.9662 0.67281 9.58666 0.68087 9.19893L0.500909 9.19519L0.320947 9.19145C0.312157 9.61432 0.364532 10.029 0.478059 10.4351L0.65141 10.3866ZM0.500909 9.19519L0.680879 9.19846C0.689646 8.71554 0.789229 8.25435 0.979773 7.81354L0.814548 7.74212L0.649324 7.6707C0.440063 8.15481 0.330553 8.66233 0.320938 9.19192L0.500909 9.19519ZM0.814548 7.74212L0.979773 7.81354C1.17001 7.37344 1.44268 6.98054 1.7993 6.63419L1.6739 6.50507L1.54849 6.37594C1.15912 6.75409 0.85889 7.18589 0.649324 7.6707L0.814548 7.74212ZM1.6739 6.50507L1.79917 6.63432L5.27448 3.2661L5.14921 3.13684L5.02394 3.00759L1.54863 6.37581L1.6739 6.50507ZM5.14921 3.13684L5.27386 3.2667C5.66072 2.89535 6.06638 2.62289 6.49045 2.44554L6.421 2.27948L6.35155 2.11342C5.88104 2.31019 5.43884 2.60931 5.02456 3.00699L5.14921 3.13684ZM6.421 2.27948L6.49021 2.44564C6.914 2.26911 7.37396 2.18 7.87201 2.18V2V1.82C7.32996 1.82 6.82258 1.91721 6.35179 2.11332L6.421 2.27948ZM7.87201 2V2.18C8.37001 2.18 8.8252 2.26946 9.23981 2.44618L9.31039 2.28059L9.38097 2.11501C8.91785 1.91761 8.41412 1.82 7.87201 1.82V2ZM9.31039 2.28059L9.24015 2.44632C9.6564 2.62273 10.0564 2.89464 10.4397 3.2661L10.5649 3.13684L10.6902 3.00759C10.28 2.61002 9.84364 2.31109 9.38063 2.11486L9.31039 2.28059ZM10.5649 3.13684L10.4396 3.26603L11.4391 4.23585L11.5645 4.10667L11.6898 3.97749L10.6903 3.00766L10.5649 3.13684ZM11.5645 4.10667L11.6897 4.236L12.6915 3.26617L12.5663 3.13684L12.4411 3.00752L11.4393 3.97734L11.5645 4.10667ZM12.5663 3.13684L12.6909 3.2667C13.0783 2.89488 13.4805 2.62236 13.897 2.44511L13.8266 2.27948L13.7561 2.11385C13.2934 2.31072 12.8554 2.60977 12.4416 3.00699L12.5663 3.13684ZM13.8266 2.27948L13.8968 2.44521C14.3123 2.26912 14.768 2.18 15.2661 2.18V2V1.82C14.7241 1.82 14.2201 1.9172 13.7563 2.11375L13.8266 2.27948ZM15.2661 2V2.18C15.7641 2.18 16.2239 2.26945 16.6477 2.44666L16.7171 2.28059L16.7866 2.11453C16.3157 1.91762 15.8082 1.82 15.2661 1.82V2ZM16.7171 2.28059L16.6478 2.44671C17.0707 2.62319 17.4734 2.89501 17.8555 3.26598L17.9809 3.13684L18.1063 3.00771C17.6963 2.60965 17.2565 2.31063 16.7864 2.11447L16.7171 2.28059ZM17.9809 3.13684L17.8556 3.26612L22.1363 7.41376L22.2615 7.28449L22.3868 7.15522L18.1061 3.00757L17.9809 3.13684ZM22.2615 7.28449L22.1363 7.41374C22.5167 7.78252 22.8088 8.19487 23.0142 8.65111L23.1783 8.57722L23.3424 8.50332C23.1174 8.00347 22.7982 7.55401 22.3868 7.15523L22.2615 7.28449ZM23.1783 8.57722L23.0142 8.65111C23.2193 9.1068 23.3207 9.57263 23.32 10.0501L23.5 10.0503L23.68 10.0506C23.6808 9.51998 23.5677 9.00373 23.3424 8.50332L23.1783 8.57722ZM23.5 10.0503H23.32C23.32 10.5287 23.2186 10.9657 23.0176 11.3645L23.1783 11.4455L23.339 11.5265C23.5669 11.0746 23.68 10.5815 23.68 10.0503H23.5ZM23.1783 11.4455L23.0176 11.3645C22.8135 11.7693 22.5208 12.1588 22.1361 12.5323L22.2615 12.6614L22.3869 12.7905C22.7958 12.3935 23.1143 11.9724 23.339 11.5265L23.1783 11.4455ZM22.2615 12.6614L22.1363 12.5321L13.1786 21.206L13.3038 21.3353L13.4291 21.4646L22.3867 12.7907L22.2615 12.6614ZM13.3038 21.3353L13.1784 21.2062C12.9561 21.4223 12.7172 21.5764 12.4617 21.6722L12.5249 21.8408L12.5881 22.0093C12.8948 21.8943 13.1752 21.7114 13.4293 21.4643L13.3038 21.3353ZM12.5249 21.8408L12.4616 21.6723C12.2022 21.7698 11.9288 21.8189 11.6403 21.8189V21.9989V22.1789C11.9706 22.1789 12.287 22.1225 12.5883 22.0093L12.5249 21.8408ZM8.60526 6.93269L8.73045 7.06202C9.04853 6.75411 9.55358 6.75426 9.87147 7.06235L9.99674 6.9331L10.122 6.80384C9.66456 6.36049 8.93778 6.36027 8.48006 6.80336L8.60526 6.93269ZM14.5478 14.9772L14.4225 15.1064C14.5791 15.2582 14.5791 15.5094 14.4225 15.6612L14.5478 15.7905L14.6731 15.9197C14.9756 15.6265 14.9756 15.1411 14.6731 14.8479L14.5478 14.9772ZM13.7599 14.9769L13.8851 15.1062C14.0349 14.9612 14.2728 14.9613 14.4225 15.1064L14.5478 14.9772L14.6731 14.8479C14.3838 14.5675 13.9242 14.5674 13.6347 14.8475L13.7599 14.9769ZM1.78408 10.1434L1.61309 10.1997C1.68488 10.418 1.64733 10.6405 1.51111 10.7725L1.63638 10.9017L1.76165 11.031C2.02403 10.7767 2.0567 10.3962 1.95507 10.0872L1.78408 10.1434ZM11.5188 12.804L11.644 12.9334C11.7937 12.7885 12.0313 12.7886 12.181 12.9334L12.3062 12.8041L12.4314 12.6748C12.1421 12.3948 11.683 12.3948 11.3937 12.6747L11.5188 12.804ZM9.79876 10.8878L9.67349 11.017C9.83002 11.1687 9.83013 11.4198 9.67375 11.5716L9.79915 11.7008L9.92454 11.8299C10.2266 11.5366 10.2264 11.0515 9.92403 10.7585L9.79876 10.8878ZM1.63638 10.9017L1.51111 10.7725C1.41313 10.8674 1.28738 10.9021 1.17925 10.8857C1.07429 10.8697 0.98428 10.8065 0.940827 10.6922L0.77257 10.7562L0.604314 10.8201C0.697203 11.0645 0.901315 11.2076 1.12528 11.2416C1.34607 11.2751 1.58406 11.2031 1.76165 11.031L1.63638 10.9017ZM12.3062 12.8041L12.181 12.9334C12.3377 13.085 12.3379 13.3362 12.1814 13.488L12.3068 13.6172L12.4322 13.7463C12.7344 13.453 12.7341 12.9677 12.4314 12.6748L12.3062 12.8041ZM9.01043 10.8878L9.1357 11.017C9.28555 10.8718 9.52364 10.8718 9.67349 11.017L9.79876 10.8878L9.92403 10.7585C9.63456 10.4779 9.17463 10.4779 8.88516 10.7585L9.01043 10.8878Z" fill="#B88D26" mask="url(#path-1-outside-1_2342_37253)"/>
</svg>
