<svg width="26" height="26" viewBox="0 0 26 26" fill="none" xmlns="http://www.w3.org/2000/svg">
<mask id="path-1-outside-1_5012_33165" maskUnits="userSpaceOnUse" x="1.16797" y="2.23047" width="23" height="21" fill="black">
<rect fill="white" x="1.16797" y="2.23047" width="23" height="21"/>
<path d="M12.6793 21.6049C12.8209 21.6049 12.966 21.5731 13.1148 21.5096C13.2636 21.446 13.3839 21.3684 13.4756 21.2766L21.9212 12.8299C22.1935 12.5576 22.4037 12.2796 22.5517 11.9957C22.6991 11.7104 22.7727 11.3977 22.7727 11.0576C22.7727 10.7131 22.6991 10.3787 22.5517 10.0544C22.4037 9.72939 22.1935 9.43327 21.9212 9.16605L17.8587 5.10355C17.5908 4.83127 17.3153 4.63158 17.0322 4.50447C16.7498 4.37736 16.4363 4.3138 16.0918 4.3138C15.7517 4.3138 15.4357 4.37736 15.1439 4.50447C14.8521 4.63158 14.5773 4.83091 14.3195 5.10247L13.3748 6.04714L15.379 8.05672C15.5942 8.26833 15.7549 8.50883 15.8611 8.77822C15.9665 9.04761 16.0192 9.32097 16.0192 9.5983C16.0192 10.1624 15.8347 10.6289 15.4657 10.998C15.0966 11.367 14.6304 11.5512 14.0671 11.5505C13.789 11.5505 13.5178 11.5082 13.2535 11.4237C12.9892 11.3392 12.7512 11.1912 12.5396 10.9796L10.4672 8.91472L5.78933 13.5915C5.68027 13.7012 5.5983 13.8258 5.54341 13.9652C5.48852 14.1046 5.46108 14.2454 5.46108 14.3877C5.46108 14.6434 5.54305 14.8539 5.70699 15.0193C5.87021 15.1854 6.07966 15.2685 6.33533 15.2685C6.47688 15.2685 6.62205 15.2367 6.77083 15.1731C6.9196 15.1089 7.03985 15.0309 7.13158 14.9391L10.5647 11.5061L11.3317 12.2731L7.90399 15.7072C7.79422 15.8163 7.71188 15.9405 7.65699 16.0799C7.60283 16.22 7.57574 16.3608 7.57574 16.5024C7.57574 16.7443 7.66096 16.9505 7.83141 17.121C8.00185 17.2914 8.20805 17.377 8.44999 17.3777C8.59155 17.3777 8.73671 17.3456 8.88549 17.2813C9.03427 17.217 9.15452 17.1394 9.24624 17.0484L12.9296 13.3716L13.6966 14.1375L10.0187 17.8208C9.9226 17.9125 9.84388 18.0328 9.78249 18.1816C9.72038 18.3303 9.68933 18.4755 9.68933 18.6171C9.68933 18.8583 9.77491 19.0641 9.94608 19.2346C10.1165 19.4064 10.3227 19.4924 10.5647 19.4924C10.7062 19.4924 10.847 19.4649 10.9872 19.4101C11.1273 19.3552 11.2515 19.2728 11.3598 19.1631L15.0432 15.4851L15.8102 16.2521L12.1268 19.9355C12.0178 20.0452 11.9358 20.1771 11.8809 20.3309C11.826 20.4847 11.7986 20.6252 11.7986 20.7523C11.7986 21.008 11.8885 21.2142 12.0683 21.3709C12.2482 21.5276 12.4518 21.606 12.6793 21.606M12.6728 22.6893C12.116 22.6893 11.6393 22.4856 11.2428 22.0783C10.8463 21.6702 10.6723 21.1669 10.7207 20.5681C10.1068 20.5754 9.5958 20.3923 9.18774 20.0189C8.77969 19.6448 8.58577 19.1233 8.60599 18.4546C7.93721 18.4618 7.40999 18.2704 7.02433 17.8804C6.63866 17.4904 6.46316 16.9769 6.49783 16.3399C5.89549 16.3471 5.39138 16.1774 4.98549 15.8307C4.58033 15.4855 4.37774 15.0045 4.37774 14.3877C4.37774 14.1097 4.43155 13.8316 4.53916 13.5536C4.64677 13.2748 4.80566 13.0299 5.01583 12.8191L10.4672 7.37422L13.2643 10.1714C13.356 10.2674 13.4694 10.3465 13.6045 10.4086C13.7395 10.4707 13.8916 10.5014 14.0606 10.5007C14.2924 10.5007 14.4972 10.4198 14.6748 10.2581C14.8525 10.0963 14.9417 9.88539 14.9424 9.62539C14.9424 9.45639 14.9114 9.30472 14.8492 9.17039C14.7871 9.03533 14.7084 8.92194 14.6131 8.83022L10.8864 5.10355C10.6177 4.83127 10.3386 4.63158 10.049 4.50447C9.75938 4.37736 9.44233 4.3138 9.09783 4.3138C8.75766 4.3138 8.44855 4.37736 8.17049 4.50447C7.89316 4.63158 7.61835 4.83127 7.34608 5.10355L4.04841 8.40772C3.81585 8.63883 3.62808 8.91508 3.48508 9.23647C3.34208 9.55714 3.26624 9.88828 3.25758 10.2299C3.25035 10.4747 3.2713 10.7098 3.32041 10.9351C3.36952 11.1605 3.44896 11.3728 3.55874 11.5721L2.73758 12.3933C2.55558 12.103 2.4133 11.7686 2.31074 11.3901C2.20819 11.0117 2.16088 10.6253 2.16883 10.231C2.17749 9.73841 2.27608 9.26716 2.46458 8.81722C2.65308 8.36727 2.92319 7.96608 3.27491 7.61364L6.55199 4.33655C6.92971 3.96244 7.32946 3.68439 7.75124 3.50239C8.17302 3.32111 8.6291 3.23047 9.11949 3.23047C9.60988 3.23047 10.062 3.32147 10.4758 3.50347C10.8904 3.68475 11.2847 3.96244 11.6588 4.33655L12.6013 5.28014L13.546 4.33655C13.9237 3.96244 14.3199 3.68439 14.7344 3.50239C15.149 3.32111 15.6014 3.23047 16.0918 3.23047C16.5822 3.23047 17.0383 3.32147 17.4601 3.50347C17.8811 3.68475 18.2784 3.96244 18.6517 4.33655L22.6882 8.37197C23.0616 8.74536 23.3498 9.16461 23.5527 9.62972C23.7557 10.0948 23.8568 10.5726 23.8561 11.063C23.8561 11.5541 23.755 12.0066 23.5527 12.4204C23.3505 12.8342 23.0624 13.2286 22.6882 13.6034L14.2415 22.0426C14.0169 22.2679 13.772 22.4318 13.507 22.5344C13.2427 22.6369 12.9646 22.6882 12.6728 22.6882"/>
</mask>
<path d="M12.6793 21.6049C12.8209 21.6049 12.966 21.5731 13.1148 21.5096C13.2636 21.446 13.3839 21.3684 13.4756 21.2766L21.9212 12.8299C22.1935 12.5576 22.4037 12.2796 22.5517 11.9957C22.6991 11.7104 22.7727 11.3977 22.7727 11.0576C22.7727 10.7131 22.6991 10.3787 22.5517 10.0544C22.4037 9.72939 22.1935 9.43327 21.9212 9.16605L17.8587 5.10355C17.5908 4.83127 17.3153 4.63158 17.0322 4.50447C16.7498 4.37736 16.4363 4.3138 16.0918 4.3138C15.7517 4.3138 15.4357 4.37736 15.1439 4.50447C14.8521 4.63158 14.5773 4.83091 14.3195 5.10247L13.3748 6.04714L15.379 8.05672C15.5942 8.26833 15.7549 8.50883 15.8611 8.77822C15.9665 9.04761 16.0192 9.32097 16.0192 9.5983C16.0192 10.1624 15.8347 10.6289 15.4657 10.998C15.0966 11.367 14.6304 11.5512 14.0671 11.5505C13.789 11.5505 13.5178 11.5082 13.2535 11.4237C12.9892 11.3392 12.7512 11.1912 12.5396 10.9796L10.4672 8.91472L5.78933 13.5915C5.68027 13.7012 5.5983 13.8258 5.54341 13.9652C5.48852 14.1046 5.46108 14.2454 5.46108 14.3877C5.46108 14.6434 5.54305 14.8539 5.70699 15.0193C5.87021 15.1854 6.07966 15.2685 6.33533 15.2685C6.47688 15.2685 6.62205 15.2367 6.77083 15.1731C6.9196 15.1089 7.03985 15.0309 7.13158 14.9391L10.5647 11.5061L11.3317 12.2731L7.90399 15.7072C7.79422 15.8163 7.71188 15.9405 7.65699 16.0799C7.60283 16.22 7.57574 16.3608 7.57574 16.5024C7.57574 16.7443 7.66096 16.9505 7.83141 17.121C8.00185 17.2914 8.20805 17.377 8.44999 17.3777C8.59155 17.3777 8.73671 17.3456 8.88549 17.2813C9.03427 17.217 9.15452 17.1394 9.24624 17.0484L12.9296 13.3716L13.6966 14.1375L10.0187 17.8208C9.9226 17.9125 9.84388 18.0328 9.78249 18.1816C9.72038 18.3303 9.68933 18.4755 9.68933 18.6171C9.68933 18.8583 9.77491 19.0641 9.94608 19.2346C10.1165 19.4064 10.3227 19.4924 10.5647 19.4924C10.7062 19.4924 10.847 19.4649 10.9872 19.4101C11.1273 19.3552 11.2515 19.2728 11.3598 19.1631L15.0432 15.4851L15.8102 16.2521L12.1268 19.9355C12.0178 20.0452 11.9358 20.1771 11.8809 20.3309C11.826 20.4847 11.7986 20.6252 11.7986 20.7523C11.7986 21.008 11.8885 21.2142 12.0683 21.3709C12.2482 21.5276 12.4518 21.606 12.6793 21.606M12.6728 22.6893C12.116 22.6893 11.6393 22.4856 11.2428 22.0783C10.8463 21.6702 10.6723 21.1669 10.7207 20.5681C10.1068 20.5754 9.5958 20.3923 9.18774 20.0189C8.77969 19.6448 8.58577 19.1233 8.60599 18.4546C7.93721 18.4618 7.40999 18.2704 7.02433 17.8804C6.63866 17.4904 6.46316 16.9769 6.49783 16.3399C5.89549 16.3471 5.39138 16.1774 4.98549 15.8307C4.58033 15.4855 4.37774 15.0045 4.37774 14.3877C4.37774 14.1097 4.43155 13.8316 4.53916 13.5536C4.64677 13.2748 4.80566 13.0299 5.01583 12.8191L10.4672 7.37422L13.2643 10.1714C13.356 10.2674 13.4694 10.3465 13.6045 10.4086C13.7395 10.4707 13.8916 10.5014 14.0606 10.5007C14.2924 10.5007 14.4972 10.4198 14.6748 10.2581C14.8525 10.0963 14.9417 9.88539 14.9424 9.62539C14.9424 9.45639 14.9114 9.30472 14.8492 9.17039C14.7871 9.03533 14.7084 8.92194 14.6131 8.83022L10.8864 5.10355C10.6177 4.83127 10.3386 4.63158 10.049 4.50447C9.75938 4.37736 9.44233 4.3138 9.09783 4.3138C8.75766 4.3138 8.44855 4.37736 8.17049 4.50447C7.89316 4.63158 7.61835 4.83127 7.34608 5.10355L4.04841 8.40772C3.81585 8.63883 3.62808 8.91508 3.48508 9.23647C3.34208 9.55714 3.26624 9.88828 3.25758 10.2299C3.25035 10.4747 3.2713 10.7098 3.32041 10.9351C3.36952 11.1605 3.44896 11.3728 3.55874 11.5721L2.73758 12.3933C2.55558 12.103 2.4133 11.7686 2.31074 11.3901C2.20819 11.0117 2.16088 10.6253 2.16883 10.231C2.17749 9.73841 2.27608 9.26716 2.46458 8.81722C2.65308 8.36727 2.92319 7.96608 3.27491 7.61364L6.55199 4.33655C6.92971 3.96244 7.32946 3.68439 7.75124 3.50239C8.17302 3.32111 8.6291 3.23047 9.11949 3.23047C9.60988 3.23047 10.062 3.32147 10.4758 3.50347C10.8904 3.68475 11.2847 3.96244 11.6588 4.33655L12.6013 5.28014L13.546 4.33655C13.9237 3.96244 14.3199 3.68439 14.7344 3.50239C15.149 3.32111 15.6014 3.23047 16.0918 3.23047C16.5822 3.23047 17.0383 3.32147 17.4601 3.50347C17.8811 3.68475 18.2784 3.96244 18.6517 4.33655L22.6882 8.37197C23.0616 8.74536 23.3498 9.16461 23.5527 9.62972C23.7557 10.0948 23.8568 10.5726 23.8561 11.063C23.8561 11.5541 23.755 12.0066 23.5527 12.4204C23.3505 12.8342 23.0624 13.2286 22.6882 13.6034L14.2415 22.0426C14.0169 22.2679 13.772 22.4318 13.507 22.5344C13.2427 22.6369 12.9646 22.6882 12.6728 22.6882" fill="black"/>
<path d="M13.4756 21.2766L13.617 21.4181L13.617 21.418L13.4756 21.2766ZM21.9212 12.8299L21.7798 12.6885L21.7798 12.6885L21.9212 12.8299ZM22.5517 11.9957L22.7291 12.0882L22.7294 12.0875L22.5517 11.9957ZM22.5517 10.0544L22.7338 9.97166L22.7337 9.97147L22.5517 10.0544ZM21.9212 9.16605L21.7798 9.30748L21.7812 9.30879L21.9212 9.16605ZM17.8587 5.10355L17.7162 5.24384L17.7173 5.24497L17.8587 5.10355ZM17.0322 4.50447L16.9501 4.68684L16.9502 4.68692L17.0322 4.50447ZM14.3195 5.10247L14.461 5.24394L14.4645 5.24018L14.3195 5.10247ZM13.3748 6.04714L13.2334 5.90571L13.0922 6.04694L13.2332 6.18837L13.3748 6.04714ZM15.379 8.05672L15.2374 8.19796L15.2388 8.19933L15.379 8.05672ZM15.8611 8.77822L16.0473 8.70532L16.0471 8.70489L15.8611 8.77822ZM14.0671 11.5505L14.0673 11.3505H14.0671V11.5505ZM12.5396 10.9796L12.681 10.8381L12.6807 10.8379L12.5396 10.9796ZM10.4672 8.91472L10.6083 8.77304L10.4669 8.63215L10.3258 8.77328L10.4672 8.91472ZM5.78933 13.5915L5.64792 13.45L5.64744 13.4505L5.78933 13.5915ZM5.46108 14.3877H5.66108H5.46108ZM5.70699 15.0193L5.84965 14.8791L5.84903 14.8785L5.70699 15.0193ZM6.77083 15.1731L6.84939 15.3571L6.85015 15.3567L6.77083 15.1731ZM7.13158 14.9391L6.99015 14.7977V14.7977L7.13158 14.9391ZM10.5647 11.5061L10.7061 11.3646L10.5647 11.2232L10.4232 11.3646L10.5647 11.5061ZM11.3317 12.2731L11.4732 12.4143L11.6144 12.2729L11.4731 12.1316L11.3317 12.2731ZM7.90399 15.7072L8.04495 15.8491L8.04555 15.8485L7.90399 15.7072ZM7.65699 16.0799L7.4709 16.0066L7.47045 16.0078L7.65699 16.0799ZM8.44999 17.3777L8.4494 17.5777H8.44999V17.3777ZM9.24624 17.0484L9.3871 17.1904L9.38754 17.1899L9.24624 17.0484ZM12.9296 13.3716L13.0709 13.23L12.9296 13.0889L12.7883 13.23L12.9296 13.3716ZM13.6966 14.1375L13.8381 14.2788L13.9794 14.1373L13.8379 13.9959L13.6966 14.1375ZM10.0187 17.8208L10.1568 17.9655L10.1602 17.9621L10.0187 17.8208ZM9.78249 18.1816L9.96706 18.2586L9.96737 18.2578L9.78249 18.1816ZM9.94608 19.2346L10.0881 19.0937L10.0872 19.0928L9.94608 19.2346ZM11.3598 19.1631L11.2185 19.0215L11.2175 19.0226L11.3598 19.1631ZM15.0432 15.4851L15.1846 15.3437L15.0433 15.2024L14.9018 15.3436L15.0432 15.4851ZM15.8102 16.2521L15.9516 16.3936L16.093 16.2521L15.9516 16.1107L15.8102 16.2521ZM12.1268 19.9355L11.9854 19.794L11.9849 19.7945L12.1268 19.9355ZM11.2428 22.0783L11.0994 22.2177L11.0995 22.2178L11.2428 22.0783ZM10.7207 20.5681L10.92 20.5842L10.9377 20.3656L10.7183 20.3682L10.7207 20.5681ZM9.18774 20.0189L9.05259 20.1663L9.05273 20.1664L9.18774 20.0189ZM8.60599 18.4546L8.8059 18.4606L8.8122 18.2523L8.60383 18.2546L8.60599 18.4546ZM6.49783 16.3399L6.69753 16.3508L6.70914 16.1373L6.49543 16.1399L6.49783 16.3399ZM4.98549 15.8307L5.11538 15.6786L5.1152 15.6785L4.98549 15.8307ZM4.53916 13.5536L4.72568 13.6257L4.72574 13.6256L4.53916 13.5536ZM5.01583 12.8191L4.87449 12.6775L4.87416 12.6779L5.01583 12.8191ZM10.4672 7.37422L10.6086 7.2328L10.4672 7.09146L10.3258 7.23271L10.4672 7.37422ZM13.2643 10.1714L13.409 10.0332L13.4057 10.03L13.2643 10.1714ZM14.0606 10.5007V10.3007L14.0597 10.3007L14.0606 10.5007ZM14.9424 9.62539L15.1424 9.62594V9.62539H14.9424ZM14.8492 9.17039L14.6675 9.25395L14.6677 9.25432L14.8492 9.17039ZM14.6131 8.83022L14.4716 8.97167L14.4744 8.97434L14.6131 8.83022ZM10.8864 5.10355L10.744 5.24403L10.745 5.24497L10.8864 5.10355ZM8.17049 4.50447L8.08734 4.32257L8.08716 4.32266L8.17049 4.50447ZM7.34608 5.10355L7.20465 4.96213L7.20451 4.96227L7.34608 5.10355ZM4.04841 8.40772L4.18939 8.54958L4.18997 8.549L4.04841 8.40772ZM3.48508 9.23647L3.66774 9.31793L3.6678 9.31777L3.48508 9.23647ZM3.25758 10.2299L3.45749 10.2358L3.45751 10.235L3.25758 10.2299ZM3.55874 11.5721L3.70016 11.7136L3.80643 11.6073L3.73393 11.4757L3.55874 11.5721ZM2.73758 12.3933L2.56812 12.4995L2.70147 12.7123L2.879 12.5347L2.73758 12.3933ZM2.16883 10.231L2.36879 10.235L2.36879 10.2345L2.16883 10.231ZM3.27491 7.61364L3.13349 7.47221L3.13334 7.47236L3.27491 7.61364ZM6.55199 4.33655L6.41125 4.19445L6.41057 4.19513L6.55199 4.33655ZM7.75124 3.50239L7.67227 3.31864L7.672 3.31875L7.75124 3.50239ZM10.4758 3.50347L10.3953 3.68655L10.3957 3.68671L10.4758 3.50347ZM11.6588 4.33655L11.8003 4.19521L11.8002 4.19513L11.6588 4.33655ZM12.6013 5.28014L12.4598 5.42148L12.6012 5.56298L12.7427 5.42164L12.6013 5.28014ZM13.546 4.33655L13.4053 4.19445L13.4047 4.19505L13.546 4.33655ZM14.7344 3.50239L14.6543 3.31914L14.654 3.31926L14.7344 3.50239ZM17.4601 3.50347L17.3808 3.6871L17.381 3.68717L17.4601 3.50347ZM18.6517 4.33655L18.5102 4.47784L18.5103 4.47799L18.6517 4.33655ZM22.6882 8.37197L22.8297 8.23055L22.8296 8.23053L22.6882 8.37197ZM23.8561 11.063L23.6561 11.0627V11.063H23.8561ZM22.6882 13.6034L22.8296 13.7449L22.8298 13.7447L22.6882 13.6034ZM14.2415 22.0426L14.1001 21.9011L14.0998 21.9014L14.2415 22.0426ZM13.507 22.5344L13.4348 22.3479L13.4347 22.3479L13.507 22.5344ZM12.6793 21.6049V21.8049C12.8515 21.8049 13.0233 21.7661 13.1934 21.6935L13.1148 21.5096L13.0363 21.3256C12.9088 21.3801 12.7903 21.4049 12.6793 21.4049V21.6049ZM13.1148 21.5096L13.1934 21.6935C13.36 21.6223 13.5034 21.5317 13.617 21.4181L13.4756 21.2766L13.3342 21.1352C13.2643 21.205 13.1672 21.2697 13.0363 21.3256L13.1148 21.5096ZM13.4756 21.2766L13.617 21.418L22.0627 12.9713L21.9212 12.8299L21.7798 12.6885L13.3341 21.1352L13.4756 21.2766ZM21.9212 12.8299L22.0627 12.9713C22.3465 12.6875 22.5699 12.3933 22.7291 12.0882L22.5517 11.9957L22.3744 11.9032C22.2375 12.1658 22.0405 12.4278 21.7798 12.6885L21.9212 12.8299ZM22.5517 11.9957L22.7294 12.0875C22.8923 11.7722 22.9727 11.4277 22.9727 11.0576H22.7727H22.5727C22.5727 11.3677 22.5059 11.6487 22.374 11.9039L22.5517 11.9957ZM22.7727 11.0576H22.9727C22.9727 10.6835 22.8926 10.321 22.7338 9.97166L22.5517 10.0544L22.3697 10.1371C22.5056 10.4363 22.5727 10.7426 22.5727 11.0576H22.7727ZM22.5517 10.0544L22.7337 9.97147C22.5748 9.62264 22.3499 9.30655 22.0613 9.02331L21.9212 9.16605L21.7812 9.30879C22.0371 9.56 22.2325 9.83613 22.3697 10.1373L22.5517 10.0544ZM21.9212 9.16605L22.0627 9.02463L18.0002 4.96213L17.8587 5.10355L17.7173 5.24497L21.7798 9.30747L21.9212 9.16605ZM17.8587 5.10355L18.0013 4.96327C17.7198 4.67725 17.4244 4.46135 17.1141 4.32202L17.0322 4.50447L16.9502 4.68692C17.2061 4.80181 17.4618 4.9853 17.7162 5.24383L17.8587 5.10355ZM17.0322 4.50447L17.1143 4.32209C16.8033 4.18212 16.4614 4.1138 16.0918 4.1138V4.3138V4.5138C16.4112 4.5138 16.6963 4.5726 16.9501 4.68684L17.0322 4.50447ZM16.0918 4.3138V4.1138C15.7261 4.1138 15.3827 4.18228 15.064 4.32111L15.1439 4.50447L15.2238 4.68783C15.4887 4.57243 15.7772 4.5138 16.0918 4.5138V4.3138ZM15.1439 4.50447L15.064 4.32111C14.7438 4.46064 14.4475 4.67716 14.1745 4.96476L14.3195 5.10247L14.4645 5.24018C14.7071 4.98467 14.9605 4.80252 15.2238 4.68783L15.1439 4.50447ZM14.3195 5.10247L14.1781 4.96105L13.2334 5.90571L13.3748 6.04714L13.5162 6.18856L14.4609 5.24389L14.3195 5.10247ZM13.3748 6.04714L13.2332 6.18837L15.2374 8.19795L15.379 8.05672L15.5206 7.91549L13.5164 5.90591L13.3748 6.04714ZM15.379 8.05672L15.2388 8.19933C15.4349 8.39216 15.5795 8.60932 15.675 8.85155L15.8611 8.77822L16.0471 8.70489C15.9303 8.40834 15.7535 8.1445 15.5192 7.91411L15.379 8.05672ZM15.8611 8.77822L15.6748 8.85112C15.7716 9.0983 15.8192 9.34698 15.8192 9.5983H16.0192H16.2192C16.2192 9.29495 16.1615 8.99692 16.0473 8.70532L15.8611 8.77822ZM16.0192 9.5983H15.8192C15.8192 10.114 15.6526 10.5282 15.3242 10.8565L15.4657 10.998L15.6071 11.1394C16.0169 10.7296 16.2192 10.2107 16.2192 9.5983H16.0192ZM15.4657 10.998L15.3242 10.8565C14.9959 11.1849 14.5822 11.3511 14.0673 11.3505L14.0671 11.5505L14.0668 11.7505C14.6786 11.7513 15.1973 11.5492 15.6071 11.1394L15.4657 10.998ZM14.0671 11.5505V11.3505C13.8096 11.3505 13.559 11.3114 13.3144 11.2332L13.2535 11.4237L13.1926 11.6142C13.4767 11.705 13.7684 11.7505 14.0671 11.7505V11.5505ZM13.2535 11.4237L13.3144 11.2332C13.0828 11.1592 12.8719 11.029 12.681 10.8381L12.5396 10.9796L12.3982 11.121C12.6305 11.3533 12.8955 11.5193 13.1926 11.6142L13.2535 11.4237ZM12.5396 10.9796L12.6807 10.8379L10.6083 8.77304L10.4672 8.91472L10.326 9.0564L12.3984 11.1212L12.5396 10.9796ZM10.4672 8.91472L10.3258 8.77328L5.64792 13.45L5.78933 13.5915L5.93073 13.7329L10.6086 9.05616L10.4672 8.91472ZM5.78933 13.5915L5.64744 13.4505C5.51984 13.579 5.42251 13.7264 5.35732 13.8919L5.54341 13.9652L5.7295 14.0385C5.77408 13.9253 5.8407 13.8235 5.93121 13.7324L5.78933 13.5915ZM5.54341 13.9652L5.35732 13.8919C5.29373 14.0534 5.26108 14.219 5.26108 14.3877H5.46108H5.66108C5.66108 14.2718 5.68331 14.1558 5.7295 14.0385L5.54341 13.9652ZM5.46108 14.3877H5.26108C5.26108 14.6905 5.36007 14.9534 5.56495 15.1601L5.70699 15.0193L5.84903 14.8785C5.72602 14.7544 5.66108 14.5963 5.66108 14.3877H5.46108ZM5.70699 15.0193L5.56434 15.1595C5.76903 15.3678 6.03179 15.4685 6.33533 15.4685V15.2685V15.0685C6.12752 15.0685 5.9714 15.003 5.84965 14.8791L5.70699 15.0193ZM6.33533 15.2685V15.4685C6.50748 15.4685 6.67931 15.4297 6.84939 15.3571L6.77083 15.1731L6.69226 14.9892C6.56479 15.0437 6.44628 15.0685 6.33533 15.0685V15.2685ZM6.77083 15.1731L6.85015 15.3567C7.01653 15.2849 7.15958 15.194 7.273 15.0806L7.13158 14.9391L6.99015 14.7977C6.92013 14.8677 6.82268 14.9329 6.6915 14.9895L6.77083 15.1731ZM7.13158 14.9391L7.273 15.0806L10.7061 11.6475L10.5647 11.5061L10.4232 11.3646L6.99015 14.7977L7.13158 14.9391ZM10.5647 11.5061L10.4232 11.6475L11.1902 12.4145L11.3317 12.2731L11.4731 12.1316L10.7061 11.3646L10.5647 11.5061ZM11.3317 12.2731L11.1901 12.1318L7.76244 15.5659L7.90399 15.7072L8.04555 15.8485L11.4732 12.4143L11.3317 12.2731ZM7.90399 15.7072L7.76304 15.5653C7.63429 15.6932 7.53626 15.8406 7.4709 16.0066L7.65699 16.0799L7.84308 16.1532C7.8875 16.0404 7.95414 15.9393 8.04495 15.8491L7.90399 15.7072ZM7.65699 16.0799L7.47045 16.0078C7.40794 16.1695 7.37574 16.3347 7.37574 16.5024H7.57574H7.77574C7.77574 16.387 7.79771 16.2705 7.84354 16.152L7.65699 16.0799ZM7.57574 16.5024H7.37574C7.37574 16.7972 7.48188 17.0543 7.68999 17.2624L7.83141 17.121L7.97283 16.9795C7.84005 16.8468 7.77574 16.6915 7.77574 16.5024H7.57574ZM7.83141 17.121L7.68999 17.2624C7.89795 17.4704 8.15484 17.5768 8.4494 17.5777L8.44999 17.3777L8.45059 17.1777C8.26126 17.1772 8.10576 17.1125 7.97283 16.9795L7.83141 17.121ZM8.44999 17.3777V17.5777C8.62251 17.5777 8.7946 17.5384 8.96481 17.4649L8.88549 17.2813L8.80617 17.0977C8.67883 17.1527 8.56059 17.1777 8.44999 17.1777V17.3777ZM8.88549 17.2813L8.96481 17.4649C9.13091 17.3931 9.27377 17.3028 9.3871 17.1904L9.24624 17.0484L9.10538 16.9064C9.03527 16.976 8.93763 17.0409 8.80617 17.0977L8.88549 17.2813ZM9.24624 17.0484L9.38754 17.1899L13.0709 13.5131L12.9296 13.3716L12.7883 13.23L9.10495 16.9068L9.24624 17.0484ZM12.9296 13.3716L12.7883 13.5131L13.5553 14.279L13.6966 14.1375L13.8379 13.9959L13.0709 13.23L12.9296 13.3716ZM13.6966 14.1375L13.555 13.9962L9.87713 17.6795L10.0187 17.8208L10.1602 17.9621L13.8381 14.2788L13.6966 14.1375ZM10.0187 17.8208L9.88054 17.6762C9.76049 17.7908 9.66744 17.936 9.59761 18.1053L9.78249 18.1816L9.96737 18.2578C10.0203 18.1295 10.0847 18.0343 10.1568 17.9654L10.0187 17.8208ZM9.78249 18.1816L9.59793 18.1045C9.52704 18.2743 9.48933 18.4456 9.48933 18.6171H9.68933H9.88933C9.88933 18.5054 9.91373 18.3863 9.96705 18.2586L9.78249 18.1816ZM9.68933 18.6171H9.48933C9.48933 18.9115 9.59616 19.1684 9.80495 19.3763L9.94608 19.2346L10.0872 19.0928C9.95366 18.9599 9.88933 18.805 9.88933 18.6171H9.68933ZM9.94608 19.2346L9.80406 19.3754C10.012 19.5851 10.2693 19.6924 10.5647 19.6924V19.4924V19.2924C10.3761 19.2924 10.221 19.2278 10.0881 19.0937L9.94608 19.2346ZM10.5647 19.4924V19.6924C10.7327 19.6924 10.8982 19.6597 11.0601 19.5963L10.9872 19.4101L10.9142 19.2238C10.7959 19.2702 10.6797 19.2924 10.5647 19.2924V19.4924ZM10.9872 19.4101L11.0601 19.5963C11.227 19.5309 11.3747 19.4327 11.5022 19.3035L11.3598 19.1631L11.2175 19.0226C11.1283 19.1129 11.0276 19.1794 10.9142 19.2238L10.9872 19.4101ZM11.3598 19.1631L11.5011 19.3046L15.1845 15.6267L15.0432 15.4851L14.9018 15.3436L11.2185 19.0215L11.3598 19.1631ZM15.0432 15.4851L14.9017 15.6266L15.6687 16.3936L15.8102 16.2521L15.9516 16.1107L15.1846 15.3437L15.0432 15.4851ZM15.8102 16.2521L15.6687 16.1107L11.9854 19.794L12.1268 19.9355L12.2682 20.0769L15.9516 16.3936L15.8102 16.2521ZM12.1268 19.9355L11.9849 19.7945C11.854 19.9263 11.7568 20.0837 11.6925 20.2637L11.8809 20.3309L12.0693 20.3981C12.1148 20.2704 12.1815 20.1642 12.2687 20.0764L12.1268 19.9355ZM11.8809 20.3309L11.6925 20.2637C11.632 20.4332 11.5986 20.5968 11.5986 20.7523H11.7986H11.9986C11.9986 20.6536 12.02 20.5362 12.0693 20.3981L11.8809 20.3309ZM11.7986 20.7523H11.5986C11.5986 21.0611 11.7101 21.324 11.9369 21.5217L12.0683 21.3709L12.1997 21.2201C12.0669 21.1043 11.9986 20.9549 11.9986 20.7523H11.7986ZM12.0683 21.3709L11.9369 21.5217C12.1512 21.7084 12.401 21.806 12.6793 21.806V21.606V21.406C12.5026 21.406 12.3451 21.3468 12.1997 21.2201L12.0683 21.3709ZM12.6728 22.6893V22.4893C12.1712 22.4893 11.7459 22.3084 11.3861 21.9388L11.2428 22.0783L11.0995 22.2178C11.5328 22.6629 12.0608 22.8893 12.6728 22.8893V22.6893ZM11.2428 22.0783L11.3863 21.9389C11.0324 21.5748 10.876 21.1291 10.92 20.5842L10.7207 20.5681L10.5213 20.552C10.4686 21.2046 10.6602 21.7657 11.0994 22.2177L11.2428 22.0783ZM10.7207 20.5681L10.7183 20.3682C10.1491 20.3748 9.6891 20.2066 9.32276 19.8713L9.18774 20.0189L9.05273 20.1664C9.5025 20.578 10.0644 20.7759 10.723 20.7681L10.7207 20.5681ZM9.18774 20.0189L9.3229 19.8715C8.96662 19.5448 8.78704 19.0845 8.8059 18.4606L8.60599 18.4546L8.40608 18.4485C8.3845 19.1622 8.59276 19.7447 9.05259 20.1663L9.18774 20.0189ZM8.60599 18.4546L8.60383 18.2546C7.97651 18.2613 7.506 18.083 7.16653 17.7398L7.02433 17.8804L6.88212 18.021C7.31398 18.4577 7.89792 18.6622 8.60815 18.6545L8.60599 18.4546ZM7.02433 17.8804L7.16653 17.7398C6.82714 17.3965 6.66538 16.9415 6.69753 16.3508L6.49783 16.3399L6.29812 16.329C6.26094 17.0123 6.45018 17.5842 6.88212 18.021L7.02433 17.8804ZM6.49783 16.3399L6.49543 16.1399C5.93488 16.1466 5.47967 15.9898 5.11538 15.6786L4.98549 15.8307L4.8556 15.9828C5.30309 16.365 5.8561 16.5476 6.50022 16.5399L6.49783 16.3399ZM4.98549 15.8307L5.1152 15.6785C4.76194 15.3775 4.57774 14.9562 4.57774 14.3877H4.37774H4.17774C4.17774 15.0528 4.39871 15.5935 4.85578 15.983L4.98549 15.8307ZM4.37774 14.3877H4.57774C4.57774 14.1361 4.62633 13.8824 4.72568 13.6257L4.53916 13.5536L4.35264 13.4814C4.23677 13.7808 4.17774 14.0832 4.17774 14.3877H4.37774ZM4.53916 13.5536L4.72574 13.6256C4.82338 13.3726 4.96701 13.1514 5.15749 12.9602L5.01583 12.8191L4.87416 12.6779C4.64431 12.9085 4.47016 13.1769 4.35258 13.4815L4.53916 13.5536ZM5.01583 12.8191L5.15716 12.9606L10.6085 7.51573L10.4672 7.37422L10.3258 7.23271L4.87449 12.6775L5.01583 12.8191ZM10.4672 7.37422L10.3257 7.51564L13.1229 10.3128L13.2643 10.1714L13.4057 10.03L10.6086 7.2328L10.4672 7.37422ZM13.2643 10.1714L13.1197 10.3095C13.2308 10.4259 13.3657 10.5189 13.5209 10.5903L13.6045 10.4086L13.6881 10.2269C13.5732 10.1741 13.4813 10.109 13.409 10.0333L13.2643 10.1714ZM13.6045 10.4086L13.5209 10.5903C13.6859 10.6662 13.8673 10.7015 14.0614 10.7007L14.0606 10.5007L14.0597 10.3007C13.9159 10.3013 13.7932 10.2753 13.6881 10.2269L13.6045 10.4086ZM14.0606 10.5007V10.7007C14.3442 10.7007 14.5965 10.5999 14.8095 10.4059L14.6748 10.2581L14.5402 10.1102C14.3979 10.2398 14.2406 10.3007 14.0606 10.3007V10.5007ZM14.6748 10.2581L14.8095 10.4059C15.0323 10.203 15.1415 9.93689 15.1424 9.62594L14.9424 9.62539L14.7424 9.62483C14.7418 9.83388 14.6727 9.9895 14.5402 10.1102L14.6748 10.2581ZM14.9424 9.62539H15.1424C15.1424 9.43151 15.1067 9.25059 15.0308 9.08645L14.8492 9.17039L14.6677 9.25432C14.716 9.35885 14.7424 9.48126 14.7424 9.62539H14.9424ZM14.8492 9.17039L15.0309 9.08682C14.9597 8.93186 14.8672 8.79715 14.7517 8.68609L14.6131 8.83022L14.4744 8.97434C14.5497 9.04673 14.6146 9.1388 14.6675 9.25395L14.8492 9.17039ZM14.6131 8.83022L14.7545 8.6888L11.0278 4.96213L10.8864 5.10355L10.745 5.24497L14.4717 8.97164L14.6131 8.83022ZM10.8864 5.10355L11.0288 4.96308C10.746 4.67646 10.4465 4.4605 10.1294 4.32133L10.049 4.50447L9.96861 4.68761C10.2308 4.80266 10.4895 4.98609 10.744 5.24403L10.8864 5.10355ZM10.049 4.50447L10.1294 4.32133C9.81224 4.18214 9.4675 4.1138 9.09783 4.1138V4.3138V4.5138C9.41715 4.5138 9.70653 4.57258 9.96861 4.68761L10.049 4.50447ZM9.09783 4.3138V4.1138C8.73222 4.1138 8.3943 4.18225 8.08734 4.32257L8.17049 4.50447L8.25364 4.68636C8.5028 4.57246 8.7831 4.5138 9.09783 4.5138V4.3138ZM8.17049 4.50447L8.08716 4.32266C7.78339 4.46189 7.48952 4.67726 7.20465 4.96213L7.34608 5.10355L7.4875 5.24497C7.74719 4.98528 8.00293 4.80127 8.25382 4.68628L8.17049 4.50447ZM7.34608 5.10355L7.20451 4.96227L3.90685 8.26644L4.04841 8.40772L4.18997 8.549L7.48764 5.24483L7.34608 5.10355ZM4.04841 8.40772L3.90743 8.26586C3.65609 8.51564 3.45466 8.81284 3.30235 9.15516L3.48508 9.23647L3.6678 9.31777C3.80149 9.01732 3.97562 8.76202 4.18939 8.54958L4.04841 8.40772ZM3.48508 9.23647L3.30242 9.15501C3.14898 9.49908 3.06699 9.85612 3.05764 10.2248L3.25758 10.2299L3.45751 10.235C3.46549 9.92043 3.53517 9.61519 3.66774 9.31793L3.48508 9.23647ZM3.25758 10.2299L3.05766 10.224C3.04999 10.4841 3.07221 10.7355 3.125 10.9777L3.32041 10.9351L3.51582 10.8925C3.47039 10.6841 3.45072 10.4653 3.45749 10.2358L3.25758 10.2299ZM3.32041 10.9351L3.125 10.9777C3.17816 11.2216 3.26434 11.4522 3.38355 11.6686L3.55874 11.5721L3.73393 11.4757C3.63358 11.2934 3.56088 11.0993 3.51582 10.8925L3.32041 10.9351ZM3.55874 11.5721L3.41732 11.4307L2.59615 12.2519L2.73758 12.3933L2.879 12.5347L3.70016 11.7136L3.55874 11.5721ZM2.73758 12.3933L2.90703 12.2871C2.73689 12.0157 2.60191 11.6999 2.50378 11.3378L2.31074 11.3901L2.1177 11.4424C2.22469 11.8372 2.37426 12.1903 2.56812 12.4995L2.73758 12.3933ZM2.31074 11.3901L2.50378 11.3378C2.40623 10.9778 2.36122 10.6104 2.36878 10.235L2.16883 10.231L1.96887 10.2269C1.96054 10.6402 2.01015 11.0455 2.1177 11.4424L2.31074 11.3901ZM2.16883 10.231L2.36879 10.2345C2.37702 9.76702 2.47044 9.32083 2.64904 8.8945L2.46458 8.81722L2.28011 8.73994C2.08172 9.2135 1.97796 9.7098 1.96886 10.2275L2.16883 10.231ZM2.46458 8.81722L2.64904 8.8945C2.82731 8.46897 3.08268 8.08939 3.41648 7.75491L3.27491 7.61364L3.13334 7.47236C2.7637 7.84277 2.47884 8.26558 2.28011 8.73994L2.46458 8.81722ZM3.27491 7.61364L3.41633 7.75506L6.69341 4.47797L6.55199 4.33655L6.41057 4.19513L3.13349 7.47221L3.27491 7.61364ZM6.55199 4.33655L6.69273 4.47865C7.05548 4.11938 7.43492 3.85671 7.83048 3.68602L7.75124 3.50239L7.672 3.31875C7.22401 3.51207 6.80395 3.80551 6.41125 4.19445L6.55199 4.33655ZM7.75124 3.50239L7.83022 3.68613C8.22538 3.5163 8.65438 3.43047 9.11949 3.43047V3.23047V3.03047C8.60383 3.03047 8.12066 3.12592 7.67227 3.31864L7.75124 3.50239ZM9.11949 3.23047V3.43047C9.58454 3.43047 10.0089 3.51662 10.3953 3.68655L10.4758 3.50347L10.5563 3.32039C10.115 3.12631 9.63523 3.03047 9.11949 3.03047V3.23047ZM10.4758 3.50347L10.3957 3.68671C10.7839 3.85646 11.158 4.11857 11.5174 4.47797L11.6588 4.33655L11.8002 4.19513C11.4114 3.80631 10.9969 3.51304 10.556 3.32022L10.4758 3.50347ZM11.6588 4.33655L11.5173 4.47789L12.4598 5.42148L12.6013 5.28014L12.7428 5.1388L11.8003 4.19521L11.6588 4.33655ZM12.6013 5.28014L12.7427 5.42164L13.6873 4.47805L13.546 4.33655L13.4047 4.19505L12.46 5.13863L12.6013 5.28014ZM13.546 4.33655L13.6867 4.47865C14.05 4.11885 14.4263 3.8561 14.8148 3.68551L14.7344 3.50239L14.654 3.31926C14.2135 3.51267 13.7974 3.80603 13.4053 4.19445L13.546 4.33655ZM14.7344 3.50239L14.8145 3.68563C15.2018 3.5163 15.6267 3.43047 16.0918 3.43047V3.23047V3.03047C15.5762 3.03047 15.0962 3.12591 14.6543 3.31914L14.7344 3.50239ZM16.0918 3.23047V3.43047C16.5568 3.43047 16.9857 3.51662 17.3808 3.6871L17.4601 3.50347L17.5393 3.31984C17.0909 3.12632 16.6076 3.03047 16.0918 3.03047V3.23047ZM17.4601 3.50347L17.381 3.68717C17.7754 3.85699 18.152 4.11898 18.5102 4.47784L18.6517 4.33655L18.7933 4.19527C18.4047 3.8059 17.9868 3.51251 17.5392 3.31977L17.4601 3.50347ZM18.6517 4.33655L18.5103 4.47799L22.5468 8.51341L22.6882 8.37197L22.8296 8.23053L18.7931 4.19511L18.6517 4.33655ZM22.6882 8.37197L22.5468 8.51339C22.9033 8.86983 23.1769 9.26844 23.3694 9.7097L23.5527 9.62972L23.7361 9.54973C23.5227 9.06078 23.22 8.62089 22.8297 8.23055L22.6882 8.37197ZM23.5527 9.62972L23.3694 9.7097C23.5617 10.1504 23.6568 10.6009 23.6561 11.0627L23.8561 11.063L24.0561 11.0633C24.0568 10.5443 23.9497 10.0393 23.7361 9.54973L23.5527 9.62972ZM23.8561 11.063H23.6561C23.6561 11.5257 23.561 11.9479 23.3731 12.3326L23.5527 12.4204L23.7324 12.5082C23.9489 12.0652 24.0561 11.5825 24.0561 11.063H23.8561ZM23.5527 12.4204L23.3731 12.3326C23.1818 12.7239 22.9075 13.1006 22.5467 13.4621L22.6882 13.6034L22.8298 13.7447C23.2172 13.3565 23.5192 12.9446 23.7324 12.5082L23.5527 12.4204ZM22.6882 13.6034L22.5469 13.4619L14.1001 21.9011L14.2415 22.0426L14.3829 22.184L22.8296 13.7449L22.6882 13.6034ZM14.2415 22.0426L14.0998 21.9014C13.8926 22.1093 13.6709 22.2565 13.4348 22.3479L13.507 22.5344L13.5792 22.7209C13.8732 22.6071 14.1412 22.4265 14.3831 22.1837L14.2415 22.0426ZM13.507 22.5344L13.4347 22.3479C13.1941 22.4413 12.9406 22.4882 12.6728 22.4882V22.6882V22.8882C12.9886 22.8882 13.2913 22.8326 13.5793 22.7208L13.507 22.5344Z" fill="black" mask="url(#path-1-outside-1_5012_33165)"/>
</svg>
