<svg width="24" height="24" viewBox="0 0 24 24" fill="none" xmlns="http://www.w3.org/2000/svg">
<path d="M16.0059 6.16016H21.0039L21.0859 6.16504C21.1674 6.17404 21.2475 6.19527 21.3232 6.22754H21.3242C21.5295 6.31278 21.6931 6.47639 21.7783 6.68164V6.68262C21.8106 6.75835 21.8318 6.83839 21.8408 6.91992L21.8457 7.00195V12C21.8457 12.2228 21.7571 12.4362 21.5996 12.5938C21.4421 12.7513 21.2286 12.8398 21.0059 12.8398C20.7831 12.8398 20.5696 12.7513 20.4121 12.5938C20.2546 12.4362 20.166 12.2228 20.166 12V9.02344L19.8926 9.29688L13.6025 15.5967V15.5977C13.5245 15.6763 13.4314 15.7386 13.3291 15.7812C13.2268 15.8239 13.1167 15.8457 13.0059 15.8457C12.895 15.8457 12.785 15.8239 12.6826 15.7812C12.5803 15.7386 12.4872 15.6763 12.4092 15.5977V15.5967L9.11914 12.2969L9.00586 12.1836L8.89258 12.2969L3.60254 17.5967V17.5977C3.5245 17.6763 3.43138 17.7386 3.3291 17.7812C3.22676 17.8239 3.11673 17.8457 3.00586 17.8457C2.89497 17.8457 2.78498 17.8239 2.68262 17.7812C2.58032 17.7386 2.48723 17.6763 2.40918 17.5977L2.4082 17.5967L2.35254 17.5352C2.29978 17.4713 2.25659 17.4 2.22461 17.3232C2.18196 17.2209 2.16016 17.1109 2.16016 17C2.16016 16.8891 2.18196 16.7791 2.22461 16.6768C2.26725 16.5745 2.32951 16.4814 2.4082 16.4033H2.40918L8.40918 10.4033V10.4023C8.48723 10.3237 8.58032 10.2614 8.68262 10.2188C8.78498 10.1761 8.89497 10.1543 9.00586 10.1543C9.11673 10.1543 9.22676 10.1761 9.3291 10.2188C9.43138 10.2614 9.5245 10.3237 9.60254 10.4023V10.4033L12.8926 13.7031L13.0059 13.8164L18.9824 7.83984H16.0059C15.7831 7.83984 15.5696 7.75126 15.4121 7.59375C15.2546 7.43622 15.166 7.22278 15.166 7C15.166 6.77722 15.2546 6.56378 15.4121 6.40625C15.5696 6.24874 15.7831 6.16016 16.0059 6.16016Z" fill="black" stroke="white" stroke-width="0.32"/>
</svg>
