<svg width="157" height="36" viewBox="0 0 157 36" fill="none" xmlns="http://www.w3.org/2000/svg">
<path d="M58.4664 0.180995C59.3023 0.15259 60.1381 0.24035 60.9499 0.441767C62.8038 0.892289 63.8812 1.92431 64.8453 3.51309C66.3834 1.12759 68.6772 0.200581 71.4541 0.182646C74.6782 0.136492 77.3418 1.89954 78.0668 5.13448C78.5798 7.42059 78.4182 10.0277 78.4182 12.3781L78.3991 20.4872C76.5314 20.3861 73.8845 20.4662 71.9569 20.4639C71.854 18.198 72.0183 15.8237 71.9545 13.5451C71.9049 11.7759 72.0738 10.0553 71.775 8.28461C71.4863 6.57386 70.6409 5.8597 68.8979 5.86947C65.2375 5.88877 65.8196 9.72929 65.8206 12.2471L65.8281 19.1911C65.8432 19.6562 65.831 20.03 65.8087 20.495C64.2521 20.3639 61.069 20.4828 59.3581 20.4495L59.3615 12.8359C59.3629 11.5503 59.3918 10.2386 59.3218 8.95391C59.2605 8.22855 58.9664 7.09387 58.4497 6.57186C57.263 5.3267 54.2627 5.72522 53.6251 7.36508C53.0431 8.86199 53.2201 11.0756 53.2209 12.6802C53.2339 15.2892 53.2296 17.8983 53.2078 20.5072C52.5627 20.4374 51.4808 20.468 50.8115 20.4689C49.4529 20.478 48.0941 20.4718 46.7356 20.4502C46.6995 13.9722 46.6452 7.10498 46.7423 0.64301C48.7754 0.706473 51.0563 0.654815 53.0977 0.638587C53.1376 1.56866 53.0639 2.52643 52.9617 3.45106C54.6299 1.09913 55.504 0.515202 58.4664 0.180995Z" fill="#0B0B0B"/>
<path d="M16.4902 0.468062C16.5462 0.464304 16.5731 0.465066 16.6268 0.476069C18.7153 0.903716 19.6379 1.79295 20.7539 3.48989C20.6422 2.62551 20.6726 1.50976 20.6951 0.629364C22.1932 0.690996 25.6021 0.727949 27.0407 0.615942C27.0435 7.15682 27.1333 13.9858 27.0233 20.506C25.2494 20.3832 22.6847 20.4801 20.8095 20.4557L20.8366 17.6304L20.2107 18.3989C19.0186 19.8381 17.2999 20.7395 15.4386 20.9018C3.88572 22.0041 0.668269 6.20744 10.0309 1.13854C10.5641 0.849869 11.6169 0.525802 12.2185 0.469627C13.1301 0.499557 15.8546 0.385563 16.4902 0.468062ZM16.1812 15.4376C18.8538 15.2353 20.8603 12.9098 20.67 10.235C20.4798 7.56028 18.1645 5.5424 15.4901 5.7206C12.7985 5.89995 10.7659 8.2345 10.9573 10.9264C11.1487 13.6183 13.4914 15.6414 16.1812 15.4376Z" fill="#0B0B0B"/>
<path d="M94.8137 0.461101C96.0333 0.369581 98.7879 1.84375 99.7289 2.67057C101.764 4.45421 102.894 6.66868 103.191 9.33418C103.86 15.3213 99.81 20.4376 93.7418 20.8785C90.3256 21.1268 87.3474 20.6458 84.6793 18.3264C80.4914 14.6857 80.2012 8.0057 83.71 3.80721C85.056 2.19304 87.463 0.661217 89.5731 0.465997C90.8585 0.498987 93.5772 0.534396 94.8137 0.461101ZM92.696 15.532C93.5404 15.3962 93.9577 15.3353 94.7065 14.907C97.6296 13.2353 97.6234 8.31216 94.989 6.40078C94.2226 5.84468 92.8644 5.50885 91.9426 5.61909C91.1188 5.71856 90.4703 5.83845 89.7522 6.28652C87.0427 7.9769 86.9363 12.6926 89.4329 14.6124C90.3471 15.3152 91.5483 15.6195 92.696 15.532Z" fill="#0B0B0B"/>
<path d="M106.071 0.64963C108.038 0.665025 110.607 0.732276 112.527 0.621094C112.525 0.691057 112.523 0.761032 112.521 0.831017C112.467 3.33747 112.542 5.86896 112.514 8.38423C112.585 9.90504 112.375 11.5697 112.623 13.0655C113.151 16.2572 117.971 16.0651 118.549 13.11C118.802 11.8157 118.684 9.90144 118.683 8.5617L118.683 0.641339C120.637 0.675838 123.219 0.711006 125.152 0.624857C125.196 3.29987 125.156 6.08676 125.157 8.77089L125.151 20.4916C123.542 20.3717 120.655 20.47 118.911 20.4633C118.881 19.5852 118.94 18.5446 118.965 17.6536C118.719 17.9352 118.468 18.3491 118.22 18.654C116.663 20.5708 114.54 21.1128 112.144 20.9017C105.023 20.3201 106.028 13.0153 106.041 7.82715C106.046 5.57363 105.892 2.87252 106.071 0.64963Z" fill="#0B0B0B"/>
<path d="M140.133 0.569846C140.73 0.502322 141.391 0.5263 141.996 0.533415C142.013 1.7955 141.998 3.08709 142 4.35127C142.002 5.13539 142.042 6.27217 141.942 7.01121C136.394 6.71268 135.67 8.77718 135.733 13.8122C135.757 15.7853 135.852 18.5776 135.693 20.4868C134.586 20.439 133.274 20.48 132.154 20.4703C131.293 20.4628 130 20.4385 129.164 20.5092L129.165 19.0177V6.92502C129.165 5.035 129.087 2.46251 129.211 0.63668C131.251 0.668509 133.548 0.700518 135.575 0.618968C135.626 1.88531 135.552 3.09824 135.484 4.36233C136.482 2.12312 137.485 0.748299 140.133 0.569846Z" fill="#0B0B0B"/>
<path d="M42.0394 0.56174C42.5115 0.506617 43.3588 0.518836 43.8596 0.511719C43.8478 1.88033 43.8441 3.249 43.8482 4.61765C43.8494 5.34705 43.8795 6.32932 43.8001 7.03037C43.5779 7.00521 43.3546 6.99056 43.131 6.98648C37.3306 6.88652 37.5894 10.0591 37.5971 14.6576C37.6077 16.6057 37.6044 18.5536 37.5869 20.5016C35.6299 20.3861 33.1505 20.4823 31.1144 20.4503L31.1197 18.6702C31.1178 12.7344 31.0393 6.56507 31.1283 0.647127C33.0628 0.668549 35.5162 0.722417 37.4153 0.617945C37.4023 1.81568 37.4205 3.13626 37.3256 4.31707C38.5038 1.92492 39.2122 0.896435 42.0394 0.56174Z" fill="#0B0B0B"/>
<path fill-rule="evenodd" clip-rule="evenodd" d="M147.219 10.6094H152.256C152.256 10.6422 152.277 12.6769 152.257 13.5117C152.207 15.6656 151.589 17.7837 149.785 19.5029C149.077 20.1774 147.672 20.7787 147.217 20.9639C147.217 21.0035 147.218 21.0244 147.218 21.0244C147.218 21.0244 147.191 21.0132 147.144 20.9941C147.097 21.0128 147.071 21.0244 147.071 21.0244C147.071 21.0244 147.071 21.0038 147.071 20.9648C146.616 20.7796 145.212 20.1773 144.504 19.5029C142.7 17.7837 142.082 15.6657 142.032 13.5117C142.013 12.6769 142.032 10.6424 142.032 10.6094H147.218H147.219Z" fill="#0B0B0B"/>
<path d="M65.5541 25.5273C67.0444 25.5161 69.7394 25.3601 71.0241 25.9402C71.8014 26.2919 72.4096 26.9349 72.7179 27.7307C73.2844 29.2312 72.7369 31.0435 71.3921 31.9197C71.0959 32.1127 70.6272 32.2719 70.2914 32.3986C70.7021 32.8358 72.967 35.2052 73.136 35.5171C72.9617 35.64 72.7975 35.6063 72.5515 35.6213C72.4206 35.6234 71.9286 35.633 71.8548 35.5842C70.7064 34.8257 69.8775 33.4482 68.8443 32.4744C68.1877 32.4373 67.4063 32.4585 66.74 32.4607C66.7522 33.5139 66.7462 34.5673 66.722 35.6204C66.3358 35.6227 65.9198 35.6082 65.5312 35.6013C65.5879 32.2608 65.4995 28.8794 65.5541 25.5273ZM66.7156 31.3981C68.178 31.438 69.8451 31.6632 71.0669 30.7324C71.9319 29.5182 72.0808 28.1328 70.7973 27.0971C69.7499 26.2519 67.8979 26.8118 66.7666 26.5806C66.7378 27.9761 66.8162 30.0977 66.7156 31.3981Z" fill="#0B0B0B"/>
<path d="M81.4271 25.5159C81.9194 25.5038 82.3298 25.4453 82.5495 25.9666C83.0211 27.0824 83.4216 28.2338 83.8985 29.3463L85.6211 33.3817C85.8983 34.0455 86.3018 34.9363 86.4932 35.6105C84.7346 35.6899 85.0155 34.9791 84.4023 33.5037C83.7301 33.4438 82.881 33.4618 82.1935 33.4586C81.2281 33.4556 80.2634 33.4616 79.298 33.4767C78.9558 34.1517 78.6656 34.926 78.4129 35.6398L77.1719 35.5982C77.4207 34.7816 81.0887 25.9586 81.4271 25.5159ZM79.6593 32.4522C80.4234 32.4571 81.2013 32.4692 81.9638 32.4651L84.0126 32.4699C83.773 31.8851 82.0121 27.273 81.8084 27.0944C81.1155 28.8898 80.3997 30.676 79.6593 32.4522Z" fill="#0B0B0B" fill-opacity="0.988235"/>
<path d="M27.3461 25.5117C27.8535 25.5206 28.13 25.457 28.4868 25.8818C28.9333 26.4134 29.3448 26.9675 29.7687 27.5171C30.7869 28.8293 31.8123 30.1358 32.8451 31.4366C33.3329 32.0538 34.2022 33.2176 34.7425 33.7114C34.707 30.9833 34.699 28.2549 34.7184 25.5266C35.049 25.5379 35.4026 25.5335 35.7354 25.5354C35.7617 26.0876 35.772 26.6433 35.7666 27.1961C35.7391 29.9935 35.8255 32.8132 35.7496 35.6084C35.4732 35.7017 34.9585 35.6972 34.7344 35.4676C33.9842 34.6989 33.3954 33.7944 32.7301 32.9535L28.4137 27.4892C28.3116 29.9818 28.3944 33.098 28.3933 35.6345L27.2818 35.6108L27.2687 29.0146C27.2671 28.1487 27.2169 26.2929 27.3461 25.5117Z" fill="#0B0B0B"/>
<path d="M98.224 25.5299C98.6803 25.52 98.9238 25.546 99.3732 25.5993C99.2653 26.342 99.2959 27.5681 99.2959 28.356L99.3051 33.2359C99.3089 34.0051 99.3663 34.9063 99.3204 35.6559C99.1512 35.6613 98.9827 35.6571 98.8143 35.6434C97.8542 35.5618 97.3091 34.2452 96.6829 33.5055C95.0115 31.533 93.5193 29.4305 91.8549 27.4491C91.9322 30.0509 91.9085 33.0223 91.871 35.6329L90.839 35.5946C90.9538 34.1856 90.6973 25.9397 90.9576 25.5078C91.1276 25.5254 91.6888 25.6088 91.7937 25.7112C92.3855 26.2902 93.0133 27.146 93.5178 27.7934L96.0742 31.0482C96.7342 31.8967 97.4875 32.9152 98.2202 33.6905C98.1505 31.36 98.1268 27.8384 98.224 25.5299Z" fill="#0B0B0B"/>
<path d="M108.42 25.4582C109.093 25.3274 110.44 25.4398 111.112 25.6563C112.744 26.1827 113.436 27.0677 114.203 28.5095L113.004 28.5024C111.325 26.0594 107.834 25.5946 106.038 28.0634C105.357 29.013 105.081 30.1952 105.272 31.3486C105.445 32.4069 106.03 33.3534 106.9 33.9805C107.934 34.7196 109.07 34.8841 110.297 34.6828C111.642 34.3415 112.191 33.7021 113.067 32.7064C113.438 32.6986 113.818 32.6819 114.19 32.6692C113.317 34.6414 112.109 35.5128 109.884 35.7636C104.9 36.3253 102.27 30.9379 105.269 27.1448C105.952 26.2794 107.252 25.5421 108.42 25.4582Z" fill="#0B0B0B"/>
<path d="M118.971 25.546C120.101 25.4696 124.017 25.4918 125.108 25.5874L125.173 26.6145C123.586 26.6867 121.607 26.6396 119.976 26.6578L119.969 29.9448C121.646 30.0712 123.325 29.9962 125.013 30.0421C125.012 30.3992 125.026 30.6426 124.918 30.9893C124.67 31.1838 120.784 31.0984 120.18 31.1007L120.035 31.117C119.924 31.4113 119.967 34.0942 119.969 34.5347C121.281 34.6767 123.749 34.6045 125.161 34.6025L125.139 35.6288C123.065 35.5801 120.894 35.6215 118.809 35.6193C118.667 32.4155 118.76 29.0109 118.827 25.7982C118.83 25.6528 118.873 25.6374 118.971 25.546Z" fill="#0B0B0B"/>
<path d="M51.9788 25.5291L53.153 25.5234C53.2094 27.022 53.1569 28.5294 53.1663 30.0276C53.1705 30.6958 53.1177 31.8753 53.2475 32.4965C53.3507 33.0098 53.5927 33.485 53.9471 33.8703C54.986 34.9946 57.0645 35.0767 58.182 34.0311C58.5564 33.6751 58.819 33.2177 58.9379 32.7149C59.141 31.8877 59.0056 27.7964 59.0432 26.552C59.2368 26.2709 59.0204 26.4819 59.1707 26.1573L59.1584 26.1534C59.1646 26.7689 59.1111 31.5072 59.2228 31.6809C59.5985 30.8835 59.1414 26.4975 59.5061 25.8513C59.772 25.8331 59.6807 25.8033 59.8793 25.956L59.9962 26.2898L60.2035 26.0851C60.2491 27.3329 60.2158 28.556 60.2157 29.8012C60.2157 30.272 60.1894 31.374 60.2667 31.7943C60.2832 31.9259 60.2871 32.0589 60.2783 32.1912C60.0005 36.0729 55.0215 36.8984 52.8469 34.3771C52.4667 33.9424 52.2 33.4204 52.0706 32.8575C51.8446 31.8866 51.8907 26.6995 51.9788 25.5291Z" fill="#0B0B0B"/>
<path d="M43.0759 25.4501C45.3817 25.3243 46.4687 25.727 47.0498 28.1469L45.9221 28.1992C45.4143 26.8311 44.9519 26.334 43.3942 26.4194C42.5527 26.4656 41.7355 27.531 41.9393 28.2731C42.3875 29.9051 45.2039 29.8186 46.3806 30.7639C46.8308 31.0962 47.2781 31.6056 47.339 32.2014C47.5908 34.6641 46.4773 35.4614 44.3233 35.7866C42.1719 35.7711 40.8761 35.0877 40.5078 32.7971L41.5027 32.7944C42.1458 34.1537 42.6542 35.0208 44.4161 34.844C45.4991 34.7354 46.4541 33.6888 46.2122 32.5903C45.8219 30.8183 43.0978 31.0622 41.8928 30.0993C41.0648 29.5426 40.624 28.6085 40.8301 27.5872C41.0548 26.4745 41.9672 25.6451 43.0759 25.4501Z" fill="#0B0B0B" fill-opacity="0.988235"/>
<path d="M20.8216 25.5337C21.1882 25.5206 21.6268 25.5317 21.9994 25.5322C21.9452 26.5529 21.9834 27.8894 21.9834 28.9287C21.9907 31.1641 21.9853 33.3996 21.9673 35.6349L20.8203 35.5857L20.8216 25.5337Z" fill="#0B0B0B" fill-opacity="0.988235"/>
<path d="M59.0565 25.5343C59.427 25.5282 59.9204 25.5058 60.2808 25.5318C60.3484 26.7855 60.2917 28.1949 60.3075 29.4664C60.3135 29.9531 60.3284 31.3807 60.2676 31.7976C60.1903 31.3774 60.2166 30.2754 60.2166 29.8045C60.2167 28.5594 60.25 27.3362 60.2044 26.0885L59.9971 26.2932L59.8802 25.9594C59.6816 25.8067 59.7729 25.8365 59.507 25.8547C59.1423 26.5009 59.5994 30.8868 59.2237 31.6843C59.112 31.5106 59.1655 26.7723 59.1593 26.1568L59.1716 26.1607C59.0213 26.4853 59.2377 26.2742 59.0441 26.5554C59.0384 26.2012 59.0326 25.89 59.0565 25.5343Z" fill="#0B0B0B" fill-opacity="0.94902"/>
<path d="M89.5703 0.467553C90.9522 0.100747 93.4535 0.058648 94.8109 0.462657C93.5744 0.535952 90.8558 0.500543 89.5703 0.467553Z" fill="#0B0B0B" fill-opacity="0.956863"/>
<path d="M12.2266 0.463581C13.6142 0.0917943 15.1153 0.0381296 16.4983 0.462016C15.8626 0.379517 13.1381 0.493511 12.2266 0.463581Z" fill="#0B0B0B" fill-opacity="0.956863"/>
</svg>
