<svg width="120" height="36" viewBox="0 0 120 36" fill="none" xmlns="http://www.w3.org/2000/svg">
<path d="M58.6561 6.22266H56.4781C56.4393 6.22263 56.4021 6.2376 56.3742 6.26445C56.3461 6.29129 56.3296 6.32792 56.3281 6.36666V8.80866C56.3296 8.84738 56.3461 8.88402 56.3742 8.91086C56.4021 8.93771 56.4393 8.95268 56.4781 8.95266H58.6561C58.6943 8.95266 58.7309 8.93749 58.7579 8.91048C58.7849 8.88347 58.8001 8.84685 58.8001 8.80866V6.36666C58.8001 6.32846 58.7849 6.29183 58.7579 6.26483C58.7309 6.23782 58.6943 6.22266 58.6561 6.22266Z" fill="black"/>
<path d="M58.6561 10.6682H56.4781C56.4393 10.6682 56.4021 10.6832 56.3742 10.7101C56.3461 10.7369 56.3296 10.7735 56.3281 10.8122V23.3043C56.3281 23.344 56.3439 23.3822 56.372 23.4103C56.4002 23.4385 56.4383 23.4543 56.4781 23.4543H58.6561C58.6948 23.4528 58.7315 23.4362 58.7583 23.4082C58.7851 23.3803 58.8001 23.3431 58.8001 23.3043V10.8002C58.8001 10.7621 58.7849 10.7254 58.7579 10.6984C58.7309 10.6714 58.6943 10.6562 58.6561 10.6562" fill="black"/>
<path d="M67.6807 10.4267C66.9893 10.3832 66.2973 10.5028 65.6604 10.7758C65.0237 11.0489 64.46 11.4678 64.0148 11.9987C64.0016 12.008 63.9859 12.0129 63.9697 12.0129C63.9537 12.0129 63.938 12.008 63.9248 11.9987L63.7027 11.8907C63.6909 11.8839 63.681 11.8744 63.6737 11.8628C63.6663 11.8513 63.6619 11.8383 63.6607 11.8247V10.7987C63.6607 10.7604 63.6457 10.7239 63.6187 10.6969C63.5917 10.6699 63.555 10.6547 63.5168 10.6547H61.3387C61.3054 10.6614 61.2754 10.6794 61.2535 10.7056C61.2317 10.7318 61.2195 10.7646 61.2188 10.7987V23.3027C61.2188 23.3424 61.2346 23.3806 61.2627 23.4087C61.2908 23.4368 61.329 23.4527 61.3687 23.4527H63.5467C63.5856 23.4511 63.6221 23.4346 63.649 23.4067C63.6758 23.3787 63.6908 23.3414 63.6908 23.3027V16.5827C63.6908 14.0147 64.7167 12.4967 66.8767 12.4967C69.2287 12.4967 69.5167 14.2307 69.5167 16.0607V23.3027C69.5167 23.3414 69.5317 23.3787 69.5586 23.4067C69.5855 23.4346 69.622 23.4511 69.6607 23.4527H71.8387C71.8786 23.4527 71.9167 23.4368 71.9449 23.4087C71.973 23.3806 71.9887 23.3424 71.9887 23.3027V15.3947C71.9887 12.4247 70.7887 10.4267 67.7107 10.4267" fill="black"/>
<path d="M84.8532 6.22266H82.6753C82.6371 6.22266 82.6004 6.23782 82.5734 6.26483C82.5464 6.29183 82.5312 6.32846 82.5312 6.36666V8.80866C82.5312 8.84685 82.5464 8.88347 82.5734 8.91048C82.6004 8.93749 82.6371 8.95266 82.6753 8.95266H84.8532C84.8921 8.95268 84.9293 8.93771 84.9573 8.91086C84.9852 8.88402 85.0018 8.84738 85.0033 8.80866V6.36666C85.0018 6.32792 84.9852 6.29129 84.9573 6.26445C84.9293 6.2376 84.8921 6.22263 84.8532 6.22266Z" fill="black"/>
<path d="M84.8532 10.6682H82.6753C82.6371 10.6682 82.6004 10.6834 82.5734 10.7104C82.5464 10.7374 82.5312 10.7741 82.5312 10.8122V23.3043C82.5312 23.3431 82.5463 23.3803 82.5731 23.4082C82.6 23.4362 82.6365 23.4528 82.6753 23.4543H84.8532C84.8931 23.4543 84.9313 23.4385 84.9594 23.4103C84.9875 23.3822 85.0033 23.344 85.0033 23.3043V10.8002C85.0018 10.7615 84.9852 10.7249 84.9573 10.6981C84.9293 10.6712 84.8921 10.6562 84.8532 10.6562" fill="black"/>
<path d="M98.7746 6.22266H96.6146C96.5761 6.22266 96.5396 6.23782 96.5124 6.26483C96.4852 6.29183 96.4702 6.32846 96.4702 6.36666V11.8806C96.4702 11.896 96.4655 11.9111 96.4571 11.9239C96.4486 11.9367 96.4364 11.9467 96.4224 11.9526L96.1824 12.0306C96.1692 12.038 96.1552 12.0419 96.1402 12.0419C96.1261 12.0419 96.1111 12.038 96.098 12.0306C95.6639 11.5032 95.1127 11.085 94.4874 10.8099C93.8621 10.5348 93.1806 10.4104 92.4984 10.4466C89.5284 10.4466 86.9844 12.9186 86.9844 17.1006C86.9844 21.2826 89.5284 23.7786 92.4984 23.7786C93.1932 23.8184 93.8874 23.6922 94.5239 23.4105C95.1605 23.1288 95.7202 22.6997 96.158 22.1586C96.1702 22.1473 96.1871 22.1409 96.203 22.1409C96.2199 22.1409 96.2358 22.1473 96.248 22.1586L96.4524 22.2546C96.4646 22.2614 96.4739 22.271 96.4814 22.2825C96.4889 22.2939 96.4936 22.307 96.4946 22.3206V23.3406C96.4946 23.3794 96.5096 23.4167 96.5358 23.4447C96.563 23.4726 96.5996 23.4891 96.638 23.4906H98.8167C98.8561 23.4906 98.8946 23.4749 98.9227 23.4468C98.9508 23.4186 98.9667 23.3805 98.9667 23.3406V6.36666C98.9649 6.32792 98.948 6.29129 98.9208 6.26445C98.8927 6.2376 98.8552 6.22263 98.8167 6.22266H98.7746ZM93.0144 21.6966C90.9504 21.6966 89.5704 19.9626 89.5704 17.0826C89.5704 14.2026 90.9504 12.4986 93.0144 12.4986C94.9167 12.4986 96.5367 13.9206 96.5367 17.0826C96.5367 20.2446 94.9167 21.6966 93.0144 21.6966Z" fill="black"/>
<path d="M107.019 10.4279C103.382 10.4279 100.719 13.0679 100.719 17.0279C100.719 20.7359 102.974 23.7539 107.084 23.7539C110.222 23.7539 112.149 21.9239 112.784 19.8779C112.791 19.8558 112.793 19.8325 112.788 19.8098C112.784 19.7871 112.775 19.7658 112.761 19.7476C112.747 19.7294 112.728 19.7148 112.707 19.7051C112.687 19.6954 112.663 19.6908 112.641 19.6919H110.414C110.386 19.6908 110.359 19.6983 110.336 19.7133C110.312 19.7283 110.293 19.7502 110.282 19.7759C109.724 20.9399 108.734 21.6419 106.971 21.6419C104.997 21.6419 103.569 20.2559 103.257 17.9819C103.254 17.9607 103.256 17.9392 103.262 17.919C103.269 17.8986 103.279 17.8799 103.293 17.8639C103.308 17.8481 103.325 17.8353 103.345 17.8267C103.364 17.8181 103.385 17.8137 103.407 17.8139H112.839C112.857 17.8147 112.876 17.8117 112.894 17.8052C112.912 17.7988 112.928 17.7887 112.942 17.776C112.956 17.7632 112.967 17.7477 112.976 17.7305C112.983 17.7134 112.988 17.6948 112.989 17.6759C113.192 13.5839 110.894 10.4219 106.989 10.4219L107.019 10.4279ZM110.252 15.8639H103.479C103.458 15.8632 103.437 15.8582 103.419 15.8492C103.4 15.8402 103.383 15.8274 103.369 15.8116C103.356 15.7958 103.346 15.7773 103.34 15.7574C103.333 15.7375 103.332 15.7165 103.334 15.6959C103.731 13.3739 105.134 12.4439 106.994 12.4439C107.878 12.4385 108.728 12.7767 109.366 13.3869C110.005 13.9971 110.381 14.8316 110.414 15.7139C110.415 15.734 110.412 15.7542 110.405 15.7731C110.397 15.7921 110.387 15.8093 110.373 15.8238C110.359 15.8384 110.342 15.85 110.323 15.8579C110.305 15.8658 110.285 15.8699 110.264 15.8699" fill="black"/>
<path d="M80.5592 10.6682H75.5372C75.3827 10.6689 75.2345 10.7291 75.1232 10.8362L74.2052 11.7542C74.0944 11.866 74.0319 12.0168 74.0312 12.1742V23.3043C74.0312 23.344 74.0471 23.3822 74.0752 23.4103C74.1033 23.4385 74.1415 23.4543 74.1812 23.4543H76.3593C76.399 23.4543 76.4372 23.4385 76.4653 23.4103C76.4935 23.3822 76.5092 23.344 76.5092 23.3043V13.1042C76.5092 13.0661 76.5244 13.0294 76.5514 13.0024C76.5784 12.9754 76.6151 12.9602 76.6532 12.9602H80.5592C80.598 12.9587 80.6346 12.9422 80.6614 12.9142C80.6883 12.8863 80.7032 12.8491 80.7032 12.8102V10.8002C80.7032 10.7621 80.6881 10.7254 80.6611 10.6984C80.6341 10.6714 80.5974 10.6562 80.5592 10.6562" fill="black"/>
<path d="M48.5199 10.3398C44.8539 10.3398 42.1719 12.9978 42.1719 16.9998C42.1719 20.7378 44.4459 23.7798 48.5919 23.7798C51.7539 23.7798 53.6979 21.9318 54.3339 19.8738C54.3403 19.852 54.3416 19.8289 54.3378 19.8065C54.334 19.784 54.3251 19.7627 54.3117 19.7442C54.2984 19.7257 54.2811 19.7104 54.261 19.6997C54.241 19.6889 54.2187 19.6828 54.1959 19.6818H51.9639C51.9366 19.6836 51.9102 19.6923 51.8871 19.7069C51.8639 19.7216 51.845 19.7418 51.8319 19.7658C51.2739 20.9658 50.2719 21.6498 48.4959 21.6498C46.5039 21.6498 45.0639 20.2518 44.7519 17.9538C44.7502 17.9332 44.7529 17.9124 44.7597 17.8928C44.7664 17.8732 44.7773 17.8552 44.7913 17.8399C44.8054 17.8247 44.8226 17.8127 44.8416 17.8043C44.8606 17.7961 44.8812 17.7918 44.9019 17.7918H54.4179C54.4562 17.7905 54.4927 17.7751 54.5203 17.7485C54.548 17.722 54.565 17.6861 54.5679 17.6478C54.7719 13.5258 52.4499 10.3398 48.5199 10.3398ZM51.8139 15.8238H44.9559C44.9346 15.824 44.9135 15.8196 44.894 15.811C44.8745 15.8024 44.8571 15.7897 44.8429 15.7738C44.8288 15.7579 44.8181 15.7392 44.8117 15.7188C44.8053 15.6985 44.8033 15.677 44.8059 15.6558C45.2079 13.3098 46.6059 12.3738 48.4959 12.3738C49.3889 12.3638 50.2507 12.7023 50.8982 13.3173C51.5458 13.9323 51.9281 14.7755 51.9639 15.6678C51.9647 15.6881 51.9614 15.7083 51.9542 15.7271C51.9471 15.746 51.9361 15.7633 51.9222 15.7778C51.9081 15.7924 51.8913 15.804 51.8727 15.8119C51.8541 15.8198 51.8341 15.8239 51.8139 15.8238Z" fill="black"/>
<path d="M30.0156 0V30H0.015625V0H30.0156ZM9.93457 11.3164C9.93792 11.5357 10.0161 11.7474 10.1562 11.916L16.5342 19.3564C16.5646 19.3891 16.5824 19.4319 16.583 19.4766V23.9521H20.0986V18.4678C20.1002 18.2441 20.0215 18.0271 19.877 17.8564L13.499 10.416C13.4684 10.3811 13.4505 10.3364 13.4502 10.29V6.03613H9.93457V11.3164Z" fill="black"/>
</svg>
