<svg width="157" height="36" viewBox="0 0 157 36" fill="none" xmlns="http://www.w3.org/2000/svg">
<mask id="mask0_7566_29064" style="mask-type:alpha" maskUnits="userSpaceOnUse" x="0" y="1" width="18" height="20">
<path fill-rule="evenodd" clip-rule="evenodd" d="M0.109375 1.66406H17.6012V20.59H0.109375V1.66406Z" fill="white"/>
</mask>
<g mask="url(#mask0_7566_29064)">
<path fill-rule="evenodd" clip-rule="evenodd" d="M14.9079 7.49562C14.4985 7.39773 14.0822 7.35262 13.665 7.35983C13.2902 7.3666 12.9177 7.41532 12.5522 7.50598C12.708 6.61827 12.7068 5.70347 12.5487 4.81665C12.9589 4.91408 13.3772 4.95739 13.7978 4.95152C14.1719 4.94431 14.544 4.89469 14.9086 4.80402C14.8364 5.2118 14.7972 5.62679 14.7913 6.04314C14.7844 6.53121 14.8235 7.01792 14.9079 7.49562ZM16.289 1.66406C15.5938 2.37902 14.6985 2.78229 13.7671 2.79988C12.8361 2.83461 11.9335 2.45074 11.2204 1.76781L9.9173 3.28389C11.0922 4.93123 11.1237 7.26105 10.0132 8.92373L4.77564 15.0065L3.58674 13.6262L2.25529 15.1721L3.4442 16.5528L2.62972 17.4988L1.44121 16.118L0.109375 17.6643L2.63049 20.59L11.3163 10.5002C12.7612 9.15694 14.7739 9.1664 16.2105 10.5219L17.5137 9.00807C16.9377 8.18486 16.6289 7.14467 16.6437 6.07787C16.6588 5.00971 16.9991 3.979 17.6015 3.17608L16.289 1.66406Z" fill="black"/>
</g>
<path fill-rule="evenodd" clip-rule="evenodd" d="M13.0294 28.2715C13.4685 28.3713 13.915 28.418 14.3624 28.4106C14.7643 28.4037 15.1638 28.3533 15.5558 28.2608C15.3888 29.1701 15.39 30.1081 15.5596 31.0165C15.1201 30.9171 14.6711 30.8727 14.2199 30.8787C13.8187 30.8862 13.4198 30.937 13.0285 31.0299C13.106 30.612 13.1481 30.1862 13.1544 29.76C13.1619 29.2593 13.1198 28.761 13.0294 28.2715ZM11.5481 34.2479C12.2938 33.5153 13.2539 33.1019 14.2528 33.0839C15.2513 33.0483 16.2194 33.4417 16.9842 34.1417L18.3817 32.5878C17.1216 30.8996 17.0878 28.5118 18.2792 26.8079L23.8959 20.5738L25.171 21.9885L26.599 20.4042L25.3239 18.9891L26.1975 18.0197L27.4721 19.4348L28.9005 17.8501L26.1966 14.8516L16.8812 25.1922C15.3317 26.5688 13.1731 26.5591 11.6323 25.1699L10.2348 26.7209C10.8525 27.5647 11.1841 28.6312 11.1678 29.724C11.1516 30.8192 10.7867 31.8754 10.1406 32.6983L11.5481 34.2479Z" fill="black"/>
<path d="M56.2319 5.83791C58.8426 5.83791 60.0858 7.28415 60.0858 10.3212V14.8045C60.0858 17.8416 58.8426 19.2878 56.2319 19.2878H49.1457V26.302H52.3158V28.3267H44.3594V26.302H47.0944V7.79032H44.3594V5.76562H56.2319V5.83791ZM58.0967 10.3212C58.0967 8.65806 57.5372 8.00725 56.1075 8.00725H49.1457V17.2631H56.1075C57.5372 17.2631 58.0967 16.6123 58.0967 14.9492V10.3212Z" fill="black"/>
<path d="M77.3069 28.3215H73.1422V25.9352C71.899 27.6706 70.5315 28.4661 67.7965 28.4661C64.6885 28.4661 63.4453 26.9475 63.4453 23.332C63.4453 19.7164 64.6885 18.7764 67.1749 18.4871C68.5424 18.3425 70.6558 18.1256 73.0801 17.9809V15.1608C73.0801 13.57 72.5206 12.9192 71.1531 12.9192H67.7343C66.3668 12.9192 65.8074 13.57 65.8074 15.1608V15.667H63.9426V15.3777C63.9426 12.413 65.1858 11.0391 67.6722 11.0391H71.2153C73.7638 11.0391 74.9448 12.4853 74.9448 15.3777V26.4414H77.2448V28.3215H77.3069ZM67.2371 20.2226C65.8695 20.4395 65.3101 20.8734 65.3101 23.332C65.3101 25.7906 65.8695 26.5137 67.7965 26.5137C70.2207 26.5137 71.4639 25.7906 73.0801 24.4166V19.4272L67.2371 20.2226Z" fill="black"/>
<path d="M94.399 28.3233H90.1721V25.937C88.6803 27.3832 87.5614 28.4679 84.7021 28.4679C81.4698 28.4679 80.2266 27.0217 80.2266 24.1292V15.3073C80.2266 12.3425 81.4698 10.9686 84.7021 10.9686C87.5614 10.9686 88.6803 12.0533 90.1721 13.4995V6.91913H87.4371V5.03906H92.0991V26.4432H94.4611V28.3233H94.399ZM90.1721 14.9457C88.556 13.5718 87.3128 12.8487 84.7642 12.8487C82.713 12.8487 82.1535 13.4995 82.1535 15.0903V24.2015C82.1535 25.7924 82.713 26.4432 84.7642 26.4432C87.3749 26.4432 88.556 25.7201 90.1721 24.3462V14.9457Z" fill="black"/>
<path d="M108.439 10.1726C108.439 8.50945 107.88 7.85866 106.45 7.85866H101.415C99.9857 7.85866 99.4263 8.50945 99.4263 10.1726V12.4866C99.4263 14.222 100.048 14.7282 101.415 15.0898L106.761 16.536C108.937 17.1145 110.739 17.7653 110.739 21.0916V23.8394C110.739 26.8765 109.496 28.3227 106.885 28.3227H101.229C98.6182 28.3227 97.375 26.8765 97.375 23.8394V21.5255H99.3641V23.9841C99.3641 25.6472 99.9235 26.298 101.353 26.298H106.761C108.191 26.298 108.75 25.6472 108.75 23.9841V21.3085C108.75 19.5731 108.129 19.0669 106.761 18.7053L101.415 17.2591C99.2398 16.6806 97.4372 16.0298 97.4372 12.7035V10.3896C97.4372 7.35248 98.6804 5.90625 101.291 5.90625H106.575C109.185 5.90625 110.429 7.35248 110.429 10.3896V12.4143H108.439V10.1726Z" fill="black"/>
<path d="M128.164 15.2411V24.0631C128.164 27.0278 126.921 28.4018 123.688 28.4018C120.829 28.4018 119.71 27.3171 118.218 25.8709V31.5111H121.14V33.3912H113.867V31.5111H116.354V12.7825H113.867V10.9024H118.218V13.2887C119.71 11.8425 120.829 10.7578 123.688 10.7578C126.983 10.9024 128.164 12.2763 128.164 15.2411ZM126.299 15.0965C126.299 13.5056 125.74 12.8548 123.688 12.8548C121.078 12.8548 119.897 13.578 118.281 14.9519V24.3523C119.897 25.7262 121.14 26.4493 123.688 26.4493C125.74 26.4493 126.299 25.7985 126.299 24.2077V15.0965Z" fill="black"/>
<path d="M142.902 2.30859L141.188 4.30272L142.902 6.29684L144.616 4.30271L142.902 2.30859Z" fill="black"/>
<path d="M137.971 28.3195H131.258V26.4394H133.744V6.77072H131.258V4.89062H135.609V26.4394H137.971V28.3195Z" fill="black"/>
<path d="M147.432 28.3274H140.719V26.4473H143.205V12.8527H140.719V10.9727H145.07V26.4473H147.432V28.3274Z" fill="black"/>
<path d="M153.267 24.0636C153.267 25.6545 153.826 26.3053 155.194 26.3053H156.996V28.33H155.131C152.583 28.33 151.402 26.8838 151.402 23.9913V12.9277H149.164V10.9753H151.402V6.78125H153.267V10.9753H156.996V12.9277H153.267V24.0636Z" fill="black"/>
</svg>
