<svg width="107" height="36" viewBox="0 0 107 36" fill="none" xmlns="http://www.w3.org/2000/svg">
<g clip-path="url(#clip0_7566_29025)">
<path d="M4.39767 14.6457V2.89998H0.1875V0.184731H11.7197V2.89998H7.50953V14.6457H4.39767ZM14.8621 7.41523C14.8621 3.05252 18.035 -0.0593427 22.4282 -0.0593427C26.7909 -0.0593427 29.9638 3.05252 29.9638 7.41523C29.9638 11.7779 26.7909 14.8898 22.4282 14.8898C18.035 14.8898 14.8621 11.7779 14.8621 7.41523ZM26.7909 7.41523C26.7909 4.69998 25.0824 2.68642 22.4282 2.68642C19.7434 2.68642 18.035 4.73049 18.035 7.41523C18.035 10.1 19.7434 12.1746 22.4282 12.1746C25.0824 12.144 26.7909 10.1 26.7909 7.41523ZM44.4858 14.6457L37.5909 5.21863V14.6457H34.5095V0.184731H37.6824L44.3943 9.27625V0.184731H47.4756V14.6457C47.4451 14.6457 44.4858 14.6457 44.4858 14.6457ZM56.7197 14.6457V8.7271L51.1672 0.184731H54.7061L58.2756 5.98134L61.8451 0.184731H65.3536L59.8011 8.7271V14.6457H56.7197ZM85.1536 14.6457L82.3163 9.52033H80.0587V14.6457H76.9773V0.184731H83.7502C86.7706 0.184731 88.6316 2.13727 88.6316 4.82201C88.6316 7.35422 87.0146 8.75761 85.4587 9.12371L88.7231 14.6457H85.1536ZM85.4892 4.82201C85.4892 3.63218 84.5739 2.89998 83.3231 2.89998H80.0587V6.80506H83.3231C84.5434 6.77456 85.4892 6.04235 85.4892 4.82201ZM92.6282 7.41523C92.6282 3.05252 95.8011 -0.0593427 100.194 -0.0593427C104.557 -0.0593427 107.73 3.05252 107.73 7.41523C107.73 11.7779 104.557 14.8898 100.194 14.8898C95.8011 14.8898 92.6282 11.7779 92.6282 7.41523ZM104.557 7.41523C104.557 4.69998 102.849 2.68642 100.194 2.68642C97.5095 2.68642 95.8011 4.73049 95.8011 7.41523C95.8011 10.1 97.5095 12.1746 100.194 12.1746C102.849 12.144 104.557 10.1 104.557 7.41523ZM112.276 14.6457V0.184731H119.903C122.649 0.184731 124.082 1.95422 124.082 3.87626C124.082 5.67626 122.954 6.89659 121.581 7.17117C123.137 7.41524 124.357 8.91015 124.357 10.7102C124.357 12.9068 122.923 14.6457 120.147 14.6457H112.276ZM120.91 4.3949C120.91 3.51015 120.269 2.86947 119.232 2.86947H115.387V5.88981H119.232C120.269 5.92032 120.91 5.34066 120.91 4.3949ZM121.184 10.283C121.184 9.36778 120.543 8.63557 119.354 8.63557H115.387V11.9H119.354C120.482 11.9 121.184 11.3203 121.184 10.283ZM129.025 14.6457V0.184731H136.621C139.367 0.184731 140.801 1.95422 140.801 3.87626C140.801 5.67626 139.672 6.89659 138.299 7.17117C139.855 7.41524 141.076 8.91015 141.076 10.7102C141.076 12.9068 139.642 14.6457 136.865 14.6457H129.025ZM137.659 4.3949C137.659 3.51015 137.018 2.86947 135.981 2.86947H132.137V5.88981H135.981C136.988 5.92032 137.659 5.34066 137.659 4.3949ZM137.933 10.283C137.933 9.36778 137.293 8.63557 136.103 8.63557H132.137V11.9H136.103C137.232 11.9 137.933 11.3203 137.933 10.283ZM145.774 14.6457V0.184731H148.855V14.6457H145.774ZM164.079 14.6457L157.184 5.21863V14.6457H154.103V0.184731H157.276L163.988 9.27625V0.184731H167.069V14.6457C167.038 14.6457 164.079 14.6457 164.079 14.6457ZM171.279 12.5712L172.957 10.161C173.964 11.2288 175.55 12.1135 177.564 12.1135C179.272 12.1135 180.065 11.3508 180.065 10.4966C180.065 7.9949 171.737 9.73388 171.737 4.30337C171.737 1.89321 173.811 -0.0898438 177.228 -0.0898438C179.516 -0.0898438 181.438 0.611844 182.872 1.92371L181.164 4.21184C180.004 3.11354 178.418 2.62541 176.954 2.62541C175.672 2.62541 174.91 3.20506 174.91 4.0593C174.91 6.34744 183.208 4.79151 183.208 10.1915C183.208 12.8152 181.286 14.8288 177.411 14.8288C174.635 14.8898 172.652 13.9746 171.279 12.5712Z" fill="black"/>
</g>
<g clip-path="url(#clip1_7566_29025)">
<path d="M-72.1805 35.6965V23.9508H-76.3906V21.2355H-64.8584V23.9508H-69.0686V35.6965H-72.1805ZM-61.716 28.466C-61.716 24.1033 -58.5432 20.9914 -54.15 20.9914C-49.7872 20.9914 -46.6144 24.1033 -46.6144 28.466C-46.6144 32.8287 -49.7872 35.9406 -54.15 35.9406C-58.5432 35.9406 -61.716 32.8287 -61.716 28.466ZM-49.7872 28.466C-49.7872 25.7508 -51.4957 23.7372 -54.15 23.7372C-56.8347 23.7372 -58.5432 25.7813 -58.5432 28.466C-58.5432 31.1508 -56.8347 33.2253 -54.15 33.2253C-51.4957 33.1948 -49.7872 31.1508 -49.7872 28.466ZM-32.0923 35.6965L-38.9872 26.2694V35.6965H-42.0686V21.2355H-38.8957L-32.1838 30.327V21.2355H-29.1025V35.6965C-29.133 35.6965 -32.0923 35.6965 -32.0923 35.6965ZM-19.8584 35.6965V29.7779L-25.411 21.2355H-21.872L-18.3025 27.0321L-14.733 21.2355H-11.2245L-16.7771 29.7779V35.6965H-19.8584ZM8.57547 35.6965L5.73819 30.5711H3.48057V35.6965H0.3992V21.2355H7.17209C10.1924 21.2355 12.0534 23.188 12.0534 25.8728C12.0534 28.405 10.4365 29.8084 8.88056 30.1745L12.145 35.6965H8.57547ZM8.91107 25.8728C8.91107 24.683 7.99581 23.9508 6.74496 23.9508H3.48057V27.8558H6.74496C7.9653 27.8253 8.91107 27.0931 8.91107 25.8728ZM16.05 28.466C16.05 24.1033 19.2229 20.9914 23.6162 20.9914C27.9789 20.9914 31.1517 24.1033 31.1517 28.466C31.1517 32.8287 27.9789 35.9406 23.6162 35.9406C19.2229 35.9406 16.05 32.8287 16.05 28.466ZM27.9789 28.466C27.9789 25.7508 26.2704 23.7372 23.6162 23.7372C20.9314 23.7372 19.2229 25.7813 19.2229 28.466C19.2229 31.1508 20.9314 33.2253 23.6162 33.2253C26.2704 33.1948 27.9789 31.1508 27.9789 28.466ZM35.6975 35.6965V21.2355H43.3246C46.0704 21.2355 47.5043 23.005 47.5043 24.927C47.5043 26.727 46.3755 27.9474 45.0026 28.222C46.5585 28.466 47.7789 29.9609 47.7789 31.7609C47.7789 33.9575 46.345 35.6965 43.5687 35.6965H35.6975ZM44.3314 25.4457C44.3314 24.5609 43.6907 23.9203 42.6534 23.9203H38.8094V26.9406H42.6534C43.6907 26.9711 44.3314 26.3914 44.3314 25.4457ZM44.606 31.3338C44.606 30.4186 43.9653 29.6864 42.7755 29.6864H38.8094V32.9508H42.7755C43.9043 32.9508 44.606 32.3711 44.606 31.3338ZM52.4467 35.6965V21.2355H60.0433C62.789 21.2355 64.2229 23.005 64.2229 24.927C64.2229 26.727 63.0941 27.9474 61.7212 28.222C63.2772 28.466 64.4975 29.9609 64.4975 31.7609C64.4975 33.9575 63.0636 35.6965 60.2873 35.6965H52.4467ZM61.0806 25.4457C61.0806 24.5609 60.4399 23.9203 59.4026 23.9203H55.5585V26.9406H59.4026C60.4094 26.9711 61.0806 26.3914 61.0806 25.4457ZM61.3551 31.3338C61.3551 30.4186 60.7145 29.6864 59.5246 29.6864H55.5585V32.9508H59.5246C60.6534 32.9508 61.3551 32.3711 61.3551 31.3338ZM69.1958 35.6965V21.2355H72.2772V35.6965H69.1958ZM87.5009 35.6965L80.606 26.2694V35.6965H77.5246V21.2355H80.6975L87.4094 30.327V21.2355H90.4907V35.6965C90.4602 35.6965 87.5009 35.6965 87.5009 35.6965ZM94.7009 33.622L96.3789 31.2118C97.3856 32.2796 98.9721 33.1643 100.986 33.1643C102.694 33.1643 103.487 32.4016 103.487 31.5474C103.487 29.0457 95.1585 30.7847 95.1585 25.3542C95.1585 22.944 97.2331 20.9609 100.65 20.9609C102.938 20.9609 104.86 21.6626 106.294 22.9745L104.586 25.2626C103.426 24.1643 101.84 23.6762 100.375 23.6762C99.0941 23.6762 98.3314 24.2558 98.3314 25.1101C98.3314 27.3982 106.63 25.8423 106.63 31.2423C106.63 33.866 104.708 35.8796 100.833 35.8796C98.0568 35.9406 96.0738 35.0253 94.7009 33.622Z" fill="black"/>
</g>
<defs>
<clipPath id="clip0_7566_29025">
<rect width="65.5932" height="14.9492" fill="white"/>
</clipPath>
<clipPath id="clip1_7566_29025">
<rect width="106.78" height="14.9492" fill="white" transform="translate(0 21.0508)"/>
</clipPath>
</defs>
</svg>
