<svg xmlns="http://www.w3.org/2000/svg" width="24" height="24" viewBox="0 0 24 24" fill="none">
    <path d="M8.30748 5V9.67913M15.7941 5V9.67913M6.43583 7.33956H17.6657C17.9139 7.33956 18.152 7.43816 18.3275 7.61366C18.503 7.78916 18.6016 8.02719 18.6016 8.27539V17.6336C18.6016 17.8818 18.503 18.1199 18.3275 18.2954C18.152 18.4709 17.9139 18.5695 17.6657 18.5695H6.43583C6.18763 18.5695 5.9496 18.4709 5.7741 18.2954C5.5986 18.1199 5.5 17.8818 5.5 17.6336V8.27539C5.5 8.02719 5.5986 7.78916 5.7741 7.61366C5.9496 7.43816 6.18763 7.33956 6.43583 7.33956Z" stroke="#AEAEB2" stroke-width="1.4" stroke-linecap="round"/>
    <path d="M10 12.8733L11.8717 14.745L13.5093 12.8733L14.3282 11.9375" stroke="#AEAEB2" stroke-width="1.4" stroke-linecap="round"/>
</svg>
