<svg width="24" height="24" viewBox="0 0 24 24" fill="none" xmlns="http://www.w3.org/2000/svg">
<path d="M6.46667 10.4083C5.94507 10.4083 5.44484 10.6155 5.07602 10.9844C4.7072 11.3532 4.5 11.8534 4.5 12.375V14.3417C4.5 14.8633 4.7072 15.3635 5.07602 15.7323C5.44484 16.1011 5.94507 16.3083 6.46667 16.3083H6.95833C7.08873 16.3083 7.21379 16.2565 7.30599 16.1643C7.3982 16.0721 7.45 15.9471 7.45 15.8167V10.9C7.45 10.7696 7.3982 10.6445 7.30599 10.5523C7.21379 10.4601 7.08873 10.4083 6.95833 10.4083H6.46667ZM6.46667 10.4083C6.46667 8.97395 7.03647 7.59832 8.05073 6.58406C9.06499 5.5698 10.4406 5 11.875 5C13.3094 5 14.685 5.5698 15.6993 6.58406C16.7135 7.59832 17.2833 8.97395 17.2833 10.4083M17.2833 16.3083H16.7917C16.6613 16.3083 16.5362 16.2565 16.444 16.1643C16.3518 16.0721 16.3 15.9471 16.3 15.8167V10.9C16.3 10.7696 16.3518 10.6445 16.444 10.5523C16.5362 10.4601 16.6613 10.4083 16.7917 10.4083H17.2833M17.2833 16.3083C17.8049 16.3083 18.3052 16.1011 18.674 15.7323C19.0428 15.3635 19.25 14.8633 19.25 14.3417V12.375C19.25 11.8534 19.0428 11.3532 18.674 10.9844C18.3052 10.6155 17.8049 10.4083 17.2833 10.4083M17.2833 16.3083V16.8C17.2833 17.3216 17.0761 17.8218 16.7073 18.1906C16.3385 18.5595 15.8383 18.7667 15.3167 18.7667H13.8417" stroke="#AEAEB2" stroke-width="1.4" stroke-linecap="round" stroke-linejoin="round"/>
<path d="M12.8573 19.7518H11.874C11.6132 19.7518 11.363 19.6482 11.1786 19.4638C10.9942 19.2794 10.8906 19.0293 10.8906 18.7685C10.8906 18.5077 10.9942 18.2576 11.1786 18.0732C11.363 17.8888 11.6132 17.7852 11.874 17.7852H12.8573C13.1181 17.7852 13.3682 17.8888 13.5526 18.0732C13.737 18.2576 13.8406 18.5077 13.8406 18.7685C13.8406 19.0293 13.737 19.2794 13.5526 19.4638C13.3682 19.6482 13.1181 19.7518 12.8573 19.7518Z" stroke="#AEAEB2" stroke-width="1.2" stroke-linecap="round" stroke-linejoin="round"/>
</svg>
