<svg width="20" height="20" viewBox="0 0 20 20" fill="none" xmlns="http://www.w3.org/2000/svg">
<path fill-rule="evenodd" clip-rule="evenodd" d="M9.10359 1.25C7.83794 1.25 6.81193 2.27601 6.81193 3.54167V3.81245H3.37976C1.97323 3.81245 0.833008 4.95267 0.833008 6.35921C0.833008 9.88845 3.69403 12.7495 7.22328 12.7495H8.29094V14.7074C8.29094 15.1677 8.66404 15.5408 9.12428 15.5408H10.8741C11.3343 15.5408 11.7074 15.1677 11.7074 14.7074V12.7495H12.775C16.3043 12.7495 19.1653 9.88845 19.1653 6.35921C19.1653 4.95267 18.0251 3.81245 16.6185 3.81245H13.1866V3.54167C13.1866 2.27602 12.1606 1.25 10.8949 1.25H9.10359ZM11.9366 3.81245V3.54167C11.9366 2.96637 11.4702 2.5 10.8949 2.5H9.10359C8.5283 2.5 8.06193 2.96637 8.06193 3.54167V3.81245H11.9366ZM8.29094 10.3953V11.4995H7.22328C4.38438 11.4995 2.08301 9.1981 2.08301 6.35921C2.08301 5.64303 2.66359 5.06245 3.37976 5.06245H16.6185C17.3347 5.06245 17.9153 5.64303 17.9153 6.35921C17.9153 9.1981 15.6139 11.4995 12.775 11.4995H11.7074V10.3953C11.7074 9.93505 11.3343 9.56195 10.8741 9.56195H9.12428C8.66404 9.56195 8.29094 9.93505 8.29094 10.3953ZM2.93703 12.9784C2.93703 12.6332 2.6572 12.3534 2.31203 12.3534C1.96685 12.3534 1.68703 12.6332 1.68703 12.9784V15.6031C1.68703 17.329 3.08614 18.7281 4.81203 18.7281H15.1861C16.912 18.7281 18.3111 17.329 18.3111 15.6031V12.9784C18.3111 12.6332 18.0313 12.3534 17.6861 12.3534C17.3409 12.3534 17.0611 12.6332 17.0611 12.9784V15.6031C17.0611 16.6386 16.2216 17.4781 15.1861 17.4781H4.81203C3.77649 17.4781 2.93703 16.6386 2.93703 15.6031V12.9784ZM9.54094 10.812V14.2908H10.4574V10.812H9.54094Z" fill="black"/>
</svg>
