<svg width="12" height="16" viewBox="0 0 12 16" fill="none" xmlns="http://www.w3.org/2000/svg">
<mask id="mask0_1832_9355" style="mask-type:luminance" maskUnits="userSpaceOnUse" x="0" y="0" width="12" height="16">
<path d="M7.41331 0.228516H1.40833C0.825498 0.228516 0.348633 0.705381 0.348633 1.28822V14.7111C0.348633 15.2939 0.825498 15.7708 1.40833 15.7708H10.5924C11.1752 15.7708 11.6521 15.2939 11.6521 14.7111V4.46732L7.41331 0.228516Z" fill="white"/>
</mask>
<g mask="url(#mask0_1832_9355)">
<path d="M7.41331 0.228516H1.40833C0.825498 0.228516 0.348633 0.705381 0.348633 1.28822V14.7111C0.348633 15.2939 0.825498 15.7708 1.40833 15.7708H10.5924C11.1752 15.7708 11.6521 15.2939 11.6521 14.7111V4.46732L9.17948 2.70115L7.41331 0.228516Z" fill="#0F9D58"/>
</g>
<mask id="mask1_1832_9355" style="mask-type:luminance" maskUnits="userSpaceOnUse" x="0" y="0" width="12" height="16">
<path d="M7.41331 0.228516H1.40833C0.825498 0.228516 0.348633 0.705381 0.348633 1.28822V14.7111C0.348633 15.2939 0.825498 15.7708 1.40833 15.7708H10.5924C11.1752 15.7708 11.6521 15.2939 11.6521 14.7111V4.46732L7.41331 0.228516Z" fill="white"/>
</mask>
<g mask="url(#mask1_1832_9355)">
<path d="M3.1748 7.82324V12.9451H8.82655V7.82324H3.1748ZM5.64744 12.2387H3.88127V11.3556H5.64744V12.2387ZM5.64744 10.8257H3.88127V9.94264H5.64744V10.8257ZM5.64744 9.41279H3.88127V8.52971H5.64744V9.41279ZM8.12008 12.2387H6.35391V11.3556H8.12008V12.2387ZM8.12008 10.8257H6.35391V9.94264H8.12008V10.8257ZM8.12008 9.41279H6.35391V8.52971H8.12008V9.41279Z" fill="#F1F1F1"/>
</g>
<mask id="mask2_1832_9355" style="mask-type:luminance" maskUnits="userSpaceOnUse" x="0" y="0" width="12" height="16">
<path d="M7.41331 0.228516H1.40833C0.825498 0.228516 0.348633 0.705381 0.348633 1.28822V14.7111C0.348633 15.2939 0.825498 15.7708 1.40833 15.7708H10.5924C11.1752 15.7708 11.6521 15.2939 11.6521 14.7111V4.46732L7.41331 0.228516Z" fill="white"/>
</mask>
<g mask="url(#mask2_1832_9355)">
<path d="M7.72363 4.15723L11.6525 8.08519V4.46719L7.72363 4.15723Z" fill="url(#paint0_linear_1832_9355)"/>
</g>
<mask id="mask3_1832_9355" style="mask-type:luminance" maskUnits="userSpaceOnUse" x="0" y="0" width="12" height="16">
<path d="M7.41331 0.228516H1.40833C0.825498 0.228516 0.348633 0.705381 0.348633 1.28822V14.7111C0.348633 15.2939 0.825498 15.7708 1.40833 15.7708H10.5924C11.1752 15.7708 11.6521 15.2939 11.6521 14.7111V4.46732L7.41331 0.228516Z" fill="white"/>
</mask>
<g mask="url(#mask3_1832_9355)">
<path d="M7.41309 0.228516V3.40762C7.41309 3.99311 7.8873 4.46732 8.47279 4.46732H11.6519L7.41309 0.228516Z" fill="#87CEAC"/>
</g>
<mask id="mask4_1832_9355" style="mask-type:luminance" maskUnits="userSpaceOnUse" x="0" y="0" width="12" height="16">
<path d="M7.41331 0.228516H1.40833C0.825498 0.228516 0.348633 0.705381 0.348633 1.28822V14.7111C0.348633 15.2939 0.825498 15.7708 1.40833 15.7708H10.5924C11.1752 15.7708 11.6521 15.2939 11.6521 14.7111V4.46732L7.41331 0.228516Z" fill="white"/>
</mask>
<g mask="url(#mask4_1832_9355)">
<path d="M1.40833 0.228516C0.825499 0.228516 0.348633 0.705381 0.348633 1.28822V1.37653C0.348633 0.79369 0.825499 0.316824 1.40833 0.316824H7.41331V0.228516H1.40833Z" fill="white" fill-opacity="0.2"/>
</g>
<mask id="mask5_1832_9355" style="mask-type:luminance" maskUnits="userSpaceOnUse" x="0" y="0" width="12" height="16">
<path d="M7.41331 0.228516H1.40833C0.825498 0.228516 0.348633 0.705381 0.348633 1.28822V14.7111C0.348633 15.2939 0.825498 15.7708 1.40833 15.7708H10.5924C11.1752 15.7708 11.6521 15.2939 11.6521 14.7111V4.46732L7.41331 0.228516Z" fill="white"/>
</mask>
<g mask="url(#mask5_1832_9355)">
<path d="M10.5924 15.6827H1.40833C0.825498 15.6827 0.348633 15.2059 0.348633 14.623V14.7114C0.348633 15.2942 0.825498 15.7711 1.40833 15.7711H10.5924C11.1752 15.7711 11.6521 15.2942 11.6521 14.7114V14.623C11.6521 15.2059 11.1752 15.6827 10.5924 15.6827Z" fill="#263238" fill-opacity="0.2"/>
</g>
<mask id="mask6_1832_9355" style="mask-type:luminance" maskUnits="userSpaceOnUse" x="0" y="0" width="12" height="16">
<path d="M7.41331 0.228516H1.40833C0.825498 0.228516 0.348633 0.705381 0.348633 1.28822V14.7111C0.348633 15.2939 0.825498 15.7708 1.40833 15.7708H10.5924C11.1752 15.7708 11.6521 15.2939 11.6521 14.7111V4.46732L7.41331 0.228516Z" fill="white"/>
</mask>
<g mask="url(#mask6_1832_9355)">
<path d="M8.47279 4.46693C7.8873 4.46693 7.41309 3.99271 7.41309 3.40723V3.49554C7.41309 4.08102 7.8873 4.55524 8.47279 4.55524H11.6519V4.46693H8.47279Z" fill="#263238" fill-opacity="0.1"/>
</g>
<path d="M7.41331 0.228516H1.40833C0.825498 0.228516 0.348633 0.705381 0.348633 1.28822V14.7111C0.348633 15.2939 0.825498 15.7708 1.40833 15.7708H10.5924C11.1752 15.7708 11.6521 15.2939 11.6521 14.7111V4.46732L7.41331 0.228516Z" fill="url(#paint1_radial_1832_9355)"/>
<defs>
<linearGradient id="paint0_linear_1832_9355" x1="204.187" y1="37.8831" x2="204.187" y2="397.008" gradientUnits="userSpaceOnUse">
<stop stop-color="#263238" stop-opacity="0.2"/>
<stop offset="1" stop-color="#263238" stop-opacity="0.02"/>
</linearGradient>
<radialGradient id="paint1_radial_1832_9355" cx="0" cy="0" r="1" gradientUnits="userSpaceOnUse" gradientTransform="translate(36.1586 30.9469) scale(1822.67 1822.67)">
<stop stop-color="white" stop-opacity="0.1"/>
<stop offset="1" stop-color="white" stop-opacity="0"/>
</radialGradient>
</defs>
</svg>
