<svg width="16" height="16" viewBox="0 0 16 16" fill="none" xmlns="http://www.w3.org/2000/svg">
<path d="M12.0149 5.41623V3.53722C12.2632 3.42116 12.4735 3.23697 12.6212 3.00608C12.7689 2.77518 12.848 2.50709 12.8492 2.233V2.18989C12.8492 1.39074 12.2014 0.742898 11.4023 0.742898H11.3591C10.56 0.742898 9.91214 1.39074 9.91214 2.18989V2.233C9.9134 2.50709 9.99249 2.77518 10.1402 3.00608C10.2879 3.23697 10.4981 3.42116 10.7464 3.53722V5.41623C10.0328 5.52552 9.36066 5.82144 8.79814 6.27403L3.64484 2.26013C3.68158 2.12748 3.70075 1.99107 3.70292 1.85416C3.70355 1.53167 3.60852 1.21625 3.42986 0.947779C3.2512 0.679311 2.99693 0.469859 2.69922 0.345918C2.40151 0.221977 2.07372 0.189115 1.75733 0.251489C1.44093 0.313863 1.15015 0.468671 0.921749 0.696331C0.69335 0.92399 0.5376 1.21427 0.4742 1.53046C0.4108 1.84665 0.442599 2.17454 0.565573 2.47265C0.688548 2.77077 0.897174 3.02572 1.16506 3.20525C1.43295 3.38478 1.74806 3.48082 2.07055 3.48124C2.35266 3.47991 2.62949 3.40459 2.87339 3.26281L7.94792 7.21156C7.01497 8.62091 7.03994 10.4577 8.01077 11.8413L6.46737 13.3851C6.34255 13.3453 6.21264 13.324 6.08164 13.3223C5.34248 13.3229 4.74368 13.9223 4.74387 14.6615C4.74406 15.4006 5.34325 15.9997 6.08234 15.9999C6.82151 16.0001 7.42095 15.4013 7.42158 14.6621C7.41984 14.5312 7.39864 14.4012 7.35867 14.2765L8.88552 12.7491C10.2498 13.7993 12.1235 13.8898 13.5827 12.9759C15.0418 12.0619 15.7781 10.3365 15.4285 8.65072C15.0789 6.96486 13.7172 5.67465 12.0149 5.41623ZM11.3821 11.5962C11.1 11.6037 10.8192 11.5547 10.5564 11.452C10.2936 11.3493 10.054 11.195 9.85181 10.9982C9.64962 10.8014 9.4889 10.566 9.37917 10.306C9.26943 10.0461 9.2129 9.76675 9.2129 9.48457C9.2129 9.2024 9.26943 8.92308 9.37917 8.66311C9.4889 8.40314 9.64962 8.1678 9.85181 7.97097C10.054 7.77414 10.2936 7.61982 10.5564 7.51711C10.8192 7.41441 11.1 7.36541 11.3821 7.37299C12.5188 7.4128 13.4199 8.34555 13.4205 9.48305C13.421 10.6204 12.5209 11.5541 11.3842 11.5951" fill="#FF7A59"/>
</svg>
