<svg width="16" height="16" viewBox="0 0 16 16" fill="none" xmlns="http://www.w3.org/2000/svg">
<g clip-path="url(#clip0_1313_12714)">
<mask id="mask0_1313_12714" style="mask-type:luminance" maskUnits="userSpaceOnUse" x="0" y="2" width="17" height="12">
<path d="M0.00390625 2.0293H16.6095V13.3033H0.00390625V2.0293Z" fill="white"/>
</mask>
<g mask="url(#mask0_1313_12714)">
<path fill-rule="evenodd" clip-rule="evenodd" d="M6.89866 3.26335C7.43468 2.72101 8.18071 2.38516 9.00489 2.38516C10.1038 2.38516 11.0562 2.97853 11.569 3.86265C12.0242 3.66486 12.5173 3.56275 13.0159 3.563C14.9939 3.563 16.5995 5.13542 16.5995 7.07574C16.5995 9.01605 14.9939 10.5885 13.0159 10.5885C12.7741 10.5885 12.5385 10.5649 12.3077 10.5202C11.859 11.2976 11.0012 11.8257 10.0244 11.8257C9.62673 11.8264 9.23414 11.7387 8.87668 11.5693C8.42186 12.6077 7.36264 13.3376 6.12943 13.3376C4.84127 13.3376 3.74848 12.5484 3.32723 11.4388C3.13975 11.4772 2.94864 11.4966 2.75702 11.4964C1.22467 11.4964 -0.0146484 10.2741 -0.0146484 8.77289C-0.0146484 7.76416 0.543349 6.88598 1.37119 6.41128C1.19556 6.01806 1.10516 5.59389 1.10562 5.16521C1.10562 3.43258 2.55251 2.03223 4.33517 2.03223C5.37912 2.03223 6.31319 2.51582 6.89927 3.26643" fill="#00A1E0"/>
</g>
<path fill-rule="evenodd" clip-rule="evenodd" d="M2.40514 7.89156C2.3947 7.91802 2.40887 7.92354 2.41222 7.92823C2.44342 7.95018 2.47511 7.96609 2.50685 7.98395C2.67657 8.07117 2.83652 8.09669 3.0038 8.09669C3.34446 8.09669 3.5563 7.92046 3.5563 7.63683V7.63125C3.5563 7.36898 3.31699 7.27345 3.09354 7.20521L3.0643 7.19601C2.89519 7.14273 2.74928 7.09633 2.74928 6.98834V6.98282C2.74928 6.89025 2.83475 6.82201 2.96662 6.82201C3.11314 6.82201 3.28774 6.86942 3.39947 6.92941C3.39947 6.92941 3.43255 6.95018 3.44458 6.91915C3.45111 6.90236 3.50807 6.75419 3.51418 6.73758C3.52065 6.72019 3.50929 6.70708 3.49763 6.70031C3.36943 6.62436 3.19238 6.57274 3.00923 6.57274L2.97523 6.57286C2.66326 6.57286 2.44531 6.75621 2.44531 7.01848V7.02412C2.44531 7.30062 2.68585 7.39082 2.91052 7.45312L2.94666 7.46404C3.11027 7.51293 3.25191 7.55542 3.25191 7.66697V7.67255C3.25191 7.7752 3.15972 7.85175 3.01198 7.85175C2.95453 7.85175 2.77144 7.8508 2.57303 7.72892C2.54904 7.71533 2.53536 7.70554 2.51686 7.69456C2.5071 7.68881 2.48268 7.67842 2.47205 7.70951L2.4049 7.89109M7.39269 7.89109C7.38225 7.91755 7.39641 7.92307 7.39989 7.92776C7.43097 7.94971 7.46277 7.96561 7.49452 7.98347C7.66424 8.0707 7.82419 8.09621 7.99147 8.09621C8.33213 8.09621 8.54397 7.91998 8.54397 7.63635V7.63077C8.54397 7.36851 8.30526 7.27297 8.08121 7.20474L8.05197 7.19554C7.88286 7.14225 7.73695 7.09585 7.73695 6.98786V6.98234C7.73695 6.88978 7.82242 6.82154 7.95429 6.82154C8.10081 6.82154 8.2748 6.86895 8.38713 6.92894C8.38713 6.92894 8.42022 6.94971 8.43231 6.91867C8.43878 6.90188 8.4958 6.75372 8.5013 6.7371C8.50783 6.71972 8.49641 6.7066 8.48481 6.69984C8.35661 6.62389 8.17956 6.57227 7.99641 6.57227L7.96235 6.57238C7.65038 6.57238 7.43243 6.75574 7.43243 7.018V7.02364C7.43243 7.30015 7.67297 7.39034 7.89763 7.45265L7.93371 7.46356C8.09794 7.51246 8.23896 7.55494 8.23896 7.6665V7.67207C8.23896 7.77473 8.14678 7.85127 7.99904 7.85127C7.94147 7.85127 7.75789 7.85032 7.56009 7.72844C7.5361 7.71486 7.52205 7.70548 7.50386 7.69409C7.49769 7.69029 7.46894 7.67937 7.45911 7.70904L7.39196 7.89061M10.7986 7.33522C10.7986 7.49543 10.7678 7.62182 10.7076 7.71141C10.6475 7.79983 10.5568 7.84314 10.4304 7.84314C10.304 7.84314 10.2137 7.80018 10.1545 7.71201C10.0948 7.623 10.0647 7.49602 10.0647 7.33581C10.0647 7.1756 10.095 7.04981 10.1545 6.9614C10.2136 6.87358 10.3034 6.83145 10.4304 6.83145C10.5574 6.83145 10.6478 6.87399 10.7076 6.9614C10.7681 7.04981 10.7986 7.1756 10.7986 7.33581M11.083 7.03853C11.055 6.94656 11.0116 6.86586 10.9536 6.79822C10.8956 6.73058 10.8224 6.67599 10.7351 6.63682C10.6484 6.59736 10.5458 6.57749 10.4298 6.57749C10.3138 6.57749 10.2119 6.59748 10.1246 6.63682C10.0379 6.67622 9.964 6.73058 9.906 6.79822C9.84812 6.86586 9.80465 6.94656 9.77657 7.03853C9.74879 7.12991 9.73469 7.2296 9.73469 7.33581C9.73469 7.44202 9.74879 7.54171 9.77657 7.63309C9.80447 7.72506 9.848 7.80576 9.906 7.8734C9.96406 7.94105 10.0379 7.99504 10.1246 8.03361C10.2119 8.07206 10.3144 8.09164 10.4298 8.09164C10.5452 8.09164 10.6478 8.07206 10.7344 8.03361C10.8211 7.99516 10.895 7.94105 10.953 7.8734C11.0109 7.80576 11.0543 7.72506 11.0824 7.63309C11.1101 7.54171 11.1243 7.44202 11.1243 7.33581C11.1243 7.23019 11.1101 7.12991 11.0824 7.03853M13.4207 7.79805C13.4113 7.77117 13.3843 7.78131 13.3843 7.78131C13.343 7.79668 13.2989 7.81092 13.2518 7.81804C13.2045 7.82528 13.1517 7.8289 13.0962 7.8289C12.9588 7.8289 12.8489 7.78909 12.7708 7.71023C12.692 7.63131 12.6481 7.50433 12.6487 7.33225C12.6491 7.1756 12.6881 7.05812 12.758 6.96792C12.8269 6.87892 12.9332 6.83264 13.0736 6.83264C13.1908 6.83264 13.2805 6.84587 13.3746 6.87447C13.3746 6.87447 13.3968 6.8839 13.4075 6.85536C13.4325 6.78831 13.4509 6.74025 13.4777 6.66667C13.4853 6.64561 13.4667 6.63671 13.46 6.63415C13.4231 6.62015 13.336 6.59719 13.2701 6.58751C13.2084 6.57838 13.137 6.57363 13.0564 6.57363C12.9368 6.57363 12.8305 6.59351 12.7396 6.63291C12.6486 6.67225 12.5717 6.72666 12.5106 6.7943C12.4496 6.86195 12.4032 6.94265 12.3721 7.03462C12.3412 7.126 12.3257 7.22628 12.3257 7.33249C12.3257 7.56153 12.3891 7.74725 12.5149 7.88313C12.6407 8.01961 12.8299 8.08844 13.0766 8.08844C13.2225 8.08844 13.3721 8.05978 13.4795 8.01842C13.4795 8.01842 13.5 8.00881 13.4911 7.98555L13.4209 7.79805M13.9185 7.18094C13.9321 7.09194 13.9572 7.01777 13.9966 6.96021C14.0556 6.87239 14.1456 6.82433 14.2719 6.82433C14.3983 6.82433 14.4819 6.87263 14.5418 6.96021C14.5815 7.01806 14.5988 7.0949 14.6053 7.18094L13.9154 7.18082L13.9185 7.18094ZM14.8769 6.98513C14.8527 6.89672 14.7927 6.80712 14.7536 6.76618C14.6913 6.7015 14.6309 6.65581 14.5705 6.63089C14.4832 6.59483 14.3893 6.57632 14.2945 6.57648C14.1743 6.57648 14.065 6.59624 13.9765 6.63641C13.8879 6.67688 13.8134 6.73194 13.7548 6.80077C13.6963 6.8696 13.6523 6.95089 13.6242 7.04405C13.5961 7.13602 13.5819 7.2369 13.5819 7.34252C13.5819 7.45051 13.5967 7.55079 13.6256 7.64157C13.6548 7.73295 13.7019 7.81306 13.7654 7.87951C13.8289 7.94657 13.9101 7.99878 14.0078 8.03557C14.1048 8.07206 14.2227 8.09099 14.3576 8.09058C14.636 8.08969 14.7825 8.02946 14.8423 7.99682C14.853 7.99101 14.8631 7.98098 14.8505 7.95208L14.7876 7.7806C14.778 7.75503 14.7514 7.76428 14.7514 7.76428C14.6824 7.78932 14.5847 7.8343 14.3558 7.83371C14.2062 7.83347 14.0957 7.79057 14.0261 7.72334C13.9553 7.65451 13.9199 7.55423 13.9144 7.41182L14.879 7.41253C14.879 7.41253 14.9044 7.4123 14.907 7.38821C14.908 7.37824 14.94 7.19595 14.8782 6.98531L14.8769 6.98513ZM6.20783 7.18094C6.22144 7.09194 6.2466 7.01777 6.28597 6.96021C6.34507 6.87239 6.43494 6.82433 6.56131 6.82433C6.68768 6.82433 6.77132 6.87263 6.83115 6.96021C6.87077 7.01806 6.88811 7.0949 6.89464 7.18094L6.20478 7.18082L6.20783 7.18094ZM7.16632 6.98513C7.14214 6.89672 7.08207 6.80712 7.04299 6.76618C6.98072 6.7015 6.92028 6.65581 6.85984 6.63089C6.77259 6.59483 6.67872 6.57632 6.5839 6.57648C6.46363 6.57648 6.35435 6.59624 6.26583 6.63641C6.1773 6.67688 6.10282 6.73194 6.04422 6.80077C5.98579 6.8696 5.94165 6.95089 5.91357 7.04405C5.88555 7.13602 5.87144 7.2369 5.87144 7.34252C5.87144 7.45051 5.88603 7.55079 5.91516 7.64157C5.94434 7.73295 5.99147 7.81306 6.05435 7.87951C6.11784 7.94657 6.19904 7.99878 6.29672 8.03557C6.39379 8.07206 6.511 8.09099 6.64653 8.09058C6.92492 8.08969 7.07144 8.02946 7.13127 7.99682C7.1419 7.99101 7.15203 7.98098 7.13939 7.95208L7.07651 7.7806C7.0668 7.75503 7.04019 7.76428 7.04019 7.76428C6.9712 7.78932 6.87352 7.8343 6.64458 7.83371C6.49562 7.83347 6.38451 7.79057 6.31491 7.72334C6.24409 7.65451 6.20868 7.55423 6.20319 7.41182L7.16778 7.41253C7.16778 7.41253 7.19318 7.4123 7.1958 7.38821C7.19684 7.37824 7.22883 7.19595 7.16699 6.98531L7.16632 6.98513ZM4.12602 7.79211C4.08823 7.7628 4.08298 7.75562 4.07047 7.73657C4.05136 7.70791 4.04159 7.66715 4.04159 7.61493C4.04159 7.53305 4.06967 7.47371 4.12767 7.43395C4.12706 7.43407 4.2107 7.36394 4.40728 7.36631C4.49478 7.36783 4.58207 7.37507 4.66857 7.38797V7.81341H4.6687C4.6687 7.81341 4.5466 7.83899 4.40862 7.84706C4.21265 7.85851 4.12596 7.79223 4.12657 7.79241L4.12602 7.79211ZM4.50942 7.13347C4.47034 7.13068 4.41967 7.12932 4.35923 7.12932C4.27682 7.12932 4.19684 7.13929 4.12236 7.15887C4.04727 7.17857 3.9795 7.20907 3.9215 7.24965C3.86335 7.28998 3.81551 7.34277 3.7817 7.40393C3.74757 7.46564 3.73017 7.53803 3.73017 7.61992C3.73017 7.70299 3.74501 7.77479 3.77431 7.83353C3.80303 7.8918 3.84626 7.94217 3.90008 7.98009C3.95362 8.01795 4.01973 8.04595 4.09605 8.06257C4.17175 8.07936 4.25722 8.08785 4.35124 8.08785C4.45014 8.08785 4.54843 8.07978 4.64367 8.06417C4.72478 8.05057 4.80559 8.0353 4.88603 8.01836C4.91815 8.01118 4.9538 8.00175 4.9538 8.00175C4.97761 7.99587 4.97578 7.97113 4.97578 7.97113L4.97523 7.11668C4.97523 6.92918 4.9237 6.78973 4.82199 6.7037C4.72065 6.61766 4.5723 6.57434 4.37999 6.57434C4.30795 6.57434 4.19135 6.58384 4.12175 6.59742C4.12175 6.59742 3.91174 6.63706 3.82505 6.70304C3.82505 6.70304 3.806 6.71444 3.81638 6.74025L3.88475 6.91826C3.89324 6.94134 3.91638 6.93345 3.91638 6.93345C3.91638 6.93345 3.92364 6.93066 3.93219 6.92574C4.11717 6.82783 4.3516 6.8308 4.3516 6.8308C4.45539 6.8308 4.53597 6.85127 4.5897 6.89132C4.64226 6.93054 4.66906 6.98982 4.66906 7.11443V7.154C4.58664 7.14237 4.51033 7.13567 4.51033 7.13567L4.50942 7.13347ZM12.2628 6.65106C12.2642 6.64794 12.2649 6.64457 12.2649 6.64116C12.2649 6.63775 12.2642 6.63438 12.2629 6.63123C12.2615 6.62809 12.2596 6.62524 12.2571 6.62285C12.2545 6.62047 12.2516 6.6186 12.2483 6.61736C12.2319 6.61131 12.15 6.59452 12.0871 6.59072C11.9663 6.58336 11.8991 6.60318 11.8387 6.62953C11.779 6.65569 11.7129 6.69776 11.6763 6.74642L11.6761 6.63249C11.6761 6.61683 11.6647 6.60419 11.6485 6.60419H11.4018C11.3859 6.60419 11.3743 6.61683 11.3743 6.63249V8.02691C11.3743 8.03444 11.3774 8.04166 11.3828 8.04699C11.3883 8.05231 11.3957 8.05531 11.4035 8.05533H11.6562C11.664 8.05531 11.6714 8.05231 11.6769 8.04698C11.6824 8.04166 11.6854 8.03444 11.6854 8.02691V7.32673C11.6854 7.23298 11.696 7.13982 11.7172 7.08108C11.7381 7.02299 11.7665 6.97665 11.8015 6.94342C11.8349 6.91132 11.8757 6.88751 11.9205 6.87399C11.9626 6.86226 12.0062 6.8563 12.05 6.85631C12.1003 6.85631 12.1556 6.86889 12.1556 6.86889C12.1741 6.87091 12.1844 6.85987 12.1907 6.84361C12.2073 6.80083 12.2542 6.67272 12.2634 6.64721" fill="#FFFFFE"/>
<path fill-rule="evenodd" clip-rule="evenodd" d="M9.9031 6.00743C9.87186 5.99826 9.84008 5.99093 9.80793 5.98548C9.76468 5.97846 9.72088 5.97517 9.67704 5.97563C9.50286 5.97563 9.36556 6.02345 9.26916 6.11792C9.17343 6.21167 9.10829 6.35449 9.07563 6.54241L9.06385 6.60584H8.84523C8.84523 6.60584 8.81855 6.60478 8.81293 6.63308L8.77704 6.82771C8.77453 6.84634 8.78277 6.85797 8.80842 6.85785H9.02124L8.8053 8.02934C8.78839 8.12368 8.76904 8.20129 8.74761 8.2601C8.72649 8.31813 8.70585 8.36162 8.68045 8.39319C8.65585 8.42375 8.63253 8.44624 8.5923 8.45935C8.55909 8.47021 8.52087 8.47519 8.47899 8.47519C8.45567 8.47519 8.42465 8.47139 8.40176 8.46694C8.37887 8.46255 8.36696 8.45757 8.34981 8.45057C8.34981 8.45057 8.32484 8.44131 8.31501 8.46564C8.30701 8.48552 8.2503 8.63712 8.24358 8.65587C8.23674 8.67439 8.24633 8.68898 8.25842 8.69319C8.28674 8.70304 8.3078 8.70933 8.34639 8.71818C8.39999 8.73046 8.44517 8.73123 8.48748 8.73123C8.57612 8.73123 8.65689 8.71913 8.72386 8.69563C8.79126 8.67195 8.84993 8.63071 8.90182 8.57488C8.95793 8.51465 8.99321 8.45158 9.02697 8.36554C9.06037 8.28027 9.08882 8.17441 9.11159 8.05105L9.32856 6.85785H9.64578C9.64578 6.85785 9.67252 6.8588 9.67807 6.83061L9.71397 6.63599C9.71647 6.61736 9.70829 6.60573 9.68253 6.60584H9.37465C9.37618 6.59908 9.39016 6.49382 9.42551 6.39472C9.44059 6.35242 9.46898 6.3183 9.49303 6.29486C9.51549 6.27254 9.54315 6.25581 9.57368 6.24609C9.60714 6.23603 9.64202 6.23115 9.67704 6.23161C9.70603 6.23161 9.73448 6.23499 9.75616 6.23938C9.78601 6.24555 9.79761 6.24882 9.80542 6.25107C9.8368 6.26039 9.84102 6.25137 9.84718 6.23659L9.92081 6.04007C9.92838 6.01894 9.90994 6.01004 9.9031 6.00743ZM5.60066 8.03183C5.60066 8.04749 5.58918 8.06025 5.57307 8.06025H5.31769C5.30152 8.06025 5.29004 8.04749 5.29004 8.03183V6.03408C5.29004 6.01847 5.30152 6.00583 5.31769 6.00583H5.57307C5.58918 6.00583 5.60066 6.01847 5.60066 6.03408V8.03183Z" fill="#FFFFFE"/>
</g>
<defs>
<clipPath id="clip0_1313_12714">
<rect width="16" height="16" fill="white"/>
</clipPath>
</defs>
</svg>
