<svg width="16" height="16" viewBox="0 0 16 16" fill="none" xmlns="http://www.w3.org/2000/svg">
<path d="M13.2478 3.1422C13.2368 3.0622 13.1667 3.01793 13.1088 3.01305C13.051 3.00823 11.8275 2.91754 11.8275 2.91754C11.8275 2.91754 10.9778 2.07398 10.8846 1.98061C10.7912 1.8873 10.609 1.91568 10.5383 1.9365C10.5278 1.93957 10.3526 1.99365 10.0627 2.08335C9.77891 1.26659 9.27798 0.51601 8.39672 0.51601C8.37239 0.51601 8.34735 0.516996 8.32231 0.518421C8.07168 0.186969 7.76121 0.0429688 7.49305 0.0429688C5.44017 0.0429688 4.4594 2.60927 4.1519 3.91338C3.3542 4.16056 2.78751 4.33628 2.71513 4.35902C2.26987 4.49869 2.25579 4.51272 2.19732 4.93228C2.15332 5.24993 0.988281 14.2597 0.988281 14.2597L10.0665 15.9607L14.9854 14.8966C14.9854 14.8966 13.2586 3.2222 13.2478 3.1422ZM9.561 2.23853L8.79283 2.47628C8.7931 2.42215 8.79338 2.36889 8.79338 2.31064C8.79338 1.80302 8.72291 1.39431 8.60987 1.07031C9.06395 1.1273 9.36636 1.64395 9.561 2.23853ZM8.04658 1.17097C8.17283 1.4873 8.25491 1.94127 8.25491 2.55387C8.25491 2.58522 8.25464 2.61387 8.25436 2.64286C7.7548 2.7976 7.21195 2.9656 6.6679 3.13415C6.97338 1.95519 7.54598 1.38576 8.04658 1.17097ZM7.43667 0.593599C7.52527 0.593599 7.61453 0.623681 7.69995 0.682476C7.04204 0.992065 6.33683 1.77179 6.03902 3.32889L4.78499 3.71727C5.13382 2.5296 5.96214 0.593599 7.43667 0.593599Z" fill="#95BF46"/>
<path d="M13.1092 3.01258C13.0514 3.00776 11.8279 2.91707 11.8279 2.91707C11.8279 2.91707 10.9782 2.07351 10.885 1.98014C10.8501 1.9454 10.803 1.92759 10.7538 1.91992L10.0674 15.9601L14.9858 14.8961C14.9858 14.8961 13.2591 3.22173 13.2482 3.14173C13.2372 3.06173 13.1671 3.01746 13.1092 3.01258Z" fill="#5E8E3E"/>
<path d="M8.39717 5.73086L7.79065 7.53503C7.79065 7.53503 7.25925 7.25141 6.60785 7.25141C5.65289 7.25141 5.60484 7.8507 5.60484 8.00171C5.60484 8.82571 7.75278 9.14144 7.75278 11.0715C7.75278 12.59 6.78966 13.5679 5.49103 13.5679C3.93267 13.5679 3.13574 12.598 3.13574 12.598L3.553 11.2194C3.553 11.2194 4.37218 11.9226 5.06341 11.9226C5.51508 11.9226 5.69881 11.567 5.69881 11.3072C5.69881 10.2323 3.93662 10.1844 3.93662 8.41821C3.93662 6.93168 5.00358 5.49316 7.15733 5.49316C7.98719 5.49316 8.39717 5.73086 8.39717 5.73086Z" fill="white"/>
</svg>
