<svg width="24" height="24" viewBox="0 0 24 24" fill="none" xmlns="http://www.w3.org/2000/svg">
<rect x="0.5" y="0.5" width="23" height="23" rx="11.5" fill="#F5F5F5"/>
<rect x="0.5" y="0.5" width="23" height="23" rx="11.5" stroke="#ECECEC"/>
<path fill-rule="evenodd" clip-rule="evenodd" d="M12.6074 10.1461L11.5848 10.3624V9.5453L12.6074 9.33301V10.1461ZM14.734 10.5987C14.3348 10.5987 14.0781 10.783 13.9355 10.9111L13.8825 10.6628H12.9863V15.333L14.0048 15.1207L14.0089 13.9872C14.1555 14.0914 14.3714 14.2395 14.7299 14.2395C15.4592 14.2395 16.1233 13.6628 16.1233 12.3931C16.1192 11.2315 15.447 10.5987 14.734 10.5987ZM14.4896 13.3584C14.2492 13.3584 14.1066 13.2743 14.0089 13.1701L14.0048 11.6842C14.1107 11.568 14.2574 11.4879 14.4896 11.4879C14.8603 11.4879 15.117 11.8964 15.117 12.4211C15.117 12.9579 14.8644 13.3584 14.4896 13.3584ZM19.3337 12.4331C19.3337 11.4078 18.8285 10.5987 17.8629 10.5987C16.8933 10.5987 16.3066 11.4078 16.3066 12.4251C16.3066 13.6308 16.9992 14.2395 17.9933 14.2395C18.4781 14.2395 18.8448 14.1314 19.1218 13.9792V13.1781C18.8448 13.3143 18.527 13.3984 18.1237 13.3984C17.7285 13.3984 17.3781 13.2623 17.3333 12.7896H19.3255C19.3255 12.7675 19.327 12.7174 19.3287 12.6596C19.3309 12.5811 19.3337 12.4885 19.3337 12.4331ZM17.3211 12.0526C17.3211 11.6 17.6022 11.4118 17.8589 11.4118C18.1074 11.4118 18.3722 11.6 18.3722 12.0526H17.3211ZM11.5848 10.6668H12.6074V14.1715H11.5848V10.6668ZM10.4237 10.6668L10.4889 10.9632C10.7292 10.5306 11.2059 10.6187 11.3363 10.6668V11.588C11.2099 11.544 10.8025 11.4879 10.5622 11.7963V14.1715H9.54366V10.6668H10.4237ZM8.4518 9.79764L7.45773 10.0059L7.45366 13.2142C7.45366 13.807 7.90587 14.2436 8.50885 14.2436C8.84292 14.2436 9.08738 14.1835 9.2218 14.1114V13.2983C9.09145 13.3504 8.44773 13.5346 8.44773 12.9418V11.5199H9.2218V10.6668H8.44773L8.4518 9.79764ZM6.04405 11.4679C5.82812 11.4679 5.69773 11.528 5.69773 11.6842C5.69773 11.8547 5.92209 11.9297 6.20047 12.0228C6.65425 12.1746 7.25152 12.3743 7.25405 13.1141C7.25405 13.831 6.67145 14.2436 5.82405 14.2436C5.47366 14.2436 5.09071 14.1755 4.71181 14.0153V13.062C5.05405 13.2462 5.48587 13.3824 5.82405 13.3824C6.05219 13.3824 6.21513 13.3223 6.21513 13.1381C6.21513 12.9492 5.97192 12.8628 5.6783 12.7586C5.23111 12.5998 4.66699 12.3995 4.66699 11.7322C4.66699 11.0233 5.21699 10.5987 6.04405 10.5987C6.38219 10.5987 6.71626 10.6508 7.0544 10.783V11.7242C6.74478 11.56 6.35366 11.4679 6.04405 11.4679Z" fill="#6772E5"/>
</svg>
